<svg width="600" height="600" viewBox="0 0 600 600" fill="none" xmlns="http://www.w3.org/2000/svg">
<g filter="url(#filter0_d_16_1589)">
<path d="M279.744 134.718H280.187C290.234 134.718 299.875 130.724 306.979 123.619C314.083 116.515 318.072 106.879 318.072 96.8328V77.8848C318.072 64.3541 310.854 51.8434 299.13 45.0781C287.411 38.3073 272.968 38.3073 261.244 45.0781C249.52 51.8437 242.302 64.3541 242.302 77.8848V96.8328C242.302 106.802 246.234 116.374 253.239 123.463C260.25 130.557 269.775 134.599 279.745 134.719L279.744 134.718ZM254.489 77.8904V77.8852C254.489 68.8644 259.302 60.5252 267.12 56.0158C274.932 51.5002 284.562 51.5002 292.374 56.0158C300.187 60.5262 305.005 68.8648 305.005 77.8852V96.8332C305.005 103.531 302.343 109.953 297.603 114.693C292.869 119.428 286.442 122.089 279.743 122.089H279.301C272.603 122.089 266.181 119.428 261.441 114.693C256.706 109.954 254.045 103.532 254.045 96.8332L254.489 77.8904Z" fill="white"/>
<path d="M328.557 217.625L320.599 207.901L310.812 215.922L329.375 238.463L358.739 196.723L348.447 189.463L328.557 217.625Z" fill="white"/>
<path d="M343.13 159.985V143.63L317.876 126.39L279.99 158.469L242.105 126.39L216.85 143.63L216.845 223.13H284.476C287.721 234.709 294.986 244.745 304.971 251.442C314.955 258.145 326.997 261.062 338.94 259.677C350.883 258.286 361.94 252.687 370.123 243.879C378.31 235.067 383.081 223.629 383.587 211.619C384.092 199.609 380.295 187.807 372.884 178.343C365.467 168.88 354.919 162.37 343.134 159.983L343.13 159.985ZM229.469 210.501L229.474 150.324L241.157 142.24L279.99 175.011L318.761 142.24L330.505 150.324V159.1C317.547 159.751 305.339 165.36 296.407 174.761C287.474 184.167 282.5 196.646 282.516 209.616V210.626L229.469 210.501ZM333.026 247.376H333.032C322.98 247.376 313.344 243.386 306.24 236.282C299.136 229.178 295.141 219.537 295.141 209.49C295.141 199.443 299.135 189.807 306.24 182.703C313.344 175.594 322.98 171.604 333.032 171.604C343.079 171.604 352.714 175.594 359.818 182.703C366.922 189.807 370.917 199.443 370.917 209.49C370.917 219.537 366.922 229.178 359.818 236.282C352.714 243.386 343.078 247.376 333.032 247.376H333.026Z" fill="white"/>
<path d="M92.8905 435.665H93.3332C103.38 435.665 113.021 431.676 120.125 424.571C127.229 417.462 131.219 407.826 131.219 397.779V378.582C131.219 365.051 124 352.541 112.276 345.775C100.557 339.005 86.1149 339.005 74.3909 345.775C62.6669 352.541 55.4482 365.051 55.4482 378.582V397.967C55.4951 407.91 59.4483 417.431 66.4535 424.483C73.4587 431.536 82.9535 435.551 92.8908 435.666L92.8905 435.665ZM67.6358 378.837C67.6358 369.811 72.4483 361.473 80.2661 356.962C88.0786 352.452 97.7088 352.452 105.521 356.962C113.338 361.473 118.151 369.811 118.151 378.837V398.222C118.151 404.92 115.49 411.342 110.75 416.082C106.016 420.817 99.5937 423.478 92.89 423.478H92.4472C85.7494 423.478 79.3275 420.817 74.5872 416.082C69.8528 411.343 67.1914 404.921 67.1914 398.222L67.6358 378.837Z" fill="white"/>
<path d="M141.704 518.572L133.683 508.843L123.959 516.863L142.459 539.405L171.886 497.67L161.532 490.404L141.704 518.572Z" fill="white"/>
<path d="M156.29 460.932V444.577L131.036 427.337L93.1504 459.416L55.2651 427.337L30.0104 444.577L30 524.072H97.6307C100.875 535.65 108.141 545.692 118.125 552.389C128.11 559.087 140.156 562.004 152.099 560.618C164.041 559.233 175.093 553.629 183.276 544.821C191.463 536.014 196.234 524.576 196.74 512.561C197.245 500.55 193.448 488.754 186.037 479.285C178.62 469.821 168.073 463.312 156.292 460.93L156.29 460.932ZM42.6291 511.448V451.208L54.3113 443.187L93.1447 475.708L131.915 443L143.66 451.021V459.86C130.702 460.505 118.493 466.115 109.561 475.516C100.629 484.922 95.6548 497.401 95.6708 510.37V511.381L42.6291 511.448ZM146.186 548.322C136.134 548.322 126.498 544.328 119.394 537.223C112.29 530.119 108.301 520.483 108.301 510.437C108.301 500.385 112.29 490.749 119.394 483.645C126.499 476.541 136.134 472.546 146.186 472.546C156.233 472.546 165.869 476.541 172.973 483.645C180.082 490.749 184.072 500.385 184.072 510.437C184.072 520.484 180.082 530.119 172.973 537.223C165.869 544.328 156.233 548.322 146.186 548.322Z" fill="white"/>
<path d="M466.584 435.665H467.089C477.136 435.665 486.777 431.676 493.881 424.571C500.985 417.462 504.975 407.826 504.975 397.779V378.582C504.975 365.051 497.756 352.541 486.032 345.775C474.313 339.005 459.871 339.005 448.147 345.775C436.423 352.541 429.204 365.051 429.204 378.582V397.967C429.251 407.9 433.199 417.41 440.188 424.462C447.178 431.509 456.658 435.535 466.584 435.665H466.584ZM441.329 378.837C441.329 369.811 446.142 361.473 453.959 356.962C461.772 352.452 471.402 352.452 479.214 356.962C487.026 361.473 491.844 369.811 491.844 378.837V398.222C491.844 404.92 489.183 411.342 484.443 416.082C479.709 420.817 473.282 423.478 466.583 423.478H466.078C459.38 423.478 452.958 420.817 448.218 416.082C443.484 411.343 440.822 404.921 440.822 398.222L441.329 378.837Z" fill="white"/>
<path d="M515.397 518.572L507.439 508.843L497.652 516.863L516.215 539.405L545.579 497.67L535.287 490.404L515.397 518.572Z" fill="white"/>
<path d="M529.984 460.932V444.577L504.729 427.337L466.844 459.416L428.959 427.337L403.704 444.577L403.699 524.072H471.329C474.569 535.65 481.84 545.692 491.824 552.389C501.808 559.087 513.851 562.004 525.793 560.618C537.736 559.233 548.793 553.629 556.976 544.821C565.164 536.014 569.934 524.576 570.44 512.561C570.945 500.55 567.148 488.754 559.737 479.285C552.32 469.821 541.773 463.312 529.988 460.93L529.984 460.932ZM416.323 511.448L416.328 451.208L428.073 443.187L466.843 475.708L505.614 443L517.359 451.021V459.86C504.4 460.505 492.192 466.115 483.26 475.516C474.328 484.922 469.353 497.401 469.369 510.37V511.381L416.323 511.448ZM519.88 548.322H519.885C509.833 548.322 500.197 544.328 493.093 537.223C485.989 530.119 481.994 520.483 481.994 510.437C481.994 500.385 485.989 490.749 493.093 483.645C500.197 476.541 509.833 472.546 519.885 472.546C529.932 472.546 539.568 476.541 546.672 483.645C553.776 490.749 557.771 500.385 557.771 510.437C557.771 520.484 553.776 530.119 546.672 537.223C539.568 544.328 529.932 548.322 519.885 548.322H519.88Z" fill="white"/>
<path d="M306.517 365.198C306.496 360.454 304.949 355.844 302.111 352.047C299.267 348.245 295.277 345.464 290.73 344.11V267.323H278.1V344.11C273.553 345.464 269.564 348.245 266.72 352.047C263.881 355.844 262.334 360.454 262.314 365.198C262.319 368.469 263.032 371.698 264.397 374.672L195.569 431.5L203.59 441.224L273.048 384.396C276.512 386.36 280.434 387.365 284.413 387.297C288.501 387.282 292.507 386.126 295.97 383.954L365.429 440.782L373.257 431.5L304.372 374.672C305.788 371.714 306.523 368.48 306.518 365.198L306.517 365.198ZM284.413 374.672C280.585 374.672 277.132 372.365 275.663 368.823C274.199 365.282 275.007 361.209 277.72 358.5C280.428 355.792 284.501 354.985 288.038 356.448C291.58 357.912 293.887 361.37 293.887 365.198C293.887 370.428 289.647 374.672 284.413 374.672Z" fill="white"/>
</g>
<defs>
<filter id="filter0_d_16_1589" x="5" y="25" width="580.485" height="560.955" filterUnits="userSpaceOnUse" color-interpolation-filters="sRGB">
<feFlood flood-opacity="0" result="BackgroundImageFix"/>
<feColorMatrix in="SourceAlpha" type="matrix" values="0 0 0 0 0 0 0 0 0 0 0 0 0 0 0 0 0 0 127 0" result="hardAlpha"/>
<feOffset dx="-5" dy="5"/>
<feGaussianBlur stdDeviation="10"/>
<feComposite in2="hardAlpha" operator="out"/>
<feColorMatrix type="matrix" values="0 0 0 0 0 0 0 0 0 0 0 0 0 0 0 0 0 0 0.4 0"/>
<feBlend mode="normal" in2="BackgroundImageFix" result="effect1_dropShadow_16_1589"/>
<feBlend mode="normal" in="SourceGraphic" in2="effect1_dropShadow_16_1589" result="shape"/>
</filter>
</defs>
</svg>
