<svg width="1144" height="1173" viewBox="0 0 1144 1173" fill="none" xmlns="http://www.w3.org/2000/svg">
<path d="M1 51.6331C13.9102 41.8802 37.6205 54.2433 52.2656 61.4017C66.9107 68.5601 77.7422 81.2045 86.7136 94.4116C109.752 128.328 122.662 167.527 140.855 204.038C159.048 240.549 184.9 276.232 223.458 292.658C283.68 318.307 352.216 289.97 413.892 267.776C430.037 261.977 447.183 256.491 464.188 259.117C485.992 262.478 503.622 278.873 513.766 297.676C523.91 316.478 527.833 337.703 532.115 358.475C545.869 425.355 565.766 493.891 612.265 545.437C658.763 596.984 761.216 643.904 873.751 602.314" stroke="#7B3FE4" stroke-width="0.5" stroke-miterlimit="10"/>
<path d="M9.18945 62.1678C22.0996 52.4461 41.168 52.9775 55.8131 60.1515C70.4582 67.3256 81.3521 79.9387 90.3236 93.0833C113.362 127.015 126.272 166.214 144.465 202.725C162.658 239.236 188.51 274.919 227.068 291.346C287.29 317.056 355.795 288.72 417.501 266.573C433.647 260.758 450.777 255.288 467.798 257.914C489.68 261.259 507.232 277.654 517.376 296.472C527.519 315.29 531.442 336.484 535.725 357.256C549.479 424.151 569.376 492.687 615.875 544.234C662.373 595.781 764.826 642.701 877.36 601.11" stroke="#7B3FE4" stroke-width="0.5" stroke-miterlimit="10"/>
<path opacity="0.98" d="M875.564 604.94C812.404 626.821 752.667 619.147 704.34 598.594C669.861 583.918 641.274 562.739 621.955 540.764C604.387 520.519 589.663 497.971 578.192 473.744C573.691 464.366 569.564 454.988 565.688 445.36C556.89 422.939 549.478 399.998 543.494 376.668C541.723 369.916 540.04 363.185 538.446 356.474C535.069 342.408 531.865 327.997 526.583 314.478C524.443 308.899 521.861 303.5 518.861 298.332C513.649 289.466 506.981 281.54 499.137 274.888C490.368 267.495 480.381 261.899 469.346 259.789C465.147 259.017 460.875 258.708 456.608 258.867C444.464 259.242 432.413 262.9 420.894 266.682C409.375 270.464 397.699 274.497 385.836 278.357C355.655 288.11 324.568 296.488 293.715 296.597C273.707 296.944 253.851 293.061 235.447 285.203C223.24 279.801 211.888 272.645 201.749 263.962C180.399 245.926 164.035 222.294 151.062 198.318C137.964 174.139 127.351 148.756 114.316 124.342C108.354 113.031 101.688 102.105 94.357 91.6294C85.1199 78.5942 74.0383 66.0436 59.2682 58.8071C44.4981 51.5705 25.4766 50.7421 12.3789 59.9793" stroke="#7B3FE4" stroke-width="0.5" stroke-miterlimit="10"/>
<path opacity="0.95" d="M875.188 608.237C814.451 627.775 757.168 618.272 710.169 596.437C676.721 580.901 648.682 559.207 629.442 536.747C612.005 516.17 597.184 493.511 585.319 469.29C580.63 459.99 576.347 450.534 572.315 441.156C563.052 419.385 555.042 397.103 548.323 374.417C546.385 367.947 544.541 361.476 542.774 355.052C539.055 341.595 535.538 327.888 530.005 315.025C527.751 309.682 525.065 304.533 521.971 299.629C516.433 291.069 509.623 283.4 501.778 276.888C492.916 269.464 483.147 263.572 472.503 261.165C468.476 260.262 464.36 259.817 460.234 259.836C448.558 259.836 436.977 262.962 425.848 266.338C414.72 269.714 403.56 273.2 392.166 276.56C363.173 285.063 333.304 292.19 303.076 291.236C269.43 290.818 236.96 278.793 211.158 257.195C189.448 239.377 172.584 216.558 159.017 193.395C145.372 170.028 134.119 145.552 120.49 121.748C114.215 110.652 107.306 99.9285 99.7957 89.6293C90.2772 76.7817 78.9769 64.3248 64.1286 57.0102C49.2804 49.6955 30.2433 48.6014 17.0986 57.3227" stroke="#7B3FE4" stroke-width="0.5" stroke-miterlimit="10"/>
<path opacity="0.93" d="M876.141 611.035C817.826 628.228 762.997 616.896 717.327 593.842C684.927 577.447 657.465 555.206 638.24 532.308C620.966 511.362 606.035 488.59 593.711 464.397C588.913 455.129 584.427 445.72 580.145 436.42C570.445 415.363 561.842 393.817 554.371 371.87C552.287 365.618 550.276 359.444 548.338 353.348C544.259 340.407 540.382 327.372 534.631 315.149C532.264 310.051 529.478 305.157 526.3 300.52C520.44 292.265 513.489 284.841 505.637 278.451C496.666 270.996 487.147 264.838 476.879 262.087C473.019 261.063 469.054 260.492 465.063 260.383C453.872 260.008 442.759 262.665 432.24 265.525C421.721 268.385 410.874 271.418 399.933 274.278C372.128 281.561 343.479 287.344 313.782 285.422C293.917 284.252 274.437 279.442 256.311 271.23C244.047 265.528 232.526 258.347 222.004 249.849C199.919 232.234 182.555 210.149 168.394 187.861C154.187 165.323 142.292 141.769 128.085 118.544C121.496 107.671 114.338 97.153 106.641 87.0341C96.7783 74.3271 85.2592 61.9328 70.3172 54.5556C55.3751 47.1784 36.338 45.7873 23.0684 54.0086" stroke="#7B3FE4" stroke-width="0.5" stroke-miterlimit="10"/>
<path opacity="0.9" d="M878.33 613.411C822.438 628.259 770.094 615.114 725.721 590.701C694.461 573.508 667.453 550.673 648.307 527.307C631.141 506.045 616.091 483.159 603.371 458.974C598.417 449.721 593.728 440.359 589.304 431.184C578.66 409.475 569.486 388.984 561.749 368.665C559.478 362.747 557.295 356.849 555.2 350.973C550.793 338.641 546.572 326.262 540.571 314.68C538.096 309.82 535.215 305.177 531.959 300.801C525.768 292.884 518.676 285.713 510.827 279.436C501.731 271.949 492.478 265.494 482.584 262.415C478.894 261.286 475.087 260.583 471.237 260.32C460.499 259.57 449.871 261.743 439.727 264.118C429.584 266.494 419.284 269.042 408.812 271.418C382.241 277.466 354.748 281.952 325.63 278.998C305.881 277.054 286.607 271.769 268.628 263.368C256.292 257.56 244.639 250.4 233.883 242.018C211.439 224.622 193.527 203.35 178.82 181.859C164.112 160.369 151.515 137.502 136.713 114.855C129.883 104.461 122.646 94.068 114.519 83.9712C104.469 71.4674 92.7466 59.1981 77.6952 51.7428C62.6437 44.2874 43.6379 42.6307 30.2432 50.3205" stroke="#7B3FE4" stroke-width="0.5" stroke-miterlimit="10"/>
<path opacity="0.88" d="M881.675 615.443C828.221 627.946 778.347 612.989 735.271 587.309C706.406 570.156 680.767 548.082 659.513 522.087C642.49 500.484 627.327 477.478 614.187 453.316C609.092 444.079 604.215 434.764 599.495 425.73C588.289 404.333 578.458 384.624 570.142 365.337C567.704 359.679 565.36 354.057 563.109 348.472C558.42 336.75 553.731 325.028 547.479 314.087C544.921 309.467 541.972 305.074 538.664 300.958C532.15 293.378 524.916 286.448 517.064 280.264C507.858 272.746 498.855 266.01 489.337 262.603C485.8 261.349 482.128 260.52 478.396 260.133C468.127 258.977 457.968 260.665 448.277 262.571C438.587 264.478 428.74 266.51 418.737 268.401C393.307 273.215 367.159 276.435 338.541 272.418C318.935 269.722 299.865 264.006 282.008 255.476C269.688 249.47 257.992 242.261 247.091 233.953C224.271 216.761 205.844 196.286 190.558 175.608C175.272 154.93 162.065 132.939 146.685 110.901C139.574 100.773 132.071 90.5824 123.741 80.6107C113.41 68.2789 101.484 56.1033 86.3388 48.5855C71.1935 41.0676 52.1877 39.2077 38.6836 46.2879" stroke="#7B3FE4" stroke-width="0.5" stroke-miterlimit="10"/>
<path opacity="0.85" d="M886.114 617.193C835.098 627.337 787.646 610.613 745.915 583.558C717.732 565.375 692.703 542.717 671.814 516.476C654.913 494.536 639.624 471.401 626.066 447.252C620.814 438.046 615.766 428.777 610.796 419.884C599.058 398.8 588.554 379.919 579.677 361.554C577.072 356.157 574.555 350.817 572.127 345.534C567.017 334.405 562.124 323.324 555.654 313.04C552.936 308.665 549.851 304.529 546.432 300.677C539.602 293.439 532.224 286.74 524.363 280.639C514.985 273.09 506.311 266.072 497.167 262.337C493.816 260.979 490.317 260.019 486.742 259.477C476.942 257.914 467.252 259.148 458.015 260.571C448.777 261.993 439.415 263.525 429.881 264.931C405.639 268.526 380.647 270.449 352.67 265.4C333.222 261.92 314.353 255.75 296.606 247.067C284.245 240.924 272.451 233.701 261.361 225.482C239.615 209.294 220.115 190.289 203.374 168.965C187.401 148.975 173.678 128.078 157.704 106.618C150.311 96.7717 142.559 86.7687 134.01 76.922C123.413 64.7621 111.268 52.6804 96.0292 45.0844C80.7902 37.4884 61.8001 35.2846 48.1553 41.9584" stroke="#7B3FE4" stroke-width="0.5" stroke-miterlimit="10"/>
<path opacity="0.83" d="M891.553 618.756C842.96 626.571 798.056 608.05 757.559 579.682C730.101 560.457 705.681 537.223 685.115 510.755C668.338 488.484 652.92 465.221 638.945 441.094C633.552 431.888 628.316 422.682 623.127 413.914C610.842 393.157 599.683 375.105 590.211 357.647C587.429 352.52 584.751 347.456 582.177 342.455C576.723 331.936 571.471 321.511 564.766 311.867C561.93 307.737 558.745 303.857 555.247 300.27C549.136 294.018 541.18 287.766 532.709 280.936C523.331 273.372 514.813 266.072 506.029 262.009C502.848 260.542 499.507 259.451 496.073 258.758C486.695 256.835 477.52 257.554 468.737 258.492C459.953 259.43 451.059 260.477 441.978 261.399C418.909 263.744 395.089 264.4 367.753 258.273C348.477 254.01 329.8 247.391 312.142 238.564C299.759 232.261 287.877 225.019 276.6 216.901C254.68 201.115 234.739 182.748 217.207 162.198C200.608 143.098 186.275 123.045 169.692 102.211C162.049 92.6144 154.062 82.8302 145.247 73.1554C134.306 61.1674 122.037 49.1795 106.689 41.5053C91.3401 33.8311 72.303 31.3616 58.6113 37.4885" stroke="#7B3FE4" stroke-width="0.5" stroke-miterlimit="10"/>
<path opacity="0.8" d="M897.899 620.178C851.744 625.602 809.341 605.361 770.126 575.618C743.407 555.362 719.585 531.545 699.323 504.831C682.458 482.262 667.188 458.505 652.762 434.732C647.213 425.557 641.821 416.399 636.366 407.755C623.55 387.327 611.718 370.103 601.668 353.583C598.73 348.738 595.885 343.939 593.134 339.235C587.335 329.31 581.756 319.541 574.8 310.523C571.831 306.65 568.548 303.027 564.985 299.692C558.733 293.846 550.621 287.938 541.978 281.045C532.459 273.449 524.223 265.869 515.814 261.477C512.8 259.906 509.617 258.684 506.326 257.835C497.464 255.538 488.712 255.788 480.381 256.272C472.05 256.757 463.626 257.288 455.014 257.726C433.132 258.851 410.594 258.21 383.773 251.083C364.693 246.037 346.207 238.963 328.632 229.983C316.214 223.546 304.236 216.294 292.777 208.274C270.624 192.875 250.189 175.143 231.821 155.383C214.628 137.08 199.749 117.872 182.556 97.6938C174.647 88.316 166.363 78.7819 157.376 69.2634C146.357 57.3849 133.728 45.4907 118.224 37.7384C102.719 29.9861 83.8382 27.2509 69.9434 32.8619" stroke="#7B3FE4" stroke-width="0.5" stroke-miterlimit="10"/>
<path opacity="0.78" d="M905.088 621.538C861.324 624.664 821.453 602.642 783.519 571.523C757.571 550.249 734.347 525.854 714.373 498.892C697.65 476.042 682.239 452.081 667.484 428.356C661.795 419.197 656.184 410.084 650.526 401.582C637.131 381.467 624.627 365.04 613.968 349.41C610.842 344.836 607.831 340.334 604.934 335.906C599.092 326.571 592.66 317.618 585.678 309.101C582.586 305.472 579.204 302.101 575.565 299.02C569.063 293.55 560.827 287.97 552.121 281.061C542.477 273.434 534.506 265.572 526.472 260.852C523.625 259.167 520.594 257.814 517.438 256.82C509.045 254.132 500.777 253.897 492.9 253.85C485.022 253.803 477.051 253.85 468.908 253.85C445.765 254.024 422.736 250.586 400.653 243.66C381.78 237.82 363.471 230.292 345.949 221.169C333.497 214.578 321.423 207.299 309.781 199.365C287.44 184.336 266.56 167.24 247.419 148.303C229.71 130.907 214.143 112.667 196.372 93.0833C188.166 84.0181 179.632 74.6403 170.442 65.2624C159.017 53.634 146.263 41.8179 130.711 34.0031C115.159 26.1882 96.2162 23.1717 82.2588 28.2514" stroke="#7B3FE4" stroke-width="0.5" stroke-miterlimit="10"/>
<path opacity="0.76" d="M913.044 622.929C871.75 623.648 834.332 599.969 797.665 567.459C772.527 545.161 749.901 520.183 730.191 492.968C713.608 469.758 698.087 445.689 682.817 421.994C676.972 412.851 671.173 403.785 665.296 395.424C651.37 375.621 638.21 360.069 627.019 345.409C623.737 341.095 620.559 336.87 617.485 332.733C611.294 324.009 604.555 315.687 597.307 307.819C594.092 304.422 590.611 301.286 586.897 298.441C580.208 293.362 571.783 288.11 562.952 281.155C553.199 273.512 545.494 265.385 537.82 260.305C535.143 258.543 532.282 257.081 529.286 255.944C521.346 252.818 513.562 252.146 506.138 251.615C498.714 251.083 491.212 250.677 483.538 250.146C461.223 248.759 439.23 244.125 418.252 236.392C399.632 229.754 381.516 221.778 364.048 212.525C351.45 205.836 339.244 198.286 327.584 190.643C305.026 175.962 283.681 159.499 263.752 141.41C245.449 124.827 229.194 107.462 210.876 88.3939C202.405 79.5944 193.683 70.4198 184.212 61.1826C172.521 49.7261 159.548 38.0038 143.903 30.1108C128.257 22.2178 109.314 18.9356 95.2002 23.5151" stroke="#7B3FE4" stroke-width="0.5" stroke-miterlimit="10"/>
<path opacity="0.73" d="M921.671 624.492C882.8 622.929 847.899 597.484 812.498 563.537C788.182 540.241 766.144 514.68 746.681 487.201C730.238 463.757 714.515 439.437 698.901 415.774C692.899 406.661 686.912 397.627 680.801 389.406C666.344 369.932 652.527 355.208 640.758 341.439C637.298 337.375 633.954 333.426 630.724 329.591C624.179 321.488 617.132 313.804 609.623 306.585C606.266 303.468 602.682 300.605 598.901 298.019C592.024 293.331 583.412 288.392 574.488 281.421C564.641 273.747 557.185 265.338 549.886 259.93C547.356 258.053 544.638 256.445 541.774 255.132C534.303 251.662 526.989 250.443 520.034 249.458C513.078 248.473 505.967 247.536 498.808 246.52C480.475 243.941 461.625 239.471 436.508 229.218C418.149 221.82 400.21 213.419 382.773 204.054C370.144 197.208 357.765 189.643 345.996 182.172C323.234 167.774 301.446 151.891 280.773 134.627C261.861 118.856 245.012 102.461 226.069 83.9246C217.332 75.3908 208.282 66.4193 198.654 57.3541C186.698 46.0851 173.522 34.4566 157.767 26.4855C142.012 18.5144 123.1 14.9352 108.846 18.9833" stroke="#7B3FE4" stroke-width="0.5" stroke-miterlimit="10"/>
<path opacity="0.71" d="M930.971 626.29C894.522 622.304 862.122 595.234 828.002 559.895C804.536 535.624 783.079 509.489 763.842 481.747C747.54 457.958 731.676 433.529 715.64 409.85C709.513 400.738 703.339 391.766 696.993 383.67C681.989 364.508 667.5 350.614 655.168 337.782L644.618 326.841C637.711 319.312 630.329 312.232 622.517 305.647C619.054 302.794 615.398 300.183 611.577 297.832C604.496 293.534 595.728 288.908 586.71 281.921C576.738 274.216 569.517 265.541 562.624 259.789C560.247 257.821 557.688 256.084 554.981 254.6C548.576 251.305 541.735 248.937 534.663 247.567C528.207 246.004 521.58 244.676 514.828 243.175C497.636 239.377 480.052 233.625 455.513 222.325C439.993 215.167 421.644 206.43 402.247 195.755C389.587 188.768 377.24 181.172 365.158 173.764C342.146 159.718 319.871 144.5 298.419 128.172C278.991 113.23 261.517 97.663 241.98 79.7201C232.961 71.452 223.661 62.6837 213.846 53.7279C201.623 42.6152 188.244 31.0962 172.38 23.0469C156.516 14.9976 137.635 11.1839 123.271 14.7163" stroke="#7B3FE4" stroke-width="0.5" stroke-miterlimit="10"/>
<path opacity="0.68" d="M940.63 628.54C906.619 622.288 876.688 593.483 843.866 556.644C821.263 531.389 800.376 504.65 781.347 476.604C765.17 452.519 749.165 427.902 732.738 404.301C726.486 395.22 720.094 386.296 713.529 378.34C697.977 359.491 682.817 346.44 669.906 334.577L658.887 324.402C651.646 317.522 643.977 311.107 635.927 305.193C632.31 302.604 628.53 300.25 624.611 298.144C617.343 294.237 608.388 289.923 599.276 282.921C589.194 275.184 582.255 266.229 575.706 260.149C573.483 258.082 571.082 256.215 568.532 254.569C562.624 250.961 556.257 248.165 549.604 246.254C543.587 244.269 537.429 242.378 531.145 240.393C515.172 235.36 498.792 228.342 474.878 215.979C459.749 208.164 441.509 198.943 422.065 187.971C409.405 180.844 396.854 173.216 384.679 165.917C358.921 150.46 336.477 136.221 316.471 122.154C296.464 108.088 278.271 93.3173 258.156 76.0309C248.856 68.0754 239.306 59.4634 229.194 50.6483C216.69 39.7075 203.108 28.2822 187.15 20.1547C171.192 12.0273 152.311 7.94793 137.822 10.9801" stroke="#7B3FE4" stroke-width="0.5" stroke-miterlimit="10"/>
<path opacity="0.66" d="M950.789 631.291C919.201 622.617 891.771 592.217 860.246 553.987C838.529 527.789 818.214 500.462 799.384 472.119C783.363 447.721 767.202 422.948 750.384 399.378C743.945 390.313 737.396 381.435 730.597 373.605C714.514 355.083 698.681 342.861 685.271 331.873C681.322 328.643 677.477 325.517 673.736 322.496C666.154 316.218 658.177 310.433 649.854 305.178C646.105 302.874 642.228 300.787 638.241 298.926C630.77 295.394 621.642 291.408 612.436 284.375C602.245 276.56 595.571 267.385 589.382 260.93C587.304 258.769 585.057 256.778 582.661 254.975C577.234 251.014 571.339 247.738 565.109 245.222C559.545 242.769 553.856 240.393 548.041 237.908C533.256 231.656 518.095 223.372 494.681 209.946C479.942 201.491 461.859 191.738 442.337 180.562C429.646 173.279 417.001 165.636 404.638 158.431C378.458 143.239 355.498 129.797 334.898 116.528C314.116 103.043 294.085 88.433 274.896 72.7642C265.314 65.0275 255.515 56.6656 245.199 47.9912C232.429 37.2379 218.628 25.8908 202.577 17.7008C186.525 9.51093 167.644 5.19714 153.046 7.63537" stroke="#7B3FE4" stroke-width="0.5" stroke-miterlimit="10"/>
<path opacity="0.63" d="M961.308 634.62C932.158 623.601 907.198 591.592 876.907 551.783C857.323 526.025 836.176 496.751 817.764 468.195C801.869 443.438 785.614 418.493 768.421 394.955C762.123 386.064 755.34 377.528 748.102 369.385C731.472 351.192 714.983 339.782 700.916 329.716C696.79 326.778 692.773 323.934 688.881 321.23C680.947 315.573 672.662 310.426 664.077 305.819C660.576 303.99 656.653 302.114 652.167 300.286C644.477 297.16 635.193 293.471 625.878 286.422C615.593 278.607 609.169 269.136 603.355 262.368C601.41 260.121 599.321 258.001 597.103 256.023C592.128 251.749 586.704 248.028 580.926 244.925C575.815 241.987 570.595 239.111 565.297 236.142C551.699 228.655 537.757 219.105 514.922 204.632C500.433 195.536 482.396 185.298 462.906 173.857C450.199 166.449 437.429 158.775 424.91 151.663C398.339 136.643 374.895 123.983 353.779 111.526C332.371 98.9715 311.734 85.1458 291.979 70.1233C282.117 62.6523 272.067 54.4936 261.563 45.9598C248.528 35.3785 234.524 24.0783 218.363 15.8727C202.202 7.66716 183.352 2.96262 168.613 4.93196" stroke="#7B3FE4" stroke-width="0.5" stroke-miterlimit="10"/>
<path opacity="0.61" d="M972.094 638.559C945.382 625.18 922.876 591.561 893.945 550.345C875.345 523.775 854.73 493.859 836.396 464.773C820.641 439.765 804.199 414.648 786.584 391.141C780.135 382.269 773.151 373.797 765.671 365.774C748.479 347.894 731.286 337.328 716.703 328.185C712.41 325.517 708.242 322.964 704.199 320.526C695.921 315.476 687.328 310.96 678.473 307.007C674.878 305.444 670.846 303.881 666.25 302.24C658.436 299.504 648.901 296.144 639.508 289.064C629.098 281.249 622.94 271.48 617.501 264.369C615.695 262.017 613.759 259.768 611.703 257.632C607.181 253.012 602.236 248.826 596.932 245.129C592.244 241.69 587.555 238.33 582.631 234.876C570.221 226.154 557.514 215.339 535.257 199.818C521.284 190.065 503.404 179.296 483.835 167.652C471.097 160.291 458.203 152.476 445.511 145.505C418.659 130.704 394.715 118.825 372.989 107.15C350.935 95.5357 329.669 82.4828 309.329 68.0756C299.185 60.8859 288.885 52.9148 278.179 44.5373C264.862 34.1279 250.655 22.9683 234.416 14.6221C218.176 6.2758 199.311 1.38372 184.4 2.85291" stroke="#7B3FE4" stroke-width="0.5" stroke-miterlimit="10"/>
<path opacity="0.59" d="M983.08 643.326C958.776 627.602 938.723 592.358 911.183 549.642C893.616 522.43 873.563 491.812 855.307 462.225C839.824 436.708 823.058 411.992 805.073 388.171C798.493 379.302 791.318 370.889 783.598 362.992C765.889 345.424 748.056 335.703 732.848 327.481C728.378 325.074 724.033 322.798 719.813 320.651C711.216 316.211 702.34 312.331 693.242 309.038C689.553 307.741 685.427 306.381 680.738 305.022C672.642 302.677 663.014 299.629 653.527 292.518C643.008 284.703 637.1 274.637 632.02 267.182C630.129 264.384 628.316 262.056 626.706 260.055C622.594 255.13 618.122 250.517 613.327 246.254C609.123 242.347 604.824 238.439 600.417 234.563C589.179 224.591 577.707 212.525 556.013 195.926C542.43 185.548 524.659 174.248 505.06 162.401C492.306 154.695 479.317 146.959 466.438 140.066C439.227 125.468 414.782 114.371 392.4 103.571C369.72 92.8914 347.825 80.6174 326.88 66.8407C316.455 59.9012 305.905 52.1488 294.98 43.8964C281.382 33.6746 266.971 22.6088 250.607 14.2C234.243 5.79119 215.409 0.617769 200.451 1.55555" stroke="#7B3FE4" stroke-width="0.5" stroke-miterlimit="10"/>
<path opacity="0.56" d="M994.163 648.859C972.281 630.776 954.667 593.952 928.424 549.72C911.872 521.821 892.382 490.515 874.205 460.443C858.854 434.607 841.942 409.731 823.564 385.952C816.846 377.084 809.479 368.725 801.526 360.945C783.271 343.752 764.781 334.796 748.979 327.513C744.352 325.366 739.846 323.371 735.459 321.527C726.487 317.71 717.271 314.494 707.873 311.899C704.106 310.867 699.839 309.773 695.072 308.648C686.772 306.694 676.973 303.959 667.376 296.832C656.763 289.017 651.105 278.67 646.401 270.855C644.65 267.948 642.993 265.463 641.54 263.353C637.842 258.075 633.845 253.013 629.567 248.192C625.816 243.785 621.987 239.455 618.033 235.032C607.983 223.841 597.714 210.509 576.614 192.832C563.407 181.797 545.776 169.997 526.13 157.915C513.36 150.1 500.247 142.286 487.212 135.518C459.625 121.139 434.68 110.823 411.704 100.836C388.728 90.8483 367.55 80.7515 344.496 66.4504C333.915 59.714 322.974 52.1492 311.877 44.0374C298.013 33.9875 283.399 23.0155 266.926 14.5286C250.452 6.04166 231.649 0.586891 216.566 1.02453" stroke="#7B3FE4" stroke-width="0.5" stroke-miterlimit="10"/>
<path opacity="0.54" d="M1005.27 655.283C985.831 634.855 970.623 596.437 945.741 550.689C930.111 522.102 911.277 490.124 893.178 459.568C877.952 433.418 860.894 408.379 842.131 384.639C835.279 375.785 827.72 367.5 819.53 359.866C800.775 342.939 781.566 334.858 765.201 328.497C760.398 326.622 755.709 324.902 751.135 323.339C741.824 320.096 732.304 317.485 722.642 315.525C718.781 314.743 714.389 313.962 709.528 313.024C701.026 311.461 691.069 309.038 681.395 301.895C670.657 293.987 665.249 283.437 660.935 275.325C659.372 272.199 657.809 269.667 656.543 267.416C652.73 260.774 649.229 255.772 645.946 250.911C642.664 246.051 639.288 241.19 635.803 236.282C626.941 223.856 617.906 209.274 597.369 190.55C584.553 178.874 567.032 166.558 547.354 154.257C534.569 146.224 521.346 138.409 508.139 131.751C480.177 117.59 454.747 108.056 431.162 98.9286C407.577 89.8008 385.82 80.5793 362.204 66.8096C351.263 60.417 340.166 53.0555 328.803 45.0843C314.673 35.2533 299.841 24.3125 283.273 15.7787C266.706 7.24491 247.95 1.49319 232.711 1.39941" stroke="#7B3FE4" stroke-width="0.5" stroke-miterlimit="10"/>
<path opacity="0.51" d="M1016.32 662.66C999.32 639.888 986.503 599.891 963.012 552.612C948.461 523.337 930.189 490.687 912.09 459.646C896.998 433.174 879.791 407.965 860.637 384.264C853.642 375.419 845.892 367.198 837.474 359.695C818.124 343.096 798.305 335.859 781.363 330.404C776.392 328.81 771.547 327.372 766.827 326.091C757.169 323.445 747.341 321.466 737.412 320.167L724.001 318.432C715.296 317.291 705.168 315.15 695.383 307.992C684.536 300.052 679.378 289.236 675.44 280.733C673.971 277.607 672.626 274.825 671.501 272.45C668.172 265.385 665.14 259.946 662.311 254.585C659.482 249.224 656.575 243.894 653.558 238.502C645.868 224.842 638.069 209.009 618.094 189.222C605.59 176.89 588.257 164.058 568.548 151.538C555.776 143.339 542.576 135.826 529.004 129.032C500.683 115.09 474.769 106.322 450.574 97.9913C426.645 89.7545 404.013 81.377 379.834 68.2949C368.565 62.1837 357.265 55.0097 345.683 47.1949C331.272 37.5045 316.236 26.7044 299.575 18.0768C282.914 9.44924 264.127 3.44744 248.794 2.83789" stroke="#7B3FE4" stroke-width="0.5" stroke-miterlimit="10"/>
<path opacity="0.49" d="M1027.25 671.069C1012.67 645.936 1002.24 604.377 980.126 555.565C966.575 525.603 948.866 492.265 930.877 460.74C915.916 433.952 898.559 408.575 879.017 384.92C871.877 376.079 863.929 367.921 855.275 360.554C835.394 344.268 814.904 337.859 797.445 333.327C792.303 332.014 787.286 330.842 782.41 329.857C772.398 327.81 762.256 326.463 752.057 325.825C748.024 325.574 743.398 325.277 738.349 324.855C729.44 324.105 719.14 322.277 709.262 315.087C698.321 307.131 693.398 296.05 689.834 287.204C688.522 283.921 687.334 281.03 686.365 278.529C683.504 271.058 680.941 265.119 678.55 259.305C676.158 253.49 673.72 247.645 671.173 241.768C664.671 226.873 658.09 209.774 638.694 188.924C626.643 175.967 609.357 162.604 589.616 149.85C576.814 141.49 563.503 133.937 549.761 127.234C521.064 113.527 494.65 105.587 469.893 98.0376C445.401 90.6448 422.128 83.1738 397.339 70.5919C385.343 64.3897 373.687 57.5497 362.422 50.1014C347.746 40.5829 332.507 29.8922 315.736 21.1865C298.966 12.4807 280.194 6.21322 264.736 5.10352" stroke="#7B3FE4" stroke-width="0.5" stroke-miterlimit="10"/>
<path opacity="0.46" d="M1037.96 680.572C1025.81 653.079 1017.73 609.957 997.037 559.598C984.534 528.964 967.341 494.938 949.445 462.928C934.471 436.092 917.2 409.975 897.179 386.671C889.893 377.836 881.752 369.742 872.874 362.508C852.446 346.534 831.284 340.954 813.2 337.359C807.886 336.317 802.707 335.437 797.664 334.718C787.308 333.268 776.861 332.558 766.404 332.592C762.278 332.592 757.558 332.592 752.338 332.374C743.225 332.03 732.753 330.498 722.782 323.293C711.731 315.306 707.058 303.959 703.885 294.753C702.713 291.361 701.681 288.329 700.869 285.703C698.477 277.889 696.383 271.418 694.476 265.135C692.569 258.852 690.569 252.49 688.49 246.129C683.16 229.999 677.799 211.65 658.997 189.722C647.321 176.124 630.16 162.245 610.372 149.288C597.546 140.78 584.127 133.201 570.219 126.609C541.164 113.105 514.249 105.884 488.866 99.2098C463.859 92.6454 439.898 86.0809 414.531 74.0929C402.271 68.1738 390.372 61.5352 378.895 54.212C363.953 44.8342 348.495 34.2685 331.631 25.4846C314.766 16.7007 296.057 10.2457 280.475 8.52637" stroke="#7B3FE4" stroke-width="0.5" stroke-miterlimit="10"/>
<path opacity="0.44" d="M1048.35 691.231C1038.64 661.394 1032.91 616.709 1013.65 564.803C1002.04 533.543 985.519 498.798 967.717 466.336C952.869 439.202 935.457 412.913 915.029 389.641C907.614 380.8 899.284 372.768 890.178 365.68C869.202 350.051 847.383 345.362 828.706 342.595C823.235 341.814 817.895 341.215 812.685 340.798C801.972 339.947 791.212 339.869 780.488 340.563C776.268 340.829 771.423 341.079 766.171 341.111C756.793 341.111 746.227 339.938 736.146 332.717C724.986 324.699 720.516 313.087 717.766 303.537C716.734 300.02 715.859 296.847 715.233 294.159C713.311 285.875 711.686 278.998 710.216 272.277C708.747 265.557 707.231 258.664 705.621 251.818C701.479 234.469 697.337 214.854 679.051 191.863C667.75 177.624 650.714 163.229 630.895 150.038C618.036 141.388 604.504 133.783 590.43 127.297C561.015 113.996 533.6 107.556 507.592 101.726C481.975 95.9749 457.405 90.3326 431.459 78.9386C418.957 73.2501 406.834 66.7607 395.167 59.5109C379.959 50.3363 364.298 39.8175 347.324 30.9711C330.35 22.1247 311.61 15.3414 295.918 13.1533" stroke="#7B3FE4" stroke-width="0.5" stroke-miterlimit="10"/>
<path opacity="0.41" d="M1058.39 703.156C1051.1 670.975 1047.69 624.711 1029.89 571.273C1019.22 539.295 1003.32 503.894 985.598 470.915C970.89 443.469 953.338 417.008 932.457 393.767C924.883 384.933 916.355 376.966 907.027 370.01C885.505 354.677 863.013 350.77 843.789 349.003C838.131 348.488 832.629 348.175 827.253 348.034C816.187 347.78 805.117 348.339 794.133 349.707C789.819 350.223 784.864 350.738 779.519 351.004C770.001 351.489 759.2 350.551 749.025 343.283C737.756 335.249 733.583 323.371 731.161 313.477C730.285 309.851 729.598 306.522 729.082 303.646C727.644 294.956 726.487 287.626 725.471 280.374C724.455 273.121 723.408 265.775 722.252 258.492C719.313 239.908 716.375 219.058 698.807 194.989C687.866 180.109 670.986 165.183 651.121 151.773C638.229 142.981 624.583 135.35 610.342 128.969C580.568 115.887 552.669 110.213 526.082 105.212C499.902 100.304 474.692 95.5679 448.168 84.7522C435.362 79.392 422.947 73.1404 411.016 66.0435C395.527 57.0408 379.663 46.6314 362.564 37.7069C345.465 28.7823 326.771 21.6864 310.985 18.9512" stroke="#7B3FE4" stroke-width="0.5" stroke-miterlimit="10"/>
<path opacity="0.39" d="M1067.95 716.41C1063.11 681.869 1062.01 634.042 1045.66 579.072C1035.94 546.406 1020.66 510.302 1003.03 476.854C988.443 449.112 970.765 422.479 949.54 399.269C941.817 390.438 933.094 382.534 923.548 375.715C901.494 360.695 878.331 357.615 858.512 356.787C852.698 356.537 847.024 356.506 841.492 356.646C830.087 356.992 818.723 358.188 807.497 360.226C803.089 360.991 798.01 361.789 792.586 362.273C782.849 363.164 771.877 362.523 761.623 355.24C750.229 347.175 746.306 335.046 744.274 324.793C743.524 321.042 742.977 317.588 742.711 314.571C741.742 305.475 741.039 297.676 740.492 289.939C739.945 282.202 739.335 274.309 738.663 266.494C736.897 246.676 735.178 224.576 718.11 199.443C707.576 183.923 690.805 168.481 670.893 154.852C657.979 145.905 644.222 138.241 629.818 131.97C599.652 119.107 571.268 114.199 544.088 110.088C517.346 105.993 491.478 102.18 464.376 91.9426C451.287 86.8976 438.596 80.8736 426.412 73.9215C410.641 65.0908 394.574 54.7752 377.397 45.7881C360.22 36.801 341.448 29.4395 325.568 26.251" stroke="#7B3FE4" stroke-width="0.5" stroke-miterlimit="10"/>
<path opacity="0.37" d="M1076.97 731.071C1074.55 694.185 1075.75 644.78 1060.89 588.263C1052.12 554.925 1037.44 518.164 1019.92 484.2C1005.45 456.161 987.645 429.356 966.014 406.193C958.143 397.327 949.22 389.454 939.443 382.748C916.842 368.056 893.023 365.805 872.641 365.899C866.655 365.899 860.81 366.149 855.105 366.587C843.33 367.532 831.642 369.36 820.141 372.057C815.64 373.104 810.45 374.152 804.933 374.886C794.993 376.184 783.849 375.84 773.502 368.525C761.998 360.429 758.325 348.034 756.668 337.438C756.111 333.921 755.73 330.379 755.527 326.825C755.027 317.338 754.793 309.054 754.699 300.848C754.605 292.643 754.465 284.297 754.246 275.997C753.668 254.96 753.167 231.593 736.694 205.382C726.534 189.237 709.873 173.263 689.929 159.415C676.983 150.326 663.11 142.635 648.542 136.471C618.032 123.827 589.149 119.685 561.359 116.356C534.069 113.167 507.561 110.276 479.881 100.632C466.557 95.8583 453.637 90.0254 441.244 83.1893C425.223 74.5461 408.937 64.3087 391.651 55.2278C374.364 46.147 355.702 38.5353 339.635 34.9092" stroke="#7B3FE4" stroke-width="0.5" stroke-miterlimit="10"/>
<path opacity="0.34" d="M1085.17 747.217C1085.17 707.971 1088.66 657.002 1075.28 598.954C1067.47 564.928 1053.4 527.495 1035.97 493.047C1021.62 464.695 1003.7 437.718 981.674 414.586C973.312 405.755 964.341 397.503 954.541 391.423C931.409 377.043 906.917 375.637 885.958 376.637C879.8 376.95 873.782 377.45 867.921 378.2C855.767 379.73 843.749 382.191 831.972 385.562C826.872 387.032 821.696 388.227 816.468 389.141C806.34 390.86 795.024 390.798 784.583 383.467C772.97 375.34 769.532 362.68 768.266 351.739C767.834 348.108 767.605 344.455 767.578 340.798C767.578 330.889 767.797 322.152 768.156 313.462C768.516 304.772 768.844 295.941 769.094 287.141C769.688 264.869 770.391 240.252 754.511 212.979C744.727 196.177 728.206 179.703 708.232 165.621C695.254 156.387 681.263 148.668 666.531 142.614C635.647 130.11 606.263 126.812 577.879 124.327C550.011 121.889 522.847 119.888 494.588 110.839C481.013 106.353 467.843 100.728 455.217 94.0216C438.915 85.5346 422.394 75.4066 405.045 66.2476C387.696 57.0886 368.987 49.2113 352.811 44.9756" stroke="#7B3FE4" stroke-width="0.5" stroke-miterlimit="10"/>
<path opacity="0.32" d="M1091.3 764.925C1093.74 723.334 1099.49 670.772 1087.63 611.207C1080.7 576.478 1067.31 538.388 1049.96 503.44C1035.75 474.807 1017.67 447.643 995.257 424.542C986.739 415.727 977.595 407.537 967.561 401.582C943.882 387.515 918.718 386.937 897.227 388.875C890.975 389.453 884.723 390.235 878.706 391.251C866.211 393.389 853.9 396.487 841.882 400.519C836.704 402.269 831.427 403.715 826.08 404.848C815.749 406.974 804.199 407.209 793.711 399.863C782.004 391.704 778.8 378.778 777.925 367.494C777.616 363.709 777.543 359.909 777.706 356.115C778.175 345.815 778.863 336.594 779.675 327.419C780.488 318.244 781.238 308.929 781.989 299.645C783.77 276.201 785.677 250.287 770.391 221.934C761.014 204.492 744.587 187.549 724.581 173.201C711.534 163.816 697.388 156.063 682.458 150.116C651.199 137.893 621.393 135.283 592.415 133.72C563.985 132.157 536.148 131.032 507.327 122.561C493.5 118.371 480.077 112.946 467.221 106.353C450.638 97.9753 433.945 87.9254 416.455 78.7039C398.966 69.4824 380.319 61.3081 364.018 56.5723" stroke="#7B3FE4" stroke-width="0.5" stroke-miterlimit="10"/>
<path opacity="0.29" d="M1096.21 784.259C1101.07 740.324 1109.07 686.183 1098.72 625.086C1092.74 589.669 1079.97 550.908 1062.78 515.475C1048.71 486.545 1030.49 459.209 1007.67 436.139C999.007 427.355 989.66 419.197 979.407 413.382C955.181 399.644 929.392 399.894 907.245 402.754C900.758 403.598 894.397 404.661 888.223 405.958C875.372 408.697 862.752 412.428 850.477 417.118C845.217 419.15 839.835 420.852 834.363 422.213C823.844 424.761 812.169 425.339 801.54 417.915C789.709 409.725 786.755 396.534 786.255 384.905C786.087 380.981 786.171 377.05 786.505 373.136C787.458 362.445 788.615 352.739 789.865 343.096C791.115 333.452 792.397 323.621 793.569 313.853C796.539 289.111 799.649 262.009 784.957 232.578C775.923 214.51 759.653 196.989 739.631 182.469C726.598 172.941 712.374 165.159 697.321 159.322C665.624 147.318 635.255 145.474 605.668 144.661C576.675 143.88 548.229 143.723 518.798 135.83C504.718 131.916 491.039 126.683 477.942 120.201C461.093 112.089 444.182 102.133 426.598 92.8331C409.732 83.6999 392.122 76.0138 373.957 69.8574" stroke="#7B3FE4" stroke-width="0.5" stroke-miterlimit="10"/>
<path opacity="0.27" d="M1099.97 805.328C1107.26 759.033 1117.51 703.297 1108.7 640.7C1103.62 604.58 1091.5 565.162 1074.31 529.229C1060.34 499.986 1042 472.494 1018.78 449.518C1009.98 440.75 1000.46 432.638 989.972 426.964C965.199 413.538 938.707 414.617 916.012 418.399C909.354 419.514 902.847 420.864 896.491 422.447C883.278 425.78 870.348 430.149 857.823 435.514C852.487 437.823 847.005 439.776 841.411 441.359C830.689 444.313 818.858 445.142 808.12 437.749C796.179 429.528 793.459 416.071 793.366 404.098C793.322 400.034 793.557 395.971 794.069 391.938C795.491 380.841 797.195 370.666 798.758 360.538C800.321 350.41 802.196 340.095 803.837 329.842C807.995 303.881 812.309 275.513 798.211 245.019C789.552 226.264 773.406 208.258 753.322 193.519C740.258 183.847 725.913 176.035 710.7 170.309C678.706 158.509 647.837 157.446 617.671 157.477C588.115 157.477 559.013 158.275 529.004 150.96C514.677 147.34 500.741 142.32 487.397 135.971C470.408 127.969 453.293 118.091 435.6 108.713C418.587 99.4813 400.92 91.5096 382.74 84.8623" stroke="#7B3FE4" stroke-width="0.5" stroke-miterlimit="10"/>
<path opacity="0.24" d="M1102.59 828.194C1112.31 779.539 1124.8 722.209 1117.51 658.096C1113.34 621.288 1101.88 581.198 1084.83 544.781C1070.98 515.241 1052.52 487.576 1028.89 464.569C1019.95 455.817 1010.23 447.752 999.524 442.219C974.203 429.106 947.039 431.028 923.782 435.733C916.957 437.108 910.283 438.733 903.76 440.609C890.188 444.538 876.949 449.539 864.17 455.567C858.755 458.143 853.173 460.352 847.462 462.178C836.521 465.554 824.517 466.664 813.701 459.24C801.651 451.003 799.166 437.264 799.463 424.948C799.554 420.758 799.94 416.58 800.619 412.444C802.542 400.941 804.636 390.297 806.777 379.622C808.919 368.947 811.138 358.209 813.248 347.472C818.593 320.261 824.189 290.642 810.607 259.086C802.323 239.736 786.318 221.168 766.187 206.211C753.09 196.4 738.624 188.564 723.252 182.954C690.898 171.388 659.529 171.075 628.754 172.013C598.636 172.857 568.892 174.608 538.305 167.824C523.726 164.51 509.531 159.691 495.948 153.445C478.568 145.63 461.25 135.908 443.463 126.468C426.272 117.147 408.525 108.89 390.322 101.742" stroke="#7B3FE4" stroke-width="0.5" stroke-miterlimit="10"/>
<path opacity="0.22" d="M1103.99 852.92C1116.15 801.92 1130.86 742.981 1125.14 677.367C1121.34 637.511 1110.85 598.579 1094.11 562.208C1080.38 532.371 1061.79 504.519 1037.77 481.543C1028.67 472.822 1018.78 464.804 1007.82 459.396C981.97 446.611 954.149 449.362 930.314 454.988C923.312 456.645 916.466 458.547 909.776 460.693C895.847 465.239 882.3 470.884 869.264 477.573C863.777 480.43 858.094 482.896 852.259 484.95C841.146 488.733 828.955 490.124 818.03 482.684C805.932 474.447 803.635 460.381 804.369 447.736C804.578 443.396 805.101 439.076 805.932 434.81C808.324 422.932 810.871 411.804 813.481 400.706C816.092 389.609 818.749 378.309 821.296 367.087C827.814 338.657 834.55 307.788 821.64 275.153C813.716 255.163 797.852 236.079 777.674 220.887C764.553 210.925 749.97 203.053 734.442 197.552C701.713 186.189 669.86 186.611 638.491 188.362C607.794 190.034 577.41 192.707 546.275 186.502C531.468 183.485 517.027 178.889 503.199 172.794C485.522 165.198 468.001 155.602 450.058 146.005C432.736 136.592 414.953 128.053 396.776 120.419" stroke="#7B3FE4" stroke-width="0.5" stroke-miterlimit="10"/>
<path opacity="0.2" d="M1104.18 879.6C1118.76 826.256 1135.69 765.691 1131.53 698.593C1128.75 658.159 1118.8 618.542 1102.15 581.589C1088.53 551.439 1069.83 523.431 1045.4 500.486C1036.16 491.765 1026.08 483.81 1014.89 478.527C988.488 466.023 959.995 469.649 935.597 476.198C928.428 478.126 921.416 480.309 914.56 482.747C900.27 487.883 886.414 494.155 873.125 501.502C867.561 504.624 861.778 507.34 855.823 509.63C844.523 513.834 832.128 515.522 821.125 508.067C808.855 499.767 806.855 485.482 807.918 472.494C808.296 468.01 808.996 463.56 810.012 459.177C812.888 446.892 815.905 435.295 818.968 423.713C822.031 412.132 825.22 400.347 828.205 388.64C835.895 358.944 843.835 326.841 831.519 293.143C823.969 272.512 808.23 252.912 788.021 237.501C774.874 227.376 760.167 219.457 744.476 214.057C711.388 202.913 679.035 204.132 647.072 206.68C615.812 209.18 584.787 212.775 553.043 207.164C537.983 204.408 523.275 199.995 509.186 194.004C491.259 186.58 473.519 176.999 455.529 167.434C437.539 157.868 418.955 148.318 402.044 140.988" stroke="#7B3FE4" stroke-width="0.5" stroke-miterlimit="10"/>
<path opacity="0.17" d="M1103.04 908.312C1120.06 852.608 1139.21 790.433 1136.6 721.834C1134.81 680.862 1125.41 640.58 1108.88 603.049C1095.4 572.602 1076.55 544.422 1051.73 521.508C1042.35 512.818 1032.06 504.894 1020.65 499.752C993.708 487.608 964.543 492.015 939.567 499.486C932.273 501.685 925.099 504.149 918.044 506.879C903.389 512.619 889.219 519.529 875.672 527.542C870.033 530.932 864.151 533.899 858.073 536.419C846.57 541.108 834.019 543.015 822.906 535.528C810.527 527.213 808.761 512.662 810.215 499.33C810.728 494.704 811.585 490.122 812.778 485.623C816.138 472.947 819.608 460.865 823.125 448.815C826.642 436.764 830.237 424.464 833.753 412.273C842.631 381.373 851.759 347.988 840.005 313.227C832.831 291.94 817.217 271.84 796.976 256.195C783.793 245.949 768.962 238.021 753.119 232.75C719.672 221.809 686.802 223.794 654.245 227.202C622.423 230.515 590.757 235.016 558.435 229.999C543.138 227.547 528.171 223.352 513.828 217.496C495.619 210.259 477.676 200.772 459.592 191.097C441.509 181.422 423.003 171.497 405.951 163.636" stroke="#7B3FE4" stroke-width="0.5" stroke-miterlimit="10"/>
<path opacity="0.15" d="M1100.54 939.118C1120 881.069 1141.33 817.206 1140.3 747.201C1139.53 705.655 1130.68 664.657 1114.25 626.493C1100.87 595.749 1081.91 567.397 1056.68 544.515C1047.13 535.841 1036.68 527.963 1025.05 522.962C997.555 511.146 967.733 516.382 942.21 524.775C934.697 527.245 927.351 529.985 920.172 532.996C905.16 539.332 890.686 546.875 876.893 555.55C871.173 559.209 865.185 562.433 858.981 565.193C847.29 570.226 834.552 572.492 823.345 564.99C810.841 556.628 809.278 541.827 811.185 528.135C811.845 523.379 812.853 518.677 814.202 514.069C818.031 500.987 822.017 488.436 825.94 475.901C829.863 463.366 833.973 450.581 837.959 437.905C848.025 405.771 858.278 371.12 847.243 335.296C840.429 313.415 824.955 292.752 804.683 276.888C791.472 266.482 776.516 258.507 760.514 253.334C726.691 242.628 693.306 245.316 660.186 249.615C627.786 253.694 595.494 259.18 562.578 254.741C547.053 252.552 531.84 248.544 517.252 242.8C498.777 235.735 480.631 226.342 462.438 216.589C444.245 206.836 425.693 196.786 408.547 188.456" stroke="#7B3FE4" stroke-width="0.5" stroke-miterlimit="10"/>
<path opacity="0.12" d="M1096.65 972.112C1118.53 911.719 1142.07 846.277 1142.61 774.74C1142.85 732.654 1134.54 690.958 1118.2 652.172C1104.95 621.147 1085.86 592.608 1060.25 569.757C1050.54 561.098 1039.93 553.283 1028.03 548.423C1000.01 536.903 969.515 542.983 943.382 552.299C935.713 555.039 928.205 558.056 920.859 561.348C905.48 568.285 890.692 576.466 876.643 585.809C870.845 589.733 864.758 593.213 858.434 596.218C846.555 601.657 833.645 604.221 822.329 596.687C809.747 588.31 808.466 573.243 810.685 559.176C811.491 554.273 812.656 549.435 814.17 544.703C818.484 531.246 822.892 518.21 827.315 505.191C831.738 492.171 836.255 478.886 840.71 465.726C851.963 432.372 863.482 396.471 852.964 359.585C846.54 337.016 831.191 315.822 810.873 299.786C797.638 289.232 782.561 281.225 766.406 276.169C732.224 265.666 698.354 269.12 664.609 274.262C631.646 279.17 598.714 285.563 565.219 281.702C549.455 279.802 533.979 276.003 519.127 270.386C500.371 263.494 482.022 254.194 463.72 244.378C445.417 234.563 426.88 224.216 409.609 215.339" stroke="#7B3FE4" stroke-width="0.5" stroke-miterlimit="10"/>
<path opacity="0.07" d="M1084.14 1044.93C1110.89 979.817 1138.85 911.078 1142.52 836.618C1144.7 793.507 1137.5 750.436 1121.42 710.377C1108.35 678.759 1089.07 649.859 1062.64 627.071C1052.65 618.459 1041.65 610.738 1029.31 606.127C1000.2 595.265 968.357 603.001 941.083 614.161C933.081 617.443 925.24 621.017 917.56 624.883C901.454 633.017 886.048 642.468 871.499 653.141C865.562 657.59 859.291 661.577 852.744 665.067C840.49 671.319 827.205 674.445 815.701 666.911C802.885 658.471 802.056 642.826 805.104 628.134C806.185 622.945 807.658 617.845 809.512 612.879C814.795 598.641 820.093 584.637 825.438 570.679C830.784 556.722 836.223 542.421 841.6 528.292C855.213 492.468 869.092 454.066 859.824 415.039C854.103 391.188 839.068 368.994 818.671 352.52C805.373 341.676 790.042 333.598 773.579 328.763C738.662 318.698 703.792 323.699 668.859 330.498C634.755 337.062 600.542 345.284 565.875 342.611C549.65 341.256 533.66 337.863 518.282 332.514C498.995 325.965 480.224 316.885 461.718 306.882C443.212 296.879 424.707 286.032 407.201 276.122" stroke="#7B3FE4" stroke-width="0.5" stroke-miterlimit="10"/>
<path opacity="0.05" d="M1075.45 1084.99C1104.62 1017.53 1134.72 947.136 1140.04 871.222C1143 828.632 1136.91 783.493 1120.59 743.059C1107.65 711.143 1088.22 682.103 1061.4 659.331C1051.26 650.719 1040.07 643.045 1027.5 638.59C997.804 628.04 965.357 636.59 937.489 648.687C929.32 652.24 921.317 656.095 913.482 660.253C897.007 668.984 881.287 679.068 866.483 690.403C860.458 695.121 854.072 699.359 847.383 703.078C834.88 709.783 821.469 713.206 809.872 705.61C796.946 697.139 796.368 681.228 799.791 666.192C801.019 660.866 802.649 655.642 804.667 650.563C810.419 635.918 816.186 621.444 821.985 606.971C827.784 592.498 833.692 577.744 839.537 563.13C854.339 526.072 869.421 486.404 860.747 446.314C855.386 421.822 840.428 399.128 820.109 382.388C806.807 371.401 791.375 363.286 774.783 358.553C739.491 348.706 704.121 354.489 668.61 362.117C633.928 369.51 599.089 378.637 563.891 376.543C547.441 375.469 531.198 372.28 515.563 367.056C495.995 360.694 477.02 351.66 458.421 341.626C439.822 331.592 421.332 320.432 403.717 309.992" stroke="#7B3FE4" stroke-width="0.5" stroke-miterlimit="10"/>
<path opacity="0.02" d="M1065.03 1127.49C1096.63 1057.68 1128.94 985.616 1135.81 908.281C1139.68 864.939 1134.25 819.191 1118.04 778.32C1105.23 746.091 1085.67 716.864 1058.45 694.154C1048.16 685.558 1036.77 677.93 1024.06 673.601C993.85 663.379 960.699 672.772 932.268 685.776C923.933 689.611 915.758 693.748 907.745 698.186C890.917 707.529 874.889 718.246 859.824 730.227C853.726 735.216 847.24 739.711 840.428 743.669C827.799 750.78 814.139 754.5 802.463 746.873C789.428 738.386 789.1 722.209 792.882 706.83C794.232 701.363 795.982 696.003 798.118 690.794C804.37 675.768 810.622 660.795 816.874 645.874L835.817 600.548C851.791 562.255 868.108 521.321 860.012 480.199C855.026 455.051 840.256 431.841 819.781 414.883C806.43 403.742 790.846 395.593 774.079 390.985C738.412 381.357 702.542 387.859 666.437 396.362C631.208 404.598 595.713 414.617 559.874 413.117C543.196 412.317 526.696 409.332 510.796 404.239C490.962 397.987 471.722 389.125 453.075 379.013C434.429 368.9 415.892 357.475 398.137 346.519" stroke="#7B3FE4" stroke-width="0.5" stroke-miterlimit="10"/>
</svg>
