<svg width="1955" height="1329" viewBox="0 0 1955 1329" fill="none" xmlns="http://www.w3.org/2000/svg">
<g clip-path="url(#clip0_87_2871)">
<path d="M1 250.179C8.17199 281.177 39.0369 311.432 58.2245 336.419C86.2831 372.957 113.331 417.596 148.877 448.212C226.113 514.734 342.484 509.323 438.399 488.67C496.513 476.157 551.742 460.288 611.773 457.262C657.347 454.964 727.26 445.797 767.299 471.901C860.81 532.866 856.467 655.359 875.799 747.391C897.535 850.867 972.908 858.323 1071.27 858.651C1160.22 858.948 1248.25 856.432 1336.99 851.198C1387.2 848.238 1406.77 849.524 1439.83 883.405C1516.34 961.828 1517.09 1074.12 1572.69 1164.22C1614.58 1232.08 1691.27 1293.39 1765.33 1328.18" stroke="#7B3FE4" stroke-width="0.5" stroke-linecap="round"/>
<path d="M337.549 44.1606C392.525 20.3722 453.939 3.16152 514.888 1.04054C546.074 -0.0446937 561.267 20.7961 571.546 47.0885C603.667 129.246 567.377 229.482 653.7 291.17C715.763 335.52 792.446 287.275 856.253 278.393C924.661 268.871 989.974 267.894 1059.37 275.199C1109.66 280.493 1166.25 284.95 1189.12 332.693C1228.78 415.504 1205.38 527.667 1266.74 601.528C1310.42 654.114 1410.8 661.106 1473.54 671.798C1548.22 684.522 1623.53 693.153 1698.47 704.271C1724.4 708.118 1761.16 709.67 1783.46 725.565C1804.59 740.626 1818.76 765.678 1832.47 786.252C1856.25 821.934 1881.28 858.784 1895.93 898.844C1924.44 976.856 1904.87 1070.31 1909.24 1151.44C1911.44 1192.25 1909.44 1222.78 1954 1222.78" stroke="#7B3FE4" stroke-width="0.5" stroke-linecap="round"/>
<path d="M9.20898 244.102C14.0484 258.642 24.8236 273.163 37.0528 287.318C48.556 301.498 61.1345 315.48 70.7451 328.31C98.9027 365.961 124.406 411.956 161.191 443.329C238.056 509.311 353.46 502.855 448.591 482.489C478.608 476.153 507.846 469.207 537.417 463.62C566.522 457.983 596.014 453.483 625.855 453.171C671.285 452.949 738.922 446.742 779.481 474.011C871.776 534.771 869.987 654.447 890.378 744.495C913.406 845.757 988.777 853.243 1086.57 853.834C1130.59 854.072 1174.65 853.569 1218.34 852.741C1261.99 851.892 1305.45 850.613 1349.08 848.562C1398.64 846.544 1418.35 848.698 1450.95 882.73C1526.29 961.142 1526.54 1072.97 1580.9 1162.85C1621.82 1230.06 1696.59 1290.62 1769.93 1324.56" stroke="#7B3FE4" stroke-width="0.5"/>
<path d="M17.417 238.024C23.5098 251.606 35.551 265.333 48.9982 279.081C60.9935 292.88 73.6373 307.034 83.2646 320.2C111.521 358.964 135.48 406.315 173.503 438.446C249.999 503.886 364.434 496.386 458.783 476.308C489.759 469.892 519.898 463.095 550.465 457.83C580.1 452.467 610.269 448.191 639.936 449.08C685.222 450.934 750.583 447.686 791.662 476.119C882.742 536.675 883.507 653.535 904.957 741.598C929.276 840.647 1004.65 848.161 1101.86 849.015C1145.43 849.344 1189.31 848.892 1232.46 848.482C1275.56 848.031 1318.29 847.411 1361.16 845.925C1410.08 844.849 1429.92 847.871 1462.08 882.053C1536.25 960.456 1536 1071.83 1589.11 1161.49C1629.06 1228.04 1701.91 1287.84 1774.53 1320.93" stroke="#7B3FE4" stroke-width="0.5"/>
<path d="M25.625 231.946C32.9713 244.57 46.2784 257.504 60.9436 270.845C73.4309 284.262 86.1401 298.587 95.7841 312.09C124.14 351.967 146.553 400.674 185.815 433.563C261.941 498.462 375.408 489.917 468.974 470.126C500.91 463.63 531.951 456.983 563.513 452.04C593.678 446.95 624.525 442.898 654.017 444.989C699.159 448.918 762.244 448.63 803.843 478.228C893.708 538.58 897.027 652.622 919.536 738.701C945.146 835.537 1020.51 843.08 1117.16 844.197C1160.28 844.616 1203.98 844.215 1246.59 844.223C1289.12 844.17 1331.12 844.208 1373.25 843.288C1421.52 843.155 1441.49 847.044 1473.2 881.377C1546.2 959.769 1545.46 1070.68 1597.32 1160.13C1636.3 1226.01 1707.24 1285.06 1779.13 1317.31" stroke="#7B3FE4" stroke-width="0.5"/>
<path d="M33.834 225.869C42.4337 237.535 57.0068 249.675 72.8899 262.61C85.8693 275.645 98.6439 290.142 108.305 303.981C136.76 344.971 157.628 395.034 198.128 428.68C273.884 493.039 386.383 483.449 479.166 463.945C512.061 457.37 544.005 450.871 576.563 446.251C607.257 441.434 638.781 437.606 668.099 440.898C713.097 446.904 773.906 449.574 816.025 480.337C904.674 540.485 910.548 651.71 934.115 735.806C961.016 830.428 1036.38 837.999 1132.46 839.38C1175.12 839.889 1218.64 839.539 1260.72 839.965C1302.69 840.31 1343.95 841.006 1385.33 840.652C1432.96 841.461 1453.07 846.218 1484.33 880.701C1556.15 959.084 1554.92 1069.54 1605.53 1158.76C1643.54 1223.99 1712.56 1282.29 1783.74 1313.69" stroke="#7B3FE4" stroke-width="0.5"/>
<path d="M42.042 219.791C51.8951 230.499 67.7342 241.846 84.8353 254.373C98.3068 267.027 111.147 281.695 120.824 295.871C149.378 337.973 168.702 389.392 210.44 423.797C285.826 487.615 397.357 476.98 489.357 457.763C523.212 451.108 556.057 444.759 589.611 440.461C620.835 435.918 653.037 432.313 682.18 436.807C727.033 444.888 785.567 450.518 828.206 482.446C915.64 542.389 924.067 650.797 948.694 732.909C976.886 825.317 1052.25 832.917 1147.76 834.561C1189.97 835.16 1233.3 834.862 1274.85 835.706C1316.25 836.449 1356.78 837.803 1397.42 838.015C1444.4 839.766 1464.64 845.39 1495.45 880.025C1566.11 958.397 1564.38 1068.39 1613.73 1157.4C1650.78 1221.96 1717.88 1279.52 1788.34 1310.06" stroke="#7B3FE4" stroke-width="0.5"/>
<path d="M50.251 213.713C61.3575 223.463 78.4625 234.016 96.7817 246.137C110.745 258.409 123.651 273.249 133.345 287.761C161.998 330.976 179.777 383.751 222.754 418.913C297.769 482.191 408.332 470.511 499.549 451.581C534.364 444.847 568.111 438.647 602.66 434.671C634.414 430.401 667.293 427.02 696.262 432.715C740.971 442.873 797.229 451.462 840.388 484.554C926.606 544.293 937.588 649.884 963.273 730.012C992.757 820.207 1068.12 827.836 1163.05 829.742C1204.82 830.432 1247.96 830.185 1288.98 831.448C1329.82 832.588 1369.62 834.6 1409.5 835.378C1455.84 838.072 1476.21 844.563 1506.57 879.348C1576.06 957.71 1573.83 1067.25 1621.94 1156.03C1658.02 1219.94 1723.2 1276.74 1792.94 1306.44" stroke="#7B3FE4" stroke-width="0.5"/>
<path d="M58.46 207.637C70.8199 216.429 89.1909 226.189 108.728 237.903C123.184 249.793 136.154 264.804 145.865 279.653C174.617 323.981 190.851 378.112 235.067 414.032C309.712 476.769 419.307 464.044 509.741 445.402C545.516 438.587 580.165 432.537 615.71 428.883C647.993 424.886 681.55 421.73 710.344 428.626C754.909 440.859 808.891 452.407 852.57 486.665C937.573 546.199 951.109 648.973 977.853 727.117C1008.63 815.099 1083.99 822.756 1178.35 824.926C1219.66 825.706 1262.63 825.511 1303.1 827.191C1343.38 828.729 1382.45 831.4 1421.59 832.742C1467.28 836.379 1487.79 843.738 1517.7 878.673C1586.01 957.026 1583.29 1066.1 1630.15 1154.67C1665.26 1217.91 1728.52 1273.97 1797.54 1302.82" stroke="#7B3FE4" stroke-width="0.5"/>
<path d="M66.668 201.559C80.2814 209.392 99.9183 218.36 120.673 229.666C135.621 241.175 148.657 256.358 158.385 271.543C187.236 316.983 201.925 372.47 247.379 409.149C321.655 471.344 430.282 457.575 519.932 439.22C556.667 432.326 592.218 426.424 628.758 423.093C661.571 419.37 695.805 416.437 724.425 424.535C768.846 438.844 820.552 453.351 864.751 488.773C948.539 548.103 964.628 648.06 992.431 724.22C1024.5 809.988 1099.86 817.674 1193.65 820.107C1234.51 820.977 1277.29 820.834 1317.23 822.932C1356.95 824.868 1395.28 828.197 1433.67 830.105C1478.72 834.684 1499.36 842.91 1528.82 877.997C1595.97 956.339 1592.75 1064.96 1638.36 1153.3C1672.5 1215.89 1733.84 1271.19 1802.14 1299.19" stroke="#7B3FE4" stroke-width="0.5"/>
<path d="M74.876 195.481C89.7428 202.356 110.646 210.53 132.619 221.43C148.059 232.557 161.16 247.911 170.904 263.433C199.855 309.986 212.999 366.829 259.691 404.265C333.597 465.92 441.256 451.106 530.123 433.038C567.818 426.064 604.27 420.312 641.807 417.303C675.149 413.853 710.061 411.144 738.507 420.443C782.783 436.828 832.213 454.295 876.932 490.882C959.504 550.007 978.148 647.147 1007.01 721.323C1040.37 804.878 1115.73 812.593 1208.95 815.289C1249.35 816.249 1291.95 816.157 1331.36 818.673C1370.51 821.007 1408.11 824.994 1445.76 827.468C1490.16 832.99 1510.93 842.083 1539.95 877.32C1605.92 955.652 1602.21 1063.81 1646.57 1151.94C1679.74 1213.87 1739.16 1268.42 1806.74 1295.57" stroke="#7B3FE4" stroke-width="0.5"/>
<path d="M83.085 189.403C99.2052 195.32 121.374 202.701 144.565 213.194C160.497 223.939 173.664 239.464 183.425 255.323C212.474 302.989 224.074 361.188 272.005 399.382C345.54 460.496 452.231 444.638 540.315 426.856C578.969 419.803 616.324 414.2 654.856 411.513C688.728 408.336 724.317 405.851 752.589 416.352C796.721 434.813 843.875 455.239 889.113 492.99C970.471 551.911 991.669 646.234 1021.59 718.426C1056.24 799.768 1131.6 807.511 1224.25 810.47C1264.2 811.521 1306.62 811.48 1345.49 814.414C1384.08 817.146 1420.95 821.791 1457.84 824.831C1501.61 831.295 1522.51 841.256 1551.07 876.644C1615.88 954.966 1611.67 1062.66 1654.78 1150.58C1686.98 1211.84 1744.48 1265.64 1811.35 1291.95" stroke="#7B3FE4" stroke-width="0.5"/>
<path d="M91.2939 183.326C108.668 188.285 132.102 194.872 156.512 204.958C172.935 215.322 186.168 231.019 195.945 247.215C225.094 295.992 235.149 355.548 284.318 394.499C357.483 455.073 463.206 438.17 550.507 420.675C590.121 413.543 628.378 408.089 667.905 405.724C702.307 402.821 738.573 400.56 766.671 412.262C810.659 432.798 855.537 456.183 901.295 495.1C981.438 553.817 1005.19 645.322 1036.17 715.531C1072.11 794.659 1147.47 802.43 1239.54 805.653C1279.04 806.793 1321.28 806.804 1359.62 810.157C1397.64 813.286 1433.78 818.589 1469.93 822.195C1513.05 829.601 1534.08 840.429 1562.2 875.968C1625.83 954.28 1621.13 1061.52 1662.99 1149.21C1694.22 1209.82 1749.81 1262.87 1815.95 1288.32" stroke="#7B3FE4" stroke-width="0.5"/>
<path d="M99.502 177.249C118.129 181.249 142.83 187.043 168.457 196.722C185.373 206.704 198.67 222.573 208.465 239.105C237.712 288.995 246.222 349.906 296.63 389.616C369.425 449.649 474.18 431.701 560.698 414.494C601.272 407.281 640.43 401.976 680.954 399.935C715.885 397.304 752.829 395.267 780.752 408.17C824.595 430.783 867.198 457.127 913.476 497.209C992.403 555.721 1018.71 644.409 1050.75 712.634C1087.98 789.548 1163.33 797.349 1254.84 800.835C1293.89 802.065 1335.94 802.127 1373.74 805.898C1411.21 809.425 1446.61 815.387 1482.01 819.558C1524.49 827.907 1545.65 839.602 1573.32 875.292C1635.78 953.594 1630.58 1060.37 1671.19 1147.85C1701.46 1207.79 1755.13 1260.09 1820.55 1284.7" stroke="#7B3FE4" stroke-width="0.5"/>
<path d="M107.711 171.17C127.591 174.212 153.558 179.213 180.403 188.485C197.811 198.086 211.174 214.126 220.985 230.995C250.332 281.998 257.297 344.265 308.943 384.732C381.368 444.224 485.155 425.232 570.89 408.311C612.424 401.019 652.484 395.864 694.003 394.144C729.464 391.787 767.085 389.974 794.834 404.079C838.533 428.767 878.861 458.071 925.658 499.317C1003.37 557.625 1032.23 643.496 1065.33 709.737C1103.85 784.438 1179.2 792.267 1270.14 796.016C1308.73 797.337 1350.6 797.45 1387.87 801.639C1424.77 805.563 1459.44 812.184 1494.1 816.92C1535.93 826.212 1557.23 838.775 1584.45 874.615C1645.74 952.907 1640.04 1059.23 1679.4 1146.48C1708.7 1205.77 1760.45 1257.31 1825.15 1281.07" stroke="#7B3FE4" stroke-width="0.5"/>
<path d="M115.919 165.094C137.053 167.177 164.286 171.385 192.349 180.25C210.249 189.469 223.677 205.68 233.505 222.886C262.951 275.001 268.371 338.625 321.256 379.85C393.311 438.801 496.13 418.764 581.081 402.131C623.575 394.759 664.537 389.753 707.051 388.356C743.042 386.271 781.341 384.682 808.915 399.988C852.47 426.752 890.522 459.015 937.839 501.426C1014.34 559.53 1045.75 642.584 1079.91 706.841C1119.72 779.329 1195.07 787.186 1285.44 791.198C1323.58 792.609 1365.27 792.774 1402 797.381C1438.34 801.703 1472.28 808.982 1506.18 814.284C1547.37 824.518 1568.8 837.948 1595.57 873.939C1655.69 952.222 1649.5 1058.08 1687.61 1145.12C1715.94 1203.74 1765.77 1254.54 1829.75 1277.45" stroke="#7B3FE4" stroke-width="0.5"/>
<path d="M124.127 159.016C146.514 160.141 175.013 163.555 204.294 172.014C222.686 180.851 236.18 197.234 246.024 214.776C275.569 268.004 279.445 332.984 333.568 374.967C405.253 433.377 507.104 412.295 591.272 395.949C634.725 388.498 676.59 383.641 720.1 382.566C756.62 380.755 795.596 379.39 822.996 395.897C866.407 424.737 902.183 459.959 950.02 503.535C1025.3 561.434 1059.27 641.671 1094.48 703.944C1135.59 774.218 1210.94 782.105 1300.73 786.38C1338.42 787.881 1379.93 788.098 1416.13 793.122C1451.9 797.843 1485.11 805.779 1518.27 811.647C1558.81 822.824 1580.37 837.121 1606.69 873.263C1665.64 951.535 1658.96 1056.93 1695.82 1143.75C1723.18 1201.72 1771.09 1251.77 1834.35 1273.83" stroke="#7B3FE4" stroke-width="0.5"/>
<path d="M132.336 152.938C155.977 153.105 185.741 155.726 216.241 163.778C235.125 172.233 248.684 188.787 258.545 206.666C288.189 261.007 290.52 327.342 345.881 370.083C417.196 427.953 518.079 405.826 601.464 389.767C645.877 382.236 688.643 377.529 733.149 376.776C770.2 375.238 809.853 374.097 837.078 391.806C880.345 422.721 913.845 460.903 962.202 505.644C1036.27 563.338 1072.79 640.758 1109.06 701.047C1151.46 769.108 1226.81 777.023 1316.03 781.562C1353.27 783.153 1394.59 783.422 1430.26 788.865C1465.47 793.983 1497.94 802.576 1530.35 809.01C1570.25 821.129 1591.95 836.294 1617.82 872.586C1675.6 950.849 1668.42 1055.79 1704.03 1142.39C1730.42 1199.69 1776.41 1248.99 1838.96 1270.2" stroke="#7B3FE4" stroke-width="0.5"/>
<path d="M140.545 147.031C165.439 146.24 196.47 148.068 228.187 155.713C247.563 163.787 261.187 180.512 271.066 198.727C300.809 254.181 301.594 321.873 358.194 365.371C429.139 422.7 529.054 399.529 611.656 383.757C657.029 376.146 700.697 371.588 746.198 371.157C783.778 369.893 824.109 368.976 851.16 387.886C894.283 420.877 925.507 462.018 974.384 507.924C1047.23 565.414 1086.31 640.017 1123.64 698.322C1167.33 764.169 1242.68 772.113 1331.33 776.915C1368.11 778.596 1409.25 778.915 1444.39 784.776C1479.03 790.292 1510.77 799.545 1542.44 806.544C1581.69 819.606 1603.52 835.638 1628.94 872.081C1685.55 950.333 1677.88 1054.81 1712.24 1141.2C1737.66 1197.84 1781.73 1246.39 1843.56 1266.75" stroke="#7B3FE4" stroke-width="0.5"/>
<path d="M148.753 141.525C174.901 139.775 207.197 140.81 240.132 148.048C260.001 155.74 273.69 172.637 283.585 191.189C313.427 247.755 312.668 316.803 370.507 361.059C441.081 417.848 540.028 393.631 621.847 378.146C668.18 370.456 712.75 366.047 759.247 365.939C797.357 364.948 838.365 364.254 865.241 384.366C908.22 419.433 937.168 463.533 986.565 510.603C1058.2 567.89 1099.83 639.675 1138.22 695.996C1183.2 759.63 1258.55 767.603 1346.63 772.667C1382.96 774.439 1423.92 774.81 1458.51 781.089C1492.6 787.002 1523.61 796.914 1554.52 804.478C1593.13 818.483 1615.1 835.382 1640.07 871.976C1695.51 950.218 1687.33 1054.24 1720.44 1140.4C1744.9 1196.39 1787.05 1244.18 1848.16 1263.7" stroke="#7B3FE4" stroke-width="0.5"/>
<path d="M156.962 136.316C184.363 133.608 217.926 133.85 252.079 140.68C272.439 147.991 286.194 165.06 296.106 183.948C326.047 241.627 323.743 312.03 382.82 357.045C453.024 413.292 551.003 388.031 632.039 372.834C679.332 365.064 724.803 360.804 772.296 361.018C810.936 360.3 852.621 359.83 879.323 381.143C922.158 418.287 948.83 465.346 998.747 513.581C1069.17 570.663 1113.35 639.631 1152.8 693.969C1199.07 755.389 1274.42 763.39 1361.92 768.718C1397.81 770.58 1438.58 771.002 1472.64 777.699C1506.16 784.01 1536.44 794.58 1566.61 802.71C1604.57 817.657 1626.67 835.424 1651.19 872.168C1705.46 950.401 1696.79 1053.96 1728.65 1139.91C1752.15 1195.23 1792.38 1242.28 1852.76 1260.94" stroke="#7B3FE4" stroke-width="0.5"/>
<path d="M165.17 131.335C193.824 127.669 228.653 127.117 264.024 133.541C284.876 140.471 298.697 157.71 308.625 176.935C338.665 235.727 334.817 307.486 395.132 353.259C464.967 408.965 561.978 382.66 642.23 367.749C690.483 359.899 736.856 355.789 785.345 356.325C824.514 355.881 866.876 355.635 893.404 378.149C936.094 417.368 960.491 467.387 1010.93 516.787C1080.13 573.664 1126.87 639.816 1167.38 692.169C1214.94 751.376 1290.28 759.405 1377.22 764.997C1412.65 766.949 1453.24 767.422 1486.77 774.537C1519.73 781.246 1549.27 792.474 1578.69 801.17C1616.01 817.06 1638.24 835.694 1662.31 872.589C1715.41 950.811 1706.25 1053.91 1736.86 1139.64C1759.39 1194.3 1797.7 1240.6 1857.36 1258.42" stroke="#7B3FE4" stroke-width="0.5"/>
<path d="M173.378 126.532C203.286 121.908 239.38 120.563 275.97 126.58C297.314 133.128 311.2 150.539 321.145 170.1C351.284 230.005 345.89 303.12 407.444 349.65C476.909 404.816 572.952 377.466 652.421 362.842C701.633 354.913 748.909 350.951 798.393 351.81C838.092 351.639 881.132 351.617 907.485 375.333C950.031 416.628 972.152 469.605 1023.11 520.17C1091.1 576.843 1140.39 640.178 1181.96 690.547C1230.81 747.541 1306.15 755.599 1392.52 761.453C1427.5 763.496 1467.9 764.02 1500.9 771.554C1533.29 778.66 1562.1 790.546 1590.77 799.808C1627.45 816.64 1649.81 836.142 1673.44 873.188C1725.37 951.4 1715.71 1054.04 1745.07 1139.55C1766.63 1193.56 1803.02 1239.1 1861.96 1256.07" stroke="#7B3FE4" stroke-width="0.5"/>
<path d="M181.587 121.873C212.748 116.291 250.109 114.153 287.916 119.763C309.752 125.929 323.703 143.512 333.665 163.409C363.904 224.426 356.965 298.898 419.758 346.186C488.852 400.811 583.927 372.416 662.613 358.079C712.785 350.071 760.963 346.258 811.442 347.439C851.671 347.541 895.388 347.744 921.568 372.661C963.969 416.031 983.814 471.968 1035.29 523.698C1102.06 580.166 1153.91 640.684 1196.54 689.069C1246.68 743.849 1322.02 751.936 1407.82 758.054C1442.34 760.187 1482.57 760.763 1515.03 768.714C1546.86 776.218 1574.94 788.763 1602.86 798.59C1638.89 816.364 1661.39 836.734 1684.56 873.93C1735.32 952.132 1725.17 1054.31 1753.28 1139.6C1773.87 1192.95 1808.34 1237.74 1866.57 1253.86" stroke="#7B3FE4" stroke-width="0.5"/>
<path d="M189.796 117.332C222.211 110.792 260.837 107.86 299.862 113.063C322.191 118.848 336.207 136.602 346.186 156.836C376.523 218.966 368.04 294.794 432.071 342.84C500.795 396.924 594.902 367.484 672.805 353.435C723.937 345.346 773.016 341.683 824.492 343.186C865.25 343.562 909.645 343.988 935.65 370.106C977.907 415.553 995.476 474.449 1047.47 527.343C1113.03 583.608 1167.43 641.308 1211.12 687.71C1262.55 740.276 1337.89 748.392 1423.12 754.772C1457.19 756.995 1497.23 757.623 1529.15 765.992C1560.42 773.894 1587.77 787.097 1614.94 797.49C1650.33 816.207 1672.96 837.443 1695.69 874.791C1745.27 952.983 1734.63 1054.71 1761.49 1139.78C1781.11 1192.46 1813.66 1236.5 1871.17 1251.78" stroke="#7B3FE4" stroke-width="0.5"/>
<path d="M198.004 112.891C231.672 105.392 271.565 101.667 311.808 106.464C334.628 111.866 348.71 129.792 358.705 150.363C389.142 213.605 379.114 290.789 444.383 339.593C512.737 393.136 605.876 362.652 682.996 348.889C735.088 340.721 785.069 337.207 837.54 339.033C878.828 339.682 923.9 340.332 949.731 367.651C991.844 415.174 1007.14 477.029 1059.65 531.088C1124 587.148 1180.95 642.032 1225.7 686.449C1278.42 736.802 1353.76 744.946 1438.41 751.59C1472.03 753.904 1511.89 754.582 1543.28 763.37C1573.99 771.67 1600.6 785.531 1627.03 796.489C1661.77 816.149 1684.54 838.253 1706.81 875.75C1755.23 953.933 1744.08 1055.2 1769.7 1140.05C1788.35 1192.07 1818.98 1235.36 1875.77 1249.79" stroke="#7B3FE4" stroke-width="0.5"/>
<path d="M206.213 108.531C241.135 100.075 282.293 95.5562 323.754 99.9456C347.067 104.967 361.214 123.064 371.226 143.971C401.761 208.326 390.189 286.866 456.696 336.428C524.68 389.431 616.851 357.901 693.188 344.426C746.24 336.178 797.123 332.814 850.589 334.962C892.407 335.883 938.157 336.757 963.813 365.278C1005.78 414.877 1018.8 479.691 1071.84 534.915C1134.96 590.771 1194.47 642.837 1240.28 685.271C1294.29 733.411 1369.63 741.583 1453.71 748.49C1486.88 750.894 1526.56 751.624 1557.41 760.829C1587.55 769.527 1613.43 784.046 1639.11 795.57C1673.21 816.172 1696.11 839.144 1717.94 876.792C1765.18 954.964 1753.54 1055.77 1777.9 1140.4C1795.59 1191.77 1824.3 1234.31 1880.37 1247.88" stroke="#7B3FE4" stroke-width="0.5"/>
<path d="M214.421 104.243C250.596 94.8273 293.02 89.5157 335.699 93.4982C359.504 98.1376 373.717 116.407 383.745 137.651C414.38 203.118 401.262 283.014 469.009 333.334C536.622 385.796 627.825 353.221 703.379 340.033C757.39 331.706 809.175 328.49 863.638 330.961C905.985 332.156 952.412 333.254 977.894 362.976C1019.72 414.65 1030.46 482.424 1084.02 538.813C1145.93 594.464 1207.99 643.713 1254.85 684.163C1310.16 730.089 1385.5 738.291 1469.01 745.461C1501.72 747.955 1541.22 748.736 1571.54 758.36C1601.12 767.455 1626.27 782.633 1651.2 794.723C1684.65 816.267 1707.68 840.106 1729.06 877.905C1775.13 956.067 1763 1056.41 1786.11 1140.83C1802.83 1191.53 1829.62 1233.32 1884.97 1246.05" stroke="#7B3FE4" stroke-width="0.5"/>
<path d="M222.629 100.017C260.057 89.6438 303.748 83.5389 347.645 87.1145C371.942 91.3722 386.219 109.812 396.265 131.393C426.999 197.973 412.336 279.225 481.321 330.302C548.565 382.223 638.8 348.604 713.57 335.703C768.541 327.296 821.228 324.23 876.686 327.023C919.563 328.491 966.668 329.813 991.975 360.737C1033.66 414.487 1042.12 485.22 1096.2 542.773C1156.89 598.22 1221.51 644.652 1269.43 683.118C1326.03 726.831 1401.37 735.062 1484.31 742.495C1516.57 745.079 1555.88 745.911 1585.67 755.953C1614.68 765.446 1639.1 781.281 1663.28 793.938C1696.09 816.424 1719.26 841.131 1740.18 879.081C1785.09 957.233 1772.46 1057.12 1794.32 1141.31C1810.07 1191.36 1834.94 1232.4 1889.58 1244.28" stroke="#7B3FE4" stroke-width="0.5"/>
<path d="M230.838 95.8403C269.52 84.5089 314.476 77.6107 359.591 80.7794C384.38 84.6555 398.723 103.268 408.785 125.185C439.618 192.878 423.411 275.486 493.634 327.321C560.508 378.701 649.775 344.038 723.762 331.424C779.693 322.937 833.282 320.02 889.736 323.135C933.142 324.877 980.924 326.422 1006.06 358.548C1047.59 414.373 1053.78 488.066 1108.38 546.784C1167.86 602.027 1235.03 645.642 1284.01 682.124C1341.9 723.623 1417.24 731.881 1499.6 739.578C1531.41 742.252 1570.54 743.137 1599.79 753.596C1628.25 763.487 1651.93 779.981 1675.37 793.202C1707.53 816.632 1730.83 842.205 1751.31 880.306C1795.04 958.448 1781.92 1057.87 1802.53 1141.85C1817.31 1191.24 1840.27 1231.52 1894.18 1242.56" stroke="#7B3FE4" stroke-width="0.5"/>
<path d="M239.047 91.7115C278.982 79.4218 325.205 71.7304 371.538 74.4922C396.818 77.9866 411.227 96.7698 421.306 119.023C452.238 187.829 434.486 271.793 505.947 324.386C572.451 375.226 660.75 339.517 733.954 327.19C790.845 318.624 845.335 315.856 902.785 319.294C946.721 321.309 995.181 323.078 1020.14 356.405C1061.53 414.306 1065.45 490.958 1120.56 550.841C1178.83 605.879 1248.55 646.677 1298.59 681.175C1357.78 720.461 1433.11 728.748 1514.9 736.708C1546.26 739.472 1585.21 740.408 1613.92 751.286C1641.81 761.575 1664.76 778.727 1687.45 792.514C1718.97 816.885 1742.4 843.326 1762.43 881.578C1805 959.71 1791.38 1058.68 1810.74 1142.43C1824.55 1191.16 1845.59 1230.7 1898.78 1240.88" stroke="#7B3FE4" stroke-width="0.5"/>
<path d="M247.255 87.6231C288.444 74.3752 335.932 65.8905 383.483 68.2454C409.256 71.3582 423.73 90.3128 433.825 112.903C464.857 182.821 445.559 268.141 518.26 321.492C584.393 371.791 671.724 335.038 744.145 322.998C801.996 314.352 857.388 311.734 915.833 315.493C960.299 317.782 1009.44 319.775 1034.22 354.303C1075.47 414.28 1077.11 493.891 1132.74 554.939C1189.79 609.773 1262.07 647.754 1313.17 680.268C1373.65 717.341 1448.97 725.656 1530.2 733.879C1561.1 736.734 1599.87 737.721 1628.05 749.017C1655.38 759.703 1677.6 777.514 1699.54 791.866C1730.41 817.18 1753.98 844.489 1773.56 882.891C1814.95 961.013 1800.83 1059.52 1818.95 1143.06C1831.79 1191.13 1850.91 1229.91 1903.38 1239.25" stroke="#7B3FE4" stroke-width="0.5"/>
<path d="M255.463 83.5693C297.905 69.3632 346.659 60.0852 395.428 62.0332C421.693 64.7644 436.233 83.8905 446.345 106.818C477.475 177.848 456.633 264.524 530.572 318.633C596.335 368.391 682.698 330.594 754.336 318.841C813.147 310.115 869.441 307.646 928.882 311.728C973.877 314.289 1023.69 316.507 1048.3 352.236C1089.4 414.289 1088.77 496.859 1144.92 559.072C1200.76 613.702 1275.59 648.865 1327.75 679.396C1389.52 714.255 1464.84 722.599 1545.5 731.085C1575.95 734.03 1614.53 735.069 1642.18 746.782C1668.94 757.867 1690.43 776.335 1711.62 791.253C1741.85 817.51 1765.55 845.686 1784.68 884.239C1824.9 962.351 1810.29 1060.4 1827.15 1143.72C1839.03 1191.12 1856.23 1229.16 1907.98 1237.65" stroke="#7B3FE4" stroke-width="0.5"/>
<path d="M263.672 79.5471C307.368 64.3827 357.388 54.3114 407.375 55.8526C434.132 58.2021 448.736 77.4996 458.865 100.763C490.095 172.907 467.708 260.939 542.885 315.806C608.279 365.023 693.673 326.18 764.528 314.715C824.298 305.909 881.495 303.589 941.931 307.994C987.456 310.828 1037.95 313.27 1062.38 350.2C1103.34 414.329 1100.43 499.859 1157.11 563.236C1211.73 617.661 1289.11 650.008 1342.33 678.554C1405.39 711.2 1480.71 719.573 1560.79 728.322C1590.79 731.357 1629.2 732.447 1656.31 744.579C1682.51 756.061 1703.26 775.188 1723.71 790.672C1753.29 817.871 1777.12 846.914 1795.81 885.618C1834.86 963.72 1819.75 1061.31 1835.36 1144.41C1846.27 1191.16 1861.55 1228.44 1912.58 1236.08" stroke="#7B3FE4" stroke-width="0.5"/>
<path d="M271.881 75.5542C316.83 59.4317 368.116 48.5671 419.321 49.7013C446.57 51.6692 461.24 71.1382 471.386 94.7382C502.714 167.995 478.783 257.383 555.198 313.007C620.222 361.684 704.649 321.797 774.72 310.618C835.45 301.733 893.548 299.563 954.98 304.289C1001.04 307.397 1052.2 310.062 1076.47 348.194C1117.28 414.399 1112.09 502.888 1169.29 567.43C1222.69 621.651 1302.63 651.18 1356.91 677.743C1421.26 708.175 1496.58 716.577 1576.09 725.589C1605.64 728.714 1643.86 729.856 1670.44 742.406C1696.07 754.285 1716.1 774.071 1735.79 790.12C1764.73 818.262 1788.7 848.172 1806.93 887.027C1844.81 965.119 1829.21 1062.25 1843.57 1145.13C1853.51 1191.22 1866.87 1227.75 1917.19 1234.54" stroke="#7B3FE4" stroke-width="0.5"/>
<path d="M280.089 71.5865C326.291 54.5057 378.843 42.8479 431.267 43.5752C459.008 45.1615 473.743 64.802 483.906 88.7385C515.333 163.107 489.857 253.851 567.511 310.233C632.164 358.369 715.623 317.437 784.911 306.546C846.601 297.581 905.601 295.56 968.029 300.609C1014.61 303.99 1066.46 306.879 1090.55 346.212C1131.22 414.493 1123.75 505.941 1181.47 571.648C1233.66 625.664 1316.15 652.377 1371.49 676.956C1437.13 705.174 1512.45 713.604 1591.39 722.88C1620.48 726.096 1658.52 727.288 1684.56 740.256C1709.64 752.534 1728.93 772.977 1747.88 789.592C1776.17 818.677 1800.27 849.454 1818.06 888.46C1854.76 966.542 1838.67 1063.21 1851.78 1145.88C1860.75 1191.3 1872.19 1227.08 1921.79 1233.02" stroke="#7B3FE4" stroke-width="0.5"/>
<path d="M288.298 67.6406C335.754 49.6015 389.572 37.1505 443.213 37.4709C471.446 38.6755 486.247 58.4874 496.426 82.7605C527.953 158.242 500.931 250.342 579.824 307.482C644.107 355.078 726.598 313.101 795.103 302.496C857.753 293.452 917.655 291.58 981.078 296.951C1028.19 300.606 1080.72 303.718 1104.63 344.253C1145.16 414.61 1135.42 509.017 1193.65 575.889C1244.62 629.701 1329.67 653.596 1386.07 676.191C1453 702.196 1528.32 710.655 1606.69 720.194C1635.33 723.5 1673.18 724.744 1698.69 738.13C1723.2 750.805 1741.76 771.907 1759.96 789.088C1787.61 819.114 1811.84 850.76 1829.18 889.915C1864.72 967.987 1848.12 1064.2 1859.99 1146.64C1867.99 1191.41 1877.52 1226.44 1926.39 1231.53" stroke="#7B3FE4" stroke-width="0.5"/>
<path d="M296.506 63.7168C345.215 44.7195 400.299 31.4752 455.158 31.3887C483.883 32.2117 498.75 52.1951 508.946 76.8048C540.571 153.399 512.005 246.855 592.136 304.753C656.049 351.808 737.572 308.786 805.294 298.469C868.904 289.345 929.707 287.622 994.126 293.315C1041.77 297.243 1094.97 300.58 1118.71 342.316C1159.09 414.749 1147.08 512.115 1205.83 580.152C1255.59 633.759 1343.19 654.838 1400.65 675.449C1468.87 699.24 1544.19 707.728 1621.98 717.53C1650.18 720.926 1687.85 722.221 1712.82 736.025C1736.77 749.098 1754.59 770.858 1772.04 788.605C1799.05 819.574 1823.42 852.087 1840.3 891.393C1874.67 969.455 1857.58 1065.2 1868.2 1147.43C1875.23 1191.54 1882.84 1225.82 1930.99 1230.06" stroke="#7B3FE4" stroke-width="0.5"/>
<path d="M304.714 59.797C354.677 39.8415 411.027 25.8039 467.104 25.3105C496.321 25.7518 511.252 45.9068 521.465 70.853C553.19 148.56 523.079 243.372 604.448 302.028C667.991 348.542 748.546 304.475 815.485 294.445C880.054 285.242 941.76 283.668 1007.17 289.684C1055.35 293.885 1109.23 297.445 1132.79 340.383C1173.03 414.891 1158.74 515.217 1218.01 584.419C1266.56 637.822 1356.71 656.083 1415.22 674.71C1484.74 696.288 1560.05 704.804 1637.28 714.87C1665.02 718.356 1702.51 719.703 1726.95 733.925C1750.33 747.396 1767.42 769.814 1784.13 788.126C1810.49 820.038 1834.99 853.418 1851.43 892.875C1884.63 970.927 1867.04 1066.22 1876.41 1148.23C1882.47 1191.67 1888.16 1225.2 1935.59 1228.6" stroke="#7B3FE4" stroke-width="0.5"/>
<path d="M312.923 55.8773C364.139 34.9636 421.755 20.1327 479.05 19.2324C508.759 19.2921 523.756 39.6184 533.986 64.9012C565.809 143.721 534.154 239.889 616.762 299.303C679.934 345.276 759.521 300.165 825.677 290.422C891.206 281.139 953.814 279.714 1020.22 286.052C1068.93 290.527 1123.48 294.311 1146.87 338.45C1186.97 415.034 1170.4 518.318 1230.19 588.685C1277.52 641.883 1370.23 657.329 1429.8 673.971C1500.61 693.336 1575.92 701.881 1652.58 712.21C1679.87 715.786 1717.17 717.183 1741.08 731.823C1763.9 745.692 1780.26 768.768 1796.21 787.646C1821.93 820.5 1846.56 854.749 1862.55 894.357C1894.58 972.399 1876.5 1067.23 1884.61 1149.02C1889.71 1191.81 1893.48 1224.59 1940.19 1227.13" stroke="#7B3FE4" stroke-width="0.5"/>
<path d="M321.132 51.9623C373.601 30.0903 432.483 14.4661 490.996 13.159C521.198 12.837 536.26 33.3348 546.506 58.9542C578.429 138.886 545.228 236.41 629.075 296.582C691.878 342.014 770.497 295.858 835.869 286.402C902.358 277.04 965.868 275.764 1033.27 282.425C1082.51 287.172 1137.74 291.181 1160.95 336.521C1200.9 415.181 1182.06 521.425 1242.38 592.956C1288.49 645.951 1383.76 658.578 1444.38 673.237C1516.48 690.388 1591.79 698.962 1667.88 709.553C1694.71 713.22 1731.84 714.67 1755.2 729.728C1777.46 743.994 1793.09 767.729 1808.3 787.172C1833.37 820.969 1858.14 856.084 1873.68 895.842C1904.53 973.874 1885.96 1068.24 1892.82 1149.82C1896.96 1191.94 1898.8 1223.97 1944.8 1225.67" stroke="#7B3FE4" stroke-width="0.5"/>
<path d="M329.34 48.0573C383.063 25.2271 443.211 8.80965 502.942 7.09557C533.635 6.39198 548.763 27.0613 559.026 53.0172C591.048 134.062 556.302 232.942 641.387 293.872C703.82 338.763 781.471 291.563 846.06 282.394C913.509 272.951 977.92 271.825 1046.32 278.808C1096.08 283.829 1152 288.061 1175.04 334.603C1214.84 415.339 1193.72 524.542 1254.56 597.238C1299.45 650.028 1397.27 659.838 1458.96 672.513C1532.35 687.451 1607.66 696.053 1683.17 706.908C1709.56 710.665 1746.5 712.166 1769.33 727.642C1791.03 742.306 1805.92 766.699 1820.38 786.708C1844.81 821.447 1869.71 857.43 1884.8 897.339C1914.49 975.361 1895.42 1069.27 1901.03 1150.63C1904.2 1192.09 1904.12 1223.37 1949.4 1224.22" stroke="#7B3FE4" stroke-width="0.5"/>
</g>
<defs>
<clipPath id="clip0_87_2871">
<rect width="1955" height="1329" fill="white"/>
</clipPath>
</defs>
</svg>
