<svg width="600" height="600" viewBox="0 0 600 600" fill="none" xmlns="http://www.w3.org/2000/svg">
<g filter="url(#filter0_d_16_1576)">
<path d="M540.233 262.531C534.618 262.505 529.149 264.354 524.702 267.786C520.254 271.219 517.077 276.031 515.671 281.474H458.149V328.834H439.207V170.981L509.357 170.976C511.425 178.981 517.279 185.47 525.029 188.345C532.779 191.22 541.451 190.116 548.237 185.397C555.024 180.673 559.071 172.928 559.071 164.663C559.071 156.392 555.024 148.647 548.237 143.928C541.451 139.204 532.779 138.105 525.029 140.98C517.28 143.855 511.425 150.339 509.357 158.344H439.201V51H155.055V158.344H107.695L107.7 113.261C115.705 111.194 122.195 105.339 125.069 97.5893C127.944 89.8392 126.84 81.168 122.121 74.3813C117.397 67.5949 109.653 63.548 101.387 63.548C93.1159 63.548 85.3707 67.5949 80.652 74.3813C75.928 81.1677 74.8291 89.84 77.7041 97.5893C80.5792 105.339 87.0634 111.193 95.0681 113.261V170.975H155.052L155.057 281.48H87.8693C85.8016 273.475 79.9527 266.985 72.1973 264.111C64.4473 261.236 55.7813 262.34 48.9893 267.059C42.2029 271.783 38.156 279.527 38.156 287.793C38.156 296.059 42.2029 303.804 48.9893 308.528C55.7811 313.247 64.448 314.351 72.1973 311.476C79.9525 308.601 85.8013 302.111 87.8693 294.106H155.057V395.137H120.328V442.497H84.7133C82.6456 434.492 76.7915 428.008 69.0413 425.133C61.2912 422.258 52.62 423.357 45.8333 428.076C39.0469 432.8 35 440.545 35 448.81C35 457.081 39.0469 464.826 45.8333 469.545C52.6197 474.269 61.292 475.368 69.0413 472.493C76.7907 469.618 82.6453 463.134 84.7133 455.129H132.953L132.959 407.769H155.057V496.17H439.204L439.199 417.244H496.027V465.484H496.032C488.027 467.551 481.537 473.405 478.663 481.156C475.788 488.911 476.892 497.577 481.61 504.364C486.334 511.15 494.079 515.197 502.345 515.197C510.616 515.197 518.356 511.15 523.08 504.364C527.804 497.577 528.903 488.91 526.028 481.156C523.153 473.406 516.663 467.552 508.658 465.484V404.614H439.2V341.469H470.773V294.109H515.669C517.258 300.25 521.091 305.567 526.414 309.01C531.737 312.448 538.159 313.765 544.408 312.687C550.653 311.614 556.268 308.229 560.138 303.208C564.008 298.182 565.841 291.89 565.284 285.572C564.726 279.26 561.815 273.385 557.127 269.119C552.44 264.848 546.32 262.504 539.982 262.541L540.233 262.531ZM533.92 152.031V152.026C539.029 152.026 543.634 155.104 545.587 159.823C547.54 164.542 546.462 169.974 542.852 173.583C539.238 177.197 533.805 178.275 529.087 176.322C524.368 174.369 521.29 169.765 521.29 164.656C521.29 157.682 526.946 152.025 533.92 152.025L533.92 152.031ZM88.7466 88.8857V88.8805C88.7466 83.7764 91.8248 79.1723 96.5436 77.2139C101.262 75.2608 106.695 76.3389 110.304 79.9535C113.918 83.5628 114.996 88.9951 113.043 93.7135C111.09 98.4323 106.486 101.51 101.377 101.51C94.4025 101.51 88.7463 95.8593 88.7463 88.8801L88.7466 88.8857ZM63.492 300.419C58.3827 300.419 53.7784 297.341 51.8201 292.622C49.867 287.903 50.9503 282.471 54.5597 278.857C58.1742 275.247 63.6013 274.169 68.3251 276.122C73.0439 278.075 76.1168 282.68 76.1168 287.789C76.1168 291.138 74.7887 294.352 72.4189 296.721C70.0492 299.086 66.8408 300.419 63.4918 300.419L63.492 300.419ZM60.3357 461.432H60.3305C55.2264 461.432 50.6222 458.354 48.6638 453.635C46.7108 448.917 47.7888 443.484 51.4034 439.875C55.0128 436.261 60.445 435.183 65.1634 437.136C69.8822 439.089 72.9604 443.698 72.9604 448.803C72.9604 452.151 71.6323 455.365 69.2625 457.735C66.8928 460.105 63.6792 461.433 60.3302 461.433L60.3357 461.432ZM514.976 489.848C514.976 494.953 511.898 499.562 507.179 501.515C502.46 503.468 497.028 502.39 493.419 498.775C489.804 495.166 488.726 489.734 490.679 485.015C492.632 480.297 497.237 477.219 502.346 477.219C505.695 477.219 508.908 478.547 511.278 480.916C513.643 483.286 514.976 486.5 514.976 489.849L514.976 489.848ZM167.682 63.6217H426.576V123.606H167.682V63.6217ZM426.576 483.528H167.682V136.235H426.576V483.528ZM540.237 300.408L540.232 300.414C535.128 300.414 530.518 297.336 528.565 292.617C526.612 287.898 527.69 282.466 531.305 278.851C534.914 275.242 540.346 274.164 545.065 276.117C549.784 278.07 552.862 282.674 552.862 287.784C552.862 291.133 551.534 294.346 549.164 296.716C546.794 299.08 543.581 300.414 540.232 300.414L540.237 300.408Z" fill="white"/>
</g>
<g filter="url(#filter1_d_16_1576)">
<path d="M211.873 215.171H382.366V227.801H211.873V215.171Z" fill="white"/>
</g>
<g filter="url(#filter2_d_16_1576)">
<path d="M211.873 262.531H382.366V275.161H211.873V262.531Z" fill="white"/>
</g>
<g filter="url(#filter3_d_16_1576)">
<path d="M211.873 309.891H382.366V322.521H211.873V309.891Z" fill="white"/>
</g>
<g filter="url(#filter4_d_16_1576)">
<path d="M211.873 414.078H297.118V426.708H211.873V414.078Z" fill="white"/>
</g>
<g filter="url(#filter5_d_16_1576)">
<path d="M372.899 79.4111H410.785V98.3538H372.899V79.4111Z" fill="white"/>
</g>
<g filter="url(#filter6_d_16_1576)">
<path d="M353.953 347.771C344.744 347.771 335.911 351.433 329.395 357.948C322.885 364.459 319.223 373.292 319.223 382.506C319.223 391.714 322.885 400.547 329.395 407.063C335.911 413.573 344.745 417.235 353.953 417.235C363.166 417.235 371.999 413.573 378.51 407.063C385.026 400.547 388.687 391.714 388.687 382.506C388.666 373.297 385.005 364.475 378.494 357.964C371.984 351.454 363.161 347.792 353.953 347.772L353.953 347.771ZM353.953 404.599V404.604C348.093 404.604 342.473 402.276 338.327 398.13C334.181 393.984 331.853 388.365 331.853 382.505C331.853 376.64 334.181 371.021 338.327 366.874C342.473 362.728 348.093 360.4 353.953 360.4C359.817 360.4 365.437 362.728 369.583 366.874C373.73 371.02 376.057 376.64 376.057 382.505C376.057 388.364 373.729 393.984 369.583 398.13C365.437 402.276 359.818 404.604 353.953 404.604V404.599Z" fill="white"/>
</g>
<g filter="url(#filter7_d_16_1576)">
<path d="M356.539 425.131L369.419 447.547L377.435 435.485L391.836 434.604L378.888 412.188L356.539 425.131Z" fill="white"/>
</g>
<g filter="url(#filter8_d_16_1576)">
<path d="M316.059 434.611L330.523 435.491L338.476 447.554L351.424 425.138L329.008 412.195L316.059 434.611Z" fill="white"/>
</g>
<g filter="url(#filter9_d_16_1576)">
<path d="M363.419 508.798H420.247V521.428H363.419V508.798Z" fill="white"/>
</g>
<g filter="url(#filter10_d_16_1576)">
<path d="M363.419 537.211H420.247V549.841H363.419V537.211Z" fill="white"/>
</g>
<defs>
<filter id="filter0_d_16_1576" x="10" y="36" width="570.382" height="504.197" filterUnits="userSpaceOnUse" color-interpolation-filters="sRGB">
<feFlood flood-opacity="0" result="BackgroundImageFix"/>
<feColorMatrix in="SourceAlpha" type="matrix" values="0 0 0 0 0 0 0 0 0 0 0 0 0 0 0 0 0 0 127 0" result="hardAlpha"/>
<feOffset dx="-5" dy="5"/>
<feGaussianBlur stdDeviation="10"/>
<feComposite in2="hardAlpha" operator="out"/>
<feColorMatrix type="matrix" values="0 0 0 0 0 0 0 0 0 0 0 0 0 0 0 0 0 0 0.4 0"/>
<feBlend mode="normal" in2="BackgroundImageFix" result="effect1_dropShadow_16_1576"/>
<feBlend mode="normal" in="SourceGraphic" in2="effect1_dropShadow_16_1576" result="shape"/>
</filter>
<filter id="filter1_d_16_1576" x="186.873" y="200.171" width="210.493" height="52.6302" filterUnits="userSpaceOnUse" color-interpolation-filters="sRGB">
<feFlood flood-opacity="0" result="BackgroundImageFix"/>
<feColorMatrix in="SourceAlpha" type="matrix" values="0 0 0 0 0 0 0 0 0 0 0 0 0 0 0 0 0 0 127 0" result="hardAlpha"/>
<feOffset dx="-5" dy="5"/>
<feGaussianBlur stdDeviation="10"/>
<feComposite in2="hardAlpha" operator="out"/>
<feColorMatrix type="matrix" values="0 0 0 0 0 0 0 0 0 0 0 0 0 0 0 0 0 0 0.4 0"/>
<feBlend mode="normal" in2="BackgroundImageFix" result="effect1_dropShadow_16_1576"/>
<feBlend mode="normal" in="SourceGraphic" in2="effect1_dropShadow_16_1576" result="shape"/>
</filter>
<filter id="filter2_d_16_1576" x="186.873" y="247.531" width="210.493" height="52.6302" filterUnits="userSpaceOnUse" color-interpolation-filters="sRGB">
<feFlood flood-opacity="0" result="BackgroundImageFix"/>
<feColorMatrix in="SourceAlpha" type="matrix" values="0 0 0 0 0 0 0 0 0 0 0 0 0 0 0 0 0 0 127 0" result="hardAlpha"/>
<feOffset dx="-5" dy="5"/>
<feGaussianBlur stdDeviation="10"/>
<feComposite in2="hardAlpha" operator="out"/>
<feColorMatrix type="matrix" values="0 0 0 0 0 0 0 0 0 0 0 0 0 0 0 0 0 0 0.4 0"/>
<feBlend mode="normal" in2="BackgroundImageFix" result="effect1_dropShadow_16_1576"/>
<feBlend mode="normal" in="SourceGraphic" in2="effect1_dropShadow_16_1576" result="shape"/>
</filter>
<filter id="filter3_d_16_1576" x="186.873" y="294.891" width="210.493" height="52.6302" filterUnits="userSpaceOnUse" color-interpolation-filters="sRGB">
<feFlood flood-opacity="0" result="BackgroundImageFix"/>
<feColorMatrix in="SourceAlpha" type="matrix" values="0 0 0 0 0 0 0 0 0 0 0 0 0 0 0 0 0 0 127 0" result="hardAlpha"/>
<feOffset dx="-5" dy="5"/>
<feGaussianBlur stdDeviation="10"/>
<feComposite in2="hardAlpha" operator="out"/>
<feColorMatrix type="matrix" values="0 0 0 0 0 0 0 0 0 0 0 0 0 0 0 0 0 0 0.4 0"/>
<feBlend mode="normal" in2="BackgroundImageFix" result="effect1_dropShadow_16_1576"/>
<feBlend mode="normal" in="SourceGraphic" in2="effect1_dropShadow_16_1576" result="shape"/>
</filter>
<filter id="filter4_d_16_1576" x="186.873" y="399.078" width="125.245" height="52.6302" filterUnits="userSpaceOnUse" color-interpolation-filters="sRGB">
<feFlood flood-opacity="0" result="BackgroundImageFix"/>
<feColorMatrix in="SourceAlpha" type="matrix" values="0 0 0 0 0 0 0 0 0 0 0 0 0 0 0 0 0 0 127 0" result="hardAlpha"/>
<feOffset dx="-5" dy="5"/>
<feGaussianBlur stdDeviation="10"/>
<feComposite in2="hardAlpha" operator="out"/>
<feColorMatrix type="matrix" values="0 0 0 0 0 0 0 0 0 0 0 0 0 0 0 0 0 0 0.4 0"/>
<feBlend mode="normal" in2="BackgroundImageFix" result="effect1_dropShadow_16_1576"/>
<feBlend mode="normal" in="SourceGraphic" in2="effect1_dropShadow_16_1576" result="shape"/>
</filter>
<filter id="filter5_d_16_1576" x="347.899" y="64.4111" width="77.8853" height="58.9426" filterUnits="userSpaceOnUse" color-interpolation-filters="sRGB">
<feFlood flood-opacity="0" result="BackgroundImageFix"/>
<feColorMatrix in="SourceAlpha" type="matrix" values="0 0 0 0 0 0 0 0 0 0 0 0 0 0 0 0 0 0 127 0" result="hardAlpha"/>
<feOffset dx="-5" dy="5"/>
<feGaussianBlur stdDeviation="10"/>
<feComposite in2="hardAlpha" operator="out"/>
<feColorMatrix type="matrix" values="0 0 0 0 0 0 0 0 0 0 0 0 0 0 0 0 0 0 0.4 0"/>
<feBlend mode="normal" in2="BackgroundImageFix" result="effect1_dropShadow_16_1576"/>
<feBlend mode="normal" in="SourceGraphic" in2="effect1_dropShadow_16_1576" result="shape"/>
</filter>
<filter id="filter6_d_16_1576" x="294.223" y="332.771" width="109.464" height="109.464" filterUnits="userSpaceOnUse" color-interpolation-filters="sRGB">
<feFlood flood-opacity="0" result="BackgroundImageFix"/>
<feColorMatrix in="SourceAlpha" type="matrix" values="0 0 0 0 0 0 0 0 0 0 0 0 0 0 0 0 0 0 127 0" result="hardAlpha"/>
<feOffset dx="-5" dy="5"/>
<feGaussianBlur stdDeviation="10"/>
<feComposite in2="hardAlpha" operator="out"/>
<feColorMatrix type="matrix" values="0 0 0 0 0 0 0 0 0 0 0 0 0 0 0 0 0 0 0.4 0"/>
<feBlend mode="normal" in2="BackgroundImageFix" result="effect1_dropShadow_16_1576"/>
<feBlend mode="normal" in="SourceGraphic" in2="effect1_dropShadow_16_1576" result="shape"/>
</filter>
<filter id="filter7_d_16_1576" x="331.539" y="397.188" width="75.2971" height="75.3588" filterUnits="userSpaceOnUse" color-interpolation-filters="sRGB">
<feFlood flood-opacity="0" result="BackgroundImageFix"/>
<feColorMatrix in="SourceAlpha" type="matrix" values="0 0 0 0 0 0 0 0 0 0 0 0 0 0 0 0 0 0 127 0" result="hardAlpha"/>
<feOffset dx="-5" dy="5"/>
<feGaussianBlur stdDeviation="10"/>
<feComposite in2="hardAlpha" operator="out"/>
<feColorMatrix type="matrix" values="0 0 0 0 0 0 0 0 0 0 0 0 0 0 0 0 0 0 0.4 0"/>
<feBlend mode="normal" in2="BackgroundImageFix" result="effect1_dropShadow_16_1576"/>
<feBlend mode="normal" in="SourceGraphic" in2="effect1_dropShadow_16_1576" result="shape"/>
</filter>
<filter id="filter8_d_16_1576" x="291.059" y="397.195" width="75.365" height="75.3586" filterUnits="userSpaceOnUse" color-interpolation-filters="sRGB">
<feFlood flood-opacity="0" result="BackgroundImageFix"/>
<feColorMatrix in="SourceAlpha" type="matrix" values="0 0 0 0 0 0 0 0 0 0 0 0 0 0 0 0 0 0 127 0" result="hardAlpha"/>
<feOffset dx="-5" dy="5"/>
<feGaussianBlur stdDeviation="10"/>
<feComposite in2="hardAlpha" operator="out"/>
<feColorMatrix type="matrix" values="0 0 0 0 0 0 0 0 0 0 0 0 0 0 0 0 0 0 0.4 0"/>
<feBlend mode="normal" in2="BackgroundImageFix" result="effect1_dropShadow_16_1576"/>
<feBlend mode="normal" in="SourceGraphic" in2="effect1_dropShadow_16_1576" result="shape"/>
</filter>
<filter id="filter9_d_16_1576" x="338.419" y="493.798" width="96.8279" height="52.6302" filterUnits="userSpaceOnUse" color-interpolation-filters="sRGB">
<feFlood flood-opacity="0" result="BackgroundImageFix"/>
<feColorMatrix in="SourceAlpha" type="matrix" values="0 0 0 0 0 0 0 0 0 0 0 0 0 0 0 0 0 0 127 0" result="hardAlpha"/>
<feOffset dx="-5" dy="5"/>
<feGaussianBlur stdDeviation="10"/>
<feComposite in2="hardAlpha" operator="out"/>
<feColorMatrix type="matrix" values="0 0 0 0 0 0 0 0 0 0 0 0 0 0 0 0 0 0 0.4 0"/>
<feBlend mode="normal" in2="BackgroundImageFix" result="effect1_dropShadow_16_1576"/>
<feBlend mode="normal" in="SourceGraphic" in2="effect1_dropShadow_16_1576" result="shape"/>
</filter>
<filter id="filter10_d_16_1576" x="338.419" y="522.211" width="96.8279" height="52.6302" filterUnits="userSpaceOnUse" color-interpolation-filters="sRGB">
<feFlood flood-opacity="0" result="BackgroundImageFix"/>
<feColorMatrix in="SourceAlpha" type="matrix" values="0 0 0 0 0 0 0 0 0 0 0 0 0 0 0 0 0 0 127 0" result="hardAlpha"/>
<feOffset dx="-5" dy="5"/>
<feGaussianBlur stdDeviation="10"/>
<feComposite in2="hardAlpha" operator="out"/>
<feColorMatrix type="matrix" values="0 0 0 0 0 0 0 0 0 0 0 0 0 0 0 0 0 0 0.4 0"/>
<feBlend mode="normal" in2="BackgroundImageFix" result="effect1_dropShadow_16_1576"/>
<feBlend mode="normal" in="SourceGraphic" in2="effect1_dropShadow_16_1576" result="shape"/>
</filter>
</defs>
</svg>
