<svg width="25" height="24" viewBox="0 0 25 24" fill="none" xmlns="http://www.w3.org/2000/svg">
<g clip-path="url(#clip0_16_1880)">
<path d="M22.5916 7.00049H15.5916V5.00049H22.5916V7.00049ZM24.3176 17.0005C23.8756 18.2975 22.2886 20.0005 19.2166 20.0005C16.1426 20.0005 13.6526 18.2715 13.6526 14.3255C13.6526 10.4155 15.9776 8.40549 19.1186 8.40549C22.2006 8.40549 24.0826 10.1875 24.4936 12.8315C24.5716 13.3375 24.6026 14.0195 24.5886 14.9715H16.5616C16.6916 18.1825 20.0446 18.2835 21.1496 17.0005H24.3176ZM16.6316 13.0005H21.5966C21.4916 11.4535 20.4606 10.7815 19.1196 10.7815C17.6536 10.7815 16.8426 11.5495 16.6316 13.0005ZM7.05755 19.9885H0.591553V5.02149H7.54455C13.0206 5.10249 13.1246 10.4655 10.2646 11.9275C13.7256 13.1875 13.8416 19.9885 7.05755 19.9885ZM3.59155 11.0005H7.17555C9.68355 11.0005 10.0816 8.00049 6.86355 8.00049H3.59155V11.0005ZM6.98255 14.0005H3.59155V17.0165H6.93255C9.98755 17.0165 9.80055 14.0005 6.98255 14.0005Z" fill="#7B3FE4"/>
</g>
<defs>
<clipPath id="clip0_16_1880">
<rect width="24" height="24" fill="white" transform="translate(0.591553)"/>
</clipPath>
</defs>
</svg>
