<svg width="25" height="24" viewBox="0 0 25 24" fill="none" xmlns="http://www.w3.org/2000/svg">
<path fill-rule="evenodd" clip-rule="evenodd" d="M1.5918 2.83825C1.5918 2.35078 1.78544 1.88328 2.13013 1.53858C2.47483 1.19389 2.94233 1.00025 3.4298 1.00025H21.7518C21.9934 0.999852 22.2327 1.04711 22.4559 1.13931C22.6792 1.23152 22.8821 1.36686 23.053 1.53758C23.224 1.70831 23.3595 1.91107 23.452 2.13426C23.5444 2.35744 23.5919 2.59667 23.5918 2.83825V21.1602C23.5921 21.4019 23.5447 21.6412 23.4524 21.8645C23.3601 22.0878 23.2246 22.2907 23.0538 22.4616C22.883 22.6325 22.6802 22.768 22.4569 22.8604C22.2337 22.9529 21.9944 23.0004 21.7528 23.0002H3.4298C3.18834 23.0002 2.94926 22.9527 2.72619 22.8602C2.50313 22.7678 2.30047 22.6323 2.12978 22.4616C1.95909 22.2908 1.82373 22.088 1.73142 21.8649C1.63911 21.6418 1.59167 21.4027 1.5918 21.1612V2.83825ZM10.2998 9.38825H13.2788V10.8842C13.7088 10.0242 14.8088 9.25025 16.4618 9.25025C19.6308 9.25025 20.3818 10.9632 20.3818 14.1062V19.9282H17.1748V14.8222C17.1748 13.0322 16.7448 12.0222 15.6528 12.0222C14.1378 12.0222 13.5078 13.1112 13.5078 14.8222V19.9282H10.2998V9.38825ZM4.7998 19.7912H8.0078V9.25025H4.7998V19.7902V19.7912ZM8.4668 5.81225C8.47285 6.08692 8.42397 6.36003 8.32304 6.61556C8.2221 6.87109 8.07115 7.10388 7.87903 7.30028C7.68691 7.49668 7.4575 7.65272 7.20425 7.75925C6.95101 7.86579 6.67904 7.92066 6.4043 7.92066C6.12956 7.92066 5.85759 7.86579 5.60434 7.75925C5.3511 7.65272 5.12169 7.49668 4.92957 7.30028C4.73745 7.10388 4.58649 6.87109 4.48556 6.61556C4.38463 6.36003 4.33575 6.08692 4.3418 5.81225C4.35367 5.2731 4.57618 4.76004 4.96168 4.38293C5.34718 4.00583 5.86502 3.79466 6.4043 3.79466C6.94357 3.79466 7.46141 4.00583 7.84691 4.38293C8.23241 4.76004 8.45493 5.2731 8.4668 5.81225Z" fill="#7B3FE4"/>
</svg>
