<svg width="25" height="24" viewBox="0 0 25 24" fill="none" xmlns="http://www.w3.org/2000/svg">
<g clip-path="url(#clip0_16_1802)">
<path d="M24.2344 4.93708C23.3994 5.30708 22.5024 5.55708 21.5594 5.67008C22.5324 5.08787 23.2604 4.17154 23.6074 3.09208C22.6933 3.63507 21.6928 4.01727 20.6494 4.22208C19.9478 3.47294 19.0185 2.9764 18.0058 2.80955C16.993 2.6427 15.9535 2.81487 15.0487 3.29933C14.1438 3.78379 13.4242 4.55344 13.0016 5.48878C12.579 6.42412 12.477 7.47283 12.7114 8.47208C10.8591 8.37907 9.04707 7.89763 7.39287 7.05898C5.73866 6.22034 4.27928 5.04324 3.10944 3.60408C2.70944 4.29408 2.47944 5.09408 2.47944 5.94608C2.479 6.71307 2.66787 7.46832 3.02932 8.14481C3.39077 8.8213 3.9136 9.39812 4.55144 9.82408C3.81172 9.80054 3.08832 9.60066 2.44144 9.24108V9.30108C2.44137 10.3768 2.81348 11.4195 3.49463 12.2521C4.17578 13.0847 5.12401 13.656 6.17844 13.8691C5.49223 14.0548 4.77278 14.0821 4.07444 13.9491C4.37194 14.8747 4.95144 15.6841 5.73181 16.264C6.51218 16.8439 7.45436 17.1653 8.42644 17.1831C6.77628 18.4785 4.73833 19.1812 2.64044 19.1781C2.26882 19.1782 1.89752 19.1565 1.52844 19.1131C3.65792 20.4823 6.13678 21.2089 8.66844 21.2061C17.2384 21.2061 21.9234 14.1081 21.9234 7.95208C21.9234 7.75208 21.9184 7.55008 21.9094 7.35008C22.8207 6.69105 23.6074 5.87497 24.2324 4.94008L24.2344 4.93708Z" fill="#7B3FE4"/>
</g>
<defs>
<clipPath id="clip0_16_1802">
<rect width="24" height="24" fill="white" transform="translate(0.591553)"/>
</clipPath>
</defs>
</svg>
