<svg width="57" height="57" viewBox="0 0 57 57" fill="none" xmlns="http://www.w3.org/2000/svg">
<path fill-rule="evenodd" clip-rule="evenodd" d="M37.7124 17.5212C37.8878 17.521 38.0615 17.5554 38.2235 17.6224C38.3856 17.6894 38.5329 17.7878 38.6569 17.9118C38.7809 18.0358 38.8792 18.183 38.9462 18.3451C39.0132 18.5072 39.0476 18.6809 39.0474 18.8563L39.0474 33.9412C39.0474 34.2953 38.9068 34.6348 38.6564 34.8852C38.406 35.1356 38.0665 35.2762 37.7124 35.2762C37.3583 35.2762 37.0187 35.1356 36.7684 34.8852C36.518 34.6348 36.3774 34.2953 36.3774 33.9412L36.3793 22.075L19.799 38.6552C19.549 38.9053 19.2098 39.0458 18.8562 39.0458C18.5026 39.0458 18.1634 38.9053 17.9134 38.6552C17.6633 38.4052 17.5229 38.0661 17.5229 37.7124C17.5229 37.3588 17.6633 37.0197 17.9134 36.7696L34.4936 20.1894L22.6274 20.1913C22.4521 20.1913 22.2785 20.1567 22.1166 20.0897C21.9546 20.0226 21.8074 19.9242 21.6834 19.8003C21.5595 19.6763 21.4611 19.5291 21.394 19.3671C21.327 19.2052 21.2924 19.0316 21.2924 18.8563C21.2924 18.6809 21.327 18.5073 21.394 18.3454C21.4611 18.1834 21.5595 18.0362 21.6834 17.9123C21.8074 17.7883 21.9546 17.69 22.1166 17.6229C22.2785 17.5558 22.4521 17.5212 22.6274 17.5212L37.7124 17.5212Z" fill="#525355"/>
</svg>
