<svg width="32" height="32" viewBox="0 0 32 32" fill="none" xmlns="http://www.w3.org/2000/svg">
<path d="M25.6928 7.10665C23.9195 6.27998 21.9995 5.67998 19.9995 5.33331C19.982 5.33275 19.9645 5.33604 19.9484 5.34295C19.9323 5.34987 19.9179 5.36023 19.9062 5.37331C19.6662 5.81331 19.3862 6.38665 19.1995 6.82665C17.0782 6.50665 14.9208 6.50665 12.7995 6.82665C12.6128 6.37331 12.3328 5.81331 12.0795 5.37331C12.0662 5.34665 12.0262 5.33331 11.9862 5.33331C9.98617 5.67998 8.0795 6.27998 6.29284 7.10665C6.2795 7.10665 6.26617 7.11998 6.25284 7.13331C2.62617 12.56 1.62617 17.84 2.11951 23.0666C2.11951 23.0933 2.13284 23.12 2.15951 23.1333C4.55951 24.8933 6.86617 25.96 9.14617 26.6666C9.18617 26.68 9.22617 26.6666 9.2395 26.64C9.77284 25.9066 10.2528 25.1333 10.6662 24.32C10.6928 24.2666 10.6662 24.2133 10.6128 24.2C9.85284 23.9066 9.13284 23.56 8.42617 23.16C8.37284 23.1333 8.37284 23.0533 8.41284 23.0133C8.5595 22.9066 8.70617 22.7866 8.85284 22.68C8.8795 22.6533 8.91951 22.6533 8.94617 22.6666C13.5328 24.76 18.4795 24.76 23.0128 22.6666C23.0395 22.6533 23.0795 22.6533 23.1062 22.68C23.2528 22.8 23.3995 22.9066 23.5462 23.0266C23.5995 23.0666 23.5995 23.1466 23.5328 23.1733C22.8395 23.5866 22.1062 23.92 21.3462 24.2133C21.2928 24.2266 21.2795 24.2933 21.2928 24.3333C21.7195 25.1466 22.1995 25.92 22.7195 26.6533C22.7595 26.6666 22.7995 26.68 22.8395 26.6666C25.1328 25.96 27.4395 24.8933 29.8395 23.1333C29.8662 23.12 29.8795 23.0933 29.8795 23.0666C30.4662 17.0266 28.9062 11.7866 25.7462 7.13331C25.7328 7.11998 25.7195 7.10665 25.6928 7.10665ZM11.3595 19.88C9.98617 19.88 8.83951 18.6133 8.83951 17.0533C8.83951 15.4933 9.95951 14.2266 11.3595 14.2266C12.7728 14.2266 13.8928 15.5066 13.8795 17.0533C13.8795 18.6133 12.7595 19.88 11.3595 19.88ZM20.6528 19.88C19.2795 19.88 18.1328 18.6133 18.1328 17.0533C18.1328 15.4933 19.2528 14.2266 20.6528 14.2266C22.0662 14.2266 23.1862 15.5066 23.1728 17.0533C23.1728 18.6133 22.0662 19.88 20.6528 19.88Z" fill="#7B3FE4"/>
</svg>
