<svg width="33" height="32" viewBox="0 0 33 32" fill="none" xmlns="http://www.w3.org/2000/svg">
<g clip-path="url(#clip0_210_47)">
<path d="M9.69848 3.07992C10.6998 3.41911 11.6523 3.88799 12.5318 4.47459C13.7739 4.15713 15.0511 3.99765 16.3331 3.99992C17.6571 3.99992 18.9345 4.16525 20.1318 4.47325C21.011 3.88722 21.9631 3.4188 22.9638 3.07992C23.8931 2.76392 25.2171 2.25192 26.0038 3.12259C26.5371 3.71459 26.6705 4.70659 26.7651 5.46392C26.8718 6.30925 26.8971 7.41059 26.6171 8.50392C27.6878 9.88659 28.3331 11.5359 28.3331 13.3333C28.3331 16.0559 26.8585 18.4199 24.6758 20.0573C23.6254 20.8353 22.4604 21.4453 21.2225 21.8653C21.5078 22.5186 21.6665 23.2413 21.6665 23.9999V27.9999C21.6665 28.3535 21.526 28.6927 21.276 28.9427C21.0259 29.1928 20.6868 29.3333 20.3331 29.3333H12.3332C11.9795 29.3333 11.6404 29.1928 11.3903 28.9427C11.1403 28.6927 10.9998 28.3535 10.9998 27.9999V26.6786C9.72648 26.8346 8.65848 26.6959 7.75048 26.3106C6.80115 25.9079 6.13982 25.2839 5.64248 24.6866C5.17048 24.1213 4.65582 22.8466 3.91182 22.5986C3.74565 22.5433 3.59201 22.4557 3.45967 22.341C3.32732 22.2263 3.21887 22.0867 3.1405 21.9301C2.98222 21.6137 2.95607 21.2475 3.06782 20.9119C3.17956 20.5763 3.42004 20.2989 3.73635 20.1406C4.05266 19.9823 4.4189 19.9562 4.75448 20.0679C5.64248 20.3639 6.22115 21.0039 6.61715 21.5186C7.25715 22.3453 7.77715 23.4253 8.79048 23.8559C9.20782 24.0333 9.81982 24.1493 10.7772 24.0186L10.9998 23.9733C11.0024 23.2476 11.1535 22.5302 11.4438 21.8653C10.2059 21.4453 9.0409 20.8353 7.99048 20.0573C5.80782 18.4199 4.33315 16.0573 4.33315 13.3333C4.33315 11.5386 4.97715 9.89059 6.04515 8.50925C5.76515 7.41592 5.78915 6.31192 5.89582 5.46525L5.90248 5.41459C5.99982 4.63859 6.11315 3.72525 6.65715 3.12259C7.44382 2.25192 8.76915 2.76525 9.69715 3.08125L9.69848 3.07992Z" fill="#7B3FE4"/>
</g>
<defs>
<clipPath id="clip0_210_47">
<rect width="32" height="32" fill="white" transform="translate(0.333496)"/>
</clipPath>
</defs>
</svg>
