<svg width="1974" height="800" viewBox="0 0 1974 800" fill="none" xmlns="http://www.w3.org/2000/svg">
<path d="M178.428 385.013L351.628 212.012L524.829 385.013L461.2 575.681C476.852 580.89 492.008 587.184 506.577 594.475L596.57 414.697H698.029V600.244L351.629 800.008L5.22852 600.244V414.696H106.688L196.681 594.475C211.25 587.184 226.405 580.89 242.057 575.681L178.428 385.013Z" fill="#7B3FE4"/>
<path d="M19.2285 208.083L351.629 16.1659L684.029 208.083L684.029 591.917L351.629 783.834L19.2285 591.917L19.2285 208.083Z" stroke="#7B3FE4" stroke-width="28"/>
<path d="M813.431 201.688L841.111 304.593H841.534L874.92 201.688H907.884L939.157 304.593H939.579L969.584 201.688H1012.69L961.766 361.012H919.505L891.613 268.672H891.191L859.918 361.012H817.868L770.325 201.688H813.431ZM1125.14 309.242V313.257H1044.21C1044.21 321.146 1046.25 327.203 1050.33 331.429C1054.42 335.514 1060.41 337.557 1068.29 337.557C1072.38 337.557 1075.9 336.782 1078.86 335.233C1081.96 333.683 1084.57 331.147 1086.68 327.626L1123.66 327.414C1120.56 340.374 1113.65 349.813 1102.95 355.729C1092.38 361.646 1080.9 364.604 1068.51 364.604C1050.62 364.604 1035.68 359.744 1023.71 350.024C1011.74 340.163 1005.75 325.865 1005.75 307.129C1005.75 289.098 1011.31 274.94 1022.44 264.657C1033.71 254.374 1048.15 249.232 1065.76 249.232C1084.64 249.232 1099.22 254.655 1109.5 265.502C1119.92 276.349 1125.14 291 1125.14 309.453V309.242ZM1044.84 291.07H1089.43C1088.44 285.999 1085.83 281.914 1081.61 278.814C1077.52 275.715 1072.87 274.166 1067.66 274.166C1062.03 274.166 1057.1 275.645 1052.87 278.603C1048.64 281.42 1045.97 285.647 1044.84 291.281V291.07ZM1141.48 361.012V185.629H1179.94V263.178C1183.74 258.952 1188.32 255.712 1193.67 253.458C1199.17 251.063 1204.73 249.654 1210.37 249.232C1210.93 249.232 1211.42 249.232 1211.84 249.232C1212.41 249.232 1212.97 249.232 1213.54 249.232C1229.59 249.232 1242.62 255.007 1252.63 266.559C1262.77 277.969 1267.84 291.422 1267.84 306.918C1267.84 322.554 1262.77 336.078 1252.63 347.488C1242.48 358.899 1229.31 364.604 1213.11 364.604C1212.69 364.604 1212.27 364.604 1211.84 364.604C1211.42 364.604 1211 364.604 1210.58 364.604C1204.66 364.322 1198.96 362.984 1193.46 360.589C1187.97 358.053 1183.6 354.25 1180.36 349.179L1179.94 348.967V361.012H1141.48ZM1203.39 282.407C1195.64 282.547 1189.59 285.083 1185.22 290.013C1180.85 294.803 1178.67 300.508 1178.67 307.129C1178.67 314.032 1180.85 319.807 1185.22 324.456C1189.59 329.105 1195.64 331.429 1203.39 331.429C1211.28 331.429 1217.34 329.105 1221.56 324.456C1225.93 319.807 1228.12 314.032 1228.12 307.129C1228.12 300.508 1225.93 294.803 1221.56 290.013C1217.34 285.083 1211.28 282.618 1203.39 282.618V282.407ZM1327.99 247.541H1289.53C1290.37 239.371 1292.42 232.116 1295.66 225.777C1298.9 219.297 1303.05 213.803 1308.12 209.295C1313.19 204.787 1319.18 201.407 1326.08 199.153C1332.99 196.758 1340.52 195.561 1348.69 195.561C1362.92 195.561 1374.97 199.575 1384.83 207.605C1394.69 215.494 1399.62 226.904 1399.62 241.836C1399.62 242.54 1399.62 243.245 1399.62 243.949C1399.62 244.654 1399.55 245.358 1399.41 246.062C1398.98 251.697 1397.43 257.12 1394.76 262.333C1392.08 267.545 1388.14 271.63 1382.93 274.588C1389.97 276.42 1395.6 280.364 1399.83 286.421C1404.06 292.479 1406.8 299.029 1408.07 306.073C1408.35 307.481 1408.56 308.96 1408.7 310.51C1408.85 311.919 1408.92 313.327 1408.92 314.736C1408.92 332.204 1402.58 345.375 1389.9 354.25C1377.22 362.984 1362.92 367.351 1347 367.351C1337.99 367.351 1329.39 366.013 1321.22 363.336C1313.19 360.66 1305.94 356.081 1299.46 349.601C1296.08 346.08 1292.84 341.853 1289.74 336.923C1286.78 331.852 1284.53 326.71 1282.98 321.498C1282.41 319.526 1281.99 317.624 1281.71 315.793C1281.43 313.961 1281.29 312.13 1281.29 310.299C1281.29 310.158 1281.29 310.017 1281.29 309.876C1281.29 309.735 1281.29 309.665 1281.29 309.665C1281.29 309.524 1281.29 309.453 1281.29 309.453L1323.55 309.242C1323.55 315.722 1325.59 321.146 1329.68 325.513C1333.9 329.88 1339.26 332.063 1345.74 332.063C1352.07 332.063 1357.36 330.161 1361.58 326.358C1365.81 322.413 1367.92 317.201 1367.92 310.721C1367.92 304.664 1365.67 299.593 1361.16 295.507C1356.79 291.422 1351.72 289.38 1345.95 289.38C1344.68 289.38 1343.41 289.52 1342.14 289.802C1341.02 290.084 1339.89 290.366 1338.76 290.647V262.755H1342.99C1348.34 262.896 1352.71 261.417 1356.09 258.318C1359.47 255.219 1361.16 250.922 1361.16 245.428C1361.16 240.498 1359.61 236.624 1356.51 233.807C1353.41 230.848 1349.54 229.369 1344.89 229.369C1339.68 229.369 1335.52 231.13 1332.42 234.652C1329.47 238.033 1327.99 242.259 1327.99 247.33C1327.99 247.33 1327.99 247.4 1327.99 247.541C1327.99 247.541 1327.99 247.612 1327.99 247.753V247.541ZM787.018 604.012V444.688H850.409C867.595 444.829 881.541 449.055 892.247 457.367C902.953 465.678 908.306 478.99 908.306 497.303C908.306 516.039 903.376 529.774 893.515 538.507C883.795 547.1 869.919 551.397 851.888 551.397L828.433 551.186V604.012H787.018ZM828.433 478.074V517.8H835.406C842.872 517.94 849.705 517.236 855.903 515.687C862.101 513.996 865.2 508.291 865.2 498.571C865.2 488.569 862.242 482.723 856.325 481.033C850.409 479.201 843.436 478.286 835.406 478.286L828.433 478.074ZM925.873 428.629H964.33V509.347H964.753C969.26 503.572 974.261 499.275 979.755 496.458C985.39 493.64 991.94 492.232 999.406 492.232C1013.21 492.232 1023.42 496.387 1030.05 504.699C1036.81 513.01 1040.19 524.068 1040.19 537.873V604.012H1001.73V548.439C1001.73 548.439 1001.73 548.368 1001.73 548.227C1001.73 547.946 1001.73 547.664 1001.73 547.382C1001.73 541.325 1000.67 535.76 998.561 530.689C996.589 525.477 991.87 522.871 984.404 522.871C977.079 522.871 971.937 525.477 968.979 530.689C966.02 535.76 964.471 541.325 964.33 547.382C964.33 547.664 964.33 547.946 964.33 548.227C964.33 548.368 964.33 548.509 964.33 548.65V604.012H925.873V428.629ZM1104.03 495.613V604.012H1065.57V495.613H1104.03ZM1084.8 432.433C1090.72 432.574 1095.79 434.757 1100.02 438.983C1104.24 443.209 1106.35 448.281 1106.35 454.197C1106.35 460.114 1104.24 465.185 1100.02 469.411C1095.79 473.637 1090.72 475.75 1084.8 475.75C1078.88 475.75 1073.81 473.637 1069.59 469.411C1065.36 465.185 1063.25 460.114 1063.25 454.197C1063.25 448.281 1065.36 443.209 1069.59 438.983C1073.81 434.757 1078.88 432.644 1084.8 432.644V432.433ZM1167.79 428.629V604.012H1129.34V428.629H1167.79ZM1231.56 495.613V604.012H1193.1V495.613H1231.56ZM1212.33 432.433C1218.24 432.574 1223.31 434.757 1227.54 438.983C1231.77 443.209 1233.88 448.281 1233.88 454.197C1233.88 460.114 1231.77 465.185 1227.54 469.411C1223.31 473.637 1218.24 475.75 1212.33 475.75C1206.41 475.75 1201.34 473.637 1197.11 469.411C1192.89 465.185 1190.77 460.114 1190.77 454.197C1190.77 448.281 1192.89 443.209 1197.11 438.983C1201.34 434.757 1206.41 432.644 1212.33 432.644V432.433ZM1294.05 495.613V507.868H1294.47C1297.71 502.938 1302.08 499.205 1307.57 496.669C1313.07 493.993 1318.77 492.514 1324.69 492.232C1325.11 492.232 1325.53 492.232 1325.96 492.232C1326.38 492.232 1326.8 492.232 1327.23 492.232C1343.43 492.232 1356.6 498.078 1366.74 509.77C1376.88 521.321 1381.95 534.845 1381.95 550.34C1381.95 565.977 1376.88 579.43 1366.74 590.7C1356.74 601.969 1343.71 607.604 1327.65 607.604C1327.08 607.604 1326.52 607.604 1325.96 607.604C1325.53 607.604 1325.04 607.604 1324.48 607.604C1318.84 607.181 1313.28 605.913 1307.79 603.8C1302.43 601.547 1297.85 598.236 1294.05 593.869V658.106H1255.59V495.613H1294.05ZM1317.51 525.407C1309.76 525.547 1303.7 528.083 1299.33 533.013C1294.97 537.803 1292.78 543.508 1292.78 550.129C1292.78 557.032 1294.97 562.807 1299.33 567.456C1303.7 572.105 1309.76 574.429 1317.51 574.429C1325.39 574.429 1331.45 572.105 1335.68 567.456C1340.04 562.807 1342.23 557.032 1342.23 550.129C1342.23 543.508 1340.04 537.803 1335.68 533.013C1331.45 528.083 1325.39 525.618 1317.51 525.618V525.407ZM1438.08 495.613V507.868H1438.51C1441.75 502.938 1446.11 499.205 1451.61 496.669C1457.1 493.993 1462.81 492.514 1468.72 492.232C1469.15 492.232 1469.57 492.232 1469.99 492.232C1470.41 492.232 1470.84 492.232 1471.26 492.232C1487.46 492.232 1500.63 498.078 1510.77 509.77C1520.92 521.321 1525.99 534.845 1525.99 550.34C1525.99 565.977 1520.92 579.43 1510.77 590.7C1500.77 601.969 1487.74 607.604 1471.68 607.604C1471.12 607.604 1470.55 607.604 1469.99 607.604C1469.57 607.604 1469.08 607.604 1468.51 607.604C1462.88 607.181 1457.31 605.913 1451.82 603.8C1446.47 601.547 1441.89 598.236 1438.08 593.869V658.106H1399.63V495.613H1438.08ZM1461.54 525.407C1453.79 525.547 1447.73 528.083 1443.37 533.013C1439 537.803 1436.82 543.508 1436.82 550.129C1436.82 557.032 1439 562.807 1443.37 567.456C1447.73 572.105 1453.79 574.429 1461.54 574.429C1469.43 574.429 1475.48 572.105 1479.71 567.456C1484.08 562.807 1486.26 557.032 1486.26 550.129C1486.26 543.508 1484.08 537.803 1479.71 533.013C1475.48 528.083 1469.43 525.618 1461.54 525.618V525.407ZM1583.39 495.613V604.012H1544.93V495.613H1583.39ZM1564.16 432.433C1570.07 432.574 1575.14 434.757 1579.37 438.983C1583.6 443.209 1585.71 448.281 1585.71 454.197C1585.71 460.114 1583.6 465.185 1579.37 469.411C1575.14 473.637 1570.07 475.75 1564.16 475.75C1558.24 475.75 1553.17 473.637 1548.94 469.411C1544.72 465.185 1542.6 460.114 1542.6 454.197C1542.6 448.281 1544.72 443.209 1548.94 438.983C1553.17 434.757 1558.24 432.644 1564.16 432.644V432.433ZM1647.15 495.613V509.559H1647.57C1652.08 503.079 1657.08 498.571 1662.57 496.035C1668.21 493.5 1674.76 492.232 1682.22 492.232C1696.87 492.232 1707.3 496.387 1713.5 504.699C1719.84 513.01 1723.01 523.857 1723.01 537.24V604.012H1684.55V551.186C1684.55 550.904 1684.55 550.552 1684.55 550.129C1684.55 549.707 1684.55 549.284 1684.55 548.861C1684.55 547.593 1684.55 546.255 1684.55 544.847C1684.55 543.438 1684.48 542.029 1684.34 540.62C1684.06 536.253 1682.79 532.239 1680.53 528.576C1678.28 524.773 1673.84 522.871 1667.22 522.871C1659.47 522.871 1654.19 525.407 1651.37 530.478C1648.56 535.408 1647.15 541.254 1647.15 548.016V604.012H1608.69V495.613H1647.15ZM1859.75 552.242V556.257H1778.82C1778.82 564.146 1780.86 570.203 1784.95 574.429C1789.03 578.514 1795.02 580.557 1802.91 580.557C1806.99 580.557 1810.51 579.782 1813.47 578.233C1816.57 576.683 1819.18 574.147 1821.29 570.626L1858.27 570.414C1855.17 583.374 1848.27 592.813 1837.56 598.729C1827 604.646 1815.52 607.604 1803.12 607.604C1785.23 607.604 1770.3 602.744 1758.32 593.024C1746.35 583.163 1740.36 568.865 1740.36 550.129C1740.36 532.098 1745.93 517.94 1757.05 507.657C1768.32 497.374 1782.76 492.232 1800.37 492.232C1819.25 492.232 1833.83 497.655 1844.11 508.502C1854.54 519.349 1859.75 534 1859.75 552.453V552.242ZM1779.45 534.07H1824.04C1823.05 528.999 1820.45 524.914 1816.22 521.814C1812.13 518.715 1807.49 517.166 1802.27 517.166C1796.64 517.166 1791.71 518.645 1787.48 521.603C1783.26 524.42 1780.58 528.647 1779.45 534.281V534.07ZM1961.88 498.994L1948.99 523.505C1947.3 522.66 1945.4 521.885 1943.29 521.18C1941.32 520.476 1939.27 519.913 1937.16 519.49C1935.61 519.208 1934.06 518.997 1932.51 518.856C1931.1 518.574 1929.69 518.434 1928.28 518.434C1927.58 518.434 1926.81 518.504 1925.96 518.645C1925.26 518.645 1924.55 518.786 1923.85 519.067C1921.88 519.49 1920.11 520.265 1918.56 521.392C1917.02 522.378 1916.24 523.857 1916.24 525.829C1916.24 528.224 1917.23 530.055 1919.2 531.323C1921.31 532.45 1923.64 533.295 1926.17 533.859C1927.58 534.281 1928.92 534.633 1930.19 534.915C1931.45 535.056 1932.58 535.197 1933.57 535.338C1942.58 537.169 1950.05 540.48 1955.97 545.269C1962.02 550.059 1965.05 557.454 1965.05 567.456C1965.05 581.261 1959.98 591.333 1949.84 597.673C1939.7 603.871 1928.5 607.181 1916.24 607.604C1915.82 607.604 1915.4 607.604 1914.97 607.604C1914.69 607.604 1914.34 607.604 1913.92 607.604C1906.17 607.604 1898.56 606.547 1891.1 604.434C1883.77 602.321 1876.8 599.293 1870.18 595.348L1884.12 568.301C1886.52 570.133 1889.26 571.823 1892.36 573.373C1895.46 574.781 1898.63 576.049 1901.87 577.176C1904.13 577.88 1906.31 578.444 1908.42 578.867C1910.54 579.289 1912.58 579.5 1914.55 579.5C1915.11 579.5 1915.68 579.5 1916.24 579.5C1916.94 579.36 1917.65 579.219 1918.35 579.078C1920.47 578.655 1922.37 577.81 1924.06 576.542C1925.75 575.274 1926.59 573.513 1926.59 571.26C1926.59 568.16 1925.12 565.977 1922.16 564.709C1919.2 563.3 1915.68 562.173 1911.59 561.328C1910.04 561.047 1908.49 560.765 1906.94 560.483C1905.53 560.06 1904.06 559.638 1902.51 559.215C1896.45 557.666 1890.88 554.989 1885.81 551.186C1880.88 547.241 1878.42 540.409 1878.42 530.689C1878.42 517.588 1883.28 507.939 1893 501.74C1902.72 495.542 1913.35 492.373 1924.9 492.232C1925.19 492.232 1925.4 492.232 1925.54 492.232C1925.82 492.232 1926.03 492.232 1926.17 492.232C1932.37 492.232 1938.43 492.795 1944.34 493.922C1950.4 494.908 1956.25 496.669 1961.88 499.205V498.994Z" fill="#7B3FE4"/>
</svg>
