<svg width="294" height="120" viewBox="0 0 294 120" fill="none" xmlns="http://www.w3.org/2000/svg">
<g clip-path="url(#clip0_497_2553)">
<path fill-rule="evenodd" clip-rule="evenodd" d="M51.9601 4.84978L4.20007 32.4248V62.2027H15.2189L28.7178 89.1695C30.9032 88.0759 33.1765 87.1318 35.5243 86.3504L25.98 57.7502L51.96 31.8001L77.94 57.7502L68.3957 86.3504C70.7435 87.1318 73.0169 88.076 75.2023 89.1696L88.7012 62.2028H99.7202V32.4248L51.9601 4.84978ZM7.31002e-05 30V62.2027H0V90.0349L51.3483 119.647L51.9601 120L52.6949 119.576L103.92 90.0349V90L103.92 90V30L51.9601 0L7.31002e-05 30ZM125.382 45.9372L121.23 30.5014H114.764L121.896 54.3999H128.203L132.894 40.5489H132.957L137.141 54.3999H143.48L151.119 30.5014H144.653L140.152 45.9372H140.089L135.398 30.5014H130.453L125.445 45.9372H125.382ZM167.986 47.2367V46.6662C167.986 43.8981 167.204 41.7005 165.64 40.0735C164.098 38.4464 161.911 37.6329 159.079 37.6329C156.438 37.6329 154.272 38.4042 152.582 39.9467C150.912 41.4892 150.078 43.6128 150.078 46.3175C150.078 49.1278 150.976 51.2726 152.772 52.7517C154.568 54.2097 156.808 54.9387 159.491 54.9387C161.351 54.9387 163.073 54.495 164.658 53.6075C166.264 52.72 167.299 51.3043 167.764 49.3603L162.217 49.392C161.9 49.9202 161.509 50.3006 161.044 50.533C160.601 50.7655 160.072 50.8817 159.46 50.8817C158.276 50.8817 157.378 50.5753 156.765 49.9625C156.153 49.3286 155.846 48.42 155.846 47.2367H167.986ZM155.948 43.9086H162.629C162.481 43.1479 162.09 42.5352 161.456 42.0703C160.844 41.6054 160.146 41.373 159.364 41.373C158.519 41.373 157.78 41.5949 157.146 42.0386C156.52 42.4559 156.12 43.0793 155.948 43.9086ZM170.437 28.0925V54.3999H176.206V52.5932L176.269 52.6249C176.755 53.3856 177.41 53.9562 178.235 54.3365C179.059 54.6957 179.914 54.8965 180.802 54.9387H180.992H181.182C183.612 54.9387 185.588 54.0829 187.109 52.3714C188.631 50.6598 189.391 48.6313 189.391 46.2858C189.391 43.9615 188.631 41.9435 187.109 40.2319C185.609 38.4992 183.654 37.6329 181.246 37.6329H180.992H180.77C179.925 37.6963 179.09 37.9076 178.266 38.2668C177.463 38.6049 176.777 39.0909 176.206 39.7248V28.0925H170.437ZM176.998 43.7502C177.653 43.0106 178.562 42.6302 179.724 42.6091V42.6408C180.908 42.6408 181.816 43.0106 182.45 43.7502C183.105 44.4686 183.433 45.3244 183.433 46.3175C183.433 47.3529 183.105 48.2192 182.45 48.9165C181.816 49.6138 180.908 49.9625 179.724 49.9625C178.562 49.9625 177.653 49.6138 176.998 48.9165C176.343 48.2192 176.016 47.3529 176.016 46.3175C176.016 45.3244 176.343 44.4686 176.998 43.7502ZM192.645 37.3793H198.413V37.3476C198.413 36.5869 198.635 35.953 199.079 35.4459C199.544 34.9176 200.167 34.6535 200.949 34.6535C201.646 34.6535 202.227 34.8754 202.692 35.3191C203.157 35.7417 203.389 36.3228 203.389 37.0624C203.389 37.8865 203.136 38.5309 202.629 38.9958C202.122 39.4607 201.467 39.6826 200.664 39.6614H200.03V43.8452L200.537 43.7185C200.727 43.6762 200.917 43.6551 201.107 43.6551C201.974 43.6551 202.734 43.9615 203.389 44.5742C204.066 45.187 204.404 45.9477 204.404 46.8563C204.404 47.8283 204.087 48.6102 203.453 49.2018C202.819 49.7723 202.027 50.0576 201.076 50.0576C200.104 50.0576 199.301 49.7301 198.667 49.075C198.054 48.42 197.748 47.6065 197.748 46.6345L191.409 46.6662V46.6979V46.7295V46.7929C191.409 47.0676 191.43 47.3423 191.472 47.617C191.514 47.8917 191.578 48.177 191.662 48.4728C191.895 49.2546 192.233 50.0259 192.676 50.7866C193.141 51.5262 193.627 52.1601 194.134 52.6883C195.106 53.6603 196.195 54.3471 197.399 54.7485C198.625 55.15 199.914 55.3508 201.266 55.3508C203.654 55.3508 205.798 54.6957 207.7 53.3856C209.602 52.0544 210.553 50.0787 210.553 47.4585C210.553 47.2472 210.542 47.0359 210.521 46.8246C210.5 46.5922 210.468 46.3703 210.426 46.159C210.236 45.1025 209.824 44.1199 209.19 43.2113C208.556 42.3027 207.711 41.7111 206.654 41.4364C207.436 40.9926 208.028 40.3799 208.429 39.598C208.831 38.8162 209.063 38.0027 209.126 37.1575C209.148 37.0518 209.158 36.9462 209.158 36.8405V36.5236C209.158 34.2837 208.418 32.5722 206.939 31.3889C205.46 30.1844 203.654 29.5822 201.519 29.5822C200.294 29.5822 199.163 29.7618 198.128 30.121C197.093 30.4591 196.195 30.9663 195.434 31.6424C194.673 32.3186 194.05 33.1427 193.564 34.1147C193.078 35.0656 192.771 36.1538 192.645 37.3793ZM117.268 66.5014V90.3999H123.48V82.476L126.999 82.5077C129.703 82.5077 131.785 81.8632 133.243 80.5742C134.722 79.2642 135.461 77.2039 135.461 74.3936C135.461 71.6466 134.658 69.6498 133.052 68.4031C131.446 67.1564 129.355 66.5225 126.777 66.5014H117.268ZM123.48 77.4681V71.5093L124.526 71.541C125.731 71.541 126.777 71.6783 127.664 71.953C128.552 72.2066 128.995 73.0835 128.995 74.5838C128.995 76.0418 128.53 76.8976 127.601 77.1511C126.671 77.3836 125.646 77.4892 124.526 77.4681H123.48ZM143.865 64.0925H138.096V90.3999H143.865V82.0956V82.0322V81.9055C143.886 80.9968 144.118 80.1622 144.562 79.4015C145.006 78.6197 145.777 78.2288 146.876 78.2288C147.996 78.2288 148.704 78.6197 149 79.4015C149.316 80.1622 149.475 80.9968 149.475 81.9055V82.0322V82.0639V90.3999H155.244V80.4792C155.244 78.4084 154.736 76.7496 153.722 75.5029C152.729 74.2562 151.197 73.6329 149.126 73.6329C148.006 73.6329 147.024 73.8442 146.179 74.2668C145.355 74.6894 144.604 75.3339 143.928 76.2002H143.865V64.0925ZM164.82 90.3999V74.14H159.051V90.3999H164.82ZM164.218 65.6456C163.584 65.0117 162.823 64.6842 161.936 64.663V64.6947C161.048 64.6947 160.287 65.0117 159.653 65.6456C159.02 66.2795 158.703 67.0402 158.703 67.9277C158.703 68.8152 159.02 69.5759 159.653 70.2098C160.287 70.8437 161.048 71.1606 161.936 71.1606C162.823 71.1606 163.584 70.8437 164.218 70.2098C164.852 69.5759 165.168 68.8152 165.168 67.9277C165.168 67.0402 164.852 66.2795 164.218 65.6456ZM174.384 90.3999V64.0925H168.616V90.3999H174.384ZM183.949 90.3999V74.14H178.18V90.3999H183.949ZM183.346 65.6456C182.713 65.0117 181.952 64.6842 181.064 64.663V64.6947C180.177 64.6947 179.416 65.0117 178.782 65.6456C178.148 66.2795 177.831 67.0402 177.831 67.9277C177.831 68.8152 178.148 69.5759 178.782 70.2098C179.416 70.8437 180.177 71.1606 181.064 71.1606C181.952 71.1606 182.713 70.8437 183.346 70.2098C183.98 69.5759 184.297 68.8152 184.297 67.9277C184.297 67.0402 183.98 66.2795 183.346 65.6456ZM193.323 75.9784V74.14H187.554V98.514H193.323V88.8785C193.893 89.5335 194.58 90.0301 195.383 90.3682C196.207 90.6852 197.042 90.8753 197.887 90.9387H198.109H198.362C200.771 90.9387 202.726 90.0935 204.226 88.4031C205.748 86.7126 206.508 84.6947 206.508 82.3492C206.508 80.0249 205.748 77.9963 204.226 76.2636C202.705 74.5098 200.729 73.6329 198.299 73.6329H198.109H197.919C197.031 73.6752 196.175 73.897 195.351 74.2985C194.527 74.6789 193.872 75.2388 193.386 75.9784H193.323ZM194.115 79.7502C194.77 79.0106 195.679 78.6302 196.841 78.6091V78.6408C198.024 78.6408 198.933 79.0106 199.567 79.7502C200.222 80.4686 200.549 81.3244 200.549 82.3175C200.549 83.3529 200.222 84.2192 199.567 84.9165C198.933 85.6139 198.024 85.9625 196.841 85.9625C195.679 85.9625 194.77 85.6139 194.115 84.9165C193.46 84.2192 193.133 83.3529 193.133 82.3175C193.133 81.3244 193.46 80.4686 194.115 79.7502ZM214.928 75.9784V74.14H209.159V98.514H214.928V88.8785C215.498 89.5335 216.185 90.0301 216.988 90.3682C217.812 90.6852 218.647 90.8753 219.492 90.9387H219.714H219.968C222.376 90.9387 224.331 90.0935 225.831 88.4031C227.353 86.7126 228.113 84.6947 228.113 82.3492C228.113 80.0249 227.353 77.9963 225.831 76.2636C224.31 74.5098 222.334 73.6329 219.904 73.6329H219.714H219.524C218.636 73.6752 217.781 73.897 216.956 74.2985C216.132 74.6789 215.477 75.2388 214.991 75.9784H214.928ZM215.72 79.7502C216.375 79.0106 217.284 78.6302 218.446 78.6091V78.6408C219.629 78.6408 220.538 79.0106 221.172 79.7502C221.827 80.4686 222.155 81.3244 222.155 82.3175C222.155 83.3529 221.827 84.2192 221.172 84.9165C220.538 85.6139 219.629 85.9625 218.446 85.9625C217.284 85.9625 216.375 85.6139 215.72 84.9165C215.065 84.2192 214.738 83.3529 214.738 82.3175C214.738 81.3244 215.065 80.4686 215.72 79.7502ZM236.723 90.3999V74.14H230.955V90.3999H236.723ZM236.121 65.6456C235.487 65.0117 234.726 64.6842 233.839 64.663V64.6947C232.951 64.6947 232.191 65.0117 231.557 65.6456C230.923 66.2795 230.606 67.0402 230.606 67.9277C230.606 68.8152 230.923 69.5759 231.557 70.2098C232.191 70.8437 232.951 71.1606 233.839 71.1606C234.726 71.1606 235.487 70.8437 236.121 70.2098C236.755 69.5759 237.072 68.8152 237.072 67.9277C237.072 67.0402 236.755 66.2795 236.121 65.6456ZM246.288 76.2319V74.14H240.519V90.3999H246.288V82.0005C246.288 80.9863 246.499 80.1094 246.921 79.3698C247.344 78.6091 248.136 78.2288 249.299 78.2288C250.292 78.2288 250.957 78.514 251.295 79.0845C251.634 79.6339 251.824 80.2362 251.866 80.8912C251.887 81.1025 251.898 81.3138 251.898 81.5251V82.1273V82.3175V82.476V90.3999H257.666V80.3841C257.666 78.3767 257.191 76.7496 256.24 75.5029C255.31 74.2562 253.747 73.6329 251.549 73.6329C250.429 73.6329 249.447 73.8231 248.601 74.2034C247.777 74.5838 247.027 75.2599 246.351 76.2319H246.288ZM278.178 83.2367V82.6662C278.178 79.8981 277.396 77.7005 275.832 76.0735C274.29 74.4464 272.103 73.6329 269.271 73.6329C266.63 73.6329 264.464 74.4042 262.773 75.9467C261.104 77.4892 260.269 79.6128 260.269 82.3175C260.269 85.1279 261.168 87.2726 262.964 88.7517C264.76 90.2097 267 90.9387 269.683 90.9387C271.543 90.9387 273.265 90.495 274.849 89.6075C276.455 88.72 277.491 87.3043 277.956 85.3603L272.409 85.392C272.092 85.9202 271.701 86.3006 271.236 86.533C270.792 86.7655 270.264 86.8817 269.651 86.8817C268.468 86.8817 267.57 86.5753 266.957 85.9625C266.344 85.3286 266.038 84.42 266.038 83.2367H278.178ZM266.14 79.9086H272.821C272.673 79.1479 272.282 78.5352 271.648 78.0703C271.035 77.6054 270.338 77.373 269.556 77.373C268.711 77.373 267.972 77.5949 267.338 78.0386C266.712 78.4559 266.312 79.0793 266.14 79.9086ZM293.484 74.6728L293.498 74.6472V74.6789C293.493 74.6768 293.489 74.6748 293.484 74.6728ZM291.564 78.3239L293.484 74.6728C292.643 74.2957 291.771 74.0336 290.867 73.8865C289.979 73.7174 289.071 73.6329 288.141 73.6329H288.046H287.951C286.218 73.654 284.623 74.1295 283.165 75.0592C281.707 75.9889 280.978 77.4364 280.978 79.4015C280.978 80.8595 281.348 81.8843 282.087 82.476C282.848 83.0465 283.683 83.448 284.591 83.6804C284.824 83.7438 285.045 83.8072 285.257 83.8706L285.954 83.9974C286.567 84.1242 287.095 84.2932 287.539 84.5045C287.983 84.6947 288.204 85.0222 288.204 85.4871C288.204 85.8252 288.078 86.0893 287.824 86.2795C287.571 86.4696 287.285 86.5964 286.968 86.6598L286.651 86.7232H286.398C286.102 86.7232 285.796 86.6915 285.479 86.6281C285.162 86.5647 284.834 86.4802 284.496 86.3745C284.01 86.2055 283.535 86.0153 283.07 85.804C282.605 85.5716 282.193 85.318 281.834 85.0433L279.742 89.1004C280.735 89.692 281.781 90.1463 282.88 90.4633C284 90.7802 285.141 90.9387 286.303 90.9387H286.461H286.651C288.49 90.8753 290.17 90.3788 291.691 89.449C293.212 88.4982 293.973 86.9873 293.973 84.9165C293.973 83.4163 293.519 82.3069 292.61 81.5885C291.723 80.8701 290.603 80.3735 289.25 80.0988C289.103 80.0777 288.933 80.0565 288.743 80.0354C288.553 79.9932 288.352 79.9403 288.141 79.8769C287.761 79.7924 287.412 79.6656 287.095 79.4966C286.799 79.3064 286.651 79.0317 286.651 78.6725C286.651 78.3767 286.768 78.1548 287 78.0069C287.232 77.8379 287.497 77.7216 287.792 77.6582C287.898 77.616 288.004 77.5949 288.109 77.5949C288.236 77.5737 288.352 77.5632 288.458 77.5632C288.669 77.5632 288.881 77.5843 289.092 77.6265C289.324 77.6477 289.557 77.6794 289.789 77.7216C290.106 77.785 290.413 77.8696 290.708 77.9752C291.025 78.0809 291.311 78.1971 291.564 78.3239Z" fill="#7B3FE4"/>
<mask id="mask0_497_2553" style="mask-type:alpha" maskUnits="userSpaceOnUse" x="-1" y="0" width="297" height="120">
<path d="M25.9798 57.75L51.9599 31.7998L77.9399 57.75L68.3955 86.3502C70.7434 87.1315 73.0168 88.0757 75.2022 89.1693L88.7011 62.2025H103.92V90.0346L51.9599 119.999L-0.00012207 90.0346V62.2024H15.2188L28.7177 89.1692C30.9031 88.0757 33.1764 87.1315 35.5242 86.3502L25.9798 57.75Z" fill="url(#paint0_linear_497_2553)"/>
<path d="M2.1 31.2124L51.9601 2.42489L101.82 31.2124L101.82 88.7876L51.9601 117.575L2.1 88.7876L2.1 31.2124Z" stroke="url(#paint1_linear_497_2553)" stroke-width="4.2"/>
<path d="M121.23 30.5009L125.382 45.9367H125.445L130.453 30.5009H135.398L140.089 45.9367H140.152L144.653 30.5009H151.119L143.48 54.3994H137.141L132.957 40.5484H132.894L128.203 54.3994H121.895L114.764 30.5009H121.23ZM167.986 46.634V47.2362H155.846C155.846 48.4195 156.153 49.3281 156.765 49.962C157.378 50.5748 158.276 50.8812 159.459 50.8812C160.072 50.8812 160.601 50.765 161.044 50.5325C161.509 50.3001 161.9 49.9198 162.217 49.3915L167.764 49.3598C167.299 51.3038 166.263 52.7195 164.658 53.607C163.073 54.4945 161.351 54.9382 159.491 54.9382C156.808 54.9382 154.568 54.2092 152.772 52.7512C150.976 51.2721 150.078 49.1274 150.078 46.317C150.078 43.6123 150.912 41.4887 152.582 39.9462C154.272 38.4037 156.438 37.6324 159.079 37.6324C161.911 37.6324 164.098 38.4459 165.64 40.073C167.204 41.7 167.986 43.8976 167.986 46.6657V46.634ZM155.941 43.9082H162.629C162.481 43.1475 162.09 42.5347 161.456 42.0698C160.844 41.6049 160.146 41.3725 159.364 41.3725C158.519 41.3725 157.78 41.5944 157.146 42.0381C156.512 42.4607 156.11 43.0946 155.941 43.9399V43.9082ZM170.437 54.3994V28.092H176.206V39.7243C176.776 39.0904 177.463 38.6044 178.266 38.2663C179.09 37.9071 179.925 37.6958 180.77 37.6324C180.855 37.6324 180.929 37.6324 180.992 37.6324C181.076 37.6324 181.161 37.6324 181.246 37.6324C183.654 37.6324 185.609 38.4988 187.109 40.2315C188.631 41.943 189.391 43.961 189.391 46.2853C189.391 48.6308 188.631 50.6593 187.109 52.3709C185.588 54.0825 183.612 54.9382 181.182 54.9382C181.119 54.9382 181.055 54.9382 180.992 54.9382C180.929 54.9382 180.865 54.9382 180.802 54.9382C179.914 54.896 179.059 54.6952 178.234 54.336C177.41 53.9557 176.755 53.3852 176.269 52.6245L176.206 52.5928V54.3994H170.437ZM179.724 42.6086C178.562 42.6298 177.653 43.0101 176.998 43.7497C176.343 44.4681 176.016 45.3239 176.016 46.317C176.016 47.3524 176.343 48.2188 176.998 48.9161C177.653 49.6134 178.562 49.962 179.724 49.962C180.907 49.962 181.816 49.6134 182.45 48.9161C183.105 48.2188 183.433 47.3524 183.433 46.317C183.433 45.3239 183.105 44.4681 182.45 43.7497C181.816 43.0101 180.907 42.6403 179.724 42.6403V42.6086ZM198.413 37.3789H192.645C192.771 36.1533 193.078 35.0651 193.564 34.1142C194.05 33.1422 194.673 32.3181 195.434 31.6419C196.194 30.9658 197.093 30.4586 198.128 30.1206C199.163 29.7613 200.294 29.5817 201.519 29.5817C203.654 29.5817 205.46 30.1839 206.939 31.3884C208.418 32.5717 209.158 34.2833 209.158 36.5231C209.158 36.6287 209.158 36.7344 209.158 36.84C209.158 36.9457 209.147 37.0513 209.126 37.157C209.063 38.0022 208.83 38.8157 208.429 39.5976C208.028 40.3794 207.436 40.9922 206.654 41.4359C207.711 41.7106 208.556 42.3022 209.19 43.2109C209.824 44.1195 210.236 45.102 210.426 46.1585C210.468 46.3699 210.5 46.5917 210.521 46.8242C210.542 47.0355 210.553 47.2468 210.553 47.4581C210.553 50.0782 209.602 52.0539 207.7 53.3852C205.798 54.6952 203.654 55.3503 201.266 55.3503C199.913 55.3503 198.624 55.1495 197.399 54.7481C196.194 54.3466 195.106 53.6598 194.134 52.6878C193.627 52.1596 193.141 51.5257 192.676 50.7861C192.233 50.0254 191.894 49.2542 191.662 48.4723C191.577 48.1765 191.514 47.8912 191.472 47.6165C191.43 47.3419 191.408 47.0672 191.408 46.7925C191.408 46.7713 191.408 46.7502 191.408 46.7291C191.408 46.7079 191.408 46.6974 191.408 46.6974C191.408 46.6762 191.408 46.6657 191.408 46.6657L197.748 46.634C197.748 47.606 198.054 48.4195 198.667 49.0745C199.301 49.7296 200.104 50.0571 201.076 50.0571C202.026 50.0571 202.819 49.7719 203.453 49.2013C204.087 48.6097 204.404 47.8279 204.404 46.8559C204.404 45.9472 204.066 45.1865 203.389 44.5738C202.734 43.961 201.974 43.6546 201.107 43.6546C200.917 43.6546 200.727 43.6757 200.537 43.718C200.368 43.7602 200.199 43.8025 200.03 43.8448V39.6609H200.664C201.467 39.6821 202.122 39.4602 202.629 38.9953C203.136 38.5305 203.389 37.886 203.389 37.0619C203.389 36.3223 203.157 35.7413 202.692 35.3186C202.227 34.8749 201.646 34.653 200.949 34.653C200.167 34.653 199.544 34.9172 199.079 35.4454C198.635 35.9526 198.413 36.5865 198.413 37.3472C198.413 37.3472 198.413 37.3577 198.413 37.3789C198.413 37.3789 198.413 37.3894 198.413 37.4106V37.3789ZM117.268 90.3994V66.5009H126.777C129.355 66.522 131.446 67.1559 133.052 68.4026C134.658 69.6493 135.461 71.6462 135.461 74.3931C135.461 77.2035 134.722 79.2637 133.242 80.5738C131.785 81.8627 129.703 82.5072 126.998 82.5072L123.48 82.4755V90.3994H117.268ZM123.48 71.5088V77.4676H124.526C125.646 77.4887 126.671 77.3831 127.601 77.1506C128.53 76.8971 128.995 76.0413 128.995 74.5833C128.995 73.083 128.552 72.2061 127.664 71.9526C126.777 71.6779 125.731 71.5405 124.526 71.5405L123.48 71.5088ZM138.096 64.092H143.865V76.1998H143.928C144.604 75.3334 145.354 74.6889 146.179 74.2663C147.024 73.8437 148.006 73.6324 149.126 73.6324C151.197 73.6324 152.729 74.2558 153.722 75.5025C154.736 76.7492 155.243 78.4079 155.243 80.4787V90.3994H149.475V82.0635C149.475 82.0635 149.475 82.0529 149.475 82.0318C149.475 81.9895 149.475 81.9472 149.475 81.905C149.475 80.9964 149.316 80.1617 148.999 79.401C148.704 78.6192 147.996 78.2283 146.876 78.2283C145.777 78.2283 145.006 78.6192 144.562 79.401C144.118 80.1617 143.886 80.9964 143.865 81.905C143.865 81.9472 143.865 81.9895 143.865 82.0318C143.865 82.0529 143.865 82.074 143.865 82.0952V90.3994H138.096V64.092ZM164.82 74.1396V90.3994H159.051V74.1396H164.82ZM161.935 64.6626C162.823 64.6837 163.584 65.0112 164.218 65.6451C164.851 66.279 165.168 67.0397 165.168 67.9272C165.168 68.8147 164.851 69.5754 164.218 70.2093C163.584 70.8432 162.823 71.1602 161.935 71.1602C161.048 71.1602 160.287 70.8432 159.653 70.2093C159.019 69.5754 158.703 68.8147 158.703 67.9272C158.703 67.0397 159.019 66.279 159.653 65.6451C160.287 65.0112 161.048 64.6943 161.935 64.6943V64.6626ZM174.384 64.092V90.3994H168.616V64.092H174.384ZM183.949 74.1396V90.3994H178.18V74.1396H183.949ZM181.064 64.6626C181.952 64.6837 182.712 65.0112 183.346 65.6451C183.98 66.279 184.297 67.0397 184.297 67.9272C184.297 68.8147 183.98 69.5754 183.346 70.2093C182.712 70.8432 181.952 71.1602 181.064 71.1602C180.177 71.1602 179.416 70.8432 178.782 70.2093C178.148 69.5754 177.831 68.8147 177.831 67.9272C177.831 67.0397 178.148 66.279 178.782 65.6451C179.416 65.0112 180.177 64.6943 181.064 64.6943V64.6626ZM193.323 74.1396V75.9779H193.386C193.872 75.2383 194.527 74.6784 195.351 74.298C196.175 73.8966 197.031 73.6747 197.919 73.6324C197.982 73.6324 198.045 73.6324 198.109 73.6324C198.172 73.6324 198.236 73.6324 198.299 73.6324C200.729 73.6324 202.705 74.5093 204.226 76.2632C205.747 77.9959 206.508 80.0244 206.508 82.3487C206.508 84.6942 205.747 86.7122 204.226 88.4026C202.726 90.093 200.771 90.9382 198.362 90.9382C198.278 90.9382 198.193 90.9382 198.109 90.9382C198.045 90.9382 197.971 90.9382 197.887 90.9382C197.042 90.8748 196.207 90.6847 195.383 90.3677C194.58 90.0296 193.893 89.5331 193.323 88.878V98.5135H187.554V74.1396H193.323ZM196.841 78.6086C195.679 78.6298 194.77 79.0101 194.115 79.7497C193.46 80.4681 193.133 81.3239 193.133 82.317C193.133 83.3524 193.46 84.2188 194.115 84.9161C194.77 85.6134 195.679 85.962 196.841 85.962C198.024 85.962 198.933 85.6134 199.567 84.9161C200.222 84.2188 200.549 83.3524 200.549 82.317C200.549 81.3239 200.222 80.4681 199.567 79.7497C198.933 79.0101 198.024 78.6403 196.841 78.6403V78.6086ZM214.928 74.1396V75.9779H214.991C215.477 75.2383 216.132 74.6784 216.956 74.298C217.78 73.8966 218.636 73.6747 219.524 73.6324C219.587 73.6324 219.65 73.6324 219.714 73.6324C219.777 73.6324 219.841 73.6324 219.904 73.6324C222.334 73.6324 224.31 74.5093 225.831 76.2632C227.353 77.9959 228.113 80.0244 228.113 82.3487C228.113 84.6942 227.353 86.7122 225.831 88.4026C224.331 90.093 222.376 90.9382 219.967 90.9382C219.883 90.9382 219.798 90.9382 219.714 90.9382C219.65 90.9382 219.577 90.9382 219.492 90.9382C218.647 90.8748 217.812 90.6847 216.988 90.3677C216.185 90.0296 215.498 89.5331 214.928 88.878V98.5135H209.159V74.1396H214.928ZM218.446 78.6086C217.284 78.6298 216.375 79.0101 215.72 79.7497C215.065 80.4681 214.738 81.3239 214.738 82.317C214.738 83.3524 215.065 84.2188 215.72 84.9161C216.375 85.6134 217.284 85.962 218.446 85.962C219.629 85.962 220.538 85.6134 221.172 84.9161C221.827 84.2188 222.154 83.3524 222.154 82.317C222.154 81.3239 221.827 80.4681 221.172 79.7497C220.538 79.0101 219.629 78.6403 218.446 78.6403V78.6086ZM236.723 74.1396V90.3994H230.954V74.1396H236.723ZM233.839 64.6626C234.726 64.6837 235.487 65.0112 236.121 65.6451C236.755 66.279 237.072 67.0397 237.072 67.9272C237.072 68.8147 236.755 69.5754 236.121 70.2093C235.487 70.8432 234.726 71.1602 233.839 71.1602C232.951 71.1602 232.191 70.8432 231.557 70.2093C230.923 69.5754 230.606 68.8147 230.606 67.9272C230.606 67.0397 230.923 66.279 231.557 65.6451C232.191 65.0112 232.951 64.6943 233.839 64.6943V64.6626ZM246.287 74.1396V76.2315H246.351C247.027 75.2595 247.777 74.5833 248.601 74.2029C249.446 73.8226 250.429 73.6324 251.549 73.6324C253.746 73.6324 255.31 74.2558 256.24 75.5025C257.191 76.7492 257.666 78.3762 257.666 80.3836V90.3994H251.898V82.4755C251.898 82.4332 251.898 82.3804 251.898 82.317C251.898 82.2536 251.898 82.1902 251.898 82.1269C251.898 81.9367 251.898 81.7359 251.898 81.5246C251.898 81.3133 251.887 81.102 251.866 80.8907C251.824 80.2357 251.633 79.6335 251.295 79.0841C250.957 78.5136 250.292 78.2283 249.299 78.2283C248.136 78.2283 247.344 78.6086 246.921 79.3693C246.499 80.1089 246.287 80.9858 246.287 82.0001V90.3994H240.519V74.1396H246.287ZM278.177 82.634V83.2362H266.038C266.038 84.4195 266.344 85.3281 266.957 85.962C267.57 86.5748 268.468 86.8812 269.651 86.8812C270.264 86.8812 270.792 86.765 271.236 86.5325C271.701 86.3001 272.092 85.9198 272.409 85.3915L277.956 85.3598C277.491 87.3038 276.455 88.7195 274.849 89.607C273.265 90.4945 271.543 90.9382 269.683 90.9382C266.999 90.9382 264.76 90.2092 262.964 88.7512C261.167 87.2721 260.269 85.1274 260.269 82.317C260.269 79.6123 261.104 77.4887 262.773 75.9462C264.464 74.4037 266.63 73.6324 269.271 73.6324C272.102 73.6324 274.289 74.4459 275.832 76.073C277.396 77.7 278.177 79.8976 278.177 82.6657V82.634ZM266.133 79.9082H272.821C272.673 79.1475 272.282 78.5347 271.648 78.0698C271.035 77.6049 270.338 77.3725 269.556 77.3725C268.711 77.3725 267.971 77.5944 267.338 78.0381C266.704 78.4607 266.302 79.0946 266.133 79.9399V79.9082ZM293.498 74.6467L291.564 78.3234C291.311 78.1966 291.025 78.0804 290.708 77.9747C290.413 77.8691 290.106 77.7846 289.789 77.7212C289.557 77.6789 289.324 77.6472 289.092 77.6261C288.881 77.5838 288.669 77.5627 288.458 77.5627C288.352 77.5627 288.236 77.5732 288.109 77.5944C288.004 77.5944 287.898 77.6155 287.792 77.6578C287.497 77.7212 287.232 77.8374 287 78.0064C286.768 78.1543 286.651 78.3762 286.651 78.672C286.651 79.0312 286.799 79.3059 287.095 79.4961C287.412 79.6652 287.761 79.7919 288.141 79.8765C288.352 79.9399 288.553 79.9927 288.743 80.0349C288.933 80.0561 289.102 80.0772 289.25 80.0983C290.603 80.373 291.723 80.8696 292.61 81.588C293.519 82.3065 293.973 83.4158 293.973 84.9161C293.973 86.9869 293.212 88.4977 291.691 89.4485C290.17 90.3783 288.49 90.8748 286.651 90.9382C286.588 90.9382 286.525 90.9382 286.461 90.9382C286.419 90.9382 286.366 90.9382 286.303 90.9382C285.141 90.9382 283.999 90.7798 282.88 90.4628C281.781 90.1458 280.735 89.6915 279.742 89.0999L281.834 85.0429C282.193 85.3175 282.605 85.5711 283.07 85.8035C283.535 86.0149 284.01 86.205 284.496 86.3741C284.834 86.4797 285.162 86.5642 285.479 86.6276C285.796 86.691 286.102 86.7227 286.398 86.7227C286.482 86.7227 286.567 86.7227 286.651 86.7227C286.757 86.7016 286.863 86.6805 286.968 86.6593C287.285 86.5959 287.571 86.4692 287.824 86.279C288.078 86.0888 288.204 85.8247 288.204 85.4866C288.204 85.0217 287.983 84.6942 287.539 84.504C287.095 84.2927 286.567 84.1237 285.954 83.9969C285.722 83.9546 285.489 83.9124 285.257 83.8701C285.045 83.8067 284.824 83.7433 284.591 83.6799C283.683 83.4475 282.848 83.046 282.087 82.4755C281.348 81.8839 280.978 80.859 280.978 79.401C280.978 77.4359 281.707 75.9885 283.165 75.0587C284.623 74.129 286.218 73.6536 287.951 73.6324C287.993 73.6324 288.025 73.6324 288.046 73.6324C288.088 73.6324 288.12 73.6324 288.141 73.6324C289.071 73.6324 289.979 73.7169 290.867 73.886C291.775 74.0339 292.652 74.298 293.498 74.6784V74.6467Z" fill="url(#paint2_linear_497_2553)"/>
</mask>
<g mask="url(#mask0_497_2553)">
<g filter="url(#filter0_f_497_2553)">
<path d="M-575.5 0H-325.5L-59 120H-309L-575.5 0Z" fill="#016EEA"/>
</g>
</g>
</g>
<defs>
<filter id="filter0_f_497_2553" x="-655.5" y="-80" width="676.5" height="280" filterUnits="userSpaceOnUse" color-interpolation-filters="sRGB">
<feFlood flood-opacity="0" result="BackgroundImageFix"/>
<feBlend mode="normal" in="SourceGraphic" in2="BackgroundImageFix" result="shape"/>
<feGaussianBlur stdDeviation="40" result="effect1_foregroundBlur_497_2553"/>
</filter>
<linearGradient id="paint0_linear_497_2553" x1="32.1555" y1="99.7568" x2="91.2065" y2="22.1287" gradientUnits="userSpaceOnUse">
<stop stop-color="#7B3FE4"/>
<stop offset="1" stop-color="#016EEA"/>
</linearGradient>
<linearGradient id="paint1_linear_497_2553" x1="32.1556" y1="92.459" x2="115.473" y2="11.9564" gradientUnits="userSpaceOnUse">
<stop stop-color="#7B3FE4"/>
<stop offset="1" stop-color="#016EEA"/>
</linearGradient>
<linearGradient id="paint2_linear_497_2553" x1="170.936" y1="81.8748" x2="202.717" y2="-6.771" gradientUnits="userSpaceOnUse">
<stop stop-color="#7B3FE4"/>
<stop offset="1" stop-color="#016EEA"/>
</linearGradient>
<clipPath id="clip0_497_2553">
<rect width="293.973" height="120" fill="white"/>
</clipPath>
</defs>
</svg>
