<svg width="1660" height="2000" viewBox="0 0 1660 2000" fill="none" xmlns="http://www.w3.org/2000/svg">
<path fill-rule="evenodd" clip-rule="evenodd" d="M1829 1000C1829 1551.73 1381.73 1999 830 1999C278.268 1999 -169 1551.73 -169 1000C-169 448.268 278.268 1 830 1C1381.73 1 1829 448.268 1829 1000ZM1830 1000C1830 1552.28 1382.28 2000 830 2000C277.715 2000 -170 1552.28 -170 1000C-170 447.715 277.715 0 830 0C1382.28 0 1830 447.715 1830 1000ZM879 1000C879 1027.06 857.062 1049 830 1049C802.938 1049 781 1027.06 781 1000C781 972.938 802.938 951 830 951C857.062 951 879 972.938 879 1000ZM880 1000C880 1027.61 857.614 1050 830 1050C802.386 1050 780 1027.61 780 1000C780 972.386 802.386 950 830 950C857.614 950 880 972.386 880 1000ZM830 1094.24C882.046 1094.24 924.238 1052.05 924.238 1000C924.238 947.954 882.046 905.762 830 905.762C777.954 905.762 735.762 947.954 735.762 1000C735.762 1052.05 777.954 1094.24 830 1094.24ZM830 1095.24C882.599 1095.24 925.238 1052.6 925.238 1000C925.238 947.401 882.599 904.762 830 904.762C777.401 904.762 734.762 947.401 734.762 1000C734.762 1052.6 777.401 1095.24 830 1095.24ZM969.476 1000C969.476 1077.03 907.031 1139.48 830 1139.48C752.969 1139.48 690.524 1077.03 690.524 1000C690.524 922.97 752.969 860.524 830 860.524C907.031 860.524 969.476 922.97 969.476 1000ZM970.476 1000C970.476 1077.58 907.583 1140.48 830 1140.48C752.417 1140.48 689.524 1077.58 689.524 1000C689.524 922.417 752.417 859.524 830 859.524C907.583 859.524 970.476 922.417 970.476 1000ZM830 1184.71C932.015 1184.71 1014.71 1102.01 1014.71 1000C1014.71 897.985 932.015 815.286 830 815.286C727.985 815.286 645.286 897.985 645.286 1000C645.286 1102.01 727.985 1184.71 830 1184.71ZM830 1185.71C932.567 1185.71 1015.71 1102.57 1015.71 1000C1015.71 897.433 932.567 814.286 830 814.286C727.433 814.286 644.286 897.433 644.286 1000C644.286 1102.57 727.433 1185.71 830 1185.71ZM1059.95 1000C1059.95 1127 956.999 1229.95 830 1229.95C703.001 1229.95 600.048 1127 600.048 1000C600.048 873.001 703.001 770.048 830 770.048C956.999 770.048 1059.95 873.001 1059.95 1000ZM1060.95 1000C1060.95 1127.55 957.552 1230.95 830 1230.95C702.448 1230.95 599.048 1127.55 599.048 1000C599.048 872.449 702.448 769.048 830 769.048C957.552 769.048 1060.95 872.449 1060.95 1000ZM830 1275.19C981.984 1275.19 1105.19 1151.98 1105.19 1000C1105.19 848.017 981.984 724.81 830 724.81C678.017 724.81 554.81 848.017 554.81 1000C554.81 1151.98 678.017 1275.19 830 1275.19ZM830 1276.19C982.536 1276.19 1106.19 1152.54 1106.19 1000C1106.19 847.464 982.536 723.81 830 723.81C677.464 723.81 553.81 847.464 553.81 1000C553.81 1152.54 677.464 1276.19 830 1276.19ZM1150.43 1000C1150.43 1176.97 1006.97 1320.43 830 1320.43C653.032 1320.43 509.571 1176.97 509.571 1000C509.571 823.032 653.032 679.571 830 679.571C1006.97 679.571 1150.43 823.032 1150.43 1000ZM1151.43 1000C1151.43 1177.52 1007.52 1321.43 830 1321.43C652.48 1321.43 508.571 1177.52 508.571 1000C508.571 822.48 652.48 678.571 830 678.571C1007.52 678.571 1151.43 822.48 1151.43 1000ZM830 1365.67C1031.95 1365.67 1195.67 1201.95 1195.67 1000C1195.67 798.048 1031.95 634.333 830 634.333C628.048 634.333 464.333 798.048 464.333 1000C464.333 1201.95 628.048 1365.67 830 1365.67ZM830 1366.67C1032.5 1366.67 1196.67 1202.5 1196.67 1000C1196.67 797.496 1032.5 633.333 830 633.333C627.496 633.333 463.333 797.496 463.333 1000C463.333 1202.5 627.496 1366.67 830 1366.67ZM1240.9 1000C1240.9 1226.94 1056.94 1410.9 830 1410.9C603.064 1410.9 419.095 1226.94 419.095 1000C419.095 773.064 603.064 589.095 830 589.095C1056.94 589.095 1240.9 773.064 1240.9 1000ZM1241.9 1000C1241.9 1227.49 1057.49 1411.9 830 1411.9C602.511 1411.9 418.095 1227.49 418.095 1000C418.095 772.511 602.511 588.095 830 588.095C1057.49 588.095 1241.9 772.511 1241.9 1000ZM830 1456.14C1081.92 1456.14 1286.14 1251.92 1286.14 1000C1286.14 748.079 1081.92 543.857 830 543.857C578.079 543.857 373.857 748.079 373.857 1000C373.857 1251.92 578.079 1456.14 830 1456.14ZM830 1457.14C1082.47 1457.14 1287.14 1252.47 1287.14 1000C1287.14 747.527 1082.47 542.857 830 542.857C577.527 542.857 372.857 747.527 372.857 1000C372.857 1252.47 577.527 1457.14 830 1457.14ZM1331.38 1000C1331.38 1276.91 1106.91 1501.38 830 1501.38C553.095 1501.38 328.619 1276.91 328.619 1000C328.619 723.095 553.095 498.619 830 498.619C1106.91 498.619 1331.38 723.095 1331.38 1000ZM1332.38 1000C1332.38 1277.46 1107.46 1502.38 830 1502.38C552.543 1502.38 327.619 1277.46 327.619 1000C327.619 722.543 552.543 497.619 830 497.619C1107.46 497.619 1332.38 722.543 1332.38 1000ZM830 1546.62C1131.89 1546.62 1376.62 1301.89 1376.62 1000C1376.62 698.111 1131.89 453.381 830 453.381C528.111 453.381 283.381 698.111 283.381 1000C283.381 1301.89 528.111 1546.62 830 1546.62ZM830 1547.62C1132.44 1547.62 1377.62 1302.44 1377.62 1000C1377.62 697.558 1132.44 452.381 830 452.381C527.558 452.381 282.381 697.558 282.381 1000C282.381 1302.44 527.558 1547.62 830 1547.62ZM1421.86 1000C1421.86 1326.87 1156.87 1591.86 830 1591.86C503.126 1591.86 238.143 1326.87 238.143 1000C238.143 673.127 503.126 408.143 830 408.143C1156.87 408.143 1421.86 673.127 1421.86 1000ZM1422.86 1000C1422.86 1327.43 1157.43 1592.86 830 1592.86C502.574 1592.86 237.143 1327.43 237.143 1000C237.143 672.574 502.574 407.143 830 407.143C1157.43 407.143 1422.86 672.574 1422.86 1000ZM830 1637.1C1181.86 1637.1 1467.1 1351.86 1467.1 1000C1467.1 648.142 1181.86 362.905 830 362.905C478.142 362.905 192.905 648.142 192.905 1000C192.905 1351.86 478.142 1637.1 830 1637.1ZM830 1638.1C1182.41 1638.1 1468.1 1352.41 1468.1 1000C1468.1 647.59 1182.41 361.905 830 361.905C477.59 361.905 191.905 647.59 191.905 1000C191.905 1352.41 477.59 1638.1 830 1638.1ZM1512.33 1000C1512.33 1376.84 1206.84 1682.33 830 1682.33C453.158 1682.33 147.667 1376.84 147.667 1000C147.667 623.158 453.158 317.667 830 317.667C1206.84 317.667 1512.33 623.158 1512.33 1000ZM1513.33 1000C1513.33 1377.39 1207.39 1683.33 830 1683.33C452.605 1683.33 146.667 1377.39 146.667 1000C146.667 622.605 452.605 316.667 830 316.667C1207.39 316.667 1513.33 622.605 1513.33 1000ZM830 1727.57C1231.83 1727.57 1557.57 1401.83 1557.57 1000C1557.57 598.174 1231.83 272.429 830 272.429C428.173 272.429 102.428 598.174 102.428 1000C102.428 1401.83 428.173 1727.57 830 1727.57ZM830 1728.57C1232.38 1728.57 1558.57 1402.38 1558.57 1000C1558.57 597.621 1232.38 271.429 830 271.429C427.621 271.429 101.428 597.621 101.428 1000C101.428 1402.38 427.621 1728.57 830 1728.57ZM1602.81 1000C1602.81 1426.81 1256.81 1772.81 830 1772.81C403.189 1772.81 57.1904 1426.81 57.1904 1000C57.1904 573.189 403.189 227.19 830 227.19C1256.81 227.19 1602.81 573.189 1602.81 1000ZM1603.81 1000C1603.81 1427.36 1257.36 1773.81 830 1773.81C402.637 1773.81 56.1904 1427.36 56.1904 1000C56.1904 572.637 402.637 226.19 830 226.19C1257.36 226.19 1603.81 572.637 1603.81 1000ZM830 1818.05C1281.8 1818.05 1648.05 1451.79 1648.05 1000C1648.05 548.205 1281.8 181.952 830 181.952C378.205 181.952 11.9524 548.205 11.9524 1000C11.9524 1451.79 378.205 1818.05 830 1818.05ZM830 1819.05C1282.35 1819.05 1649.05 1452.35 1649.05 1000C1649.05 547.652 1282.35 180.952 830 180.952C377.652 180.952 10.9524 547.652 10.9524 1000C10.9524 1452.35 377.652 1819.05 830 1819.05ZM1693.29 1000C1693.29 1476.78 1306.78 1863.29 830 1863.29C353.221 1863.29 -33.2856 1476.78 -33.2856 1000C-33.2856 523.221 353.221 136.714 830 136.714C1306.78 136.714 1693.29 523.221 1693.29 1000ZM1694.29 1000C1694.29 1477.33 1307.33 1864.29 830 1864.29C352.668 1864.29 -34.2856 1477.33 -34.2856 1000C-34.2856 522.668 352.668 135.714 830 135.714C1307.33 135.714 1694.29 522.668 1694.29 1000ZM830 1908.52C1331.76 1908.52 1738.52 1501.76 1738.52 1000C1738.52 498.236 1331.76 91.4761 830 91.4761C328.236 91.4761 -78.5239 498.236 -78.5239 1000C-78.5239 1501.76 328.236 1908.52 830 1908.52ZM830 1909.52C1332.32 1909.52 1739.52 1502.32 1739.52 1000C1739.52 497.684 1332.32 90.4761 830 90.4761C327.684 90.4761 -79.5239 497.684 -79.5239 1000C-79.5239 1502.32 327.684 1909.52 830 1909.52ZM1783.76 1000C1783.76 1526.75 1356.75 1953.76 830 1953.76C303.252 1953.76 -123.762 1526.75 -123.762 1000C-123.762 473.252 303.252 46.2383 830 46.2383C1356.75 46.2383 1783.76 473.252 1783.76 1000ZM1784.76 1000C1784.76 1527.3 1357.3 1954.76 830 1954.76C302.699 1954.76 -124.762 1527.3 -124.762 1000C-124.762 472.7 302.699 45.2383 830 45.2383C1357.3 45.2383 1784.76 472.7 1784.76 1000Z" fill="url(#paint0_radial_9_219)"/>
<defs>
<radialGradient id="paint0_radial_9_219" cx="0" cy="0" r="1" gradientUnits="userSpaceOnUse" gradientTransform="translate(830 1000) rotate(90) scale(1000)">
<stop stop-color="#7B3FE4"/>
<stop offset="0.869792" stop-color="#7B3FE4" stop-opacity="0"/>
</radialGradient>
</defs>
</svg>
