<svg width="17" height="13" viewBox="0 0 17 13" fill="none" xmlns="http://www.w3.org/2000/svg">
<path d="M13.5465 1.80533C12.5266 1.34534 11.4333 1.00535 10.29 0.812025C10.2798 0.810071 10.2692 0.81133 10.2598 0.81563C10.2504 0.81993 10.2425 0.827057 10.2373 0.836025C10.0973 1.08202 9.9413 1.40267 9.83197 1.656C8.61941 1.47483 7.38665 1.47483 6.17409 1.656C6.05231 1.37525 5.91499 1.1015 5.76276 0.836025C5.7576 0.826947 5.7498 0.819658 5.74039 0.815132C5.73098 0.810606 5.72041 0.809057 5.7101 0.810692C4.56747 1.00402 3.47417 1.34401 2.45353 1.80466C2.44475 1.80834 2.43731 1.81463 2.4322 1.82266C0.357596 4.87257 -0.211053 7.84714 0.0682715 10.7844C0.0690488 10.7916 0.0712818 10.7985 0.0748346 10.8048C0.0783874 10.8111 0.0831857 10.8167 0.0889375 10.8211C1.29983 11.7026 2.65042 12.3742 4.08415 12.8077C4.09414 12.8107 4.10483 12.8107 4.11482 12.8076C4.12481 12.8045 4.13364 12.7985 4.14015 12.7903C4.44867 12.3777 4.72206 11.94 4.95746 11.4817C4.96072 11.4754 4.96261 11.4685 4.96298 11.4615C4.96335 11.4544 4.9622 11.4474 4.95961 11.4408C4.95702 11.4342 4.95304 11.4283 4.94796 11.4234C4.94287 11.4185 4.93679 11.4147 4.93012 11.4124C4.49947 11.2502 4.08221 11.0545 3.68216 10.8271C3.67497 10.823 3.66892 10.8171 3.66453 10.8101C3.66015 10.8031 3.65758 10.7951 3.65705 10.7868C3.65652 10.7786 3.65805 10.7703 3.6615 10.7628C3.66496 10.7553 3.67022 10.7487 3.67683 10.7437C3.76083 10.6817 3.84482 10.6171 3.92482 10.5524C3.93202 10.5466 3.9407 10.5429 3.94988 10.5417C3.95906 10.5405 3.96838 10.5419 3.97682 10.5457C6.59474 11.7217 9.42999 11.7217 12.0172 10.5457C12.0257 10.5417 12.0351 10.5401 12.0444 10.5412C12.0537 10.5422 12.0626 10.5459 12.0699 10.5517C12.1499 10.6171 12.2332 10.6817 12.3179 10.7437C12.3246 10.7486 12.3299 10.7551 12.3335 10.7625C12.337 10.77 12.3387 10.7782 12.3383 10.7865C12.3379 10.7947 12.3355 10.8027 12.3312 10.8098C12.327 10.8169 12.321 10.8228 12.3139 10.8271C11.9152 11.0564 11.5006 11.2504 11.0653 11.4117C11.0586 11.4141 11.0525 11.418 11.0474 11.4229C11.0423 11.4279 11.0383 11.4339 11.0358 11.4405C11.0332 11.4471 11.032 11.4542 11.0324 11.4613C11.0328 11.4684 11.0347 11.4754 11.0379 11.4817C11.2779 11.9397 11.5526 12.3757 11.8546 12.7897C11.8609 12.7982 11.8696 12.8045 11.8796 12.8078C11.8896 12.8112 11.9005 12.8114 11.9106 12.8083C13.3468 12.3761 14.6996 11.7042 15.9118 10.8211C15.9177 10.8169 15.9227 10.8116 15.9263 10.8054C15.93 10.7992 15.9323 10.7922 15.9331 10.7851C16.2664 7.38916 15.3745 4.43858 13.5672 1.82399C13.5628 1.8155 13.5554 1.80887 13.5465 1.80533ZM5.34878 8.99578C4.5608 8.99578 3.91082 8.28313 3.91082 7.40916C3.91082 6.53452 4.54813 5.82254 5.34878 5.82254C6.15542 5.82254 6.7994 6.54052 6.78673 7.40916C6.78673 8.2838 6.14942 8.99578 5.34878 8.99578ZM10.6653 8.99578C9.87664 8.99578 9.22733 8.28313 9.22733 7.40916C9.22733 6.53452 9.86397 5.82254 10.6653 5.82254C11.4719 5.82254 12.1159 6.54052 12.1032 7.40916C12.1032 8.2838 11.4726 8.99578 10.6653 8.99578Z" fill="white"/>
</svg>
