<svg width="16" height="17" viewBox="0 0 16 17" fill="none" xmlns="http://www.w3.org/2000/svg">
<path fill-rule="evenodd" clip-rule="evenodd" d="M8.00024 0.810547C3.58038 0.810547 0.000488281 4.39044 0.000488281 8.8103C0.000488281 12.3502 2.29042 15.3401 5.47032 16.4001C5.87031 16.4701 6.0203 16.2301 6.0203 16.0201C6.0203 15.8301 6.0103 15.2001 6.0103 14.5301C4.00037 14.9001 3.48038 14.0401 3.32039 13.5902C3.23039 13.3602 2.8404 12.6502 2.50041 12.4602C2.22042 12.3102 1.82043 11.9402 2.49041 11.9302C3.12039 11.9202 3.57038 12.5102 3.72037 12.7502C4.44035 13.9601 5.59032 13.6202 6.0503 13.4102C6.1203 12.8902 6.3303 12.5402 6.56029 12.3402C4.78034 12.1402 2.9204 11.4502 2.9204 8.39032C2.9204 7.52034 3.23039 6.80036 3.74037 6.24038C3.66038 6.04039 3.38038 5.22041 3.82037 4.12045C3.82037 4.12045 4.49035 3.91045 6.0203 4.94042C6.66028 4.76043 7.34026 4.67043 8.02024 4.67043C8.70022 4.67043 9.3802 4.76043 10.0202 4.94042C11.5501 3.90045 12.2201 4.12045 12.2201 4.12045C12.6601 5.22041 12.3801 6.04039 12.3001 6.24038C12.8101 6.80036 13.1201 7.51034 13.1201 8.39032C13.1201 11.4602 11.2501 12.1402 9.4702 12.3402C9.76019 12.5902 10.0102 13.0702 10.0102 13.8201C10.0102 14.8901 10.0002 15.7501 10.0002 16.0201C10.0002 16.2301 10.1502 16.4801 10.5502 16.4001C12.1382 15.8639 13.5182 14.8432 14.4958 13.4817C15.4734 12.1202 15.9995 10.4864 16 8.8103C16 4.39044 12.4201 0.810547 8.00024 0.810547Z" fill="white"/>
</svg>
