<svg width="1660" height="1024" viewBox="0 0 1660 1024" fill="none" xmlns="http://www.w3.org/2000/svg">
<g style="mix-blend-mode:overlay">
<g style="mix-blend-mode:overlay">
<path d="M124.849 1024L118.343 1012.28L28.8806 851.314L-57.0548 681.097L-73.3273 541.918L-75.261 514.797" stroke="white" stroke-width="0.25" stroke-linecap="round" stroke-linejoin="round"/>
</g>
<g style="mix-blend-mode:overlay">
<path d="M168.012 1024L86.1749 875.966L-0.733421 703.621L-21.1288 570.68L-34.3243 450.315L-39.4566 435.319L-75.261 330.825" stroke="white" stroke-width="0.25" stroke-linecap="round" stroke-linejoin="round"/>
</g>
<g style="mix-blend-mode:overlay">
<path d="M274.464 1024L262.376 999.737L201.761 878.156L191.411 855.413L121.724 702.247L113.491 682.059L54.7613 538.209L48.8871 521.681L0.28854 384.909L-5.63426 287.761L-7.00854 198.529L-4.75861 116.194L0.811498 40.1461L-3.2019 0" stroke="white" stroke-width="0.25" stroke-linecap="round" stroke-linejoin="round"/>
</g>
<g style="mix-blend-mode:overlay">
<path d="M309.709 1024L300.941 1002.77L266.036 919.092L262.582 910.482L262.29 909.047L250.785 881.232L246.37 867.806L230.986 825.617L217.073 788.657L215.248 783.707L204.972 753.266L188.906 705.604L184.272 691.897L183.129 688.298L180.064 679.407L162.953 630.249L156.166 608.577L150.183 581.334L150.158 577.285L137.279 535.168L134.02 523.469L126.674 493.161L116.811 452.517L115.509 443.663L112.165 427.159L112.08 424.301L112.141 422.355L111.727 420.458L111.399 418.962L110.097 414.937L108.468 409.719L107.908 405.426L107.312 401.802L105.549 394.48L103.822 385.286L102.825 380.032L101.888 374.912L99.6382 363.565L96.7802 351.963L93.46 339.777L90.4196 325.438L87.1602 310.041L83.4265 292.479L79.5347 259.047L75.2538 222.379L73.3687 200.171L70.3769 164.671L69.6715 156.401L68.2364 129.462L68.5161 125.157L68.9783 123.965L67.8959 107.668L66.3392 94.1081L65.4514 57.0146L65.6703 55.8835L65.7554 49.9242L65.5243 38.8935L65.4392 35.9868L65.5365 24.5547L65.6216 8.47678L65.7189 5.24174L65.7676 0.279721L65.7797 0" stroke="white" stroke-width="0.25" stroke-linecap="round" stroke-linejoin="round"/>
</g>
<g style="mix-blend-mode:overlay">
<path d="M127.245 1024L86.1749 875.966L52.8637 734.804L44.8612 717.06L-21.1288 570.681L-27.9394 553.52L-75.261 434.237" stroke="white" stroke-width="0.25" stroke-linecap="round" stroke-linejoin="round"/>
</g>
<g style="mix-blend-mode:overlay">
<path d="M305.89 1024L301.487 1014.26L268.711 941.75L250.943 902.467L236.093 866.626L229.915 851.691L202.405 785.312L175.99 721.536L166.735 696.568L138.106 619.316L113.855 553.873L95.6853 461.711L81.9424 376.14L71.836 296.359L65.0254 221.88L60.9876 152.083L59.5039 86.5921L60.1728 24.9317L61.3525 0" stroke="white" stroke-width="0.25" stroke-linecap="round" stroke-linejoin="round"/>
</g>
<g style="mix-blend-mode:overlay">
<path d="M203.731 1024L141.134 910.093L130.359 888.7L52.8636 734.804L28.5035 607.081L11.2338 490.887L0.288128 384.909L-4.382 369.354L-42.8133 241.193L-74.9448 106.367L-64.2181 20.4562L-66.6505 0" stroke="white" stroke-width="0.25" stroke-linecap="round" stroke-linejoin="round"/>
</g>
<g style="mix-blend-mode:overlay">
<path d="M479.427 1024L453.376 898.186L443.063 778.052L446.797 666.467L423.896 619.207L445.812 518.665L430.95 474.542L417.9 431.902L406.322 391.659L395.9 353.459L386.146 318.141L376.757 285.413L367.161 256.031L357.067 229.749L345.915 207.262L333.424 188.387L319.11 173.756L302.777 163.26L284.048 157.496L262.874 156.438L261.767 156.632" stroke="white" stroke-width="0.25" stroke-linecap="round" stroke-linejoin="round"/>
</g>
<g style="mix-blend-mode:overlay">
<path d="M176.671 1024L141.134 910.092L104.223 774.33L76.0076 650.936L11.2338 490.887L5.79746 475.308L-41.0863 341.005L-45.4646 326.009L-75.261 223.729" stroke="white" stroke-width="0.25" stroke-linecap="round" stroke-linejoin="round"/>
</g>
<g style="mix-blend-mode:overlay">
<path d="M86.6003 287.408L141.231 185.869L203.329 92.527L271.119 8.47678L279.353 0" stroke="white" stroke-width="0.25" stroke-linecap="round" stroke-linejoin="round"/>
</g>
<g style="mix-blend-mode:overlay">
<path d="M639.099 1024L606.384 913.899L588.068 808.286L583.216 710.019L589.893 619.097L606.7 536.64L594.344 489.829L584.42 444.624L576.649 400.428L570.726 358.031L566.445 316.876L563.392 277.691L561.41 239.989L559.999 204.464L558.965 170.703L557.761 139.314L556.18 109.967L553.626 83.1746L549.88 58.7294L544.359 37.057L536.843 18.0238L526.797 2.03102L524.815 0" stroke="white" stroke-width="0.25" stroke-linecap="round" stroke-linejoin="round"/>
</g>
<g style="mix-blend-mode:overlay">
<path d="M230.985 825.616L235.656 711.454L255.394 587.209L235.449 552.888L216.44 522.702L197.93 496.457L239.839 387.937L289.8 291.567L345.915 207.262L406.711 133.902L470.695 71.1831L536.843 18.0238L564.292 0" stroke="white" stroke-width="0.25" stroke-linecap="round" stroke-linejoin="round"/>
</g>
<g style="mix-blend-mode:overlay">
<path d="M105.852 393.787L149.148 296.31L203.937 198.919L229.27 162.433L234.403 155.014L264.831 111.183L282.101 90.7149L331.065 32.7031L364.4 0" stroke="white" stroke-width="0.25" stroke-linecap="round" stroke-linejoin="round"/>
</g>
<g style="mix-blend-mode:overlay">
<path d="M150.207 577.151L179.493 475.065L223.811 367.116L275.693 271.926L333.425 188.386L395.329 116.194L460.224 54.2295L526.798 2.03102L529.948 0" stroke="white" stroke-width="0.25" stroke-linecap="round" stroke-linejoin="round"/>
</g>
<g style="mix-blend-mode:overlay">
<path d="M68.978 123.965L128.51 37.9692L149.428 27.8262L150.705 26.3303L173.144 0" stroke="white" stroke-width="0.25" stroke-linecap="round" stroke-linejoin="round"/>
</g>
<g style="mix-blend-mode:overlay">
<path d="M578.072 1024L550.635 926.73L532.915 814.124L529.06 708.79L537.561 612.092L518.953 564.199L502.948 517.753L489.205 472.219L477.494 428.497L467.533 386.125L458.959 345.967L451.504 307.597L444.681 271.817L438.223 238.299L431.571 207.736L424.432 179.861L416.235 155.331L406.712 133.902L395.328 116.194L381.877 102.05L365.909 92.0164L347.314 86.0692L325.799 84.7314L320.095 85.522" stroke="white" stroke-width="0.25" stroke-linecap="round" stroke-linejoin="round"/>
</g>
<g style="mix-blend-mode:overlay">
<path d="M339.117 63.4843L341.16 61.1249L342.279 60.2493L343.361 58.6196L344.128 55.1778L344.663 53.3049L344.067 49.0847L342.936 45.9227L341.038 42.7484L338.46 39.4526L335.103 36.1203L331.066 32.7028L326.262 29.2975L320.765 25.8192L314.477 22.4626L307.472 19.1059L299.615 16.029L291.005 13.0736L281.47 10.6291L271.12 8.47647L259.725 7.13867L191.935 91.8213L191.424 92.5997L130.347 185.358L129.727 186.306L84.4729 270.989" stroke="white" stroke-width="0.25" stroke-linecap="round" stroke-linejoin="round"/>
</g>
<g style="mix-blend-mode:overlay">
<path d="M103.931 385.067L143.919 294.644L198.793 196.644L259.858 108.289L273.661 91.8825L326.261 29.2978L355.985 0" stroke="white" stroke-width="0.25" stroke-linecap="round" stroke-linejoin="round"/>
</g>
<g style="mix-blend-mode:overlay">
<path d="M413.887 1024L394.391 929.551L383.093 800.831L352.652 753.971L324.911 708.474L299.736 665.433L276.665 624.655L255.394 587.209L286.844 474.724L327.927 374.438L376.757 285.413L431.57 207.736L491.017 140.384L553.626 83.1746L618.473 35.1233L677.433 0" stroke="white" stroke-width="0.25" stroke-linecap="round" stroke-linejoin="round"/>
</g>
<g style="mix-blend-mode:overlay">
<path d="M312.993 1024L297.45 929.357L262.278 887.119L262.144 750.286L235.656 711.454L211.125 676.379L235.449 552.888L270.937 442.082L315.486 343.085L367.161 256.03L424.431 179.861L485.702 114.443L549.88 58.7294L615.712 12.3686L637.457 0" stroke="white" stroke-width="0.25" stroke-linecap="round" stroke-linejoin="round"/>
</g>
<g style="mix-blend-mode:overlay">
<path d="M288.888 1024L248.584 942.662L236.361 915.784L165.981 761.086L156.665 738.441L96.5735 592.304L90.0547 574.268L39.7292 434.955L29.7079 339.935L24.1864 252.333L22.3135 171.214L23.7486 95.9932L27.8957 25.9655L26.1566 0" stroke="white" stroke-width="0.25" stroke-linecap="round" stroke-linejoin="round"/>
</g>
<g style="mix-blend-mode:overlay">
<path d="M101.888 374.912L137.899 293.087L192.907 194.407L254.118 105.479L264.443 93.1351L320.764 25.8195L346.851 0" stroke="white" stroke-width="0.25" stroke-linecap="round" stroke-linejoin="round"/>
</g>
<g style="mix-blend-mode:overlay">
<path d="M66.6919 71.3047L119.705 0" stroke="white" stroke-width="0.25" stroke-linecap="round" stroke-linejoin="round"/>
</g>
<g style="mix-blend-mode:overlay">
<path d="M73.7815 179.642L119.814 104.798L121.346 102.743L187.044 14.3996L203.84 10.5565L213.436 0" stroke="white" stroke-width="0.25" stroke-linecap="round" stroke-linejoin="round"/>
</g>
<g style="mix-blend-mode:overlay">
<path d="M279.584 1024L248.584 942.662L208.985 827.708L201.055 802.205L175.99 721.536L159.717 662.588L148.857 623.22L140.429 597.595L128.899 562.581L116.506 524.928L95.6853 461.711L90.3706 442.605L70.5468 371.555L53.8 311.464L50.0907 294.96L22.3131 171.214L0.811035 40.1461L5.49333 0" stroke="white" stroke-width="0.25" stroke-linecap="round" stroke-linejoin="round"/>
</g>
<g style="mix-blend-mode:overlay">
<path d="M232.713 1024L194.197 953.425L182.655 930.427L104.224 774.33L95.7348 755.589L28.5043 607.081L21.4019 589.349L-34.3236 450.315L-41.0855 341.005L-42.8125 241.193L-39.9666 149.906L-33.533 65.9778L-25.2144 0" stroke="white" stroke-width="0.25" stroke-linecap="round" stroke-linejoin="round"/>
</g>
<g style="mix-blend-mode:overlay">
<path d="M1345.62 1024L1273.74 991.078L1270.38 989.059L1201.23 947.575L1136.99 898.77L1133.79 895.705L1082.34 846.511L1078.63 842.059L1036.56 791.661L1000.2 736.021L972.224 680.125L952.558 625.482L940.116 572.25L934.376 521.596L934.327 473.313L939.229 428.242L948.289 385.955L960.67 346.94L975.799 310.661L992.886 277.399L1011.57 246.569L1031.1 218.28L1051.32 191.998L1071.55 167.711L1091.75 144.981L1111.33 123.698L1130.29 103.533L1148.16 84.3543L1164.88 65.8927L1180.09 48.0027L1193.67 30.5261L1205.37 13.2929L1212.78 0" stroke="white" stroke-width="0.25" stroke-linecap="round" stroke-linejoin="round"/>
</g>
<g style="mix-blend-mode:overlay">
<path d="M514.198 1024L493.596 947.818L475.608 827.198L443.063 778.052L413.474 729.307L386.876 682.022L362.832 635.905L341.196 592.013L368.974 486.193L406.323 391.659L451.504 307.596L502.814 234.261L558.965 170.703L618.522 116.924L619.446 116.267L680.571 71.9736L681.52 71.4263L743.922 35.6219L745.296 35.0138L807.93 7.02953L809.292 0" stroke="white" stroke-width="0.25" stroke-linecap="round" stroke-linejoin="round"/>
</g>
<g style="mix-blend-mode:overlay">
<path d="M99.7847 363.249L131.126 291.64L186.255 192.327L247.648 102.682L314.477 22.4629L337.049 0" stroke="white" stroke-width="0.25" stroke-linecap="round" stroke-linejoin="round"/>
</g>
<g style="mix-blend-mode:overlay">
<path d="M204.996 753.059L211.125 676.379L188.067 644.928L216.44 522.702L255.419 412.856L239.839 387.937L223.81 367.116L206.917 351.208L188.869 340.044L169.35 334.388L153.406 334.206" stroke="white" stroke-width="0.25" stroke-linecap="round" stroke-linejoin="round"/>
</g>
<g style="mix-blend-mode:overlay">
<path d="M138.373 531.617L160.763 458.366L206.917 351.209L260.32 256.42L319.11 173.756L381.877 102.05L447.186 40.8272L499.907 0" stroke="white" stroke-width="0.25" stroke-linecap="round" stroke-linejoin="round"/>
</g>
<g style="mix-blend-mode:overlay">
<path d="M82.271 253.866L117.382 187.341L119.024 184.835L179.529 92.1744L180.38 91.1041L247.453 6.29982L259.724 7.13898L266.583 0" stroke="white" stroke-width="0.25" stroke-linecap="round" stroke-linejoin="round"/>
</g>
<g style="mix-blend-mode:overlay">
<path d="M218.678 1024L194.196 953.425L153.734 822.114L144.515 801.816L76.0079 650.936L54.7612 538.209L39.7292 434.955L34.6456 418.476L-5.63435 287.761L-39.9671 149.906L-64.2178 20.4562L-60.5814 0" stroke="white" stroke-width="0.25" stroke-linecap="round" stroke-linejoin="round"/>
</g>
<g style="mix-blend-mode:overlay">
<path d="M728.866 1024L702.669 958.18L676.23 860.387L662.949 768.602L661.003 683.007L669.176 604.77L685.837 533.575L709.796 470.236L705.004 424.581L702.681 380.969L702.487 338.779L704.007 298.585L707.06 259.788L711.195 222.938L716.303 187.486L721.861 153.908L727.82 121.776L733.609 91.469L739.167 62.6455L743.922 35.6219L747.729 10.1673L772.356 0" stroke="white" stroke-width="0.25" stroke-linecap="round" stroke-linejoin="round"/>
</g>
<g style="mix-blend-mode:overlay">
<path d="M1745.5 927.034L1707.36 928.858L1676.25 930.342L1662.2 932.02L1595.35 926.304L1572.64 921.707L1566.13 920.381L1534.05 913.887L1533.82 913.838L1531.92 913.242L1512.06 905.836L1497.22 900.375L1494.29 899.524L1479.77 893.601L1480.02 892.275L1463.27 885.355L1447.24 876.635L1440.04 872.658L1432.23 867.781L1431.15 865.836L1418.06 858.453L1414.89 856.422L1412.71 854.501L1406.9 850.487L1406.87 850.463L1405.42 849.49L1399.09 845.063L1397.52 844.175L1390.52 839.165L1386.6 837.73L1372.52 828.864L1354.37 815.011L1352.86 813.333L1332.77 790.98L1331.75 789.849L1315.19 765.294L1304.96 742.199L1300.01 721.061L1300.26 702.466L1304.67 686.643L1313 673.813L1324.32 663.986L1338.38 657.078L1354.45 652.87L1372.29 651.058L1391.44 651.265L1411.81 653.004L1433.08 655.838L1455.32 659.146L1478.34 662.478L1502.2 665.166L1526.83 666.71L1552.22 666.479L1578.25 663.95L1604.76 658.562L1631.48 649.793L1658.1 637.254L1684.12 620.422L1709.01 599.212L1732.11 573.186L1723.24 546.284L1713.92 518.543L1704.05 490.376L1693.3 461.468L1681.65 432.218L1668.65 402.349L1654.37 372.309L1638.29 341.82L1620.52 311.367L1600.54 280.755L1578.51 250.448L1553.86 220.384L1526.83 191.013L1496.85 162.397L1464.23 134.972L1428.47 108.921L1389.9 84.6948L1348.13 62.5847L1303.49 43.0406L1255.8 26.4519L1205.37 13.2929L1152.21 4.02556L1106.49 0" stroke="white" stroke-width="0.25" stroke-linecap="round" stroke-linejoin="round"/>
</g>
<g style="mix-blend-mode:overlay">
<path d="M1746.26 1004.98L1677.05 1008.66L1588.38 1003.17L1574.21 991.236L1563.43 980.096L1554.54 970.111L1548.89 961.038L1544.94 953.23L1543.28 952.793L1471.66 934.027L1403.75 907.915L1343.68 875.979L1290.85 839.432L1247.02 799.736L1211.26 757.924L1184.57 715.552L1165.8 673.338L1155.22 632.706L1151.65 594.019L1154.77 558.349L1163.49 525.743L1177.16 496.858L1194.83 471.501L1215.73 449.877L1239.14 431.647L1264.29 416.676L1290.68 404.514L1317.69 394.772L1344.98 387.001L1372.09 380.665L1398.82 375.326L1424.84 370.424L1450.04 365.56L1474.19 360.208L1497.16 353.994L1518.81 346.539L1538.92 337.502L1557.43 326.63L1573.94 313.617L1588.5 298.439L1600.54 280.755L1610.16 260.786L1616.64 238.226L1620.16 213.513L1619.85 186.368L1616.07 157.471L1607.78 126.58L1595.54 94.5459L1578.25 61.2347L1556.66 27.6073L1534.67 0" stroke="white" stroke-width="0.25" stroke-linecap="round" stroke-linejoin="round"/>
</g>
<g style="mix-blend-mode:overlay">
<path d="M68.249 107.158L106.449 49.9607L128.511 37.9692L131.065 34.8801L159.864 0" stroke="white" stroke-width="0.25" stroke-linecap="round" stroke-linejoin="round"/>
</g>
<g style="mix-blend-mode:overlay">
<path d="M784.81 1024L757.458 960.929L730.106 870.554L714.758 785.069L710.355 705.738L715.256 632.524L728.379 566.339L748.288 506.758L773.925 454.438L772.843 408.929L774.448 365.815L778.34 324.465L784.031 285.389L791.292 247.967L799.599 212.625L808.842 178.803L818.486 146.842L828.507 116.303L838.346 87.4434L847.978 59.9091L856.869 33.9071L864.932 9.15784L867.583 0" stroke="white" stroke-width="0.25" stroke-linecap="round" stroke-linejoin="round"/>
</g>
<g style="mix-blend-mode:overlay">
<path d="M97.4485 350.406L123.572 290.448L178.835 190.332L240.386 100.08L307.471 19.1062L326.565 0" stroke="white" stroke-width="0.25" stroke-linecap="round" stroke-linejoin="round"/>
</g>
<g style="mix-blend-mode:overlay">
<path d="M670.915 1024L648.257 963.276L622.681 858.502L610.665 759.724L610.969 668.352L621.708 584.278L641.568 508.51L631.973 462.185L624.785 417.588L619.726 374.122L616.442 332.48L614.752 292.102L614.241 253.635L614.752 216.602L615.798 181.588L617.245 148.192L618.522 116.924L619.483 87.4799L619.531 60.2861L618.473 35.1233L615.712 12.3686L612.903 0" stroke="white" stroke-width="0.25" stroke-linecap="round" stroke-linejoin="round"/>
</g>
<g style="mix-blend-mode:overlay">
<path d="M1106.61 1024L1057.6 987.575L1049.06 979.913L998.201 934.258L990.807 926.256L947.195 879.153L940.056 869.91L903.789 822.868L867.948 766.656L862.548 756.294L838.772 710.724L815.957 656.13L798.602 602.751L786.27 551.416L778.206 501.748L773.925 454.438L804.184 408.71L838.03 370.023L874.649 337.612L913.093 311.744L952.789 291.64L992.886 277.399L1033.01 268.302L1072.39 264.3L1094.81 238.676L1117.59 215.41L1140.62 193.993L1163.22 174.279L1185.37 155.854L1206.57 138.511L1226.75 121.934L1245.54 105.893L1262.83 90.1798L1278.38 74.5762L1291.97 58.9118L1303.49 43.0406L1312.57 26.8411L1319.25 10.2159L1321.47 0" stroke="white" stroke-width="0.25" stroke-linecap="round" stroke-linejoin="round"/>
</g>
<g style="mix-blend-mode:overlay">
<path d="M1144.73 1024L1096.09 990.446L1033.82 937.931L980.299 883.118L973.805 875.067L934.79 826.687L929.451 818.599L897.38 770.037L867.134 713.497L843.771 658.209L826.343 604.126L814.4 552.17L807.103 502.003L803.904 454.365L833.628 413.222L866.452 378.743L901.6 350.151L938.231 327.712L975.799 310.661L1013.54 299.108L1033.01 268.302L1053.59 240.232L1075.03 214.352L1096.64 190.636L1118.32 168.611L1139.49 148.143L1160.09 128.854L1179.64 110.587L1198.12 93.0378L1215.13 76.0478L1230.59 59.3861L1244.22 42.9069L1255.8 26.4519L1265.23 9.91187L1269.29 0" stroke="white" stroke-width="0.25" stroke-linecap="round" stroke-linejoin="round"/>
</g>
<g style="mix-blend-mode:overlay">
<path d="M1068.85 1024L1023.56 988.451L966.483 934.89L917.337 879.968L875.33 824.145L840.39 768.59L811.602 713.412L788.69 659.559L770.812 606.838L757.58 556.05L748.288 506.758L742.511 459.643L772.843 408.929L804.415 369.306L807.346 365.62L845.096 328.977L885.108 299.266L926.714 275.684L969.001 258.378L1011.57 246.569L1053.59 240.232L1094.81 238.676L1134.55 241.765L1158.68 220.834L1182.57 201.789L1206.16 184.166L1228.87 167.736L1250.68 152.144L1271.19 137.137L1290.28 122.445L1307.71 107.827L1323.27 93.0987L1336.86 78.0667L1348.13 62.5847L1357.11 46.5554L1363.29 29.8451L1366.85 12.4659L1367.02 0" stroke="white" stroke-width="0.25" stroke-linecap="round" stroke-linejoin="round"/>
</g>
<g style="mix-blend-mode:overlay">
<path d="M839.575 1024L814.935 972.446L785.82 888.98L768.246 810.268L760.596 736.531L761.934 668.79L770.812 606.838L786.27 551.416L807.103 502.003L832.4 459.169L861.187 422.197L866.453 378.743L874.65 337.612L885.109 299.266L897.465 263.072L911.074 229.347L925.754 197.52L940.883 167.772L956.426 139.618L971.774 113.178L986.94 88.0515L1001.4 64.2752L1015.13 41.5691L1027.67 19.921L1038.46 0" stroke="white" stroke-width="0.25" stroke-linecap="round" stroke-linejoin="round"/>
</g>
<g style="mix-blend-mode:overlay">
<path d="M1183.41 1024L1139.11 996.174L1132.15 990.762L1073.45 945.143L1067.61 939.585L1016.83 891.169L1010.89 884.249L968.575 835.03L928.903 778.258L924.354 770.159L896.881 721.28L872.29 665.397L854.157 610.632L842.007 558.02L861.867 517.242L885.23 482.313L911.232 452.517L916.814 408.102L926.069 366.338L938.231 327.712L952.789 291.64L969 258.378L986.586 227.353L1004.83 198.7L1023.62 171.883L1042.32 146.939L1060.92 123.43L1078.85 101.332L1096.1 80.2801L1112.23 60.2253L1127.15 40.9123L1140.54 22.2318L1152.21 4.02556L1154.4 0" stroke="white" stroke-width="0.25" stroke-linecap="round" stroke-linejoin="round"/>
</g>
<g style="mix-blend-mode:overlay">
<path d="M79.9485 235.878L104.078 189.724L107.568 184.3L166.237 93.2203L169.618 88.8907L234.002 6.66467L247.453 6.29982L253.449 0" stroke="white" stroke-width="0.25" stroke-linecap="round" stroke-linejoin="round"/>
</g>
<g style="mix-blend-mode:overlay">
<path d="M346.559 1024L335.662 973.553L322.369 836.027L324.911 708.474L341.196 592.013L321.555 550.042L303.579 511.039L286.845 474.724L270.937 442.082L255.419 412.857L302.886 315.55L357.067 229.749L416.234 155.331L479.123 91.2014L544.359 37.057L599.051 0" stroke="white" stroke-width="0.25" stroke-linecap="round" stroke-linejoin="round"/>
</g>
<g style="mix-blend-mode:overlay">
<path d="M94.9194 336.42L115.254 289.451L170.627 188.678L232.372 97.5863L299.615 16.0293L315.535 0" stroke="white" stroke-width="0.25" stroke-linecap="round" stroke-linejoin="round"/>
</g>
<g style="mix-blend-mode:overlay">
<path d="M610.142 1024L593.383 976.423L567.856 863.889L557.02 758.532L558.844 660.52L571.881 571.069L556.521 523.724L543.654 477.886L532.988 432.984L524.256 389.871L517.214 348.022L511.486 308.241L506.852 270.077L502.814 234.26L499.154 200.426L495.298 169.243L491.017 140.383L485.703 114.442L479.123 91.201L470.695 71.1827L460.224 54.2291L447.186 40.8268L431.461 30.9393L412.683 25.0165L390.78 23.1436L348.943 62.8032L325.799 84.7309L282.759 133.78L265.185 153.798L262.874 156.437L220.758 214.923L218.617 217.915L217.243 219.824L215.406 222.378" stroke="white" stroke-width="0.25" stroke-linecap="round" stroke-linejoin="round"/>
</g>
<g style="mix-blend-mode:overlay">
<path d="M1746.26 1015.52L1696.09 1019.29L1677.05 1008.66L1661.43 998.314L1647.79 988.804L1637.47 979.767L1629.01 971.716L1623.78 964.249L1620.27 957.828L1618.48 957.56L1567.76 949.935L1544.06 946.359L1472.11 927.314L1407.04 901.458L1348.44 870.092L1298.32 834.495L1255.92 795.82L1222.53 755.552L1197.1 714.591L1180.17 674.348L1170.59 635.406L1168.3 598.92L1172.12 565.123L1181.58 534.803L1195.65 507.901L1213.61 484.77L1234.65 465.153L1258.03 449.014L1283.1 435.977L1309.26 425.688L1336.08 417.734L1363.04 411.592L1389.95 406.813L1416.41 402.811L1442.29 399.163L1467.37 395.295L1491.51 390.82L1514.58 385.262L1536.39 378.244L1556.85 369.464L1575.67 358.542L1592.78 345.371L1607.74 329.609L1620.52 311.367L1630.54 290.302L1637.83 266.794L1641.61 240.524L1642.08 212.114L1638.3 181.284L1630.66 148.873L1618.1 114.71L1601.27 79.745L1579 43.9285L1577.86 42.4082L1552.21 8.28219L1544.61 0" stroke="white" stroke-width="0.25" stroke-linecap="round" stroke-linejoin="round"/>
</g>
<g style="mix-blend-mode:overlay">
<path d="M1029.47 0L979.399 4.585L918.59 15.9563L856.869 33.9071L795.05 58.8145L794.868 58.8996L733.609 91.469L733.402 91.6027L673.724 132.029L673.627 132.089L615.882 181.527L615.797 181.588L561.41 239.989L511.485 308.241L467.533 386.125L430.95 474.542L403.44 572.955L386.876 682.022L383.093 800.831L416.684 849.271L453.376 898.186L493.595 947.818L537.098 997.098L546.22 1024" stroke="white" stroke-width="0.25" stroke-linecap="round" stroke-linejoin="round"/>
</g>
<g style="mix-blend-mode:overlay">
<path d="M1746.26 951.333L1698 955.091L1619.86 951.99L1544.74 940.764L1475.41 921.853L1411.57 896.605L1355.53 866.042L1306.64 831.43L1266.5 794.142L1234.19 755.212L1210.55 716.051L1209.54 713.631L1194.46 677.413L1186.13 640.55L1184.37 605.853L1188.91 574.232L1198.64 545.798L1212.95 521.036L1230.93 499.814L1251.87 482.216L1275.04 467.938L1299.8 456.725L1325.65 448.187L1352.04 441.838L1378.68 437.241L1405.18 433.8L1431.39 431.087L1457.04 428.497L1482.01 425.602L1506.16 421.857L1529.33 416.882L1551.44 410.254L1572.21 401.583L1591.6 390.674L1609.19 377.126L1624.94 360.962L1638.29 341.82L1649.21 319.965L1630.54 290.302L1610.16 260.786L1587.45 231.196L1562.69 202.056L1535.22 173.281L1505.39 145.346L1472.55 118.334L1437.11 92.6851L1398.49 68.6048L1357.11 46.5554L1312.57 26.8411L1265.23 9.91187L1228.85 0" stroke="white" stroke-width="0.25" stroke-linecap="round" stroke-linejoin="round"/>
</g>
<g style="mix-blend-mode:overlay">
<path d="M447.684 1024L435.34 977.785L416.684 849.271L413.473 729.307L423.896 619.206L403.44 572.955L385.258 528.734L368.973 486.192L354.257 446.302L340.721 408.746L327.927 374.437L315.485 343.084L302.886 315.55L289.8 291.567L275.692 271.926L260.32 256.419L243.22 245.778L224.272 239.879L205.543 239.441" stroke="white" stroke-width="0.25" stroke-linecap="round" stroke-linejoin="round"/>
</g>
<g style="mix-blend-mode:overlay">
<path d="M1031.03 1024L993.945 993.839L938.535 940.521L890.581 886.134L849.304 831.041L814.57 776.288L785.528 721.913L761.934 668.79L742.986 616.677L728.379 566.339L717.422 517.29L709.796 470.236L739.714 414.134L771.894 369.354L774.448 365.815L810.143 327.53L812.965 324.501L854.205 290.521L897.465 263.072L941.746 242.275L986.587 227.353L1031.1 218.28L1075.03 214.352L1117.59 215.41L1158.68 220.834L1197.65 230.345L1234.49 243.419L1268.74 259.715L1300.42 278.785L1326.42 267.791L1351.62 257.575L1375.66 247.687L1398.4 237.812L1419.61 227.596L1439.13 216.736L1456.84 204.999L1472.43 192.12L1485.93 178L1496.85 162.397L1505.39 145.346L1510.83 126.665L1513.51 106.537L1512.58 84.7921L1508.5 61.7941L1500.25 37.434L1488.48 12.2105L1480.79 0" stroke="white" stroke-width="0.25" stroke-linecap="round" stroke-linejoin="round"/>
</g>
<g style="mix-blend-mode:overlay">
<path d="M911.244 1024L877.264 992.404L828.896 941.044L785.819 888.98L748.02 837.037L714.758 785.069L685.971 733.844L661.003 683.007L639.756 633.326L621.708 584.278L606.7 536.64L631.972 462.185L664.335 396.463L702.487 338.779L745.126 289.548L789.212 249.84L791.292 247.967L839.818 214.23L890.034 187.486L940.882 167.772L991.95 154.309L1042.32 146.939L1091.75 144.981L1139.48 148.143L1185.37 155.854L1228.87 167.736L1269.91 183.278L1308.08 202.068L1343.41 223.692L1366 212.576L1387.14 201.387L1406.58 189.785L1424.17 177.538L1439.81 164.44L1453.14 150.271L1464.23 134.972L1472.55 118.334L1478.31 100.432L1480.78 81.1071L1480.34 60.578L1476.07 38.711L1468.52 15.8955L1460.61 0" stroke="white" stroke-width="0.25" stroke-linecap="round" stroke-linejoin="round"/>
</g>
<g style="mix-blend-mode:overlay">
<path d="M1579.22 1024L1533.49 1018.44L1532.03 1018.09L1447.53 997.876L1444.05 996.636L1366.72 968.858L1364.92 967.97L1358.46 964.772L1293.66 932.616L1290.39 930.5L1286.96 928.286L1228.16 890.293L1226.24 888.688L1220.52 883.945L1172.03 843.58L1169.26 840.661L1124.65 793.497L1087 741.882L1058.1 689.441L1038.19 637.863L1026.14 587.476L1021.58 539.619L1023.43 494.28L1030.94 452.371L1043.2 413.599L1059.31 378.488L1078.59 346.563L1100.12 318.031L1123.44 292.346L1147.72 269.457L1172.7 248.867L1197.66 230.345L1222.48 213.452L1246.58 197.885L1269.91 183.278L1292.03 169.329L1312.85 155.744" stroke="white" stroke-width="0.25" stroke-linecap="round" stroke-linejoin="round"/>
</g>
<g style="mix-blend-mode:overlay">
<path d="M127.61 490.23L141.378 447.214L188.869 340.044L243.22 245.778L302.777 163.26L365.909 92.0162L431.461 30.9396L471.571 0" stroke="white" stroke-width="0.25" stroke-linecap="round" stroke-linejoin="round"/>
</g>
<g style="mix-blend-mode:overlay">
<path d="M183.153 688.139L188.066 644.929L166.126 618.124L197.929 496.457L179.492 475.065L160.763 458.366L141.377 447.214L121.115 441.474L116.385 441.571" stroke="white" stroke-width="0.25" stroke-linecap="round" stroke-linejoin="round"/>
</g>
<g style="mix-blend-mode:overlay">
<path d="M309.114 1024L291.99 985.884L266.718 924.844L262.303 914.166L240.035 860.411L230.5 837.377L213.911 797.328L203.938 766.194L182.643 699.644L162.953 630.249L156.167 608.576L151.862 593.873L148.821 581.966L137.28 535.168L134.02 523.468L126.674 493.161L117.906 451.276L117.918 448.551L116.386 441.571L112.433 426.393L110.767 420.798L109.757 415.921L108.468 409.719L107.799 405.584L107.751 405.353L107.313 401.801L105.537 394.492L103.531 385.918L101.682 375.398L100.32 368.685L99.6387 363.565L97.3523 350.625L94.8227 336.638L92.4998 323.054L92.1957 321.302L89.3742 304.835L87.2215 292.211L86.7837 289.293L86.6013 287.407L84.473 270.989L82.2717 253.865L79.9488 235.878L77.5164 217.076L76.057 205.777L75.3638 197.884L75.303 197.094L73.3206 180.384L70.6815 164.172L69.672 156.4L68.5532 129.28L68.5167 125.157L66.3397 94.1076L65.4519 57.0141L65.1235 35.2567L65.537 24.5543L65.7681 8.2696L65.7195 5.24131L65.7681 0.279297" stroke="white" stroke-width="0.25" stroke-linecap="round" stroke-linejoin="round"/>
</g>
<g style="mix-blend-mode:overlay">
<path d="M1746.26 845.1L1710.51 866.48L1672.18 883.884L1635.28 895.972L1600.42 903.586L1568.12 907.429L1539.84 908.268" stroke="white" stroke-width="0.25" stroke-linecap="round" stroke-linejoin="round"/>
</g>
<g style="mix-blend-mode:overlay">
<path d="M308.092 1024L291.99 985.885L274.294 940.947L266.036 919.092L262.582 910.482L250.785 881.232L245.373 866.602L230.901 827.465L224.625 811.533L204.583 758.131L182.643 699.645L170.104 662.113L161.42 636.111L149.66 600.891L146.291 590.796L126.589 531.812L112.87 466.624L108.675 446.667L101.11 404.465L94.3966 367.043L88.8265 329.147L83.4267 292.479L83.2686 291.506L78.416 261.151L72.8337 226.173L69.6352 206.167L67.1177 190.466L60.9881 152.083L58.9936 132.393L47.7804 21.4778L46.9656 0" stroke="white" stroke-width="0.25" stroke-linecap="round" stroke-linejoin="round"/>
</g>
<g style="mix-blend-mode:overlay">
<path d="M1044.43 1024L1023.56 988.451L998.201 934.258L980.299 883.118L968.575 835.03L962.798 790.712L961.764 749.873L965.267 713.181L972.224 680.125L982.488 651.313L995.088 626.102L1009.91 605.062L1026.14 587.476L1043.7 573.831L1061.88 563.384L1080.66 556.561L1099.46 552.633L1118.3 551.915L1136.71 553.739L1154.77 558.349L1172.12 565.123L1188.91 574.232L1204.85 585.153L1220.21 597.984L1234.72 612.286L1248.75 628.109L1262.05 645.111L1275.1 663.305L1287.65 682.436L1300.26 702.466L1312.69 723.214L1325.55 744.631L1335.8 761.84L1338.61 766.571L1343.28 781.445L1353.85 795.881L1358.79 802.619L1367.34 815.705L1373.41 822.746" stroke="white" stroke-width="0.25" stroke-linecap="round" stroke-linejoin="round"/>
</g>
<g style="mix-blend-mode:overlay">
<path d="M1746.26 937.773L1705.25 941.251L1630.97 939.548L1561.22 929.746L1495.85 913.267L1487.34 914.896L1480.03 917.815L1475.41 921.853L1472.11 927.313L1471.66 934.027L1472.68 942.212L1476.76 951.698L1482.52 962.619L1491.52 974.781L1573.17 991.029L1574.21 991.236L1661.43 998.314L1746.26 995.845" stroke="white" stroke-width="0.25" stroke-linecap="round" stroke-linejoin="round"/>
</g>
<g style="mix-blend-mode:overlay">
<path d="M1746.26 963.045L1705.3 966.645L1623.78 964.249L1620.68 963.811L1565.14 956.052L1544.94 953.23" stroke="white" stroke-width="0.25" stroke-linecap="round" stroke-linejoin="round"/>
</g>
<g style="mix-blend-mode:overlay">
<path d="M1558.69 913.108L1539.61 909.387L1539.12 910.433L1523.85 906.614L1515.77 904.595L1512.32 903.731L1511.41 902.442L1505.41 899.438L1504.27 899.074L1504.16 899.037L1481.77 891.618L1480.17 890.889L1465.66 884.297" stroke="white" stroke-width="0.25" stroke-linecap="round" stroke-linejoin="round"/>
</g>
<g style="mix-blend-mode:overlay">
<path d="M1500.99 1024L1464.28 1016.44L1462.42 1015.82L1380.85 989.096L1377.18 987.429L1303.61 953.972L1301.48 952.683L1294.93 948.731L1234.88 912.537L1231.53 909.934L1227.72 907.016L1174.34 865.884L1172.22 863.805L1166.61 858.283L1123.46 815.851L1081.5 763.324L1049.11 710.14L1025.26 656.859L1009.91 605.062L1001.93 554.931L1000.83 507.67L1005.52 463.122L1015.24 422.076L1043.2 413.599L1070.88 409.281L1098.01 408.454L1124.2 411.179L1149.28 416.858L1172.95 425.481L1195.17 436.512L1215.73 449.877L1234.65 465.153L1251.87 482.216L1267.41 500.726L1281.38 520.562L1293.79 541.444L1304.86 563.262L1314.63 585.847L1323.38 609.088L1331.18 632.852L1338.38 657.078L1345.01 681.682L1351.53 706.613L1357.92 731.825L1364.69 757.279L1371.85 782.929L1379.92 808.748L1388.92 834.677L1387.74 835.176L1384.9 833.753L1381.25 830.116L1380.2 828.134L1379.84 827.708L1379.43 827.198L1378.45 826.419L1377.73 825.969L1376.87 824.996L1375.87 823.78L1372.92 821.092L1369.01 817.797L1363.53 811.983L1348.94 798.946L1331.86 781.773L1315.19 765.294L1299.36 749.727L1283.65 735.108L1275.33 708.802L1272.51 684.661L1275.1 663.305L1282 644.941L1292.87 629.811L1306.79 617.881L1323.38 609.088L1341.92 603.165L1362.08 599.808L1383.34 598.629L1405.56 599.103L1428.4 600.781L1451.81 603.068L1475.65 605.464L1499.89 607.336L1524.42 608.2L1549.25 607.434L1574.23 604.576L1599.26 599.091L1624.05 590.517L1648.36 578.513L1671.73 562.605L1693.8 542.757L1713.92 518.543L1731.61 490.255L1746.1 457.552L1733.53 431.89L1743 396.755L1728.64 372.054L1732.81 335.167L1732.63 295.666L1727.17 253.428L1716.61 209.609L1700.05 164.221L1678.34 119.234L1678.01 118.553L1650.13 73.5668L1649.59 72.7033L1617.86 30.8423L1616.3 28.787L1615.68 27.96L1589.78 0" stroke="white" stroke-width="0.25" stroke-linecap="round" stroke-linejoin="round"/>
</g>
<g style="mix-blend-mode:overlay">
<path d="M900.408 0L864.932 9.15784L801.922 32.2288L739.933 62.2685L739.167 62.6455L739.118 62.6698L677.956 100.773L677.239 101.223L617.512 147.985L617.245 148.192L559.999 204.464L506.852 270.077L458.959 345.967L417.9 431.902L385.258 528.735L362.832 635.905L352.652 753.971L356.714 881.914L394.392 929.551L435.34 977.785L477.493 1024" stroke="white" stroke-width="0.25" stroke-linecap="round" stroke-linejoin="round"/>
</g>
<g style="mix-blend-mode:overlay">
<path d="M894.315 1024L877.264 992.404L846.288 916.344L825.649 843.932L814.57 776.288L811.603 713.412L815.956 656.13L826.343 604.126L842.007 558.02L834.941 507.269L832.399 459.169L833.628 413.222L838.03 370.023L845.096 328.977L854.205 290.521L865.066 254.06L877.045 219.898L890.034 187.486L903.424 157.07L917.191 128.161L930.764 100.919L944.154 74.9532L956.815 50.3864L968.721 26.9141L979.399 4.585L981.406 0" stroke="white" stroke-width="0.25" stroke-linecap="round" stroke-linejoin="round"/>
</g>
<g style="mix-blend-mode:overlay">
<path d="M92.1948 321.303L106.144 288.94L161.663 187.231L223.518 95.5067L291.004 13.0739L303.92 0" stroke="white" stroke-width="0.25" stroke-linecap="round" stroke-linejoin="round"/>
</g>
<g style="mix-blend-mode:overlay">
<path d="M1746.26 934.173L1711.76 937.651L1639.53 936.508L1570.39 928.007L1544.81 921.768L1506.93 912.537L1491.51 906.967L1489.42 906.213L1448.76 891.534L1439.55 886.888L1397.95 865.884L1385.02 857.383L1353.79 836.878L1348.11 831.953L1317.72 805.671L1312.92 800.32L1288.76 773.333L1287.48 771.387L1267.68 741.056L1253.39 709.581L1246.08 679.918L1244.6 652.53L1248.75 628.109L1257.43 606.801L1270.24 588.948L1286.21 574.451L1304.86 563.262L1325.46 555.138L1347.61 549.726L1370.77 546.649L1394.65 545.384L1418.96 545.481L1443.53 546.321L1468.19 547.427L1492.87 548.181L1517.47 548.096L1541.91 546.6L1566.06 543.232L1589.84 537.528L1612.97 529.039L1635.26 517.497L1656.33 502.465L1675.87 483.918L1693.3 461.468L1708.33 435.393L1695.34 407.044L1681.39 378.451L1665.96 349.251L1649.21 319.965L1656.98 295.058L1637.83 266.794L1616.64 238.226L1593.74 209.901L1568.38 181.6L1540.99 153.883L1510.83 126.665L1478.31 100.432L1442.76 75.2816L1404.6 51.6755L1363.29 29.8451L1319.25 10.2159L1290.97 0" stroke="white" stroke-width="0.25" stroke-linecap="round" stroke-linejoin="round"/>
</g>
<g style="mix-blend-mode:overlay">
<path d="M1746.26 969.916L1713.02 973.054L1629.01 971.716L1627.79 971.558L1558.47 962.315L1548.89 961.038L1545.82 960.284L1542.48 959.457L1472.68 942.212L1471.14 941.628L1404 916.307L1403.2 916.003L1340.08 883.653L1285.54 846.486L1238.85 805.659L1201.44 762.764L1172.31 718.678L1152.1 674.968L1139.63 632.232L1134.89 591.745L1136.71 553.739L1144.58 519.151L1157.47 487.883L1174.62 460.434L1195.17 436.512L1218.32 416.189L1243.43 399.065L1269.77 384.909L1296.93 373.258L1324.28 363.687L1351.61 355.721" stroke="white" stroke-width="0.25" stroke-linecap="round" stroke-linejoin="round"/>
</g>
<g style="mix-blend-mode:overlay">
<path d="M1746.26 757.352L1720.59 776.981L1685.79 797.413L1651.3 812.445L1617.77 822.746L1585.79 828.887L1555.72 831.612L1527.8 831.587L1502.2 829.508L1478.9 826.054L1457.95 821.809L1439.23 817.382L1422.79 813.284L1408.52 810L1396.59 807.933L1386.93 807.422L1379.92 808.747L1375.58 812.092L1374.46 817.553L1379.43 827.197" stroke="white" stroke-width="0.25" stroke-linecap="round" stroke-linejoin="round"/>
</g>
<g style="mix-blend-mode:overlay">
<path d="M992.437 1024L968.721 1004.38L914.321 951.698L866.89 898.125L825.65 843.932L790.49 790.08L760.596 736.531L735.762 684.114L715.257 632.524L698.826 582.502L685.837 533.575L676.047 486.448L705.004 424.581L739.483 370.838L775.871 327.42L778.34 324.465L817.939 288.138L820.469 285.815L865.066 254.06L911.074 229.347L957.97 210.91L1004.83 198.7L1051.32 191.998L1096.64 190.636L1140.62 193.993L1182.57 201.789L1222.48 213.452L1259.8 228.642L1294.56 246.885L1326.42 267.791L1355.47 290.983L1381.49 316.025L1406.81 308.728L1430.97 301.345L1453.82 293.537L1475.21 284.915L1494.93 275.173L1512.9 264.069L1528.78 251.312L1542.61 236.851L1553.86 220.384L1562.69 202.056L1568.38 181.6L1571.25 159.356L1570.38 135.081L1566.22 109.298L1557.73 81.8125L1545.54 53.3295L1528.5 23.7399L1511.79 0" stroke="white" stroke-width="0.25" stroke-linecap="round" stroke-linejoin="round"/>
</g>
<g style="mix-blend-mode:overlay">
<path d="M1746.26 921.95L1743.9 922.206L1742.56 922.351L1741.32 922.595L1741.04 922.643L1728.01 924.37L1727.63 924.419L1704.63 925.27L1697.6 925.331L1694.05 925.222L1691.19 925.295L1685.88 925.416L1669.35 925.526L1652.29 925.368H1652.15L1647.8 925.015L1626.35 923.276L1625.58 923.215L1623.04 923.422L1612.49 922.656L1603.46 921.549L1599.43 920.929L1579.61 918.168L1567.8 917.608L1541.48 911.029L1539.61 909.387L1538.67 908.317L1521.34 903.513L1511.09 900.825L1509.33 900.266L1486.66 891.692L1480.48 889.284L1468.95 884.553L1465.37 882.801L1464.85 882.692L1455.25 878.91L1454.29 878.52L1453.78 878.277L1446.79 874.093L1446.59 873.631L1438.91 869.873L1435.49 868.317L1431.57 866.286L1431.22 866.091L1431.15 865.836L1429.54 864.607L1417.97 857.991L1413.61 855.668L1413.14 855.352L1406.18 850.597L1399.09 845.063L1397.51 843.166L1396.43 842.327L1390.03 837.426L1387.59 835.893L1387.49 834.957L1383.84 831.32L1381.81 830.141L1380.74 829.739L1375.93 824.741L1373.45 822.479L1367.93 818.757L1349.18 804.577L1331.75 789.849L1314.7 775.936L1298.65 763.093L1282.75 751.369L1268.57 721.73L1260.58 693.685L1258.78 668.036L1262.05 645.111L1270.1 625.397L1281.89 608.905L1297.02 595.783L1314.63 585.846L1334.32 578.89L1355.45 574.597L1377.75 572.505L1400.79 572.201L1424.41 573.113L1448.38 574.767L1472.66 576.53L1497.08 577.917L1521.66 578.306L1546.25 577.224L1570.83 574.122L1595.15 568.54L1619.1 560.063L1642.33 548.218L1664.55 532.87L1685.26 513.544L1704.05 490.376L1720.27 463L1708.33 435.393L1720.19 405.377L1706.18 378.573L1713.34 346.502L1697.35 320.719L1699.62 287.225L1697.88 251.409L1691.18 213.087L1679.83 173.354L1662.84 132.114L1662.54 131.554L1641.05 90.9946L1640.82 90.569L1613.1 49.2188L1612.8 48.7567L1612.68 48.6229L1580.24 8.57407L1579.68 7.86869L1571.93 0" stroke="white" stroke-width="0.25" stroke-linecap="round" stroke-linejoin="round"/>
</g>
<g style="mix-blend-mode:overlay">
<path d="M67.4578 89.0244L82.8181 65.2724L106.449 49.9607L108.151 47.8324L146.534 0" stroke="white" stroke-width="0.25" stroke-linecap="round" stroke-linejoin="round"/>
</g>
<g style="mix-blend-mode:overlay">
<path d="M1381.49 316.024L1355.3 323.723L1328.35 332.2L1301.08 341.978L1273.64 353.471L1246.67 367.165L1221.24 351.634L1193.78 338.56L1164.22 328.417L1132.99 321.388L1100.12 318.031L1066.15 318.445L1046.3 349.786L1013.57 357.095L980.688 369.196L948.289 385.955L916.814 408.101L886.981 435.393L885.23 482.313L888.112 531.629L896.492 583.694L911.001 637.583L932.637 693.393L961.764 749.873L995.392 800.648L999.429 806.741L1041.62 857.663L1045.58 862.454L1095.98 911.394L1101.08 916.331L1160.71 963.093L1165.23 966.633L1232.81 1008.8L1238.54 1012.37L1262.43 1024" stroke="white" stroke-width="0.25" stroke-linecap="round" stroke-linejoin="round"/>
</g>
<g style="mix-blend-mode:overlay">
<path d="M77.5159 217.076L89.8844 193.008L95.7829 183.753L151.812 95.7499L158.064 87.6501L219.578 7.78356L234.002 6.66467L240.253 0" stroke="white" stroke-width="0.25" stroke-linecap="round" stroke-linejoin="round"/>
</g>
<g style="mix-blend-mode:overlay">
<path d="M186.571 0L168.803 20.3954L106.157 106.221L102.18 111.67L83.2445 121.083L69.3557 128.83" stroke="white" stroke-width="0.25" stroke-linecap="round" stroke-linejoin="round"/>
</g>
<g style="mix-blend-mode:overlay">
<path d="M1380.7 282.251L1355.47 290.983L1329.25 300.239L1302.43 310.503L1275.17 322.179L1246.84 304.653L1215.96 289.792L1182.93 277.897L1147.72 269.457L1110.86 264.738L1087.79 290.278L1051.09 292.321L1031.21 323.285L1013.57 357.095L998.7 394.298L987.475 434.541L980.64 478.275L979.046 524.831L983.644 574.463L995.088 626.102L1014.46 679.723L1042.02 733.88L1078.86 788.122L1124.57 840.722L1172.42 883.969L1176.6 887.739L1180.07 890.877L1241.68 934.951L1244.16 936.727L1317.33 977.214L1395.24 1009.71L1397.57 1010.68L1443.47 1024" stroke="white" stroke-width="0.25" stroke-linecap="round" stroke-linejoin="round"/>
</g>
<g style="mix-blend-mode:overlay">
<path d="M1343.41 223.691L1319.49 235.002L1294.56 246.884L1268.74 259.715L1242.5 273.871L1215.96 289.791L1189.79 307.802L1157.46 298.377L1123.44 292.345L1087.79 290.277L1066.15 318.444L1031.21 323.284L995.951 332.54L980.688 369.195L968.587 408.745L960.329 451.725L956.729 497.515L958.688 546.502L966.921 597.74L982.488 651.313L1005.78 705.907L1037.9 761.255L1078.74 815.692L1125.67 864.813L1129.24 868.559L1185.75 915.65L1188.58 918.021L1253.21 960.356L1257.36 963.069L1331.08 1000.51L1333.9 1001.95L1392.85 1024" stroke="white" stroke-width="0.25" stroke-linecap="round" stroke-linejoin="round"/>
</g>
<g style="mix-blend-mode:overlay">
<path d="M1431.11 865.483L1426.33 839.773L1422.79 813.285L1420.16 786.748L1418.28 760.138L1416.73 733.479L1415.36 706.723L1413.76 679.919L1411.81 653.004L1409.12 626.078L1405.56 599.103L1400.79 572.201L1394.65 545.385L1386.89 518.823L1377.32 492.578L1365.77 466.88L1352.04 441.839L1336.08 417.734L1317.69 394.773L1296.93 373.259L1273.64 353.471L1248.03 335.739L1219.96 320.415L1189.79 307.804" stroke="white" stroke-width="0.25" stroke-linecap="round" stroke-linejoin="round"/>
</g>
<g style="mix-blend-mode:overlay">
<path d="M1330.53 189.627L1308.08 202.068L1284.48 214.972L1259.8 228.642L1234.49 243.419L1208.67 259.74L1172.7 248.867L1134.55 241.765L1110.86 264.738L1072.39 264.3L1051.09 292.321L1013.54 299.108L995.951 332.54L960.67 346.94L926.07 366.338L892.649 391.513L861.186 422.197L859.435 468.57L861.867 517.242L869.274 568.638L882.263 621.931L901.782 677.291L928.295 733.6L962.798 790.712L1001.03 841.403L1005.41 847.204L1051.53 896.642L1057.03 902.528L1112.07 950.531L1117.23 955.03L1180.31 999.385L1186.61 1003.81L1222.68 1024" stroke="white" stroke-width="0.25" stroke-linecap="round" stroke-linejoin="round"/>
</g>
<g style="mix-blend-mode:overlay">
<path d="M1538.61 907.952L1533.49 883.166L1529.98 857.578L1527.8 831.588L1526.7 805.184L1526.33 778.368L1526.46 751.113L1526.74 723.433L1526.97 695.29L1526.83 666.71L1526.07 637.656L1524.42 608.2L1521.66 578.306L1517.47 548.096L1511.66 517.582L1503.94 486.922L1494.15 456.189L1482.01 425.602L1467.37 395.295L1450.04 365.559L1429.88 336.578L1406.81 308.727L1380.7 282.251" stroke="white" stroke-width="0.25" stroke-linecap="round" stroke-linejoin="round"/>
</g>
<g style="mix-blend-mode:overlay">
<path d="M1746.26 931.108L1721.12 933.917L1649.49 934.246L1582.22 926.742L1557.77 921.366L1519.15 912.877L1516.38 911.917L1499.81 906.176L1462.54 893.273L1460.43 892.263L1448.6 886.669L1411.87 869.302L1404.59 864.68L1399.04 861.153L1368.83 841.974L1362.89 837.146L1332.6 812.482L1317.72 805.671L1303.27 800.235L1290.23 796.465L1277.62 794.324L1266.5 794.142L1255.92 795.82L1247.02 799.736L1238.85 805.659L1232.63 814.026L1227.49 824.51L1224.67 837.535L1223.3 852.725L1275.71 891.193L1281.69 895.583L1340.39 928.98L1346.34 932.373L1347.9 933.248L1416.4 962.084L1422.31 964.577L1501.24 987.891L1502.48 988.256L1585.2 1002.61L1588.38 1003.17L1604.63 1016.06L1616.34 1024" stroke="white" stroke-width="0.25" stroke-linecap="round" stroke-linejoin="round"/>
</g>
<g style="mix-blend-mode:overlay">
<path d="M70.5596 142.682L83.2443 121.083L91.3806 109.614L149.429 27.8262L168.803 20.3954L187.045 14.3996L199.913 0" stroke="white" stroke-width="0.25" stroke-linecap="round" stroke-linejoin="round"/>
</g>
<g style="mix-blend-mode:overlay">
<path d="M1200.34 1024L1186.61 1003.81L1165.23 966.633L1149.12 931.668L1136.99 898.77L1129.25 868.56L1124.57 840.722L1123.46 815.851L1124.65 793.498L1128.62 774.233L1134.23 757.523L1142 743.865L1150.82 732.725L1161.27 724.516L1172.31 718.678L1184.57 715.553L1197.1 714.592L1210.55 716.051L1224.07 719.457L1238.36 724.954L1252.65 732.129L1267.68 741.056L1282.75 751.369L1303.16 780.424L1304.25 781.968L1330.86 810.609L1332.6 812.482L1348.91 820.606L1365.74 829.825L1384.07 839.992L1399.36 848.797L1403.08 850.938L1418.23 859.244L1424.46 862.65L1431.19 866.079" stroke="white" stroke-width="0.25" stroke-linecap="round" stroke-linejoin="round"/>
</g>
<g style="mix-blend-mode:overlay">
<path d="M1746.26 355.21L1732.81 335.167L1716.76 311.61L1699.62 287.225L1681.77 262.646L1662.44 237.399L1642.08 212.114L1619.85 186.368L1599.21 164.014L1596.25 160.803L1570.38 135.081L1545.66 112.448L1542.79 109.797L1512.58 84.7921L1483.13 62.682L1480.34 60.578L1448.5 39.3799L1445.18 37.1665L1407.68 15.032L1378.21 0" stroke="white" stroke-width="0.25" stroke-linecap="round" stroke-linejoin="round"/>
</g>
<g style="mix-blend-mode:overlay">
<path d="M1746.26 977.663L1722.58 980.278L1637.47 979.767L1634.4 979.403L1558.74 970.597L1554.54 970.111L1476.76 951.698L1473.75 950.628L1470.6 949.497L1404.08 925.72L1402.57 924.966L1339.07 893.273L1281.3 855.522L1232.63 814.026L1192.27 769.794L1161.27 724.515L1138.56 678.933L1124.47 634.567L1117.8 591.83L1118.3 551.915L1124.83 514.882L1136.74 481.51L1153.06 451.592L1172.95 425.481L1195.68 402.787L1220.43 383.498L1246.67 367.165" stroke="white" stroke-width="0.25" stroke-linecap="round" stroke-linejoin="round"/>
</g>
<g style="mix-blend-mode:overlay">
<path d="M1694.01 925.124L1682.51 905.786L1672.18 883.883L1663.73 860.909L1656.85 837.109L1651.3 812.444L1646.81 787.063L1643.14 760.915L1640 734.135L1637.18 706.637L1634.43 678.555L1631.48 649.792L1628.11 620.47L1624.05 590.516L1619.1 560.063L1612.97 529.038L1605.49 497.636L1596.32 465.821L1585.34 433.799L1572.21 401.582L1556.85 369.463L1538.91 337.502L1518.39 306.002L1494.93 275.172L1468.6 245.327L1439.13 216.735L1406.58 189.784L1370.88 164.816L1332.1 142.219L1290.28 122.444L1245.54 105.892L1198.12 93.037L1148.16 84.3535L1096.1 80.2793L1042.15 81.386L986.939 88.0507L930.764 100.918L874.467 120.255L818.486 146.841L817.379 147.534L763.843 180.784L762.444 181.903L711.194 222.937L709.857 224.287L661.744 273.202L660.261 275.148L616.442 332.479L576.648 400.427L543.653 477.885L518.953 564.198L504.249 659.984L501.087 764.223L511.522 877.097L537.098 997.097L562.942 1024" stroke="white" stroke-width="0.25" stroke-linecap="round" stroke-linejoin="round"/>
</g>
<g style="mix-blend-mode:overlay">
<path d="M1746.26 313.325L1732.63 295.666L1715.49 273.665L1697.88 251.409L1679.06 228.338L1659.47 205.133L1638.3 181.284L1616.07 157.471L1591.83 133.257L1566.22 109.298L1538.22 85.2907L1511.71 64.336L1508.5 61.7941L1479.93 41.4596L1476.07 38.711L1441.6 16.5522L1412.37 0" stroke="white" stroke-width="0.25" stroke-linecap="round" stroke-linejoin="round"/>
</g>
<g style="mix-blend-mode:overlay">
<path d="M1746.26 786.869L1728.86 800.174L1692.68 821.372L1656.85 837.11L1622.17 847.873L1589.2 854.416L1558.39 857.396L1529.98 857.578L1504.1 855.669L1480.85 852.324L1460.14 848.189L1442.03 843.823L1426.33 839.773L1413.2 836.465L1402.44 834.325L1394.38 833.644L1388.67 834.994L1387.5 835.431L1385.2 834.422L1384.9 833.753L1382.65 831.588L1381.24 830.98L1379.98 830.348L1379.07 829.338L1378.03 827.368L1377.43 825.471L1376.03 823.562L1374.24 818.624L1370.85 815.875L1367.6 814.015L1361.32 808.116L1352.46 798.314L1346.27 790.992L1336.08 778.989L1328.28 760.709L1324.5 755.334L1314.08 740.557L1312.69 723.214L1315.82 708.572L1322.51 696.738L1332.5 687.811L1345.01 681.682L1359.83 678.155L1376.34 676.963L1394.43 677.681L1413.76 679.918L1434.31 683.129L1455.87 686.863L1478.54 690.499L1502.22 693.515L1526.97 695.291L1552.68 695.267L1579.3 692.834L1606.64 687.422L1634.43 678.556L1662.28 665.653L1689.71 648.419L1716.1 626.382L1740.8 599.553L1746.26 591.66" stroke="white" stroke-width="0.25" stroke-linecap="round" stroke-linejoin="round"/>
</g>
<g style="mix-blend-mode:overlay">
<path d="M1417.81 857.286L1413.2 836.465L1408.52 810.001L1404.92 783.525L1401.91 757.06L1399.42 730.584L1396.95 704.132L1394.43 677.68L1391.44 651.265L1387.87 624.886L1383.34 598.629L1377.75 572.505L1370.77 546.649L1362.27 521.121L1352 496.105L1339.84 471.708L1325.65 448.187L1309.26 425.688L1290.68 404.514L1269.77 384.909L1246.67 367.165" stroke="white" stroke-width="0.25" stroke-linecap="round" stroke-linejoin="round"/>
</g>
<g style="mix-blend-mode:overlay">
<path d="M1383.84 831.32L1375.58 812.093L1365.85 786.735L1356.83 761.56L1348.52 736.665L1340.4 712.049L1332.5 687.811L1324.32 663.986L1315.9 640.66L1306.79 617.881L1297.02 595.783L1286.2 574.451L1274.37 554.043L1261.24 534.67L1246.81 516.561L1230.93 499.814L1213.61 484.77L1194.83 471.501L1174.62 460.434L1153.06 451.592L1130.25 445.511L1106.42 442.142L1081.72 442.118" stroke="white" stroke-width="0.25" stroke-linecap="round" stroke-linejoin="round"/>
</g>
<g style="mix-blend-mode:overlay">
<path d="M255.577 1024L245.775 1005.89L201.761 878.156L165.981 761.086L136.915 653.32L113.856 553.873L107.191 533.247L63.4329 397.849L59.0181 381.504L24.1867 252.333L21.0368 237.532L-4.75839 116.194L-22.1133 0" stroke="white" stroke-width="0.25" stroke-linecap="round" stroke-linejoin="round"/>
</g>
<g style="mix-blend-mode:overlay">
<path d="M66.9226 76.5951L82.8181 65.2724L89.1666 57.0389L133.144 0" stroke="white" stroke-width="0.25" stroke-linecap="round" stroke-linejoin="round"/>
</g>
<g style="mix-blend-mode:overlay">
<path d="M818.912 1024L804.707 1010.65L757.458 960.929L714.855 910.92L676.23 860.387L641.702 810.122L610.665 759.724L583.216 710.019L558.844 660.52L537.561 612.092L556.521 523.724L584.42 444.624L619.726 374.122L660.991 312.777L705.406 261.698L707.06 259.788L755.123 216.76L756.619 215.41L807.273 179.885L808.842 178.803L862.548 149.979L917.191 128.161L971.774 113.178L1025.93 104.336L1078.85 101.332L1130.29 103.533L1179.64 110.587L1226.75 121.934L1271.19 137.137L1312.85 155.744L1332.1 142.22L1349.6 128.562L1365.21 114.528L1378.65 99.9457L1389.9 84.6948L1398.49 68.6048L1404.6 51.6755L1407.56 33.7855L1407.68 15.032L1404.98 0" stroke="white" stroke-width="0.25" stroke-linecap="round" stroke-linejoin="round"/>
</g>
<g style="mix-blend-mode:overlay">
<path d="M252.682 1024L245.774 1005.89L232.992 980.363L153.734 822.114L121.724 702.247L96.5731 592.304L77.5155 491.215L71.836 473.204L29.7075 339.935L25.8643 325.17L-7.00903 198.529L-33.5339 65.9778L-42.3999 0" stroke="white" stroke-width="0.25" stroke-linecap="round" stroke-linejoin="round"/>
</g>
<g style="mix-blend-mode:overlay">
<path d="M1511.03 900.46L1507.39 881.488L1504.1 855.668L1502.2 829.508L1501.29 803.032L1501.16 776.191L1501.43 749.021L1501.91 721.45L1502.22 693.515L1502.2 665.166L1501.48 636.452L1499.89 607.336L1497.08 577.917L1492.87 548.181L1486.98 518.275L1479.2 488.236L1469.29 458.281L1457.04 428.497L1442.29 399.163L1424.84 370.424L1404.64 342.647L1381.49 316.024" stroke="white" stroke-width="0.25" stroke-linecap="round" stroke-linejoin="round"/>
</g>
<g style="mix-blend-mode:overlay">
<path d="M1746.26 165.109L1730 154.868L1713.16 143.655L1695.6 131.335L1678.01 118.553L1659.51 104.75L1640.82 90.569L1620.96 75.464L1600.73 60.0793L1579 43.9285L1556.66 27.6073L1532.49 10.7267L1516.6 0" stroke="white" stroke-width="0.25" stroke-linecap="round" stroke-linejoin="round"/>
</g>
<g style="mix-blend-mode:overlay">
<path d="M756.521 1024L748.422 1007.2L714.855 910.92L694.399 819.317L685.971 733.844L687.831 654.573L698.826 582.502L717.421 517.29L742.511 459.643L739.714 414.134L739.483 370.838L741.429 329.135L745.126 289.548L750.355 251.482L756.619 215.41L763.843 180.785L771.493 148.021L779.531 116.668L787.4 87.0421L795.05 58.8145L801.921 32.2288L807.929 7.02953L829.042 0" stroke="white" stroke-width="0.25" stroke-linecap="round" stroke-linejoin="round"/>
</g>
<g style="mix-blend-mode:overlay">
<path d="M1606.67 921.111L1600.42 903.586L1594 879.311L1589.2 854.416L1585.79 828.888L1583.45 802.801L1581.89 776.142L1580.87 748.936L1580.09 721.159L1579.3 692.834L1578.25 663.95L1576.64 634.53L1574.23 604.576L1570.83 574.123L1566.06 543.232L1559.81 511.951L1551.73 480.391L1541.66 448.649L1529.33 416.883L1514.58 385.262L1497.16 353.994L1476.96 323.322L1453.82 293.537L1427.66 264.909L1398.4 237.812L1366 212.576L1330.53 189.627" stroke="white" stroke-width="0.25" stroke-linecap="round" stroke-linejoin="round"/>
</g>
<g style="mix-blend-mode:overlay">
<path d="M89.3738 304.836L96.2452 288.758L151.837 186.355L213.886 93.6702L281.47 10.6294L291.88 0" stroke="white" stroke-width="0.25" stroke-linecap="round" stroke-linejoin="round"/>
</g>
<g style="mix-blend-mode:overlay">
<path d="M1746.26 837.365L1738.39 822.248L1728.86 800.175L1720.59 776.982L1713.28 752.926L1706.77 727.921L1700.82 702.199L1695.21 675.625L1689.71 648.42L1684.11 620.423L1678.2 591.891L1671.73 562.606L1664.55 532.87L1656.32 502.466L1646.96 471.708L1636.08 440.416L1623.63 408.929L1609.19 377.126L1592.78 345.372L1573.94 313.617L1552.77 282.252L1528.78 251.312L1502.14 221.224L1472.43 192.121L1439.81 164.44L1404.02 138.438L1365.21 114.528L1323.27 93.0992L1278.38 74.5767L1230.59 59.3866L1180.09 48.0032L1127.15 40.9128L1072.01 38.6143L1015.13 41.5696L956.814 50.3869L897.756 65.4432L838.346 87.4439L837.896 87.675L779.531 116.669L778.692 117.204L721.86 153.908L721.033 154.589L666.488 199.272L665.369 200.439L614.24 253.635L566.444 316.876L524.255 389.872L489.205 472.219L462.826 564.673L446.797 666.468L472.519 715.151L501.087 764.224L532.914 814.124L567.855 863.89L606.384 913.9L648.257 963.277L694.022 1012.37L705.953 1024" stroke="white" stroke-width="0.25" stroke-linecap="round" stroke-linejoin="round"/>
</g>
<g style="mix-blend-mode:overlay">
<path d="M1746.26 238.347L1733.99 226.587L1716.61 209.609L1698.37 191.646L1679.83 173.354L1660.12 154.187L1639.88 134.801L1618.1 114.71L1595.54 94.5459L1571.11 73.883L1545.54 53.3295L1517.73 32.5936L1488.48 12.2105L1469.2 0" stroke="white" stroke-width="0.25" stroke-linecap="round" stroke-linejoin="round"/>
</g>
<g style="mix-blend-mode:overlay">
<path d="M1746.26 919.676L1735.4 907.015L1721.93 887.435L1710.51 866.48L1700.83 844.467L1692.68 821.372L1685.79 797.413L1679.98 772.53L1674.94 746.941L1670.48 720.514L1666.35 693.466L1662.28 665.652L1658.1 637.254L1653.53 608.139L1648.36 578.512L1642.33 548.217L1635.26 517.497L1626.84 486.229L1616.97 454.657L1605.23 422.708L1591.6 390.673L1575.67 358.542L1557.43 326.629L1536.48 295.021L1512.9 264.069L1486.33 233.932L1456.83 204.999L1424.17 177.538L1388.47 151.937L1349.6 128.562L1307.71 107.826L1262.83 90.1794L1215.13 76.0473L1164.88 65.8922L1112.23 60.2248L1057.66 59.4951L1001.4 64.2747L944.154 74.9528L886.215 92.2104L828.507 116.303L827.547 116.838L771.493 148.021L770.544 148.714L716.302 187.486L715.038 188.629L663.618 235.537L662.438 236.912L614.751 292.102L570.726 358.031L532.988 432.984L502.948 517.752L482.188 611.629L472.519 715.15L475.608 827.197L511.522 877.097L550.634 926.729L593.383 976.422L638.272 1024" stroke="white" stroke-width="0.25" stroke-linecap="round" stroke-linejoin="round"/>
</g>
<g style="mix-blend-mode:overlay">
<path d="M1406.68 849.794L1402.44 834.324L1396.59 807.933L1391.64 781.59L1387.49 755.297L1383.66 729.1L1380.09 702.964L1376.34 676.962L1372.29 651.058L1367.56 625.335L1362.08 599.808L1355.45 574.596L1347.61 549.726L1338.26 525.365L1327.29 501.626L1314.51 478.688L1299.8 456.724L1283.1 435.976L1264.29 416.675L1243.43 399.065L1220.43 383.498L1195.5 370.181L1168.59 359.576L1140.03 351.804L1109.88 347.45L1078.59 346.562L1046.3 349.785L1029.13 384.155L1015.24 422.075L987.474 434.541L960.329 451.726L934.327 473.313L910.064 500.081L888.112 531.629L869.274 568.637L854.157 610.632L843.77 658.209L838.772 710.724L840.39 768.589L849.304 831.04L866.89 898.125L893.865 968.882L921.971 1024" stroke="white" stroke-width="0.25" stroke-linecap="round" stroke-linejoin="round"/>
</g>
<g style="mix-blend-mode:overlay">
<path d="M1746.26 922.194L1745.74 922.279L1731.68 924.285L1728.02 924.711L1723.64 925.222L1710.99 925.72L1698.3 924.991L1694.16 925.392L1685.22 925.72L1676.85 925.647L1669.35 925.526L1660.65 926.049L1653.2 926.256L1638.62 926.097L1623.51 923.689L1616.6 923.008L1614.17 922.498L1607.99 921.318L1606.77 921.403L1600.93 921.05L1596.25 920.321L1570.72 915.675L1558.98 913.559L1549.73 911.941L1533.72 908.463L1531.75 907.988L1511.39 902.321L1509.52 901.336L1500.23 897.432L1491.5 894.683L1486.94 893.175L1481.77 891.619L1464.46 884.832L1461.61 882.461L1459.88 881.67L1447.2 875.371L1439.57 871.613L1430.78 866.687L1424.46 862.649L1420.97 860.57L1418.25 859.268L1404.21 850.524L1398.64 846.596L1391.89 841.524L1390.75 840.126L1386.93 837.182L1381.61 831.393L1380.81 829.873L1375.92 825.167L1374.11 822.309L1373.87 820.484L1371.26 818.186L1367.34 815.705L1363.63 814.318L1348.94 798.946L1348.59 798.435L1336.08 778.988L1330.23 772.105L1320.12 760.21L1304.96 742.199L1289.9 724.978L1286.36 702.43L1287.65 682.436L1293.56 665.421L1303.09 651.46L1315.9 640.66L1331.18 632.852L1348.61 627.853L1367.56 625.336L1387.87 624.886L1409.12 626.078L1431.25 628.352L1454.03 631.234L1477.49 634.105L1501.48 636.452L1526.07 637.656L1551.15 637.206L1576.64 634.53L1602.36 629.094L1628.11 620.471L1653.53 608.139L1678.2 591.891L1701.62 571.24L1723.24 546.284L1742.33 516.646L1731.61 490.255L1720.27 463L1733.53 431.89L1720.19 405.377L1728.64 372.054L1713.34 346.502L1716.76 311.61L1715.49 273.665L1709.68 233.713L1698.37 191.646L1681.96 148.654L1659.79 105.309L1659.51 104.75L1632.17 61.9036L1631.73 61.2104L1598.35 18.9238L1597.73 18.1454L1580.57 0" stroke="white" stroke-width="0.25" stroke-linecap="round" stroke-linejoin="round"/>
</g>
<g style="mix-blend-mode:overlay">
<path d="M1623.18 923.021L1607.82 921.78L1607.37 922.218L1606.85 921.646L1579.84 917.061L1570.83 915.955L1560.2 914.203L1558.98 913.559L1545.4 910.64L1538.78 908.779L1511.09 900.764L1509.33 900.266L1502.19 898.223L1500.23 897.432L1486.7 892.02L1475.83 888.992L1463.27 885.355L1444.53 879.226L1437.57 875.371L1432.4 872.5L1419.84 864.595L1419.11 863.16L1408.41 856.082L1389.88 843.835L1384.07 839.992L1372.52 828.864L1353.84 809.125L1349.28 804.674L1349.18 804.577L1333.64 784.108L1333.42 783.829L1331.86 781.773L1320.12 760.211L1314.08 740.557L1310.15 735.109L1300.01 721.062L1286.36 702.43L1272.51 684.661L1258.78 668.036L1244.6 652.53L1230.3 638.483L1215.37 625.822L1200.2 614.986L1184.37 605.853L1168.3 598.921L1151.65 594.019L1134.89 591.745L1117.8 591.83L1100.92 594.932L1084.1 600.733L1067.96 609.903L1052.41 622.052L1038.19 637.863L1025.26 656.859L1014.46 679.724L1005.78 705.908L1000.2 736.021L997.715 769.466L999.43 806.742L1005.41 847.204L1016.83 891.169L1033.82 937.931L1057.6 987.575L1079.25 1024" stroke="white" stroke-width="0.25" stroke-linecap="round" stroke-linejoin="round"/>
</g>
<g style="mix-blend-mode:overlay">
<path d="M811.675 1024L804.707 1010.65L770.058 921.537L748.02 837.037L736.929 757.523L735.761 684.114L742.985 616.677L757.58 556.05L778.206 501.748L803.904 454.365L804.184 408.71L807.346 365.62L812.964 324.501L820.468 285.815L829.614 248.928L839.818 214.23L850.982 181.138L862.548 149.979L874.467 120.256L886.215 92.2108L897.757 65.4427L908.556 40.1096L918.59 15.9563L924.683 0" stroke="white" stroke-width="0.25" stroke-linecap="round" stroke-linejoin="round"/>
</g>
<g style="mix-blend-mode:overlay">
<path d="M1746.26 202.287L1735.22 193.519L1718.01 179.411L1700.05 164.221L1681.96 148.654L1662.84 132.114L1643.4 115.27L1622.6 97.5985L1601.27 79.745L1578.25 61.2347L1554.38 42.6879L1528.5 23.7398L1501.47 4.94986L1493.75 0" stroke="white" stroke-width="0.25" stroke-linecap="round" stroke-linejoin="round"/>
</g>
<g style="mix-blend-mode:overlay">
<path d="M1486.62 891.558L1484.1 878.35L1480.85 852.324L1478.9 826.054L1478 799.505L1477.75 772.713L1478 745.616L1478.31 718.228L1478.54 690.499L1478.34 662.478L1477.49 634.105L1475.65 605.463L1472.66 576.531L1468.19 547.427L1462.06 518.178L1454.03 488.966L1443.87 459.85L1431.39 431.087L1416.41 402.811L1398.82 375.326L1378.44 348.849L1355.3 323.723L1329.25 300.239L1300.42 278.785" stroke="white" stroke-width="0.25" stroke-linecap="round" stroke-linejoin="round"/>
</g>
<g style="mix-blend-mode:overlay">
<path d="M1746.26 124.306L1733.94 119.222L1717.58 111.499L1701.29 103.169L1684.33 93.7189L1667.38 83.7341L1649.59 72.7033L1631.73 61.2104L1612.8 48.7567L1593.64 35.9138L1573.13 22.244L1552.21 8.28219L1539.41 0" stroke="white" stroke-width="0.25" stroke-linecap="round" stroke-linejoin="round"/>
</g>
<g style="mix-blend-mode:overlay">
<path d="M699.252 1024L694.022 1012.37L660.687 908.341L641.702 810.122L635.135 718.009L639.756 633.326L653.815 555.843L676.047 486.448L668.981 440.513L664.335 396.463L661.793 353.678L660.991 312.777L661.745 273.203L663.618 235.538L666.488 199.271L669.857 164.938L673.627 132.089L677.239 101.223L680.571 71.9736L683.052 44.7311L684.5 19.2643L684.39 0" stroke="white" stroke-width="0.25" stroke-linecap="round" stroke-linejoin="round"/>
</g>
<g style="mix-blend-mode:overlay">
<path d="M112.141 422.355L116.459 411.628L152.458 334.194L158.648 320.622L160.18 317.253L165.106 308.071L205.544 239.441L215.407 222.378L217.122 219.399L217.852 218.122L218.788 215.58L218.97 213.087L218.35 210.667L246.821 170.362L256.867 156.145L278.697 125.242L296.976 103.935L314.951 84.7311L321.726 78.5894L331.066 67.7289L344.663 53.305L375.821 24.7004L378.533 22.0978L402.699 0.461914L403.891 0.89974" stroke="white" stroke-width="0.25" stroke-linecap="round" stroke-linejoin="round"/>
</g>
<g style="mix-blend-mode:overlay">
<path d="M1380.01 827.77L1374.46 817.554L1362.69 792.792L1365.85 786.736L1371.85 782.929L1380.62 781.287L1391.64 781.591L1404.92 783.525L1420.16 786.748L1437.46 790.81L1456.69 795.249L1478 799.506L1501.29 803.033L1526.71 805.185L1554.12 805.331L1583.45 802.801L1614.48 796.915L1646.82 787.064L1679.98 772.531L1713.28 752.926L1745.96 727.654L1746.26 727.35" stroke="white" stroke-width="0.25" stroke-linecap="round" stroke-linejoin="round"/>
</g>
<g style="mix-blend-mode:overlay">
<path d="M1746.26 986.311L1735.39 987.661L1647.79 988.804L1563.43 980.096L1560.36 979.427L1482.52 962.62L1481.26 962.182L1474.94 960.029L1407.93 937.092L1404.99 935.693L1401.91 934.246L1339.5 904.705L1337.98 903.744L1279.54 866.797L1227.49 824.51L1184.88 779.523L1150.82 732.725L1126.03 685.829L1109.4 639.419L1100.92 594.932L1099.46 552.633L1104.53 513.557L1115.05 477.643L1130.25 445.512L1149.27 416.858L1171.23 391.89L1195.5 370.181L1221.24 351.635L1248.03 335.739L1275.17 322.179" stroke="white" stroke-width="0.25" stroke-linecap="round" stroke-linejoin="round"/>
</g>
<g style="mix-blend-mode:overlay">
<path d="M111.399 418.962L115.473 409.914L149.806 334.158L163.172 304.678L197.663 246.751L202.868 239.381L207.781 232.522L208.474 231.33L213.23 224.142L215.005 222.135L218.788 215.58L219.967 214.644L261.768 156.632L261.84 156.389L275.62 137.015L277.517 134.814L278.843 132.916L281.64 129.681L298.071 111.013L319.548 84.9138L326.626 75.4883L328.633 73.1533L334.592 66.2332L344.127 55.1781L344.492 52.1134L372.635 25.0412L375.918 21.8669L398.636 0" stroke="white" stroke-width="0.25" stroke-linecap="round" stroke-linejoin="round"/>
</g>
<g style="mix-blend-mode:overlay">
<path d="M1704.96 1024L1696.09 1019.29L1604.63 1016.06L1603.51 1015.89L1516.89 1002.8L1513.58 1001.93L1433.14 980.558L1431.65 979.962L1356.22 950.251L1353.02 948.548L1349.96 946.931L1286.03 913.036L1284.31 911.844L1278.49 907.794L1224.75 870.457L1218.69 865.094L1171.84 823.586L1128.62 774.233L1094.24 723.226L1069.2 672.341L1052.41 622.052L1043.7 573.831L1041.94 527.798L1046.53 485.013L1056.46 445.292L1070.88 409.281L1088.99 376.578L1109.88 347.451L1132.99 321.388L1157.46 298.378L1182.93 277.897L1208.67 259.74L1242.5 273.872L1273.71 290.935L1302.43 310.503L1328.35 332.2L1351.61 355.721L1378.44 348.849L1404.64 342.647L1429.88 336.578L1454.05 330.303L1476.96 323.322L1498.44 315.331L1518.39 306.003L1536.48 295.021L1552.77 282.251L1566.75 267.365L1578.51 250.448L1587.45 231.196L1593.74 209.901L1596.56 186.258L1596.25 160.803L1591.83 133.257L1583.83 104.348L1571.11 73.883L1554.39 42.6879L1532.49 10.7267L1523.71 0" stroke="white" stroke-width="0.25" stroke-linecap="round" stroke-linejoin="round"/>
</g>
<g style="mix-blend-mode:overlay">
<path d="M1746.26 816.228L1738.39 822.248L1700.83 844.467L1663.73 860.91L1627.9 872.33L1594 879.311L1562.42 882.692L1533.49 883.166L1507.39 881.488L1484.1 878.35L1463.71 874.373L1446.06 870.165L1433.39 866.772" stroke="white" stroke-width="0.25" stroke-linecap="round" stroke-linejoin="round"/>
</g>
<g style="mix-blend-mode:overlay">
<path d="M118.27 450.145L121.116 441.474L169.35 334.389L224.273 239.88L284.048 157.495L347.314 86.0691L412.683 25.0168L444.839 0" stroke="white" stroke-width="0.25" stroke-linecap="round" stroke-linejoin="round"/>
</g>
<g style="mix-blend-mode:overlay">
<path d="M298.423 1024L294.458 1015.94L262.326 945.155L208.985 827.708L197.845 800.733L176.282 748.572L136.914 653.32L129.41 632.828L77.5156 491.215L63.4322 397.849L53.8001 311.464L47.8165 231.184L45.1409 156.498L45.2017 86.7137L47.78 21.4778L49.4218 0" stroke="white" stroke-width="0.25" stroke-linecap="round" stroke-linejoin="round"/>
</g>
<g style="mix-blend-mode:overlay">
<path d="M1540.36 1024L1533.49 1018.44L1516.89 1002.8L1502.48 988.256L1491.52 974.781L1488.42 973.796L1413.49 950.056L1412.12 949.424L1405.99 946.663L1342.82 918.095L1339.92 916.368L1336.85 914.532L1279.2 880.065L1224.67 837.535L1178.54 791.551L1142 743.865L1114.08 695.279L1095.16 647.422L1084.1 600.733L1080.66 556.561L1083.74 514.98L1092.64 476.913L1106.42 442.143L1124.2 411.179L1145.21 383.62L1168.59 359.576L1193.78 338.56L1219.96 320.415L1246.84 304.653L1273.71 290.935L1300.42 278.785" stroke="white" stroke-width="0.25" stroke-linecap="round" stroke-linejoin="round"/>
</g>
<g style="mix-blend-mode:overlay">
<path d="M297.827 1024L294.458 1015.94L269.904 951.893L250.943 902.467L233.041 851.631L230.244 843.689L213.911 797.328L200.922 762.57L176.148 696.251L160.788 655.157L148.857 623.22L126.589 531.812L103.615 451.726L81.943 376.14L77.3215 356.536L58.5559 276.791L47.817 231.184L23.7488 95.9932L12.5842 0" stroke="white" stroke-width="0.25" stroke-linecap="round" stroke-linejoin="round"/>
</g>
<g style="mix-blend-mode:overlay">
<path d="M1465.37 882.801L1463.71 874.373L1460.14 848.189L1457.95 821.81L1456.69 795.248L1456.19 768.48L1456.03 741.518L1456.06 714.299L1455.87 686.862L1455.32 659.146L1454.03 631.234L1451.81 603.068L1448.38 574.767L1443.53 546.321L1436.99 517.898L1428.56 489.537L1418.01 461.48L1405.18 433.8L1389.95 406.812L1372.09 380.665L1351.61 355.721" stroke="white" stroke-width="0.25" stroke-linecap="round" stroke-linejoin="round"/>
</g>
<g style="mix-blend-mode:overlay">
<path d="M1570.62 915.334L1568.12 907.428L1562.42 882.691L1558.39 857.395L1555.72 831.612L1554.12 805.33L1553.29 778.55L1552.95 751.295L1552.86 723.53L1552.68 695.266L1552.22 666.479L1551.15 637.205L1549.25 607.433L1546.25 577.223L1541.91 546.6L1535.96 515.648L1528.18 484.441L1518.3 453.136L1506.16 421.856L1491.51 390.819L1474.19 360.208L1454.05 330.302L1430.97 301.345L1404.86 273.713L1375.66 247.687L1343.41 223.691" stroke="white" stroke-width="0.25" stroke-linecap="round" stroke-linejoin="round"/>
</g>
<g style="mix-blend-mode:overlay">
<path d="M110.352 414.195L113.697 408.345L149.805 334.158L152.335 333.708L163.074 312.948L164.351 310.017L164.485 307.791L163.171 304.678L184.004 265.979L199.255 239.296L216.987 208.283L229.854 190.004L252.147 158.347L253.813 155.987L277.395 122.506L278.112 121.667L307.58 87.2245L310.524 83.7949L342.935 45.923L363.561 25.9776L390.414 0" stroke="white" stroke-width="0.25" stroke-linecap="round" stroke-linejoin="round"/>
</g>
<g style="mix-blend-mode:overlay">
<path d="M1647.41 924.261L1644.54 918.8L1635.29 895.973L1627.9 872.33L1622.17 847.873L1617.77 822.746L1614.48 796.915L1611.97 770.475L1610 743.391L1608.32 715.722L1606.64 687.422L1604.76 658.562L1602.36 629.094L1599.26 599.091L1595.15 568.54L1589.84 537.528L1583.03 506.077L1574.53 474.323L1564.04 442.313L1551.44 410.254L1536.39 378.244L1518.81 346.539L1498.44 315.331L1475.21 284.915L1448.94 255.556L1419.61 227.596L1387.14 201.387L1351.53 177.295L1312.85 155.744" stroke="white" stroke-width="0.25" stroke-linecap="round" stroke-linejoin="round"/>
</g>
<g style="mix-blend-mode:overlay">
<path d="M381.561 1024L377.45 1019.73L335.662 973.553L297.45 929.357L290.883 791.77L299.736 665.433L321.555 550.042L354.258 446.302L395.9 353.459L444.681 271.816L499.154 200.427L557.761 139.314L619.482 87.4799L620.638 86.7015L683.052 44.7311L684.645 43.8798L747.729 10.1673L748.714 0" stroke="white" stroke-width="0.25" stroke-linecap="round" stroke-linejoin="round"/>
</g>
<g style="mix-blend-mode:overlay">
<path d="M952.011 1024L947.912 1020.62L893.865 968.883L846.288 916.344L804.44 863.172L768.246 810.268L736.929 757.523L710.356 705.738L687.832 654.573L669.176 604.77L653.816 555.843L641.569 508.51L668.981 440.513L702.682 380.969L739.264 332.042L741.429 329.135L781.819 287.663L784.032 285.389L829.614 248.928L877.045 219.898L925.754 197.52L974.741 181.758L1023.62 171.883L1071.55 167.711L1118.32 168.611L1163.22 174.279L1206.16 184.166L1246.58 197.885L1284.48 214.972L1319.49 235.003L1351.62 257.575L1380.7 282.251L1404.86 273.714L1427.66 264.909L1448.94 255.556L1468.6 245.328L1486.33 233.932L1502.14 221.223L1515.6 206.909L1526.83 191.013L1535.22 173.281L1541 153.883L1543.4 132.6L1542.79 109.797L1538.22 85.2908L1530.23 59.5929L1517.73 32.5936L1501.47 4.94986L1497.75 0" stroke="white" stroke-width="0.25" stroke-linecap="round" stroke-linejoin="round"/>
</g>
<g style="mix-blend-mode:overlay">
<path d="M1746.26 921.78L1743.9 922.205L1741.82 922.473L1716.39 924.905L1710.13 926.657L1695.79 928.14L1692.86 928.396L1676.25 930.342L1639.26 926.718L1623.91 924.784L1607.46 923.349L1591.34 921.014L1580.35 920.138L1549.71 915.614L1533.82 913.838L1519.15 912.877L1506.93 912.537L1495.85 913.267L1479.04 906.821L1437.24 890.804L1430.94 887.544L1384.85 863.732L1384.82 863.707L1382.78 862.309L1340.48 833.145L1329.15 823.135L1303.27 800.235L1298.51 794.652L1274.35 766.267L1273.12 764.333L1252.65 732.129L1238.66 699L1231.22 667.476L1230.3 638.483L1234.72 612.286L1244.15 589.446L1257.54 569.975L1274.37 554.043L1293.79 541.444L1315.3 532.006L1338.26 525.366L1362.26 521.121L1386.89 518.823L1411.88 517.898H1436.99L1462.06 518.178L1486.98 518.275L1511.66 517.582L1535.96 515.648L1559.81 511.951L1583.03 506.077L1605.49 497.637L1626.84 486.229L1646.96 471.708L1665.3 453.648L1681.65 432.218L1695.34 407.044L1706.18 378.573L1690.97 351.038L1674.79 323.322L1680.03 294.231L1661.69 267.633L1662.44 237.398L1659.48 205.133L1651.8 170.606L1639.88 134.801L1622.6 97.5985L1621.83 96.285L1600.73 60.0793L1600.31 59.5077L1573.13 22.2439L1553.73 0" stroke="white" stroke-width="0.25" stroke-linecap="round" stroke-linejoin="round"/>
</g>
<g style="mix-blend-mode:overlay">
<path d="M378.606 1024L377.45 1019.73L356.715 881.914L322.37 836.027L290.883 791.77L262.144 750.286L276.665 624.655L303.58 511.039L340.722 408.746L386.146 318.141L438.223 238.298L495.298 169.244L556.18 109.967L619.531 60.2861L684.5 19.2643L723.053 0" stroke="white" stroke-width="0.25" stroke-linecap="round" stroke-linejoin="round"/>
</g>
<g style="mix-blend-mode:overlay">
<path d="M1297.25 1024L1294.71 1020.83L1273.74 991.078L1257.36 963.069L1244.16 936.727L1234.88 912.537L1228.16 890.293L1224.75 870.457L1223.3 852.725L1174.41 806.389L1134.23 757.523L1103.61 707.902L1081.49 658.161L1067.96 609.902L1061.88 563.384L1062.82 519.82L1069.69 479.139L1081.72 442.118" stroke="white" stroke-width="0.25" stroke-linecap="round" stroke-linejoin="round"/>
</g>
<g style="mix-blend-mode:overlay">
<path d="M950.004 1024L947.912 1020.62L914.321 951.698L890.581 886.134L875.33 824.145L867.948 766.657L867.133 713.497L872.29 665.397L882.263 621.931L896.492 583.694L914.041 550.079L934.376 521.596L956.729 497.516L980.639 478.276L1005.52 463.122L1030.94 452.371L1056.46 445.293L1081.72 442.119L1098.01 408.455L1117.67 378.5L1140.03 351.805L1164.22 328.418L1189.79 307.804" stroke="white" stroke-width="0.25" stroke-linecap="round" stroke-linejoin="round"/>
</g>
<g style="mix-blend-mode:overlay">
<path d="M1446.85 873.741L1446.06 870.166L1442.03 843.823L1439.22 817.383L1437.46 790.81L1436.32 764.127L1435.65 737.286L1435.03 710.299L1434.31 683.129L1433.08 655.838L1431.25 628.352L1428.4 600.781L1424.41 573.113L1418.96 545.482L1411.89 517.899L1402.92 490.595L1391.9 463.608L1378.68 437.242L1363.04 411.592L1344.98 387.001L1324.28 363.687L1301.08 341.978L1275.17 322.179" stroke="white" stroke-width="0.25" stroke-linecap="round" stroke-linejoin="round"/>
</g>
<g style="mix-blend-mode:overlay">
<path d="M276.24 136.297L277.991 133.524L279 130.727L279.207 128.003L278.696 125.242L277.395 122.506L275.376 119.696L272.591 116.899L269.088 114.041L264.832 111.183L259.858 108.288L254.117 105.479L247.647 102.682L240.387 100.079L232.372 97.586L223.518 95.5063L213.886 93.6699L203.33 92.5267L191.934 91.8213L179.529 92.174L166.236 93.2199L151.812 95.7496L136.427 99.2765L119.814 104.798L102.18 111.669L72.2131 161.618" stroke="white" stroke-width="0.25" stroke-linecap="round" stroke-linejoin="round"/>
</g>
<g style="mix-blend-mode:overlay">
<path d="M1746.26 274.881L1744.39 272.789L1727.17 253.428L1709.68 233.713L1691.18 213.087L1672.18 192.23L1651.8 170.606L1630.66 148.873L1607.78 126.58L1583.83 104.348L1557.73 81.8125L1530.23 59.5929L1500.25 37.434L1468.52 15.8955L1442.39 0" stroke="white" stroke-width="0.25" stroke-linecap="round" stroke-linejoin="round"/>
</g>
<g style="mix-blend-mode:overlay">
<path d="M218.35 210.667L216.988 208.283L214.848 205.924L211.977 203.577L208.329 201.242L203.938 198.919L198.794 196.645L192.908 194.407L186.255 192.327L178.836 190.333L170.627 188.679L161.664 187.231L151.837 186.356L141.232 185.869L129.727 186.307L117.383 187.341L104.078 189.724L89.885 193.008L75.3638 197.885" stroke="white" stroke-width="0.25" stroke-linecap="round" stroke-linejoin="round"/>
</g>
<g style="mix-blend-mode:overlay">
<path d="M163.877 305.687L162.466 303.668L160.301 301.747L157.346 299.874L153.636 298.062L149.149 296.31L143.919 294.644L137.899 293.087L131.125 291.64L123.572 290.448L115.254 289.451L106.145 288.94L96.2448 288.758L86.8438 289.293" stroke="white" stroke-width="0.25" stroke-linecap="round" stroke-linejoin="round"/>
</g>
<g style="mix-blend-mode:overlay">
<path d="M866.379 1024L864.7 1022.49L814.934 972.446L770.057 921.537L730.106 870.554L694.399 819.317L662.948 768.602L635.134 718.009L610.969 668.352L589.892 619.097L571.881 571.07L594.343 489.829L624.784 417.588L661.793 353.678L702.304 300.798L704.007 298.585L750.355 251.482L797.884 213.963L799.598 212.625L850.982 181.138L903.424 157.07L956.425 139.618L1009.02 128.648L1060.92 123.43L1111.33 123.698L1160.09 128.854L1206.57 138.511L1250.68 152.144L1292.03 169.329L1330.53 189.627L1351.53 177.295L1370.87 164.817L1388.47 151.937L1404.02 138.438L1417.49 124.16L1428.47 108.921L1437.11 92.6851L1442.76 75.2816L1445.71 56.82L1445.18 37.1665L1441.6 16.5522L1435.79 0" stroke="white" stroke-width="0.25" stroke-linecap="round" stroke-linejoin="round"/>
</g>
<g style="mix-blend-mode:overlay">
<path d="M109.015 408.138L109.659 406.229L142.01 334.073L157.346 299.874L191.8 239.126L211.977 203.577L242.381 160.086L245.543 155.574L272.591 116.899L296.538 88.7447L338.459 39.4529L378.983 0" stroke="white" stroke-width="0.25" stroke-linecap="round" stroke-linejoin="round"/>
</g>
<g style="mix-blend-mode:overlay">
<path d="M865.565 1024L864.701 1022.49L828.897 941.044L804.44 863.172L790.49 790.08L785.528 721.913L788.69 659.559L798.602 602.751L814.4 552.17L834.941 507.269L859.435 468.57L886.982 435.393L892.649 391.513L901.6 350.151L913.093 311.744L926.714 275.684L941.746 242.275L957.97 210.91L974.741 181.758L991.95 154.309L1009.03 128.648L1025.93 104.336L1042.15 81.3868L1057.66 59.4956L1072.01 38.6137L1085.12 18.5224L1096.12 0" stroke="white" stroke-width="0.25" stroke-linecap="round" stroke-linejoin="round"/>
</g>
<g style="mix-blend-mode:overlay">
<path d="M1455.25 878.91L1453.78 878.277L1447.12 876.052L1431.89 869.691L1420.08 863.805L1419.16 863.379L1401.92 855.583L1384.51 848.274L1368.83 841.974L1353.79 836.878L1340.48 833.145L1327.79 830.895L1316.86 830.323L1306.64 831.43L1298.32 834.495L1290.85 839.432L1285.54 846.486L1281.3 855.523L1279.54 866.796L1279.2 880.065L1281.69 895.584L1286.03 913.036L1293.66 932.616L1303.61 953.972L1317.33 977.214L1333.9 1001.95L1351.44 1024" stroke="white" stroke-width="0.25" stroke-linecap="round" stroke-linejoin="round"/>
</g>
<g style="mix-blend-mode:overlay">
<path d="M1746.26 728.48L1745.96 727.653L1737.86 703.646L1730.34 678.641L1723.15 652.955L1716.1 626.382L1709.01 599.212L1701.62 571.24L1693.8 542.757L1685.26 513.545L1675.87 483.918L1665.3 453.648L1653.49 423.109L1640.04 392.085L1624.94 360.963L1607.74 329.609L1588.5 298.439L1566.75 267.365L1542.61 236.851L1515.6 206.909L1485.93 178L1453.14 150.271L1417.49 124.16L1378.65 99.9458L1336.86 78.0667L1291.97 58.9118L1244.22 42.9069L1193.67 30.5262L1140.54 22.2318L1085.12 18.5225L1027.67 19.9211L968.721 26.9141L908.556 40.1097L847.978 59.9091L787.4 87.0421L787.072 87.2367L727.82 121.776L727.102 122.311L669.856 164.938L614.751 216.602L613.754 217.782L563.392 277.691L517.214 348.022L477.493 428.497L445.812 518.665L462.826 564.673L482.187 611.63L504.249 659.985L529.059 708.79L557.019 758.532L588.068 808.286L622.681 858.502L660.686 908.341L702.669 958.18L748.422 1007.2L765.777 1024" stroke="white" stroke-width="0.25" stroke-linecap="round" stroke-linejoin="round"/>
</g>
<g style="mix-blend-mode:overlay">
<path d="M1746.26 926.864L1745.88 927.897L1731.97 930.682L1721.12 933.917L1711.76 937.651L1705.25 941.251L1700.29 945.556L1625.26 942.905L1553.39 932.531L1487.34 914.896L1426.73 891.375L1418.73 887.082L1373.78 862.953L1327.79 830.895L1326.06 829.314L1290.23 796.465L1285.72 791.101L1260.14 760.721L1258.97 758.8L1238.36 724.953L1237.47 722.825L1223.73 689.927L1216.47 656.738L1215.37 625.822L1220.21 597.984L1229.88 573.332L1243.87 552.268L1261.24 534.67L1281.38 520.562L1303.57 509.641L1327.29 501.626L1352 496.105L1377.32 492.578L1402.92 490.595L1428.56 489.537L1454.03 488.966L1479.2 488.236L1503.94 486.922L1528.18 484.441L1551.73 480.391L1574.52 474.323L1596.32 465.822L1616.97 454.657L1636.08 440.416L1653.49 423.109L1668.65 402.349L1681.39 378.451L1690.97 351.038L1697.35 320.719L1680.03 294.231L1681.77 262.646L1679.06 228.338L1672.18 192.23L1660.12 154.187L1643.4 115.27L1643.11 114.747L1620.96 75.464L1620.45 74.7465L1593.94 36.3516L1593.64 35.9138L1563.18 0" stroke="white" stroke-width="0.25" stroke-linecap="round" stroke-linejoin="round"/>
</g>
<g style="mix-blend-mode:overlay">
<path d="M1746.26 926.924L1745.5 927.034L1731.97 930.682L1662.2 932.02L1649.49 934.246L1639.53 936.508L1630.97 939.548L1625.26 942.905L1621.08 947.21L1548.36 936.058L1480.03 917.815L1418.6 893.248L1363.58 863.683L1363.46 863.586L1316.86 830.323L1277.62 794.324L1276.21 792.609L1247.04 757.073L1245.69 754.859L1224.07 719.456L1223.26 717.449L1209.2 682.776L1201.27 647.604L1200.2 614.986L1204.85 585.153L1214.8 558.786L1228.98 535.837L1246.81 516.561L1267.41 500.726L1290.19 488.224L1314.51 478.689L1339.84 471.708L1365.77 466.88L1391.9 463.608L1418.01 461.48L1443.87 459.85L1469.29 458.281L1494.15 456.189L1518.3 453.137L1541.66 448.649L1564.04 442.313L1585.34 433.8L1605.23 422.708L1623.63 408.929L1640.04 392.085L1654.37 372.309L1665.96 349.251L1674.79 323.322L1656.98 295.058L1661.69 267.633L1641.61 240.524L1620.16 213.513L1596.56 186.258L1571.25 159.356L1543.4 132.6L1513.51 106.537L1480.78 81.1071L1445.71 56.82L1407.56 33.7855L1366.85 12.4659L1338.6 0" stroke="white" stroke-width="0.25" stroke-linecap="round" stroke-linejoin="round"/>
</g>
<g style="mix-blend-mode:overlay">
<path d="M245.227 866.419L230.9 827.465L217.073 788.656L204.996 753.059L188.906 705.604" stroke="white" stroke-width="0.25" stroke-linecap="round" stroke-linejoin="round"/>
</g>
<g style="mix-blend-mode:overlay">
<path d="M184.272 691.897L183.129 688.298L164.862 626.844L164.327 625.02L160.508 612.262L151.326 581.468L150.159 577.285L138.374 531.617L127.611 490.23L125.652 482.714L124.278 477.412L117.966 451.057L115.51 443.663L111.058 428.144L106.607 415.228L103.615 403.444L102.873 400.501L98.3979 382.854L94.3966 367.043L89.0333 340.531L80.5565 298.633L71.2284 252.54L65.0259 221.88L62.1192 202.081L45.2021 86.7137L37.8442 0" stroke="white" stroke-width="0.25" stroke-linecap="round" stroke-linejoin="round"/>
</g>
<g style="mix-blend-mode:overlay">
<path d="M112.603 407.579L145.707 334.109L160.301 301.747L195.887 239.211L214.847 205.924L247.684 159.149L250.031 155.805L275.376 119.697L302.485 87.9299L306.243 83.5273L341.038 42.7488L357.687 26.5979L385.1 0" stroke="white" stroke-width="0.25" stroke-linecap="round" stroke-linejoin="round"/>
</g>
<g style="mix-blend-mode:overlay">
<path d="M75.3022 197.094L80.8845 188.155L136.427 99.2768L146.242 86.3732L203.84 10.5565L219.578 7.78356L226.79 0" stroke="white" stroke-width="0.25" stroke-linecap="round" stroke-linejoin="round"/>
</g>
<g style="mix-blend-mode:overlay">
<path d="M107.519 401.352L137.583 334.024L153.636 298.062L186.996 239.004L208.328 201.241L236.239 161.193L240.326 155.318L269.088 114.041L289.739 89.6812L335.102 36.1206L372.074 0" stroke="white" stroke-width="0.25" stroke-linecap="round" stroke-linejoin="round"/>
</g>
<g style="mix-blend-mode:overlay">
<path d="M148.589 582.745L144.673 569.392L135.929 539.583L121.797 491.41L113.746 463.961L108.674 446.667L102.253 420.47L92.3774 380.166L83.1101 342.404L71.8361 296.359L68.2484 277.63L45.141 156.498L27.8955 25.9655L30.5225 0" stroke="white" stroke-width="0.25" stroke-linecap="round" stroke-linejoin="round"/>
</g>
<g style="mix-blend-mode:overlay">
<path d="M349.49 53.5357L379.724 24.2987L381.537 22.3528L403.878 0.899414" stroke="white" stroke-width="0.25" stroke-linecap="round" stroke-linejoin="round"/>
</g>
<g style="mix-blend-mode:overlay">
<path d="M1468.95 884.553L1464.85 882.692L1446.79 874.093L1435.49 868.316L1432.23 867.781L1419.84 864.595L1403.38 856.386L1401.92 855.583L1400.26 854.403L1394.31 850.159L1390.91 847.739L1376.01 837.146L1365.74 829.824L1363.82 828.024L1337.32 803.263L1336.99 802.959L1336.2 802.01L1314.7 775.935L1299.36 749.727L1289.9 724.977L1275.33 708.802L1260.58 693.685L1246.08 679.918L1231.22 667.476L1216.47 656.738L1201.27 647.604L1186.13 640.55L1170.59 635.406L1155.22 632.706L1139.63 632.231L1124.46 634.567L1109.4 639.419L1095.15 647.422L1081.49 658.16L1069.2 672.341L1058.1 689.441L1049.11 710.14L1042.02 733.88L1037.9 761.256L1036.56 791.661L1039.16 825.616L1045.58 862.454L1057.03 902.528L1073.45 945.143L1096.09 990.445L1116.63 1024" stroke="white" stroke-width="0.25" stroke-linecap="round" stroke-linejoin="round"/>
</g>
<g style="mix-blend-mode:overlay">
<path d="M1512.31 907.064L1477.52 896.131L1477.33 896.058L1462.54 893.273L1448.76 891.533L1437.24 890.804L1426.73 891.375L1418.6 893.248L1411.57 896.605L1407.04 901.457L1403.75 907.915L1403.2 916.003L1404.08 925.72L1407.93 937.092L1413.49 950.056L1422.31 964.577L1433.14 980.558L1447.53 997.876L1464.28 1016.44L1472.26 1024" stroke="white" stroke-width="0.25" stroke-linecap="round" stroke-linejoin="round"/>
</g>
<g style="mix-blend-mode:overlay">
<path d="M1420.97 860.57L1420.74 860.448L1417.97 857.991L1413.5 854.61L1406.79 850.135L1405.42 849.49L1398.39 845.319L1392.45 841.476L1390.75 840.126L1386.93 837.183L1373.09 827.915L1354.37 815.012L1336.99 802.959L1320.03 791.868L1304.25 781.968L1288.76 773.333L1274.35 766.267L1260.14 760.721L1247.04 757.073L1234.19 755.212L1222.53 755.552L1211.26 757.924L1201.44 762.764L1192.27 769.794L1184.89 779.523L1178.54 791.551L1174.41 806.389L1171.84 823.586L1172.03 843.58L1174.34 865.884L1180.07 890.877L1188.58 918.022L1201.23 947.575L1217.44 978.989L1238.54 1012.37L1247.07 1024" stroke="white" stroke-width="0.25" stroke-linecap="round" stroke-linejoin="round"/>
</g>
<g style="mix-blend-mode:overlay">
<path d="M1545.4 910.64L1544.24 910.421L1538.71 908.414L1521.34 903.513" stroke="white" stroke-width="0.25" stroke-linecap="round" stroke-linejoin="round"/>
</g>
<g style="mix-blend-mode:overlay">
<path d="M1676.85 925.647L1669.35 925.526L1647.31 925.331L1647.16 926.389L1627.9 926.304L1611 926.049L1595.35 926.304L1582.22 926.742L1570.39 928.007L1561.22 929.746L1553.39 932.531L1548.36 936.058L1544.74 940.764L1544.06 946.359L1544.94 953.23" stroke="white" stroke-width="0.25" stroke-linecap="round" stroke-linejoin="round"/>
</g>
<g style="mix-blend-mode:overlay">
<path d="M1381.02 830.323L1379.64 829.788L1378.1 828.487L1377.35 827.453L1367.93 818.757L1367.54 815.583L1358.79 802.619L1352.51 788.961L1350.27 777.432L1351.98 768.274L1356.83 761.561L1364.69 757.28L1374.93 755.273L1387.49 755.297L1401.91 757.061L1418.28 760.138L1436.32 764.127L1456.19 768.481L1477.75 772.713L1501.16 776.191L1526.33 778.368L1553.29 778.551L1581.9 776.143L1611.97 770.475L1643.14 760.916L1674.95 746.942L1706.77 727.921L1737.86 703.646L1746.26 695.108" stroke="white" stroke-width="0.25" stroke-linecap="round" stroke-linejoin="round"/>
</g>
<g style="mix-blend-mode:overlay">
<path d="M1611.34 922.631L1610.26 922.521L1607.26 921.974L1603.06 921.39L1601.99 921.293L1599.01 921.062L1583.91 919.383L1571.02 916.586L1559.35 914.057L1550.44 912.123L1549.73 911.94L1548.88 911.722L1535.07 908.705L1533.72 908.462L1532.13 908.109L1531.72 907.976L1511.41 902.442L1494.29 899.523L1477.33 896.057L1465.96 890.949L1464.35 890.219L1448.93 883.287L1427.78 873.765L1426.15 872.816L1410.46 863.561L1384.51 848.273L1383.06 847.142L1382.27 846.534L1378.89 843.895L1348.91 820.605L1347.7 819.389L1320.03 791.867L1318.63 789.97L1298.65 763.092L1283.65 735.108L1268.57 721.73L1253.39 709.58L1238.66 698.999L1223.73 689.927L1209.2 682.775L1194.46 677.412L1180.17 674.347L1165.8 673.338L1152.1 674.968L1138.56 678.932L1126.03 685.828L1114.08 695.278L1103.61 707.902L1094.24 723.226L1086.99 741.882L1081.5 763.323L1078.86 788.121L1078.74 815.692L1082.34 846.51L1089.37 879.943L1101.08 916.331L1117.23 955.03L1139.11 996.173L1156.91 1024" stroke="white" stroke-width="0.25" stroke-linecap="round" stroke-linejoin="round"/>
</g>
<g style="mix-blend-mode:overlay">
<path d="M1376.23 823.61L1375.28 822.479L1374.88 821.956L1373.09 820.253L1371.26 818.186L1368.99 814.209L1366.67 810.657L1363.07 801.159L1360.67 796.708L1350.27 777.431L1338.42 754.044L1326.87 731.046L1315.82 708.571L1304.67 686.643L1293.56 665.421L1282 644.941L1270.1 625.397L1257.43 606.801L1244.15 589.446L1229.88 573.332L1214.8 558.786L1198.64 545.798L1181.58 534.803L1163.49 525.743L1144.58 519.151L1124.83 514.882L1104.53 513.557L1083.73 514.98L1062.82 519.82L1041.93 527.798L1021.58 539.619L1001.93 554.931L983.643 574.463L966.921 597.741L952.558 625.482L940.821 657.163L932.636 693.393L928.295 733.6L928.903 778.258L934.789 826.687L947.194 879.153L966.483 934.89L993.944 993.839L1011.71 1024" stroke="white" stroke-width="0.25" stroke-linecap="round" stroke-linejoin="round"/>
</g>
<g style="mix-blend-mode:overlay">
<path d="M1376.6 824.06H1375.75L1374.17 822.369L1373.87 820.484L1363.07 801.159L1362.69 792.792L1351.98 768.273L1341.76 744.047L1332.13 720.174L1322.51 696.738L1313 673.813L1303.09 651.459L1292.87 629.811L1281.89 608.905L1270.24 588.948L1257.54 569.975L1243.87 552.268L1228.98 535.837L1212.95 521.036L1195.65 507.901L1177.16 496.858L1157.47 487.883L1136.74 481.51L1115.05 477.643L1092.64 476.913L1069.69 479.139L1046.53 485.013L1023.42 494.28L1000.83 507.67L979.046 524.831L958.687 546.503L940.116 572.25L924.087 602.788L911.001 637.583L901.782 677.291L896.881 721.28L897.38 770.037L903.789 822.868L917.337 879.968L938.535 940.521L968.721 1004.38L980.481 1024" stroke="white" stroke-width="0.25" stroke-linecap="round" stroke-linejoin="round"/>
</g>
<g style="mix-blend-mode:overlay">
<path d="M1379.68 829.277L1378.1 828.486L1367.82 820.022L1363.68 814.33L1363.58 813.162L1348.94 798.945" stroke="white" stroke-width="0.25" stroke-linecap="round" stroke-linejoin="round"/>
</g>
<g style="mix-blend-mode:overlay">
<path d="M1380.82 829.909L1376.57 825.373L1376.58 824.497L1376.12 823.244L1373.93 820.143L1369.62 815.327L1367.04 811.666L1363.26 805.744L1359.22 799.456L1352.51 788.96L1349.13 783.524L1338.61 766.57L1338.42 754.044L1341.76 744.047L1348.52 736.664L1357.92 731.824L1369.82 729.392L1383.66 729.1L1399.42 730.584L1416.73 733.478L1435.65 737.285L1456.03 741.517L1478 745.616L1501.43 749.021L1526.46 751.113L1552.95 751.295L1580.87 748.936L1610 743.39L1640 734.135L1670.48 720.514L1700.83 702.198L1730.34 678.641L1746.26 662.186" stroke="white" stroke-width="0.25" stroke-linecap="round" stroke-linejoin="round"/>
</g>
<g style="mix-blend-mode:overlay">
<path d="M112.614 424.496L114.572 418.853L116.907 412.978L152.335 333.708L164.18 306.745L202.867 239.381L218.653 211.883L258.532 157.216L259.213 156.255L260.149 154.929L263.019 150.879L269.477 142.962L272.53 139.861L279 130.727L279.596 130.046L286.735 121.764L319.547 84.9137L320.703 84.4151L335.042 67.4007L338.094 64.263L340.514 62.1468L341.658 60.8455L343.385 58.3888L347.13 54.7889L379.031 24.3723L381.937 22.3899L405.24 0" stroke="white" stroke-width="0.25" stroke-linecap="round" stroke-linejoin="round"/>
</g>
<g style="mix-blend-mode:overlay">
<path d="M1479.46 893.467L1466.43 888.152L1444.53 879.226L1427.78 873.765L1411.87 869.302L1397.95 865.884L1384.85 863.731L1373.78 862.953L1363.58 863.683L1355.53 866.042L1348.44 870.092L1343.68 875.978L1340.08 883.653L1339.07 893.273L1339.5 904.705L1342.82 918.095L1347.9 933.248L1356.22 950.251L1366.72 968.858L1380.85 989.095L1397.57 1010.68L1409.67 1024" stroke="white" stroke-width="0.25" stroke-linecap="round" stroke-linejoin="round"/>
</g>
<g style="mix-blend-mode:overlay">
<path d="M112.797 425.335L116.397 414.973L116.568 414.499L116.92 413.015L153.406 334.207L163.074 312.948L164.327 310.43L165.3 308.728L205.045 239.43L213.23 224.142L219.177 213.914L260.454 156.875L261.184 156.51L261.84 156.389L275.62 137.015L277.991 133.525L278.843 132.916L281.64 129.681L294.446 114.455L319.317 85.6191L320.703 84.4151L338.095 64.263L343.361 58.6199L348.773 54.0106L378.788 24.3966L380.406 22.2561L403.732 0.462148L404.815 0" stroke="white" stroke-width="0.25" stroke-linecap="round" stroke-linejoin="round"/>
</g>
<g style="mix-blend-mode:overlay">
<path d="M1744.05 922.145L1742.95 922.327L1741.75 922.485L1710.35 925.72L1671.53 926.486L1647.57 925.805L1634.2 924.249L1623.67 923.276L1614.68 922.327L1606.95 921.938L1587.15 920.101L1567.8 917.608L1549.64 915.589L1542.56 913.534L1525.88 908.694L1512.07 904.17L1511.38 902.26L1508.98 901.482L1490.18 895.437L1487.15 894.306L1475.83 888.992L1465.59 883.908L1460.87 882.059L1447.29 875.784L1439.57 871.612L1430.78 866.687L1418.33 859.669L1403.08 850.937L1400.39 848.87L1400.03 847.094L1397.64 843.543L1394.38 833.643L1386.93 807.422L1380.62 781.287L1374.93 755.273L1369.82 729.392L1364.79 703.682L1359.83 678.154L1354.44 652.87L1348.61 627.853L1341.92 603.165L1334.32 578.89L1325.46 555.138L1315.3 532.006L1303.57 509.64L1290.19 488.224L1275.04 467.938L1258.03 449.014L1239.14 431.647L1218.32 416.189L1195.68 402.787L1171.23 391.89L1145.21 383.62L1117.67 378.5L1088.99 376.578L1059.31 378.488L1029.13 384.155L998.7 394.298L968.587 408.746L939.228 428.241L911.232 452.516L910.064 500.081L914.041 550.078L924.087 602.788L940.822 657.163L965.267 713.18L997.715 769.465L1035.31 820.387L1039.16 825.616L1085.79 876.076L1089.37 879.943L1144.39 927.569L1149.12 931.667L1213.51 976.265L1217.44 978.989L1289.49 1018L1294.71 1020.83L1302.4 1024" stroke="white" stroke-width="0.25" stroke-linecap="round" stroke-linejoin="round"/>
</g>
<g style="mix-blend-mode:overlay">
<path d="M217.121 219.399L217.681 218.608L218.666 217.222L220.526 214.498L261.183 156.51L269.478 142.962L279.207 128.003L313.844 87.7474L314.951 84.7313L344.066 49.0851L368.548 25.4668L372.573 21.5872L394.927 0" stroke="white" stroke-width="0.25" stroke-linecap="round" stroke-linejoin="round"/>
</g>
<g style="mix-blend-mode:overlay">
<path d="M1382.65 831.588L1382.25 831.259L1382.13 831.174L1381.59 830.08L1379.84 827.708L1378.45 826.419L1376.58 824.497L1374.11 822.393L1370.73 818.526L1367.54 815.583L1363.53 812.19L1362.7 811.131L1352.46 798.313L1343.28 781.444L1338.76 775.193L1328.29 760.709L1325.55 744.631L1326.87 731.046L1332.13 720.173L1340.4 712.049L1351.53 706.613L1364.79 703.682L1380.09 702.964L1396.95 704.132L1415.36 706.722L1435.03 710.298L1456.06 714.299L1478.31 718.227L1501.91 721.45L1526.74 723.433L1552.87 723.53L1580.1 721.158L1608.32 715.722L1637.18 706.637L1666.35 693.466L1695.21 675.625L1723.15 652.955L1746.26 628.376" stroke="white" stroke-width="0.25" stroke-linecap="round" stroke-linejoin="round"/>
</g>
</g>
</svg>
