<svg width="424" height="474" viewBox="0 0 424 474" fill="none" xmlns="http://www.w3.org/2000/svg">
<path d="M114.138 168.348L185.641 189.432L239.651 138.05L222.158 65.5826L150.654 44.4984L96.6447 95.8812L114.138 168.348Z" fill="#7B3FE4" stroke="white" stroke-width="0.5"/>
<path d="M112.055 180.014L186.236 203.913L244.022 151.619L227.628 75.4257L153.448 51.5263L95.6612 103.82L112.055 180.014Z" fill="#7B3FE4" stroke="white" stroke-width="0.5"/>
<path d="M110.081 191.379L186.841 218.24L248.481 165.193L233.362 85.2846L156.602 58.424L94.9611 111.471L110.081 191.379Z" fill="#7B3FE4" stroke="white" stroke-width="0.5"/>
<path d="M108.225 202.453L187.461 232.418L253.028 178.778L239.358 95.1738L160.123 65.2093L94.5559 118.849L108.225 202.453Z" fill="#7B3FE4" stroke="white" stroke-width="0.5"/>
<path d="M106.5 213.233L188.103 246.441L257.662 192.373L245.618 105.097L164.015 71.8893L94.4563 125.957L106.5 213.233Z" fill="#7B3FE4" stroke="white" stroke-width="0.5"/>
<path d="M104.917 223.727L188.772 260.314L262.384 205.984L252.14 115.068L168.285 78.4812L94.6732 132.81L104.917 223.727Z" fill="#7B3FE4" stroke="white" stroke-width="0.5"/>
<path d="M103.486 233.938L189.474 274.036L267.193 219.616L258.923 125.097L172.935 84.9983L95.2164 139.419L103.486 233.938Z" fill="#7B3FE4" stroke="white" stroke-width="0.5"/>
<path d="M102.217 243.87L190.213 287.608L272.088 233.268L265.967 135.19L177.971 91.4523L96.0959 145.792L102.217 243.87Z" fill="#7B3FE4" stroke="white" stroke-width="0.5"/>
<path d="M101.123 253.529L190.997 301.03L277.07 246.945L273.269 145.359L183.395 97.8579L97.3216 151.943L101.123 253.529Z" fill="#7B3FE4" stroke="white" stroke-width="0.5"/>
<path d="M100.212 262.92L191.829 314.305L282.137 260.652L280.828 155.615L189.21 104.23L98.9025 157.883L100.212 262.92Z" fill="#7B3FE4" stroke="white" stroke-width="0.5"/>
<path d="M99.4957 272.048L192.717 327.432L287.289 274.39L288.641 165.964L195.42 110.58L100.848 163.622L99.4957 272.048Z" fill="#7B3FE4" stroke="white" stroke-width="0.5"/>
<path d="M98.9837 280.921L193.664 340.414L292.526 288.163L296.707 176.418L202.026 116.925L103.165 169.176L98.9837 280.921Z" fill="#7B3FE4" stroke="white" stroke-width="0.5"/>
<path d="M98.6863 289.542L194.677 353.251L297.845 301.972L305.022 186.984L209.031 123.275L105.863 174.554L98.6863 289.542Z" fill="#7B3FE4" stroke="white" stroke-width="0.5"/>
<path d="M98.6128 297.92L195.761 365.946L303.246 315.823L313.583 197.674L216.435 129.648L108.949 179.771L98.6128 297.92Z" fill="#7B3FE4" stroke="white" stroke-width="0.5"/>
<path d="M98.7732 306.063L196.922 378.502L308.729 329.719L322.387 208.498L224.239 136.059L112.432 184.841L98.7732 306.063Z" fill="#7B3FE4" stroke="white" stroke-width="0.5"/>
<path d="M99.1766 313.976L198.164 390.919L314.291 343.662L331.431 219.462L232.443 142.519L116.316 189.776L99.1766 313.976Z" fill="#7B3FE4" stroke="white" stroke-width="0.5"/>
<path d="M99.8319 321.668L199.493 403.2L319.932 357.654L340.709 230.576L241.048 149.043L120.609 194.589L99.8319 321.668Z" fill="#7B3FE4" stroke="white" stroke-width="0.5"/>
<path d="M100.748 329.147L200.914 415.349L325.649 371.701L350.218 241.85L250.052 155.648L125.317 199.297L100.748 329.147Z" fill="#7B3FE4" stroke="white" stroke-width="0.5"/>
<path d="M101.934 336.421L202.432 427.367L331.442 385.802L359.953 253.292L259.455 162.346L130.445 203.91L101.934 336.421Z" fill="#7B3FE4" stroke="white" stroke-width="0.5"/>
<path d="M103.398 343.499L204.052 439.258L337.308 399.964L369.91 264.912L269.255 169.153L135.999 208.446L103.398 343.499Z" fill="#7B3FE4" stroke="white" stroke-width="0.5"/>
</svg>
