<svg width="296" height="331" viewBox="0 0 296 331" fill="none" xmlns="http://www.w3.org/2000/svg">
<path d="M215.964 117.585L166.022 132.312L128.298 96.4225L140.516 45.8066L190.459 31.08L228.183 66.9692L215.964 117.585Z" fill="#7B3FE4" stroke="white" stroke-width="0.5"/>
<path d="M217.419 125.733L165.606 142.426L125.244 105.9L136.695 52.6818L188.508 35.9888L228.87 72.5145L217.419 125.733Z" fill="#7B3FE4" stroke="white" stroke-width="0.5"/>
<path d="M218.798 133.672L165.184 152.433L122.13 115.382L132.69 59.5684L186.305 40.8072L229.359 77.8591L218.798 133.672Z" fill="#7B3FE4" stroke="white" stroke-width="0.5"/>
<path d="M220.094 141.406L164.75 162.336L118.954 124.87L128.502 66.4751L183.846 45.5459L229.642 83.0115L220.094 141.406Z" fill="#7B3FE4" stroke="white" stroke-width="0.5"/>
<path d="M221.299 148.936L164.302 172.131L115.718 134.366L124.13 73.4068L181.127 50.2122L229.711 87.9769L221.299 148.936Z" fill="#7B3FE4" stroke="white" stroke-width="0.5"/>
<path d="M222.405 156.265L163.835 181.82L112.419 143.873L119.574 80.371L178.145 54.8162L229.56 92.7634L222.405 156.265Z" fill="#7B3FE4" stroke="white" stroke-width="0.5"/>
<path d="M223.405 163.398L163.345 191.405L109.061 153.394L114.837 87.3757L174.896 59.3683L229.18 97.3795L223.405 163.398Z" fill="#7B3FE4" stroke="white" stroke-width="0.5"/>
<path d="M224.291 170.335L162.828 200.884L105.641 162.93L109.917 94.4255L171.379 63.8761L228.566 101.831L224.291 170.335Z" fill="#7B3FE4" stroke="white" stroke-width="0.5"/>
<path d="M225.055 177.081L162.281 210.259L102.162 172.483L104.817 101.528L167.591 68.35L227.71 106.126L225.055 177.081Z" fill="#7B3FE4" stroke="white" stroke-width="0.5"/>
<path d="M225.691 183.641L161.699 219.531L98.6224 182.057L99.537 108.691L163.529 72.8007L226.606 110.275L225.691 183.641Z" fill="#7B3FE4" stroke="white" stroke-width="0.5"/>
<path d="M226.192 190.016L161.08 228.7L95.0238 191.652L94.0796 115.92L159.191 77.236L225.247 114.284L226.192 190.016Z" fill="#7B3FE4" stroke="white" stroke-width="0.5"/>
<path d="M226.549 196.214L160.418 237.768L91.3664 201.272L88.446 123.222L154.577 81.6677L223.629 118.164L226.549 196.214Z" fill="#7B3FE4" stroke="white" stroke-width="0.5"/>
<path d="M226.757 202.235L159.71 246.734L87.6508 210.918L82.638 130.602L149.685 86.1037L221.744 121.92L226.757 202.235Z" fill="#7B3FE4" stroke="white" stroke-width="0.5"/>
<path d="M226.808 208.087L158.953 255.601L83.8782 220.592L76.6584 138.069L144.513 90.555L219.588 125.564L226.808 208.087Z" fill="#7B3FE4" stroke="white" stroke-width="0.5"/>
<path d="M226.696 213.775L158.142 264.371L80.0489 230.298L70.5089 145.629L139.063 95.0325L217.156 129.106L226.696 213.775Z" fill="#7B3FE4" stroke="white" stroke-width="0.5"/>
<path d="M226.414 219.302L157.275 273.044L76.1638 240.036L64.1924 153.286L133.332 99.5444L214.443 132.552L226.414 219.302Z" fill="#7B3FE4" stroke="white" stroke-width="0.5"/>
<path d="M225.957 224.674L156.347 281.622L72.2241 249.809L57.7118 161.049L127.322 104.101L211.444 135.914L225.957 224.674Z" fill="#7B3FE4" stroke="white" stroke-width="0.5"/>
<path d="M225.317 229.898L155.354 290.108L68.2306 259.621L51.0699 168.924L121.033 108.715L208.156 139.202L225.317 229.898Z" fill="#7B3FE4" stroke="white" stroke-width="0.5"/>
<path d="M224.488 234.978L154.294 298.501L64.1847 269.47L44.2704 176.916L114.465 113.393L204.574 142.424L224.488 234.978Z" fill="#7B3FE4" stroke="white" stroke-width="0.5"/>
<path d="M223.466 239.922L153.162 306.807L60.0871 279.362L37.3161 185.032L107.62 118.148L200.695 145.593L223.466 239.922Z" fill="#7B3FE4" stroke="white" stroke-width="0.5"/>
</svg>
