<svg width="276" height="286" viewBox="0 0 276 286" fill="none" xmlns="http://www.w3.org/2000/svg">
<path d="M50.519 151.03L82.1673 160.363L106.073 137.62L98.33 105.545L66.6817 96.2126L42.7762 118.955L50.519 151.03Z" fill="#7B3FE4" stroke="white" stroke-width="0.308959"/>
<path d="M49.5971 156.194L82.4304 166.772L108.008 143.626L100.751 109.902L67.9179 99.3237L42.3408 122.47L49.5971 156.194Z" fill="#7B3FE4" stroke="white" stroke-width="0.308959"/>
<path d="M48.723 161.226L82.6981 173.115L109.981 149.635L103.289 114.267L69.314 102.378L42.031 125.857L48.723 161.226Z" fill="#7B3FE4" stroke="white" stroke-width="0.308959"/>
<path d="M47.9019 166.126L82.9728 179.389L111.993 155.647L105.943 118.643L70.8723 105.38L41.8516 129.122L47.9019 166.126Z" fill="#7B3FE4" stroke="white" stroke-width="0.308959"/>
<path d="M47.1384 170.898L83.2569 185.596L114.045 161.665L108.714 123.035L72.5953 108.337L41.8075 132.268L47.1384 170.898Z" fill="#7B3FE4" stroke="white" stroke-width="0.308959"/>
<path d="M46.4376 175.542L83.5531 191.736L116.135 167.689L111.601 127.448L74.485 111.255L41.9036 135.301L46.4376 175.542Z" fill="#7B3FE4" stroke="white" stroke-width="0.308959"/>
<path d="M45.8041 180.062L83.8636 197.81L118.263 173.723L114.603 131.887L76.5434 114.139L42.144 138.227L45.8041 180.062Z" fill="#7B3FE4" stroke="white" stroke-width="0.308959"/>
<path d="M45.2427 184.457L84.191 203.816L120.43 179.764L117.72 136.354L78.7721 116.995L42.5333 141.047L45.2427 184.457Z" fill="#7B3FE4" stroke="white" stroke-width="0.308959"/>
<path d="M44.7582 188.733L84.5377 209.758L122.635 185.819L120.952 140.856L81.1729 119.831L43.0758 143.77L44.7582 188.733Z" fill="#7B3FE4" stroke="white" stroke-width="0.308959"/>
<path d="M44.3551 192.889L84.9062 215.633L124.878 191.885L124.298 145.394L83.747 122.651L43.7755 146.398L44.3551 192.889Z" fill="#7B3FE4" stroke="white" stroke-width="0.308959"/>
<path d="M44.0381 196.93L85.299 221.444L127.158 197.967L127.756 149.976L86.4956 125.462L44.6364 148.939L44.0381 196.93Z" fill="#7B3FE4" stroke="white" stroke-width="0.308959"/>
<path d="M43.8114 200.858L85.7183 227.19L129.476 204.063L131.326 154.603L89.4196 128.271L45.6621 151.398L43.8114 200.858Z" fill="#7B3FE4" stroke="white" stroke-width="0.308959"/>
<path d="M43.6798 204.673L86.1668 232.871L131.83 210.174L135.007 159.279L92.5199 131.081L46.8564 153.777L43.6798 204.673Z" fill="#7B3FE4" stroke="white" stroke-width="0.308959"/>
<path d="M43.6473 208.381L86.6466 238.49L134.221 216.305L138.796 164.011L95.7969 133.902L48.2224 156.087L43.6473 208.381Z" fill="#7B3FE4" stroke="white" stroke-width="0.308959"/>
<path d="M43.7183 211.985L87.1603 244.048L136.648 222.456L142.693 168.802L99.251 136.739L49.7637 158.331L43.7183 211.985Z" fill="#7B3FE4" stroke="white" stroke-width="0.308959"/>
<path d="M43.8968 215.488L87.7101 249.544L139.11 228.627L146.696 173.654L102.882 139.598L51.483 160.515L43.8968 215.488Z" fill="#7B3FE4" stroke="white" stroke-width="0.308959"/>
<path d="M44.1869 218.892L88.2983 254.979L141.606 234.82L150.802 178.573L106.691 142.486L53.3832 162.645L44.1869 218.892Z" fill="#7B3FE4" stroke="white" stroke-width="0.308959"/>
<path d="M44.5925 222.203L88.9273 260.357L144.137 241.038L155.011 183.564L110.677 145.41L55.4671 164.729L44.5925 222.203Z" fill="#7B3FE4" stroke="white" stroke-width="0.308959"/>
<path d="M45.1173 225.422L89.5992 265.676L146.701 247.279L159.32 188.628L114.838 148.374L57.7368 166.771L45.1173 225.422Z" fill="#7B3FE4" stroke="white" stroke-width="0.308959"/>
<path d="M45.7652 228.554L90.3164 270.938L149.297 253.547L163.727 193.771L119.176 151.386L60.195 168.778L45.7652 228.554Z" fill="#7B3FE4" stroke="white" stroke-width="0.308959"/>
<path d="M253.946 32.2951L240.229 36.3397L229.868 26.4828L233.224 12.5812L246.94 8.53659L257.301 18.3935L253.946 32.2951Z" fill="#7B3FE4" stroke="white" stroke-width="0.247167"/>
<path d="M254.345 34.5319L240.115 39.1166L229.029 29.0849L232.174 14.4685L246.405 9.88377L257.49 19.9155L254.345 34.5319Z" fill="#7B3FE4" stroke="white" stroke-width="0.247167"/>
<path d="M254.724 36.7125L239.999 41.8653L228.174 31.689L231.075 16.3601L245.8 11.2073L257.624 21.3835L254.724 36.7125Z" fill="#7B3FE4" stroke="white" stroke-width="0.247167"/>
<path d="M255.08 38.8366L239.88 44.5848L227.302 34.2949L229.924 18.2569L245.124 12.5087L257.702 22.7986L255.08 38.8366Z" fill="#7B3FE4" stroke="white" stroke-width="0.247167"/>
<path d="M255.411 40.9049L239.757 47.2752L226.413 36.9032L228.723 20.1609L244.377 13.7905L257.721 24.1625L255.411 40.9049Z" fill="#7B3FE4" stroke="white" stroke-width="0.247167"/>
<path d="M255.714 42.9176L239.628 49.9361L225.507 39.514L227.472 22.0733L243.558 15.0547L257.68 25.4769L255.714 42.9176Z" fill="#7B3FE4" stroke="white" stroke-width="0.247167"/>
<path d="M255.989 44.8764L239.494 52.5686L224.585 42.1289L226.171 23.997L242.666 16.3049L257.575 26.7446L255.989 44.8764Z" fill="#7B3FE4" stroke="white" stroke-width="0.247167"/>
<path d="M256.232 46.7824L239.352 55.1727L223.646 44.7485L224.82 25.934L241.7 17.5436L257.407 27.9678L256.232 46.7824Z" fill="#7B3FE4" stroke="white" stroke-width="0.247167"/>
<path d="M256.442 48.6344L239.201 57.7467L222.69 47.3715L223.419 27.8839L240.66 18.7716L257.171 29.1468L256.442 48.6344Z" fill="#7B3FE4" stroke="white" stroke-width="0.247167"/>
<path d="M256.617 50.436L239.042 60.2932L221.718 50.0009L221.969 29.8512L239.544 19.9939L256.868 30.2863L256.617 50.436Z" fill="#7B3FE4" stroke="white" stroke-width="0.247167"/>
<path d="M256.754 52.1872L238.872 62.8116L220.729 52.6363L220.47 31.8367L238.353 21.2123L256.495 31.3875L256.754 52.1872Z" fill="#7B3FE4" stroke="white" stroke-width="0.247167"/>
<path d="M256.853 53.8892L238.69 65.302L219.725 55.2784L218.923 33.8421L237.086 22.4294L256.051 32.4529L256.853 53.8892Z" fill="#7B3FE4" stroke="white" stroke-width="0.247167"/>
<path d="M256.91 55.5433L238.495 67.7648L218.704 57.9278L217.328 35.8694L235.742 23.6479L255.533 33.4848L256.91 55.5433Z" fill="#7B3FE4" stroke="white" stroke-width="0.247167"/>
<path d="M256.924 57.1507L238.288 70.2003L217.668 60.5851L215.685 37.9203L234.322 24.8707L254.941 34.4859L256.924 57.1507Z" fill="#7B3FE4" stroke="white" stroke-width="0.247167"/>
<path d="M256.893 58.7127L238.065 72.6089L216.617 63.2508L213.996 39.9965L232.825 26.1003L254.273 35.4584L256.893 58.7127Z" fill="#7B3FE4" stroke="white" stroke-width="0.247167"/>
<path d="M256.816 60.2309L237.827 74.991L215.55 65.9255L212.262 42.0999L231.251 27.3397L253.528 36.4052L256.816 60.2309Z" fill="#7B3FE4" stroke="white" stroke-width="0.247167"/>
<path d="M256.69 61.7056L237.572 77.3462L214.468 68.6089L210.482 44.2311L229.6 28.5905L252.704 37.3277L256.69 61.7056Z" fill="#7B3FE4" stroke="white" stroke-width="0.247167"/>
<path d="M256.514 63.1413L237.299 79.6777L213.371 71.3045L208.658 46.3949L227.873 29.8585L251.801 38.2317L256.514 63.1413Z" fill="#7B3FE4" stroke="white" stroke-width="0.247167"/>
<path d="M256.287 64.5358L237.008 81.9822L212.26 74.0088L206.79 48.589L226.069 31.1425L250.817 39.1159L256.287 64.5358Z" fill="#7B3FE4" stroke="white" stroke-width="0.247167"/>
<path d="M256.006 65.8931L236.697 84.2627L211.134 76.725L204.88 50.8175L224.189 32.4478L249.752 39.9856L256.006 65.8931Z" fill="#7B3FE4" stroke="white" stroke-width="0.247167"/>
</svg>
