<svg width="14" height="12" viewBox="0 0 14 12" fill="none" xmlns="http://www.w3.org/2000/svg">
<path d="M10.6882 3.66766C10.439 3.52522 10.1185 3.52522 9.83363 3.66766L7.83956 4.84273L6.48645 5.5905L4.52799 6.76558C4.27873 6.90801 3.95826 6.90801 3.67339 6.76558L2.14223 5.83976C1.89297 5.69733 1.71493 5.41246 1.71493 5.09199V3.31157C1.71493 3.02671 1.85737 2.74184 2.14223 2.5638L3.67339 1.67359C3.92265 1.53116 4.24312 1.53116 4.52799 1.67359L6.05915 2.59941C6.3084 2.74184 6.48645 3.02671 6.48645 3.34718V4.52226L7.83956 3.73887V2.52819C7.83956 2.24332 7.69713 1.95846 7.41226 1.78042L4.5636 0.106825C4.31434 -0.0356083 3.99386 -0.0356083 3.709 0.106825L0.789116 1.81602C0.50425 1.95846 0.361816 2.24332 0.361816 2.52819V5.87537C0.361816 6.16024 0.50425 6.4451 0.789116 6.62315L3.67339 8.29674C3.92265 8.43917 4.24312 8.43917 4.52799 8.29674L6.48645 7.15727L7.83956 6.37389L9.79802 5.23442C10.0473 5.09199 10.3678 5.09199 10.6526 5.23442L12.1838 6.12463C12.433 6.26706 12.6111 6.55193 12.6111 6.8724V8.65282C12.6111 8.93769 12.4686 9.22255 12.1838 9.40059L10.6882 10.2908C10.439 10.4332 10.1185 10.4332 9.83363 10.2908L8.30247 9.40059C8.05321 9.25816 7.87517 8.97329 7.87517 8.65282V7.51335L6.52205 8.29674V9.47181C6.52205 9.75668 6.66449 10.0415 6.94935 10.2196L9.83363 11.8932C10.0829 12.0356 10.4034 12.0356 10.6882 11.8932L13.5725 10.2196C13.8218 10.0772 13.9998 9.79228 13.9998 9.47181V6.08902C13.9998 5.80415 13.8574 5.51929 13.5725 5.34125L10.6882 3.66766Z" fill="#1C1C1E"/>
</svg>
