<svg width="1357" height="1357" viewBox="0 0 1357 1357" fill="none" xmlns="http://www.w3.org/2000/svg">
<path d="M999.495 335.038L1018.03 301.001L983.994 282.466L957.871 300.665C956.379 298.522 954.745 296.504 952.985 294.62L976.273 272.908L965.312 235.734L928.138 246.695L922.535 278.038C919.997 277.582 917.415 277.304 914.806 277.213L915.921 245.395L881.884 226.86L863.349 260.896L881.548 287.019C879.406 288.511 877.388 290.146 875.503 291.905L853.791 268.617L816.617 279.578L827.578 316.752L858.921 322.355C858.465 324.893 858.187 327.475 858.096 330.084L826.278 328.969L807.743 363.006L841.78 381.541L867.902 363.342C869.394 365.484 871.029 367.503 872.789 369.387L849.5 391.099L860.461 428.273L897.635 417.312L903.239 385.969C905.776 386.425 908.358 386.703 910.967 386.794L909.853 418.612L943.889 437.147L962.424 403.11L944.226 376.988C946.368 375.496 948.386 373.861 950.27 372.101L971.983 395.39L1009.16 384.429L998.195 347.255L966.853 341.652C967.308 339.114 967.586 336.532 967.678 333.923L999.495 335.038Z" fill="#7B3FE4" stroke="white" stroke-width="0.5"/>
<path d="M994.167 348.442L1014.19 309.392L975.137 289.373L946.082 310.71C944.333 308.327 942.426 306.089 940.381 304.005L966.128 278.772L952.672 237.004L910.905 250.461L905.447 286.096C902.561 285.652 899.631 285.41 896.675 285.38L897.039 249.334L857.99 229.315L837.97 268.364L859.307 297.419C856.924 299.168 854.686 301.075 852.603 303.12L827.369 277.373L785.602 290.829L799.058 332.597L834.693 338.054C834.249 340.94 834.007 343.87 833.977 346.826L797.932 346.462L777.912 385.512L816.961 405.531L846.016 384.194C847.765 386.577 849.673 388.815 851.718 390.899L825.97 416.132L839.426 457.9L881.194 444.444L886.652 408.808C889.537 409.253 892.468 409.495 895.423 409.524L895.06 445.57L934.109 465.589L954.128 426.54L932.792 397.485C935.174 395.736 937.412 393.829 939.496 391.784L964.729 417.531L1006.5 404.075L993.041 362.307L957.406 356.849C957.85 353.964 958.092 351.034 958.121 348.078L994.167 348.442Z" fill="#7B3FE4" stroke="white" stroke-width="0.5"/>
<path d="M988.415 362.233L1009.68 318.079L965.525 296.815L933.68 321.446C931.661 318.834 929.469 316.389 927.128 314.12L955.172 285.231L938.985 238.973L892.728 255.16L887.627 295.097C884.393 294.681 881.115 294.492 877.814 294.542L877.216 254.288L833.062 233.025L811.799 277.179L836.429 309.023C833.818 311.042 831.372 313.234 829.103 315.575L800.214 287.532L753.957 303.718L770.143 349.975L810.08 355.076C809.664 358.31 809.476 361.589 809.525 364.889L769.272 365.487L748.008 409.641L792.162 430.905L824.006 406.274C826.026 408.886 828.217 411.332 830.559 413.601L802.515 442.49L818.701 488.747L864.959 472.561L870.06 432.623C873.294 433.039 876.572 433.228 879.873 433.178L880.47 473.432L924.625 494.695L945.888 450.541L921.258 418.697C923.869 416.678 926.315 414.486 928.584 412.145L957.473 440.188L1003.73 424.002L987.544 377.745L947.607 372.643C948.022 369.41 948.211 366.131 948.161 362.831L988.415 362.233Z" fill="#7B3FE4" stroke="white" stroke-width="0.5"/>
<path d="M982.252 376.428L1004.52 327.085L955.174 304.821L920.688 332.896C918.387 330.068 915.899 327.428 913.252 324.987L943.423 292.314L924.276 241.68L873.642 260.828L869.108 305.068C865.526 304.699 861.901 304.581 858.257 304.726L856.489 260.293L807.146 238.028L784.882 287.371L812.957 321.857C810.129 324.158 807.489 326.646 805.048 329.293L772.375 299.122L721.741 318.269L740.888 368.903L785.13 373.436C784.76 377.019 784.642 380.644 784.787 384.288L740.354 386.056L718.089 435.399L767.432 457.663L801.918 429.588C804.219 432.416 806.707 435.056 809.355 437.498L779.183 470.17L798.331 520.804L848.964 501.657L853.498 457.416C857.08 457.785 860.705 457.903 864.349 457.758L866.117 502.191L915.46 524.456L937.724 475.113L909.649 440.627C912.477 438.326 915.117 435.838 917.559 433.191L950.231 463.362L1000.86 444.215L981.717 393.581L937.477 389.047C937.847 385.465 937.964 381.84 937.819 378.196L982.252 376.428Z" fill="#7B3FE4" stroke="white" stroke-width="0.5"/>
<path d="M975.694 391.042L998.712 336.437L944.106 313.418L907.133 345.083C904.537 342.051 901.743 339.23 898.779 336.631L930.905 300.052L908.57 245.164L853.681 267.499L849.928 316.038C845.997 315.731 842.027 315.701 838.044 315.96L834.895 267.382L780.29 244.364L757.272 298.969L788.937 335.942C785.905 338.538 783.083 341.333 780.484 344.297L743.905 312.17L689.017 334.506L711.353 389.394L759.892 393.148C759.585 397.078 759.554 401.049 759.813 405.032L711.236 408.18L688.218 462.786L742.823 485.804L779.796 454.139C782.392 457.171 785.186 459.993 788.15 462.592L756.024 499.171L778.36 554.059L833.248 531.723L837.002 483.184C840.932 483.491 844.903 483.522 848.886 483.263L852.034 531.84L906.639 554.858L929.657 500.253L897.993 463.28C901.025 460.684 903.846 457.89 906.445 454.926L943.024 487.052L997.912 464.716L975.576 409.828L927.038 406.074C927.345 402.144 927.375 398.173 927.116 394.19L975.694 391.042Z" fill="#7B3FE4" stroke="white" stroke-width="0.5"/>
<path d="M968.755 406.09L992.277 346.157L932.343 322.634L893.043 358.029C890.141 354.806 887.03 351.817 883.74 349.074L917.643 308.474L891.896 249.462L832.884 275.209L830.121 328.031C825.844 327.804 821.53 327.879 817.211 328.267L812.476 275.59L752.542 252.068L729.02 312.001L764.415 351.302C761.192 354.204 758.203 357.315 755.46 360.605L714.86 326.702L655.847 352.449L681.594 411.461L734.417 414.223C734.19 418.501 734.264 422.814 734.653 427.134L681.976 431.869L658.454 491.802L718.387 515.325L757.688 479.93C760.59 483.153 763.701 486.142 766.991 488.885L733.088 529.485L758.835 588.498L817.847 562.751L820.609 509.928C824.887 510.155 829.2 510.081 833.519 509.692L838.254 562.369L898.188 585.891L921.71 525.958L886.316 486.657C889.539 483.755 892.528 480.644 895.271 477.354L935.871 511.257L994.883 485.51L969.136 426.498L916.314 423.736C916.541 419.458 916.466 415.145 916.077 410.826L968.755 406.09Z" fill="#7B3FE4" stroke="white" stroke-width="0.5"/>
<path d="M961.451 421.587L985.225 356.269L919.907 332.495L878.444 371.753C875.225 368.353 871.787 365.211 868.162 362.339L903.66 317.608L874.284 254.61L811.286 283.986L809.727 341.07C805.104 340.941 800.451 341.137 795.8 341.673L789.271 284.947L723.953 261.174L700.18 326.491L739.438 367.955C736.038 371.174 732.895 374.612 730.024 378.237L685.292 342.739L622.295 372.115L651.671 435.112L708.755 436.672C708.625 441.294 708.822 445.948 709.358 450.599L652.632 457.127L628.858 522.445L694.176 546.219L735.64 506.961C738.858 510.361 742.297 513.504 745.922 516.375L710.423 561.107L739.8 624.104L802.797 594.728L804.357 537.644C808.979 537.774 813.633 537.577 818.284 537.041L824.812 593.767L890.13 617.54L913.904 552.223L874.646 510.759C878.046 507.54 881.188 504.102 884.06 500.477L928.791 535.975L991.789 506.599L962.412 443.602L905.328 442.042C905.458 437.42 905.261 432.766 904.725 428.115L961.451 421.587Z" fill="#7B3FE4" stroke="white" stroke-width="0.5"/>
<path d="M953.799 437.547L977.57 366.798L906.821 343.028L863.364 386.278C859.819 382.714 856.044 379.433 852.076 376.448L888.982 327.482L855.764 260.647L788.928 293.866L788.782 355.182C783.817 355.166 778.827 355.502 773.849 356.202L765.323 295.487L694.574 271.716L670.803 342.465L714.053 385.922C710.489 389.468 707.209 393.243 704.223 397.21L655.258 360.304L588.422 393.522L621.641 460.358L682.958 460.504C682.942 465.469 683.278 470.459 683.978 475.437L623.262 483.963L599.492 554.713L670.241 578.483L713.697 535.233C717.243 538.797 721.018 542.078 724.986 545.063L688.079 594.029L721.298 660.864L788.134 627.645L788.28 566.329C793.245 566.344 798.235 566.008 803.213 565.309L811.739 626.024L882.488 649.794L906.259 579.045L863.009 535.589C866.572 532.043 869.853 528.268 872.839 524.301L921.804 561.207L988.639 527.988L955.42 461.153L894.104 461.007C894.12 456.041 893.784 451.051 893.084 446.073L953.799 437.547Z" fill="#7B3FE4" stroke="white" stroke-width="0.5"/>
<path d="M945.815 453.984L969.325 377.767L893.108 354.257L847.833 401.62C843.95 397.907 839.83 394.503 835.512 391.419L873.636 338.124L836.366 267.606L765.848 304.876L767.325 370.386C762.02 370.502 756.698 370.994 751.399 371.874L740.672 307.236L664.455 283.726L640.945 359.944L688.308 405.218C684.596 409.101 681.191 413.222 678.107 417.54L624.812 379.415L554.294 416.685L591.564 487.203L657.075 485.726C657.19 491.031 657.682 496.353 658.562 501.653L593.925 512.379L570.415 588.597L646.632 612.107L691.906 564.743C695.789 568.456 699.91 571.861 704.228 574.945L666.104 628.24L703.374 698.758L773.892 661.488L772.414 595.977C777.719 595.862 783.041 595.37 788.341 594.489L799.067 659.127L875.285 682.637L898.795 606.419L851.431 561.145C855.144 557.262 858.549 553.142 861.633 548.824L914.927 586.948L985.445 549.678L948.176 479.16L882.665 480.637C882.55 475.332 882.058 470.01 881.178 464.711L945.815 453.984Z" fill="#7B3FE4" stroke="white" stroke-width="0.5"/>
<path d="M937.516 470.911L960.507 389.197L878.793 366.206L831.881 417.799C827.651 413.952 823.177 410.439 818.501 407.273L857.648 349.559L816.125 275.521L742.087 317.045L745.397 386.705C739.756 386.968 734.107 387.633 728.492 388.71L715.365 320.224L633.651 297.234L610.66 378.948L662.253 425.86C658.406 430.09 654.893 434.564 651.726 439.24L594.013 400.092L519.975 441.616L561.499 515.653L631.158 512.343C631.422 517.984 632.087 523.633 633.164 529.249L564.678 542.376L541.688 624.09L623.402 647.081L670.314 595.488C674.543 599.335 679.018 602.848 683.694 606.015L644.546 663.728L686.07 737.766L760.107 696.242L756.797 626.582C762.438 626.319 768.087 625.654 773.703 624.577L786.83 693.062L868.544 716.053L891.535 634.339L839.942 587.427C843.789 583.197 847.302 578.723 850.468 574.047L908.182 613.195L982.219 571.671L940.696 497.633L871.036 500.944C870.773 495.302 870.108 489.653 869.031 484.038L937.516 470.911Z" fill="#7B3FE4" stroke="white" stroke-width="0.5"/>
<path d="M928.92 488.34L951.131 401.111L863.902 378.9L815.537 434.831C810.952 430.865 806.116 427.259 801.075 424.026L841.048 361.812L795.073 284.426L717.687 330.4L723.038 404.156C717.065 404.584 711.094 405.438 705.17 406.728L689.444 334.477L602.215 312.266L580.004 399.495L635.935 447.86C631.969 452.446 628.364 457.281 625.131 462.322L562.916 422.349L485.53 468.324L531.505 545.71L605.26 540.359C605.689 546.332 606.542 552.303 607.833 558.227L535.582 573.953L513.37 661.182L600.599 683.393L648.964 627.462C653.55 631.428 658.386 635.034 663.427 638.267L623.454 700.482L669.428 777.867L746.814 731.893L741.464 658.137C747.437 657.709 753.407 656.855 759.331 655.565L775.057 727.815L862.286 750.027L884.498 662.798L828.566 614.433C832.533 609.847 836.138 605.012 839.371 599.971L901.585 639.943L978.971 593.969L932.997 516.583L859.242 521.934C858.813 515.961 857.959 509.99 856.669 504.066L928.92 488.34Z" fill="#7B3FE4" stroke="white" stroke-width="0.5"/>
<path d="M920.045 506.283L941.216 413.53L848.463 392.36L798.833 452.732C793.884 448.662 788.679 444.98 783.268 441.697L823.864 374.907L773.248 294.351L692.692 344.968L700.289 422.758C693.989 423.368 687.703 424.427 681.478 425.947L662.957 350.02L570.205 328.849L549.034 421.602L609.407 471.232C605.337 476.181 601.655 481.386 598.371 486.797L531.581 446.2L451.025 496.817L501.642 577.373L579.432 569.776C580.042 576.075 581.102 582.362 582.621 588.587L506.694 607.107L485.524 699.86L578.277 721.03L627.906 660.658C632.856 664.728 638.06 668.411 643.472 671.694L602.875 738.484L653.492 819.04L734.047 768.423L726.45 690.633C732.75 690.023 739.037 688.963 745.262 687.444L763.782 763.371L856.535 784.541L877.705 691.788L817.333 642.159C821.403 637.209 825.085 632.005 828.368 626.594L895.158 667.19L975.714 616.573L925.097 536.018L847.307 543.615C846.697 537.315 845.638 531.028 844.118 524.803L920.045 506.283Z" fill="#7B3FE4" stroke="white" stroke-width="0.5"/>
<path d="M910.91 524.751L930.776 426.476L832.501 406.609L781.8 471.518C776.478 467.36 770.898 463.618 765.111 460.301L806.126 388.868L750.683 305.328L667.144 360.772L677.191 442.527C670.57 443.336 663.975 444.617 657.456 446.381L635.949 366.875L537.674 347.008L517.807 445.284L582.716 495.985C578.558 501.307 574.815 506.886 571.499 512.674L500.065 471.658L416.526 527.102L471.969 610.641L553.725 600.593C554.534 607.214 555.815 613.81 557.579 620.329L478.073 641.835L458.206 740.111L556.482 759.978L607.183 695.069C612.505 699.227 618.084 702.97 623.872 706.286L582.856 777.72L638.3 861.259L721.839 805.816L711.791 724.06C718.413 723.251 725.008 721.97 731.527 720.205L753.033 799.712L851.309 819.578L871.176 721.303L806.267 670.602C810.425 665.28 814.167 659.7 817.484 653.913L888.917 694.928L972.457 639.485L917.013 555.946L835.257 565.993C834.449 559.372 833.168 552.777 831.403 546.258L910.91 524.751Z" fill="#7B3FE4" stroke="white" stroke-width="0.5"/>
<path d="M901.532 543.756L919.832 439.968L816.044 421.667L764.469 491.202C758.768 486.972 752.807 483.186 746.639 479.852L787.865 403.716L727.416 317.386L641.087 377.835L653.787 463.48C646.851 464.503 639.954 466.022 633.15 468.047L608.468 385.066L504.68 366.765L486.379 470.553L555.914 522.129C551.684 527.83 547.898 533.791 544.564 539.959L468.427 498.732L382.097 559.181L442.546 645.511L528.192 632.81C529.215 639.747 530.734 646.643 532.759 653.447L449.778 678.13L431.477 781.918L535.265 800.219L586.84 730.684C592.541 734.914 598.503 738.7 604.671 742.034L563.444 818.171L623.893 904.501L710.223 844.052L697.522 758.406C704.459 757.383 711.355 755.864 718.159 753.839L742.841 836.82L846.63 855.121L864.93 751.332L795.396 699.757C799.625 694.056 803.412 688.095 806.746 681.927L882.882 723.154L969.212 662.705L908.763 576.375L823.118 589.075C822.095 582.139 820.575 575.242 818.551 568.439L901.532 543.756Z" fill="#7B3FE4" stroke="white" stroke-width="0.5"/>
<path d="M891.931 563.307L908.403 454.027L799.122 437.555L746.873 511.797C740.786 507.512 734.438 503.699 727.884 500.365L769.112 419.473L703.486 330.553L614.566 396.179L630.119 485.63C622.875 486.884 615.685 488.656 608.605 490.957L580.561 404.612L471.28 388.141L454.809 497.421L529.051 549.67C524.766 555.757 520.953 562.106 517.619 568.659L436.727 527.431L347.806 593.057L413.433 681.977L502.883 666.424C504.137 673.668 505.91 680.859 508.211 687.938L421.866 715.982L405.395 825.263L514.675 841.734L566.924 767.492C573.011 771.777 579.36 775.591 585.913 778.925L544.685 859.817L610.311 948.737L699.231 883.111L683.678 793.66C690.922 792.406 698.113 790.633 705.192 788.333L733.236 874.677L842.517 891.149L858.988 781.868L784.746 729.619C789.031 723.532 792.845 717.184 796.178 710.631L877.07 751.859L965.99 686.233L900.364 597.313L810.914 612.865C809.66 605.621 807.887 598.431 805.587 591.352L891.931 563.307Z" fill="#7B3FE4" stroke="white" stroke-width="0.5"/>
<path d="M882.128 583.414L896.507 468.671L781.764 454.291L729.045 533.316C722.566 528.992 715.826 525.169 708.884 521.853L749.9 436.16L678.932 344.857L587.629 415.825L606.232 508.989C598.686 510.489 591.211 512.532 583.866 515.123L552.277 425.533L437.534 411.154L423.155 525.897L502.18 578.616C497.856 585.095 494.033 591.835 490.717 598.777L405.023 557.76L313.72 628.728L384.688 720.031L477.853 701.428C479.353 708.974 481.395 716.449 483.986 723.795L394.397 755.383L380.018 870.126L494.761 884.505L547.479 805.481C553.958 809.805 560.699 813.628 567.641 816.944L526.624 902.638L597.592 993.941L688.896 922.973L670.293 829.808C677.838 828.308 685.313 826.265 692.659 823.674L724.247 913.264L838.99 927.643L853.369 812.9L774.345 760.181C778.668 753.702 782.492 746.962 785.808 740.02L871.501 781.037L962.804 710.069L891.836 618.765L798.672 637.368C797.171 629.823 795.129 622.348 792.538 615.002L882.128 583.414Z" fill="#7B3FE4" stroke="white" stroke-width="0.5"/>
<path d="M872.14 604.085L884.165 483.919L763.999 471.895L711.018 555.769C704.141 551.423 697.005 547.607 689.671 544.326L730.261 453.795L653.793 360.322L560.321 436.79L582.168 533.569C574.329 535.332 566.578 537.658 558.977 540.555L523.666 447.846L403.5 435.821L391.476 555.987L475.35 608.968C471.005 615.845 467.189 622.981 463.907 630.315L373.375 589.724L279.903 666.192L356.37 759.665L453.15 737.818C454.913 745.656 457.24 753.407 460.136 761.008L367.427 796.319L355.403 916.485L475.569 928.51L528.549 844.636C535.426 848.981 542.562 852.797 549.896 856.079L509.306 946.611L585.774 1040.08L679.247 963.616L657.4 866.836C665.238 865.073 672.989 862.746 680.59 859.85L715.901 952.559L836.067 964.583L848.091 844.417L764.217 791.436C768.562 784.56 772.379 777.424 775.66 770.09L866.191 810.68L959.664 734.212L883.196 640.739L786.417 662.586C784.654 654.748 782.328 646.997 779.431 639.396L872.14 604.085Z" fill="#7B3FE4" stroke="white" stroke-width="0.5"/>
<path d="M861.99 625.329L871.398 499.789L745.858 490.381L692.825 579.165C685.546 574.816 678.01 571.024 670.282 567.795L710.229 472.396L628.111 376.974L532.689 459.091L557.971 559.379C549.848 561.42 541.832 564.046 533.986 567.262L494.778 471.565L369.238 462.158L359.83 587.697L448.614 640.73C444.265 648.009 440.473 655.545 437.244 663.273L341.844 623.326L246.422 705.444L328.54 800.866L428.828 775.584C430.869 783.706 433.495 791.723 436.711 799.569L341.015 838.777L331.607 964.317L457.146 973.725L510.179 884.941C517.458 889.291 524.994 893.082 532.722 896.311L492.775 991.711L574.893 1087.13L670.315 1005.02L645.033 904.727C653.156 902.686 661.173 900.06 669.019 896.845L708.226 992.54L833.766 1001.95L843.174 876.409L754.39 823.376C758.74 816.097 762.531 808.561 765.76 800.833L861.159 840.78L956.582 758.662L874.464 663.24L774.176 688.522C772.135 680.399 769.509 672.383 766.294 664.537L861.99 625.329Z" fill="#7B3FE4" stroke="white" stroke-width="0.5"/>
<path d="M851.696 647.154L858.227 516.299L727.372 509.768L674.502 603.514C666.816 599.178 658.877 595.429 650.753 592.27L689.838 491.981L601.928 394.835L504.782 482.745L533.687 586.427C525.289 588.762 517.017 591.702 508.937 595.251L465.663 496.707L334.809 490.176L328.278 621.031L422.024 673.902C417.688 681.588 413.938 689.526 410.78 697.65L310.49 658.565L213.344 746.475L301.254 843.621L404.937 814.716C407.271 823.114 410.211 831.386 413.761 839.466L315.217 882.74L308.686 1013.59L439.54 1020.13L492.411 926.379C500.097 930.716 508.036 934.465 516.16 937.624L477.075 1037.91L564.985 1135.06L662.131 1047.15L633.226 943.466C641.624 941.132 649.896 938.192 657.976 934.643L701.25 1033.19L832.104 1039.72L838.635 908.863L744.889 855.992C749.226 848.306 752.975 840.367 756.133 832.243L856.422 871.328L953.568 783.418L865.658 686.272L761.976 715.177C759.642 706.779 756.702 698.507 753.152 690.428L851.696 647.154Z" fill="#7B3FE4" stroke="white" stroke-width="0.5"/>
<path d="M841.281 669.565L844.675 533.465L708.575 530.07L656.081 628.823C647.984 624.518 639.641 620.829 631.12 617.758L669.123 512.565L575.285 413.927L476.648 507.765L509.36 614.721C500.697 617.364 492.18 620.632 483.879 624.529L436.373 523.282L300.272 519.888L296.878 655.989L395.631 708.482C391.326 716.579 387.637 724.923 384.566 733.444L279.372 695.44L180.735 789.278L274.572 887.915L381.529 855.202C384.171 863.866 387.44 872.383 391.336 880.684L290.09 928.19L286.696 1064.29L422.796 1067.68L475.29 968.932C483.387 973.238 491.731 976.927 500.252 979.998L462.248 1085.19L556.086 1183.83L654.724 1089.99L622.011 983.034C630.674 980.392 639.191 977.123 647.492 973.227L694.998 1074.47L831.099 1077.87L834.493 941.767L735.74 889.273C740.046 881.177 743.735 872.833 746.806 864.312L851.998 902.315L950.636 808.477L856.798 709.84L749.842 742.552C747.2 733.889 743.931 725.372 740.035 717.071L841.281 669.565Z" fill="#7B3FE4" stroke="white" stroke-width="0.5"/>
</svg>
