<svg width="16" height="13" viewBox="0 0 16 13" fill="none" xmlns="http://www.w3.org/2000/svg">
<path d="M15.7624 2.10221C15.2057 2.34887 14.6077 2.51553 13.9791 2.59086C14.6277 2.20274 15.113 1.59187 15.3444 0.87225C14.735 1.23423 14.068 1.48903 13.3724 1.62556C12.9047 1.12615 12.2852 0.795137 11.61 0.683905C10.9349 0.572674 10.2419 0.68745 9.6387 1.01041C9.03548 1.33338 8.55576 1.84646 8.27402 2.47C7.99228 3.09355 7.92429 3.79266 8.08059 4.45881C6.84576 4.39681 5.63775 4.07585 4.53498 3.51677C3.43222 2.95769 2.45933 2.17298 1.67946 1.21357C1.4128 1.67356 1.25947 2.20688 1.25947 2.77486C1.25917 3.28617 1.38509 3.78966 1.62604 4.24064C1.867 4.69162 2.21555 5.07615 2.64076 5.36011C2.14763 5.34442 1.66537 5.21117 1.23414 4.97146V5.01146C1.23409 5.7286 1.48215 6.42367 1.93624 6.97873C2.39032 7.53379 3.02246 7.91466 3.72539 8.0567C3.26793 8.18051 2.78831 8.19874 2.32277 8.11003C2.5211 8.72709 2.90742 9.26668 3.42765 9.65327C3.94788 10.0399 4.57598 10.2541 5.22401 10.266C4.12394 11.1295 2.76535 11.598 1.3668 11.5959C1.11906 11.596 0.871532 11.5815 0.625488 11.5526C2.0451 12.4653 3.69762 12.9498 5.38534 12.9479C11.0985 12.9479 14.2217 8.21603 14.2217 4.11215C14.2217 3.97882 14.2184 3.84416 14.2124 3.71083C14.8199 3.27149 15.3443 2.72746 15.761 2.10421L15.7624 2.10221Z" fill="white"/>
</svg>
