<svg width="124" height="50" viewBox="0 0 124 50" fill="none" xmlns="http://www.w3.org/2000/svg">
<path d="M11.1082 24.0636L21.9332 13.251L32.7582 24.0636L28.7814 35.9803C29.7597 36.3059 30.7069 36.6993 31.6175 37.1549L37.2421 25.9188H43.5832V37.5155L21.9332 50.0008L0.283203 37.5155V25.9187H6.62441L12.249 37.1549C13.1595 36.6993 14.1067 36.3059 15.085 35.9803L11.1082 24.0636Z" fill="white"/>
<path d="M1.1582 13.0052L21.9332 1.01037L42.7082 13.0052L42.7082 36.9948L21.9332 48.9896L1.1582 36.9948L1.1582 13.0052Z" stroke="white" stroke-width="1.75"/>
<path d="M50.7966 12.0433L52.5266 18.4748H52.553L54.6397 12.0433H56.6999L58.6544 18.4748H58.6809L60.5562 12.0433H63.2503L60.0675 22.001H57.4262L55.683 16.2297H55.6566L53.702 22.001H51.0739L48.1024 12.0433H50.7966ZM70.2781 18.7654V19.0163H65.22C65.22 19.5093 65.3477 19.8879 65.603 20.1521C65.8584 20.4074 66.2325 20.5351 66.7256 20.5351C66.9809 20.5351 67.201 20.4866 67.3859 20.3898C67.5796 20.2929 67.7425 20.1345 67.8746 19.9143L70.1857 19.9011C69.992 20.7111 69.5606 21.301 68.8915 21.6708C68.2311 22.0406 67.5136 22.2255 66.7388 22.2255C65.6206 22.2255 64.6874 21.9217 63.939 21.3142C63.1906 20.6979 62.8165 19.8043 62.8165 18.6333C62.8165 17.5064 63.1642 16.6215 63.8598 15.9788C64.5641 15.3361 65.4666 15.0147 66.5671 15.0147C67.7469 15.0147 68.6581 15.3537 69.3009 16.0316C69.9524 16.7096 70.2781 17.6252 70.2781 18.7786V18.7654ZM65.2597 17.6296H68.0462C67.9846 17.3127 67.8217 17.0573 67.5576 16.8636C67.3023 16.6699 67.0117 16.5731 66.686 16.5731C66.3338 16.5731 66.0256 16.6655 65.7615 16.8504C65.4974 17.0265 65.3301 17.2907 65.2597 17.6428V17.6296ZM71.2997 22.001V11.0396H73.7033V15.8864C73.941 15.6222 74.2271 15.4197 74.5617 15.2789C74.9051 15.1292 75.2528 15.0411 75.605 15.0147C75.6402 15.0147 75.671 15.0147 75.6974 15.0147C75.7327 15.0147 75.7679 15.0147 75.8031 15.0147C76.8068 15.0147 77.6212 15.3757 78.2463 16.0977C78.8802 16.8108 79.1972 17.6516 79.1972 18.6201C79.1972 19.5974 78.8802 20.4426 78.2463 21.1558C77.6124 21.8689 76.7892 22.2255 75.7767 22.2255C75.7503 22.2255 75.7239 22.2255 75.6974 22.2255C75.671 22.2255 75.6446 22.2255 75.6182 22.2255C75.2484 22.2079 74.8919 22.1242 74.5485 21.9746C74.2051 21.8161 73.9322 21.5784 73.7297 21.2614L73.7033 21.2482V22.001H71.2997ZM75.1692 17.0882C74.685 17.097 74.3064 17.2554 74.0334 17.5636C73.7605 17.8629 73.624 18.2195 73.624 18.6333C73.624 19.0647 73.7605 19.4257 74.0334 19.7162C74.3064 20.0068 74.685 20.1521 75.1692 20.1521C75.6622 20.1521 76.0408 20.0068 76.3049 19.7162C76.5779 19.4257 76.7144 19.0647 76.7144 18.6333C76.7144 18.2195 76.5779 17.8629 76.3049 17.5636C76.0408 17.2554 75.6622 17.1014 75.1692 17.1014V17.0882ZM82.9563 14.9091H80.5527C80.6055 14.3984 80.7332 13.945 80.9357 13.5488C81.1382 13.1438 81.3979 12.8004 81.7149 12.5187C82.0318 12.237 82.406 12.0257 82.8374 11.8848C83.2688 11.7351 83.7399 11.6603 84.2505 11.6603C85.1398 11.6603 85.8925 11.9112 86.5088 12.413C87.1251 12.9061 87.4333 13.6192 87.4333 14.5525C87.4333 14.5965 87.4333 14.6405 87.4333 14.6846C87.4333 14.7286 87.4289 14.7726 87.4201 14.8166C87.3937 15.1688 87.2968 15.5078 87.1295 15.8335C86.9623 16.1593 86.7157 16.4146 86.39 16.5995C86.8302 16.714 87.1824 16.9605 87.4465 17.3391C87.7106 17.7177 87.8823 18.1271 87.9616 18.5673C87.9792 18.6553 87.9924 18.7478 88.0012 18.8446C88.01 18.9327 88.0144 19.0207 88.0144 19.1087C88.0144 20.2005 87.6182 21.0237 86.8258 21.5784C86.0334 22.1242 85.1398 22.3972 84.1449 22.3972C83.5814 22.3972 83.0443 22.3135 82.5337 22.1462C82.0318 21.979 81.5784 21.6928 81.1734 21.2878C80.9621 21.0677 80.7596 20.8036 80.5659 20.4954C80.381 20.1785 80.2401 19.8571 80.1433 19.5314C80.1081 19.4081 80.0817 19.2892 80.0641 19.1748C80.0465 19.0603 80.0376 18.9459 80.0376 18.8314C80.0376 18.8226 80.0376 18.8138 80.0376 18.805C80.0376 18.7962 80.0376 18.7918 80.0376 18.7918C80.0376 18.783 80.0376 18.7786 80.0376 18.7786L82.6789 18.7654C82.6789 19.1704 82.8066 19.5093 83.0619 19.7823C83.3261 20.0552 83.6606 20.1917 84.0656 20.1917C84.4618 20.1917 84.792 20.0728 85.0561 19.8351C85.3203 19.5886 85.4523 19.2628 85.4523 18.8578C85.4523 18.4792 85.3114 18.1623 85.0297 17.907C84.7568 17.6516 84.4398 17.524 84.0788 17.524C83.9996 17.524 83.9204 17.5328 83.8411 17.5504C83.7707 17.568 83.7003 17.5856 83.6298 17.6032V15.8599H83.8939C84.2285 15.8688 84.5014 15.7763 84.7128 15.5826C84.9241 15.3889 85.0297 15.1204 85.0297 14.777C85.0297 14.4689 84.9329 14.2267 84.7392 14.0507C84.5455 13.8658 84.3034 13.7733 84.0128 13.7733C83.687 13.7733 83.4273 13.8834 83.2336 14.1035C83.0487 14.3148 82.9563 14.5789 82.9563 14.8959C82.9563 14.8959 82.9563 14.9003 82.9563 14.9091C82.9563 14.9091 82.9563 14.9135 82.9563 14.9223V14.9091ZM49.1458 37.001V27.0433H53.1077C54.1818 27.0521 55.0535 27.3162 55.7226 27.8357C56.3917 28.3551 56.7263 29.1871 56.7263 30.3317C56.7263 31.5027 56.4181 32.3611 55.8018 32.907C55.1943 33.444 54.3271 33.7126 53.2002 33.7126L51.7342 33.6993V37.001H49.1458ZM51.7342 29.1299V31.6127H52.17C52.6367 31.6215 53.0637 31.5775 53.4511 31.4807C53.8385 31.375 54.0322 31.0184 54.0322 30.4109C54.0322 29.7858 53.8473 29.4204 53.4775 29.3148C53.1077 29.2003 52.6719 29.1431 52.17 29.1431L51.7342 29.1299ZM57.8242 26.0396H60.2278V31.0845H60.2542C60.5359 30.7235 60.8485 30.4549 61.1918 30.2789C61.544 30.1028 61.9534 30.0147 62.4201 30.0147C63.2829 30.0147 63.9212 30.2745 64.335 30.7939C64.7576 31.3134 64.9689 32.0045 64.9689 32.8673V37.001H62.5653V33.5277C62.5653 33.5277 62.5653 33.5233 62.5653 33.5145C62.5653 33.4968 62.5653 33.4792 62.5653 33.4616C62.5653 33.083 62.4993 32.7353 62.3672 32.4183C62.244 32.0926 61.949 31.9297 61.4824 31.9297C61.0246 31.9297 60.7032 32.0926 60.5183 32.4183C60.3334 32.7353 60.2366 33.083 60.2278 33.4616C60.2278 33.4792 60.2278 33.4968 60.2278 33.5145C60.2278 33.5233 60.2278 33.5321 60.2278 33.5409V37.001H57.8242V26.0396ZM68.959 30.226V37.001H66.5554V30.226H68.959ZM67.7572 26.2773C68.127 26.2861 68.444 26.4226 68.7081 26.6867C68.9722 26.9508 69.1043 27.2678 69.1043 27.6376C69.1043 28.0073 68.9722 28.3243 68.7081 28.5884C68.444 28.8526 68.127 28.9846 67.7572 28.9846C67.3875 28.9846 67.0705 28.8526 66.8064 28.5884C66.5422 28.3243 66.4102 28.0073 66.4102 27.6376C66.4102 27.2678 66.5422 26.9508 66.8064 26.6867C67.0705 26.4226 67.3875 26.2905 67.7572 26.2905V26.2773ZM72.9442 26.0396V37.001H70.5406V26.0396H72.9442ZM76.9294 30.226V37.001H74.5258V30.226H76.9294ZM75.7276 26.2773C76.0974 26.2861 76.4143 26.4226 76.6784 26.6867C76.9426 26.9508 77.0746 27.2678 77.0746 27.6376C77.0746 28.0073 76.9426 28.3243 76.6784 28.5884C76.4143 28.8526 76.0974 28.9846 75.7276 28.9846C75.3578 28.9846 75.0408 28.8526 74.7767 28.5884C74.5126 28.3243 74.3805 28.0073 74.3805 27.6376C74.3805 27.2678 74.5126 26.9508 74.7767 26.6867C75.0408 26.4226 75.3578 26.2905 75.7276 26.2905V26.2773ZM80.8353 30.226V30.992H80.8617C81.0642 30.6839 81.3371 30.4505 81.6805 30.2921C82.0239 30.1248 82.3805 30.0323 82.7502 30.0147C82.7767 30.0147 82.8031 30.0147 82.8295 30.0147C82.8559 30.0147 82.8823 30.0147 82.9087 30.0147C83.9212 30.0147 84.7444 30.3801 85.3783 31.1109C86.0123 31.8328 86.3292 32.678 86.3292 33.6465C86.3292 34.6238 86.0123 35.4646 85.3783 36.169C84.7532 36.8733 83.9388 37.2255 82.9351 37.2255C82.8999 37.2255 82.8647 37.2255 82.8295 37.2255C82.8031 37.2255 82.7723 37.2255 82.737 37.2255C82.3849 37.1991 82.0371 37.1198 81.6937 36.9878C81.3592 36.8469 81.073 36.64 80.8353 36.3671V40.3818H78.4317V30.226H80.8353ZM82.3012 32.0882C81.817 32.097 81.4384 32.2554 81.1655 32.5636C80.8925 32.8629 80.7561 33.2195 80.7561 33.6333C80.7561 34.0647 80.8925 34.4257 81.1655 34.7162C81.4384 35.0068 81.817 35.1521 82.3012 35.1521C82.7943 35.1521 83.1729 35.0068 83.437 34.7162C83.7099 34.4257 83.8464 34.0647 83.8464 33.6333C83.8464 33.2195 83.7099 32.8629 83.437 32.5636C83.1729 32.2554 82.7943 32.1014 82.3012 32.1014V32.0882ZM89.8374 30.226V30.992H89.8638C90.0663 30.6839 90.3392 30.4505 90.6826 30.2921C91.026 30.1248 91.3826 30.0323 91.7523 30.0147C91.7788 30.0147 91.8052 30.0147 91.8316 30.0147C91.858 30.0147 91.8844 30.0147 91.9108 30.0147C92.9233 30.0147 93.7465 30.3801 94.3804 31.1109C95.0143 31.8328 95.3313 32.678 95.3313 33.6465C95.3313 34.6238 95.0143 35.4646 94.3804 36.169C93.7553 36.8733 92.9409 37.2255 91.9372 37.2255C91.902 37.2255 91.8668 37.2255 91.8316 37.2255C91.8052 37.2255 91.7743 37.2255 91.7391 37.2255C91.387 37.1991 91.0392 37.1198 90.6958 36.9878C90.3613 36.8469 90.0751 36.64 89.8374 36.3671V40.3818H87.4338V30.226H89.8374ZM91.3033 32.0882C90.8191 32.097 90.4405 32.2554 90.1676 32.5636C89.8946 32.8629 89.7582 33.2195 89.7582 33.6333C89.7582 34.0647 89.8946 34.4257 90.1676 34.7162C90.4405 35.0068 90.8191 35.1521 91.3033 35.1521C91.7964 35.1521 92.1749 35.0068 92.4391 34.7162C92.712 34.4257 92.8485 34.0647 92.8485 33.6333C92.8485 33.2195 92.712 32.8629 92.4391 32.5636C92.1749 32.2554 91.7964 32.1014 91.3033 32.1014V32.0882ZM98.9187 30.226V37.001H96.5151V30.226H98.9187ZM97.7169 26.2773C98.0867 26.2861 98.4037 26.4226 98.6678 26.6867C98.9319 26.9508 99.064 27.2678 99.064 27.6376C99.064 28.0073 98.9319 28.3243 98.6678 28.5884C98.4037 28.8526 98.0867 28.9846 97.7169 28.9846C97.3472 28.9846 97.0302 28.8526 96.7661 28.5884C96.5019 28.3243 96.3699 28.0073 96.3699 27.6376C96.3699 27.2678 96.5019 26.9508 96.7661 26.6867C97.0302 26.4226 97.3472 26.2905 97.7169 26.2905V26.2773ZM102.904 30.226V31.0977H102.93C103.212 30.6927 103.525 30.4109 103.868 30.2524C104.22 30.094 104.63 30.0147 105.096 30.0147C106.012 30.0147 106.663 30.2745 107.051 30.7939C107.447 31.3134 107.645 31.9913 107.645 32.8277V37.001H105.241V33.6993C105.241 33.6817 105.241 33.6597 105.241 33.6333C105.241 33.6069 105.241 33.5805 105.241 33.5541C105.241 33.4748 105.241 33.3912 105.241 33.3032C105.241 33.2151 105.237 33.1271 105.228 33.039C105.211 32.7661 105.131 32.5152 104.991 32.2863C104.85 32.0485 104.572 31.9297 104.159 31.9297C103.674 31.9297 103.344 32.0882 103.168 32.4051C102.992 32.7133 102.904 33.0786 102.904 33.5013V37.001H100.5V30.226H102.904ZM116.191 33.7654V34.0163H111.133C111.133 34.5093 111.261 34.8879 111.516 35.1521C111.772 35.4074 112.146 35.5351 112.639 35.5351C112.894 35.5351 113.114 35.4866 113.299 35.3898C113.493 35.2929 113.656 35.1345 113.788 34.9143L116.099 34.9011C115.905 35.7111 115.474 36.301 114.805 36.6708C114.144 37.0406 113.427 37.2255 112.652 37.2255C111.534 37.2255 110.601 36.9217 109.852 36.3142C109.104 35.6979 108.73 34.8043 108.73 33.6333C108.73 32.5064 109.077 31.6215 109.773 30.9788C110.477 30.3361 111.38 30.0147 112.48 30.0147C113.66 30.0147 114.571 30.3537 115.214 31.0316C115.866 31.7096 116.191 32.6252 116.191 33.7786V33.7654ZM111.173 32.6296H113.96C113.898 32.3127 113.735 32.0573 113.471 31.8636C113.216 31.6699 112.925 31.5731 112.599 31.5731C112.247 31.5731 111.939 31.6655 111.675 31.8504C111.411 32.0265 111.243 32.2907 111.173 32.6428V32.6296ZM122.575 30.4373L121.769 31.9693C121.664 31.9165 121.545 31.868 121.413 31.824C121.289 31.78 121.162 31.7448 121.03 31.7184C120.933 31.7008 120.836 31.6876 120.739 31.6788C120.651 31.6611 120.563 31.6523 120.475 31.6523C120.431 31.6523 120.383 31.6567 120.33 31.6655C120.286 31.6655 120.242 31.6743 120.198 31.692C120.074 31.7184 119.964 31.7668 119.867 31.8372C119.771 31.8989 119.722 31.9913 119.722 32.1146C119.722 32.2642 119.784 32.3787 119.907 32.4579C120.039 32.5284 120.184 32.5812 120.343 32.6164C120.431 32.6428 120.515 32.6648 120.594 32.6824C120.673 32.6913 120.743 32.7001 120.805 32.7089C121.369 32.8233 121.835 33.0302 122.205 33.3296C122.584 33.6289 122.773 34.0911 122.773 34.7162C122.773 35.5791 122.456 36.2086 121.822 36.6048C121.188 36.9922 120.488 37.1991 119.722 37.2255C119.696 37.2255 119.669 37.2255 119.643 37.2255C119.625 37.2255 119.603 37.2255 119.577 37.2255C119.093 37.2255 118.617 37.1595 118.151 37.0274C117.693 36.8953 117.257 36.706 116.843 36.4595L117.715 34.7691C117.864 34.8835 118.036 34.9892 118.23 35.086C118.424 35.1741 118.622 35.2533 118.824 35.3237C118.965 35.3678 119.101 35.403 119.234 35.4294C119.366 35.4558 119.493 35.469 119.617 35.469C119.652 35.469 119.687 35.469 119.722 35.469C119.766 35.4602 119.81 35.4514 119.854 35.4426C119.986 35.4162 120.105 35.3634 120.211 35.2841C120.316 35.2049 120.369 35.0948 120.369 34.954C120.369 34.7603 120.277 34.6238 120.092 34.5446C119.907 34.4565 119.687 34.3861 119.432 34.3333C119.335 34.3157 119.238 34.298 119.141 34.2804C119.053 34.254 118.961 34.2276 118.864 34.2012C118.485 34.1043 118.137 33.9371 117.82 33.6993C117.512 33.4528 117.358 33.0258 117.358 32.4183C117.358 31.5995 117.662 30.9964 118.269 30.609C118.877 30.2216 119.542 30.0235 120.264 30.0147C120.281 30.0147 120.294 30.0147 120.303 30.0147C120.321 30.0147 120.334 30.0147 120.343 30.0147C120.73 30.0147 121.109 30.0499 121.479 30.1204C121.857 30.182 122.223 30.2921 122.575 30.4505V30.4373Z" fill="white"/>
</svg>
