<svg width="600" height="600" viewBox="0 0 600 600" fill="none" xmlns="http://www.w3.org/2000/svg">
<g filter="url(#filter0_d_16_1628)">
<path d="M494.186 370.267C488.603 370.282 483.181 372.152 478.77 375.579C474.359 379.006 471.213 383.803 469.817 389.21H137.11V401.84H313.91V477.043C314.061 487.189 310.139 496.975 303.02 504.199C295.895 511.428 286.17 515.501 276.025 515.496H118.172C108.026 515.501 98.3022 511.428 91.1769 504.199C84.0572 496.975 80.13 487.188 80.2862 477.043V123.869C80.1144 113.666 84.0154 103.817 91.1248 96.4947C98.2341 89.1718 107.969 84.9791 118.171 84.8489H127.578C127.307 93.8073 130.343 102.546 136.104 109.412C140.744 114.412 147.161 117.38 153.973 117.682H240.541C247.354 117.38 253.775 114.412 258.41 109.412C264.202 102.563 267.238 93.8075 266.936 84.8489H276.41C286.613 84.9791 296.348 89.1718 303.452 96.4947C310.561 103.818 314.462 113.667 314.295 123.869V190.296H184.598V202.926H377.065C379.133 210.932 384.987 217.421 392.737 220.296C400.487 223.17 409.158 222.066 415.945 217.348C422.731 212.624 426.778 204.879 426.778 196.613C426.778 188.342 422.731 180.602 415.945 175.878C409.158 171.154 400.486 170.056 392.737 172.931C384.987 175.806 379.133 182.29 377.065 190.295H355.595L399.798 146.092L469.825 146.097C471.887 154.102 477.741 160.586 485.497 163.461C493.247 166.336 501.913 165.237 508.699 160.513C515.491 155.794 519.533 148.05 519.533 139.784C519.533 131.513 515.491 123.768 508.699 119.049C501.913 114.325 493.246 113.226 485.497 116.101C477.742 118.976 471.887 125.461 469.825 133.465H394.429L337.601 190.293H326.549V123.867C326.715 110.315 321.486 97.2521 312.007 87.5601C302.533 77.8726 289.586 72.3521 276.034 72.2161H118.181C104.623 72.3515 91.6807 77.8723 82.2073 87.5601C72.7281 97.2527 67.4993 110.315 67.666 123.867V477.04C67.5149 490.535 72.7701 503.529 82.2593 513.128C91.7489 522.722 104.681 528.123 118.181 528.123H276.421C289.915 528.123 302.853 522.722 312.342 513.128C321.832 503.529 327.087 490.535 326.935 477.04V401.837H341.774L396.014 456.395H421.269C423.336 464.4 429.191 470.884 436.946 473.759C444.696 476.634 453.362 475.535 460.149 470.811C466.935 466.092 470.982 458.347 470.982 450.076C470.982 441.811 466.935 434.066 460.149 429.342C453.362 424.623 444.695 423.519 436.946 426.394C429.191 429.269 423.337 435.758 421.269 443.763H401.253L359.389 401.836H469.831C471.415 407.972 475.243 413.284 480.566 416.727C485.883 420.17 492.3 421.487 498.544 420.414C504.789 419.347 510.404 415.972 514.279 410.956C518.149 405.94 519.993 399.654 519.446 393.341C518.899 387.029 516.003 381.154 511.326 376.877C506.649 372.601 500.54 370.242 494.201 370.263L494.186 370.267ZM494.186 127.293C499.295 127.293 503.9 130.371 505.853 135.09C507.811 139.809 506.728 145.241 503.118 148.85C499.504 152.465 494.071 153.543 489.353 151.59C484.634 149.637 481.561 145.032 481.561 139.923C481.525 136.553 482.842 133.309 485.212 130.913C487.587 128.517 490.816 127.168 494.186 127.168L494.186 127.293ZM401.05 183.996C406.159 183.996 410.764 187.074 412.717 191.793C414.67 196.512 413.592 201.944 409.977 205.553C406.368 209.167 400.935 210.246 396.217 208.292C391.498 206.339 388.42 201.735 388.42 196.626C388.42 189.652 394.076 183.996 401.05 183.996L401.05 183.996ZM249.503 100.647C247.222 103.183 244.061 104.761 240.665 105.068H154.029C150.602 104.792 147.414 103.209 145.128 100.647C141.669 96.1258 139.883 90.5477 140.076 84.8599H254.368C254.576 90.5422 252.81 96.1151 249.378 100.647H249.503ZM445.503 437.46C450.613 437.46 455.217 440.533 457.17 445.252C459.123 449.97 458.045 455.403 454.43 459.017C450.821 462.626 445.389 463.71 440.67 461.751C435.952 459.798 432.873 455.194 432.873 450.085C432.873 443.111 438.53 437.46 445.504 437.46L445.503 437.46ZM494.186 408.163V408.157C489.082 408.157 484.472 405.079 482.519 400.36C480.566 395.642 481.644 390.209 485.259 386.6C488.868 382.986 494.301 381.908 499.019 383.861C503.738 385.819 506.816 390.423 506.816 395.528C506.816 398.882 505.488 402.09 503.118 404.46C500.748 406.829 497.535 408.158 494.186 408.158L494.186 408.163Z" fill="white"/>
<path d="M420.239 363.947C426.578 363.967 432.687 361.603 437.365 357.327C442.042 353.056 444.943 347.176 445.49 340.868C446.036 334.556 444.188 328.269 440.318 323.253C436.448 318.238 430.828 314.858 424.583 313.79C418.338 312.722 411.922 314.04 406.604 317.483C401.281 320.92 397.453 326.238 395.87 332.373H318.834V345.003L395.995 344.998C397.386 350.389 400.516 355.165 404.902 358.592C409.287 362.013 414.678 363.899 420.24 363.946L420.239 363.947ZM420.239 326.061V326.056C427.218 326.056 432.869 331.712 432.869 338.686C432.869 345.66 427.218 351.317 420.239 351.317C414.5 351.296 409.489 347.405 408.057 341.843V335.53C409.489 329.967 414.5 326.077 420.239 326.056V326.061Z" fill="white"/>
<path d="M506.813 240.387C501.229 240.402 495.808 242.272 491.397 245.699C486.985 249.126 483.834 253.918 482.438 259.33H438.745V271.96H482.442L482.437 271.955C484.021 278.09 487.854 283.408 493.172 286.851C498.495 290.288 504.911 291.606 511.156 290.538C517.4 289.471 523.015 286.09 526.885 281.075C530.76 276.064 532.604 269.773 532.057 263.465C531.51 257.153 528.614 251.273 523.937 247.001C519.26 242.725 513.145 240.366 506.812 240.387L506.813 240.387ZM506.813 278.272C499.839 278.272 494.183 272.616 494.183 265.642C494.183 260.532 497.261 255.928 501.979 253.975C506.698 252.022 512.131 253.1 515.745 256.709C519.354 260.324 520.432 265.756 518.479 270.475C516.526 275.194 511.922 278.272 506.813 278.272L506.813 278.272Z" fill="white"/>
<path d="M381.973 271.947H420.238V259.316L377.045 259.322L351.029 285.019H262.247C260.425 272.592 255.852 260.727 248.862 250.29H287.883C289.951 258.295 295.805 264.779 303.555 267.654C311.311 270.529 319.977 269.43 326.763 264.706C333.55 259.987 337.597 252.242 337.597 243.976C337.597 235.706 333.55 227.96 326.763 223.242C319.977 218.518 311.31 217.419 303.555 220.294C295.805 223.169 289.951 229.653 287.883 237.658H238.509C219.821 218.965 193.503 210.027 167.301 213.475C141.098 216.928 117.989 232.371 104.779 255.262C91.5701 278.153 89.7581 305.887 99.8836 330.303C110.009 354.715 130.914 373.033 156.452 379.855C181.982 386.678 209.238 381.23 230.197 365.126C251.15 349.017 263.416 324.074 263.385 297.647H356.27L381.973 271.947ZM312.514 231.343L312.509 231.348C317.618 231.348 322.223 234.426 324.181 239.145C326.134 243.864 325.051 249.296 321.441 252.905C317.832 256.519 312.4 257.597 307.681 255.644C302.962 253.686 299.884 249.082 299.884 243.978C299.879 237.097 305.384 231.483 312.259 231.348L312.514 231.343ZM178.527 370.263L178.522 370.268C159.34 370.299 140.924 362.716 127.334 349.18C113.741 335.639 106.08 317.259 106.032 298.076C105.99 278.888 113.563 260.472 127.094 246.873C140.625 233.269 159.001 225.597 178.182 225.545C197.37 225.488 215.792 233.05 229.401 246.576C243.01 260.097 250.693 278.467 250.761 297.655C250.74 316.863 243.094 335.28 229.501 348.848C215.908 362.421 197.48 370.036 178.272 370.015L178.527 370.263Z" fill="white"/>
<path d="M279.173 332.387H299.632V345.017H279.173V332.387Z" fill="white"/>
<path d="M146.706 190.307H165.649V202.937H146.706V190.307Z" fill="white"/>
<path d="M99.3457 389.213H118.288V401.844H99.3457V389.213Z" fill="white"/>
<path d="M108.812 190.307H127.755V202.937H108.812V190.307Z" fill="white"/>
<path d="M170.44 311.92L151.752 289.123L141.96 297.143L171.263 332.69L215.528 269.862L220.892 262.602H205.231L170.44 311.92Z" fill="white"/>
</g>
<defs>
<filter id="filter0_d_16_1628" x="42.6621" y="57.2161" width="504.489" height="495.907" filterUnits="userSpaceOnUse" color-interpolation-filters="sRGB">
<feFlood flood-opacity="0" result="BackgroundImageFix"/>
<feColorMatrix in="SourceAlpha" type="matrix" values="0 0 0 0 0 0 0 0 0 0 0 0 0 0 0 0 0 0 127 0" result="hardAlpha"/>
<feOffset dx="-5" dy="5"/>
<feGaussianBlur stdDeviation="10"/>
<feComposite in2="hardAlpha" operator="out"/>
<feColorMatrix type="matrix" values="0 0 0 0 0 0 0 0 0 0 0 0 0 0 0 0 0 0 0.4 0"/>
<feBlend mode="normal" in2="BackgroundImageFix" result="effect1_dropShadow_16_1628"/>
<feBlend mode="normal" in="SourceGraphic" in2="effect1_dropShadow_16_1628" result="shape"/>
</filter>
</defs>
</svg>
