<svg width="40" height="40" viewBox="0 0 40 40" fill="none" xmlns="http://www.w3.org/2000/svg">
<g clip-path="url(#clip0_204_182)">
<path d="M33.8625 7.48654C31.3125 6.33654 28.5791 5.48654 25.7208 5.00321C25.6953 4.99832 25.669 5.00147 25.6454 5.01222C25.6218 5.02297 25.6021 5.04079 25.5891 5.06321C25.2391 5.67821 24.8491 6.47987 24.5758 7.11321C21.5443 6.66027 18.4623 6.66027 15.4308 7.11321C15.1264 6.41131 14.783 5.72692 14.4025 5.06321C14.3896 5.04051 14.3701 5.02229 14.3465 5.01097C14.323 4.99966 14.2966 4.99579 14.2708 4.99987C11.4141 5.48321 8.6808 6.33321 6.12913 7.48487C6.10718 7.49408 6.08857 7.50978 6.0758 7.52987C0.889134 15.1549 -0.532532 22.5915 0.165801 29.9349C0.167744 29.9529 0.173327 29.9703 0.182209 29.986C0.191092 30.0018 0.203088 30.0156 0.217468 30.0265C3.24479 32.2306 6.62136 33.9096 10.2058 34.9932C10.2308 35.0009 10.2575 35.0009 10.2825 34.9931C10.3075 34.9854 10.3295 34.9703 10.3458 34.9499C11.1171 33.9183 11.8006 32.8239 12.3891 31.6782C12.3973 31.6625 12.402 31.6453 12.4029 31.6277C12.4039 31.61 12.401 31.5924 12.3945 31.576C12.388 31.5595 12.3781 31.5447 12.3654 31.5324C12.3527 31.5201 12.3375 31.5108 12.3208 31.5049C11.2441 31.0994 10.2009 30.6101 9.2008 30.0415C9.18283 30.0313 9.16769 30.0167 9.15673 29.9992C9.14577 29.9816 9.13935 29.9616 9.13802 29.941C9.1367 29.9203 9.14053 29.8997 9.14916 29.8809C9.15779 29.862 9.17095 29.8457 9.18747 29.8332C9.39747 29.6782 9.60747 29.5165 9.80747 29.3549C9.82547 29.3403 9.84716 29.3311 9.87011 29.3281C9.89306 29.3252 9.91638 29.3287 9.93747 29.3382C16.4825 32.2782 23.5708 32.2782 30.0391 29.3382C30.0603 29.3281 30.0838 29.3242 30.1071 29.3268C30.1304 29.3295 30.1525 29.3386 30.1708 29.3532C30.3708 29.5165 30.5791 29.6782 30.7908 29.8332C30.8075 29.8454 30.8209 29.8616 30.8298 29.8802C30.8387 29.8989 30.8428 29.9194 30.8418 29.9401C30.8408 29.9607 30.8347 29.9808 30.8241 29.9985C30.8134 30.0162 30.7986 30.031 30.7808 30.0415C29.7841 30.6149 28.7475 31.0999 27.6591 31.5032C27.6424 31.5093 27.6272 31.5188 27.6145 31.5313C27.6017 31.5437 27.5918 31.5587 27.5854 31.5752C27.5789 31.5918 27.576 31.6096 27.577 31.6273C27.5779 31.6451 27.5826 31.6624 27.5908 31.6782C28.1908 32.8232 28.8775 33.9132 29.6325 34.9482C29.6482 34.9694 29.67 34.9853 29.6951 34.9937C29.7201 35.002 29.7472 35.0024 29.7725 34.9949C33.3631 33.9143 36.7451 32.2345 39.7758 30.0265C39.7906 30.0162 39.803 30.0028 39.8122 29.9873C39.8214 29.9718 39.8272 29.9545 39.8291 29.9365C40.6625 21.4465 38.4325 14.0699 33.9141 7.53321C33.9031 7.51197 33.8847 7.49541 33.8625 7.48654ZM13.3675 25.4632C11.3975 25.4632 9.77247 23.6815 9.77247 21.4965C9.77247 19.3099 11.3658 17.5299 13.3675 17.5299C15.3841 17.5299 16.9941 19.3249 16.9625 21.4965C16.9625 23.6832 15.3691 25.4632 13.3675 25.4632ZM26.6591 25.4632C24.6875 25.4632 23.0641 23.6815 23.0641 21.4965C23.0641 19.3099 24.6558 17.5299 26.6591 17.5299C28.6758 17.5299 30.2858 19.3249 30.2541 21.4965C30.2541 23.6832 28.6775 25.4632 26.6591 25.4632Z" fill="#7B3FE4"/>
</g>
<defs>
<clipPath id="clip0_204_182">
<rect width="40" height="40" fill="white"/>
</clipPath>
</defs>
</svg>
