<svg width="40" height="41" viewBox="0 0 40 41" fill="none" xmlns="http://www.w3.org/2000/svg">
<g clip-path="url(#clip0_204_387)">
<path fill-rule="evenodd" clip-rule="evenodd" d="M20 0.866699C8.95 0.866699 0 9.8167 0 20.8667C0 29.7167 5.725 37.1917 13.675 39.8417C14.675 40.0167 15.05 39.4167 15.05 38.8917C15.05 38.4167 15.025 36.8417 15.025 35.1667C10 36.0917 8.7 33.9417 8.3 32.8167C8.075 32.2417 7.1 30.4667 6.25 29.9917C5.55 29.6167 4.55 28.6917 6.225 28.6667C7.8 28.6417 8.925 30.1167 9.3 30.7167C11.1 33.7417 13.975 32.8917 15.125 32.3667C15.3 31.0667 15.825 30.1917 16.4 29.6917C11.95 29.1917 7.3 27.4667 7.3 19.8167C7.3 17.6417 8.075 15.8417 9.35 14.4417C9.15 13.9417 8.45 11.8917 9.55 9.1417C9.55 9.1417 11.225 8.6167 15.05 11.1917C16.65 10.7417 18.35 10.5167 20.05 10.5167C21.75 10.5167 23.45 10.7417 25.05 11.1917C28.875 8.5917 30.55 9.1417 30.55 9.1417C31.65 11.8917 30.95 13.9417 30.75 14.4417C32.025 15.8417 32.8 17.6167 32.8 19.8167C32.8 27.4917 28.125 29.1917 23.675 29.6917C24.4 30.3167 25.025 31.5167 25.025 33.3917C25.025 36.0667 25 38.2167 25 38.8917C25 39.4167 25.375 40.0417 26.375 39.8417C30.3453 38.5012 33.7953 35.9495 36.2394 32.5456C38.6836 29.1418 39.9988 25.0572 40 20.8667C40 9.8167 31.05 0.866699 20 0.866699Z" fill="#7B3FE4"/>
</g>
<defs>
<clipPath id="clip0_204_387">
<rect width="40" height="40" fill="white" transform="translate(0 0.866699)"/>
</clipPath>
</defs>
</svg>
