<svg width="40" height="41" viewBox="0 0 40 41" fill="none" xmlns="http://www.w3.org/2000/svg">
<path fill-rule="evenodd" clip-rule="evenodd" d="M12.442 2.51039C14.397 2.42039 15.0203 2.40039 20.0003 2.40039C24.9803 2.40039 25.6037 2.42206 27.557 2.51039C29.5103 2.59872 30.8437 2.91039 32.0103 3.36206C33.232 3.82372 34.3403 4.54539 35.257 5.47872C36.1903 6.39372 36.9103 7.50039 37.3703 8.72372C37.8237 9.89039 38.1337 11.2237 38.2237 13.1737C38.3137 15.1321 38.3337 15.7554 38.3337 20.7337C38.3337 25.7137 38.312 26.3371 38.2237 28.2921C38.1353 30.2421 37.8237 31.5754 37.3703 32.7421C36.9103 33.9655 36.1891 35.0741 35.257 35.9904C34.3403 36.9237 33.232 37.6437 32.0103 38.1037C30.8437 38.5571 29.5103 38.8671 27.5603 38.9571C25.6037 39.0471 24.9803 39.0671 20.0003 39.0671C15.0203 39.0671 14.397 39.0454 12.442 38.9571C10.492 38.8687 9.15866 38.5571 7.99199 38.1037C6.76853 37.6437 5.66003 36.9225 4.74366 35.9904C3.81096 35.0748 3.08918 33.9669 2.62866 32.7437C2.17699 31.5771 1.86699 30.2437 1.77699 28.2937C1.68699 26.3354 1.66699 25.7121 1.66699 20.7337C1.66699 15.7537 1.68866 15.1304 1.77699 13.1771C1.86533 11.2237 2.17699 9.89039 2.62866 8.72372C3.08986 7.50053 3.81219 6.39258 4.74533 5.47706C5.66039 4.54456 6.76778 3.8228 7.99033 3.36206C9.15699 2.91039 10.4903 2.60039 12.4403 2.51039H12.442ZM27.4087 5.81039C25.4753 5.72206 24.8953 5.70372 20.0003 5.70372C15.1053 5.70372 14.5253 5.72206 12.592 5.81039C10.8037 5.89206 9.83366 6.19039 9.18699 6.44206C8.33199 6.77539 7.72033 7.17039 7.07866 7.81206C6.4704 8.40381 6.00229 9.12419 5.70866 9.92039C5.45699 10.5671 5.15866 11.5371 5.07699 13.3254C4.98866 15.2587 4.97033 15.8387 4.97033 20.7337C4.97033 25.6287 4.98866 26.2087 5.07699 28.1421C5.15866 29.9304 5.45699 30.9004 5.70866 31.5471C6.00199 32.3421 6.47033 33.0637 7.07866 33.6554C7.67033 34.2637 8.39199 34.7321 9.18699 35.0254C9.83366 35.2771 10.8037 35.5754 12.592 35.6571C14.5253 35.7454 15.1037 35.7637 20.0003 35.7637C24.897 35.7637 25.4753 35.7454 27.4087 35.6571C29.197 35.5754 30.167 35.2771 30.8137 35.0254C31.6687 34.6921 32.2803 34.2971 32.922 33.6554C33.5303 33.0637 33.9987 32.3421 34.292 31.5471C34.5437 30.9004 34.842 29.9304 34.9237 28.1421C35.012 26.2087 35.0303 25.6287 35.0303 20.7337C35.0303 15.8387 35.012 15.2587 34.9237 13.3254C34.842 11.5371 34.5437 10.5671 34.292 9.92039C33.9587 9.06539 33.5637 8.45372 32.922 7.81206C32.3302 7.20384 31.6098 6.73574 30.8137 6.44206C30.167 6.19039 29.197 5.89206 27.4087 5.81039ZM17.6587 26.3854C18.9664 26.9298 20.4226 27.0033 21.7785 26.5933C23.1345 26.1833 24.306 25.3153 25.093 24.1375C25.88 22.9597 26.2338 21.5452 26.0937 20.1356C25.9537 18.726 25.3287 17.4087 24.3253 16.4087C23.6857 15.7695 22.9123 15.2801 22.0609 14.9756C21.2094 14.6712 20.301 14.5593 19.4012 14.6481C18.5013 14.7368 17.6322 15.024 16.8567 15.4889C16.0811 15.9539 15.4182 16.585 14.9158 17.3368C14.4134 18.0887 14.084 18.9425 13.9512 19.837C13.8184 20.7314 13.8856 21.6442 14.1479 22.5096C14.4102 23.375 14.8611 24.1714 15.4682 24.8416C16.0753 25.5118 16.8234 26.039 17.6587 26.3854ZM13.337 14.0704C14.212 13.1953 15.2509 12.5012 16.3942 12.0277C17.5375 11.5541 18.7628 11.3103 20.0003 11.3103C21.2378 11.3103 22.4632 11.5541 23.6065 12.0277C24.7498 12.5012 25.7886 13.1953 26.6637 14.0704C27.5387 14.9454 28.2328 15.9843 28.7064 17.1276C29.18 18.2709 29.4237 19.4962 29.4237 20.7337C29.4237 21.9712 29.18 23.1966 28.7064 24.3399C28.2328 25.4832 27.5387 26.522 26.6637 27.3971C24.8964 29.1643 22.4996 30.1571 20.0003 30.1571C17.5011 30.1571 15.1042 29.1643 13.337 27.3971C11.5698 25.6298 10.577 23.233 10.577 20.7337C10.577 18.2345 11.5698 15.8376 13.337 14.0704ZM31.5137 12.7137C31.7305 12.5092 31.9041 12.2632 32.0242 11.9903C32.1442 11.7175 32.2083 11.4233 32.2127 11.1253C32.217 10.8272 32.1615 10.5313 32.0495 10.2551C31.9374 9.97885 31.771 9.72791 31.5603 9.51712C31.3495 9.30634 31.0985 9.13999 30.8223 9.02792C30.5461 8.91585 30.2502 8.86035 29.9521 8.8647C29.654 8.86904 29.3599 8.93315 29.087 9.05322C28.8142 9.17329 28.5682 9.34688 28.3637 9.56372C27.9658 9.98544 27.748 10.5456 27.7565 11.1253C27.7649 11.705 27.999 12.2585 28.4089 12.6685C28.8189 13.0784 29.3724 13.3124 29.9521 13.3209C30.5318 13.3293 31.0919 13.1115 31.5137 12.7137Z" fill="#7B3FE4"/>
</svg>
