<svg width="40" height="41" viewBox="0 0 40 41" fill="none" xmlns="http://www.w3.org/2000/svg">
<path fill-rule="evenodd" clip-rule="evenodd" d="M1.66699 5.59703C1.66699 4.78458 1.98974 4.00541 2.56422 3.43093C3.13871 2.85644 3.91788 2.5337 4.73033 2.5337H35.267C35.6696 2.53304 36.0684 2.6118 36.4406 2.76547C36.8127 2.91915 37.1509 3.14471 37.4357 3.42926C37.7206 3.7138 37.9465 4.05173 38.1006 4.42371C38.2547 4.79569 38.3339 5.1944 38.3337 5.59703V36.1337C38.3341 36.5364 38.2551 36.9352 38.1013 37.3074C37.9474 37.6795 37.7217 38.0177 37.437 38.3025C37.1523 38.5874 36.8143 38.8133 36.4422 38.9673C36.0702 39.1214 35.6714 39.2006 35.2687 39.2004H4.73033C4.3279 39.2004 3.92942 39.1211 3.55765 38.967C3.18588 38.813 2.84811 38.5872 2.56363 38.3025C2.27915 38.0179 2.05355 37.68 1.8997 37.3082C1.74585 36.9363 1.66677 36.5378 1.66699 36.1354V5.59703ZM16.1803 16.5137H21.1453V19.007C21.862 17.5737 23.6953 16.2837 26.4503 16.2837C31.732 16.2837 32.9837 19.1387 32.9837 24.377V34.0804H27.6387V25.5704C27.6387 22.587 26.922 20.9037 25.102 20.9037C22.577 20.9037 21.527 22.7187 21.527 25.5704V34.0804H16.1803V16.5137ZM7.01366 33.852H12.3603V16.2837H7.01366V33.8504V33.852ZM13.1253 10.5537C13.1354 11.0115 13.0539 11.4667 12.8857 11.8926C12.7175 12.3184 12.4659 12.7064 12.1457 13.0337C11.8255 13.3611 11.4432 13.6212 11.0211 13.7987C10.599 13.9763 10.1457 14.0677 9.68783 14.0677C9.22993 14.0677 8.77664 13.9763 8.35457 13.7987C7.9325 13.6212 7.55014 13.3611 7.22994 13.0337C6.90974 12.7064 6.65815 12.3184 6.48993 11.8926C6.32171 11.4667 6.24025 11.0115 6.25033 10.5537C6.27011 9.65512 6.64097 8.80001 7.28347 8.17151C7.92597 7.543 8.78903 7.19106 9.68783 7.19106C10.5866 7.19106 11.4497 7.543 12.0922 8.17151C12.7347 8.80001 13.1055 9.65512 13.1253 10.5537Z" fill="#7B3FE4"/>
</svg>
