<svg width="40" height="41" viewBox="0 0 40 41" fill="none" xmlns="http://www.w3.org/2000/svg">
<g clip-path="url(#clip0_204_264)">
<path fill-rule="evenodd" clip-rule="evenodd" d="M40 20.7334C40 31.7784 31.045 40.7334 20 40.7334C8.955 40.7334 0 31.7784 0 20.7334C0 9.6884 8.955 0.733398 20 0.733398C31.045 0.733398 40 9.6884 40 20.7334ZM32.8133 19.1634C33.1367 19.6251 33.32 20.1701 33.34 20.7334C33.3487 21.2845 33.2012 21.8268 32.9145 22.2976C32.6278 22.7683 32.2137 23.1483 31.72 23.3934C31.7433 23.6867 31.7433 23.9801 31.72 24.2734C31.72 28.7534 26.5 32.3934 20.06 32.3934C13.62 32.3934 8.4 28.7534 8.4 24.2734C8.37748 23.9805 8.37748 23.6863 8.4 23.3934C8.01862 23.2149 7.68042 22.9559 7.40865 22.6342C7.13688 22.3126 6.93798 21.9359 6.82562 21.53C6.71327 21.1242 6.69013 20.6988 6.75778 20.2832C6.82544 19.8676 6.98229 19.4715 7.21756 19.1223C7.45282 18.7731 7.76093 18.4789 8.12068 18.26C8.48044 18.0412 8.88332 17.9028 9.30164 17.8545C9.71995 17.8061 10.1438 17.8489 10.544 17.9799C10.9442 18.1109 11.3113 18.327 11.62 18.6134C13.9245 17.0504 16.6358 16.1954 19.42 16.1534L20.9 9.2134C20.9166 9.13305 20.949 9.05681 20.9953 8.98908C21.0416 8.92135 21.1009 8.86349 21.1697 8.81884C21.2386 8.77419 21.3156 8.74365 21.3963 8.72898C21.477 8.71432 21.5599 8.71582 21.64 8.7334L26.54 9.7134C26.7793 9.30227 27.1573 8.9899 27.6061 8.83235C28.055 8.67481 28.5453 8.6824 28.989 8.85377C29.4328 9.02514 29.8009 9.34907 30.0274 9.76741C30.2538 10.1857 30.3237 10.6711 30.2246 11.1363C30.1254 11.6016 29.8637 12.0163 29.4864 12.3059C29.1091 12.5956 28.6408 12.7413 28.1658 12.7168C27.6907 12.6924 27.2399 12.4994 26.8943 12.1726C26.5487 11.8457 26.3309 11.4064 26.28 10.9334L22 10.0334L20.7 16.2734C23.4504 16.3324 26.1248 17.1868 28.4 18.7334C28.7037 18.4414 29.0671 18.2186 29.4651 18.0803C29.8631 17.9421 30.2863 17.8917 30.7056 17.9325C31.125 17.9734 31.5305 18.1046 31.8944 18.317C32.2582 18.5295 32.5717 18.8182 32.8133 19.1634ZM13.6767 21.6217C13.5307 21.8402 13.4291 22.0852 13.3779 22.3429C13.3266 22.6006 13.3266 22.8658 13.3778 23.1235C13.4812 23.6439 13.7872 24.1019 14.2283 24.3967C14.6695 24.6916 15.2097 24.7991 15.7301 24.6956C15.9878 24.6444 16.2328 24.5429 16.4513 24.397C16.6698 24.251 16.8573 24.0635 17.0033 23.8451C17.2982 23.4039 17.4057 22.8637 17.3022 22.3433C17.1988 21.8229 16.8928 21.3649 16.4517 21.0701C16.0105 20.7752 15.4703 20.6677 14.9499 20.7712C14.4295 20.8746 13.9715 21.1806 13.6767 21.6217ZM20.02 29.7734C21.795 29.8467 23.5417 29.3834 24.96 28.3134C25.0661 28.21 25.1267 28.0686 25.1286 27.9205C25.1305 27.7723 25.0734 27.6295 24.97 27.5234C24.9188 27.4709 24.8577 27.4289 24.7903 27.4C24.7229 27.3711 24.6504 27.3557 24.5771 27.3548C24.4289 27.3529 24.2861 27.41 24.18 27.5134C22.9662 28.3841 21.4916 28.8145 20 28.7334C18.5102 28.8 17.0425 28.3554 15.84 27.4734C15.7364 27.3884 15.6048 27.3449 15.4709 27.3515C15.337 27.358 15.2104 27.4142 15.1156 27.509C15.0208 27.6038 14.9646 27.7304 14.9581 27.8643C14.9515 27.9982 14.995 28.1298 15.08 28.2334C16.499 29.3027 18.2448 29.8469 20.02 29.7734ZM23.4883 24.4767C23.8183 24.6967 24.185 24.8934 24.58 24.8934C24.8513 24.8966 25.1203 24.8445 25.3708 24.7403C25.6213 24.6361 25.8479 24.482 26.0369 24.2874C26.2259 24.0928 26.3733 23.8617 26.4701 23.6083C26.5669 23.3549 26.6111 23.0844 26.6 22.8134C26.5999 22.4679 26.5103 22.1284 26.3399 21.8278C26.1695 21.5273 25.9242 21.276 25.6279 21.0985C25.3315 20.9209 24.9942 20.8232 24.6489 20.8147C24.3035 20.8063 23.9618 20.8875 23.6572 21.0503C23.3525 21.2132 23.0952 21.4522 22.9104 21.7441C22.7255 22.0359 22.6194 22.3707 22.6024 22.7157C22.5854 23.0608 22.6581 23.4043 22.8133 23.713C22.9686 24.0216 23.2011 24.2847 23.4883 24.4767Z" fill="#7B3FE4"/>
</g>
<defs>
<clipPath id="clip0_204_264">
<rect width="40" height="40" fill="white" transform="translate(0 0.733398)"/>
</clipPath>
</defs>
</svg>
