<svg width="40" height="41" viewBox="0 0 40 41" fill="none" xmlns="http://www.w3.org/2000/svg">
<path d="M32.2014 9.8701C31.9482 9.73917 31.7018 9.59566 31.4631 9.4401C30.7692 8.9813 30.1329 8.44076 29.568 7.8301C28.153 6.21176 27.6247 4.5701 27.4314 3.42176H27.438C27.2764 2.46676 27.343 1.8501 27.3547 1.8501H20.913V26.7551C20.913 27.0884 20.913 27.4201 20.8997 27.7468C20.8997 27.7868 20.8947 27.8234 20.893 27.8684C20.893 27.8851 20.893 27.9051 20.888 27.9234V27.9384C20.8204 28.8318 20.5342 29.6948 20.0547 30.4516C19.5752 31.2084 18.917 31.8358 18.138 32.2784C17.3254 32.7407 16.4063 32.9832 15.4714 32.9818C12.4714 32.9818 10.038 30.5351 10.038 27.5134C10.038 24.4901 12.4714 22.0434 15.4714 22.0434C16.0397 22.0434 16.6047 22.1334 17.1447 22.3101L17.153 15.7501C15.5131 15.5385 13.847 15.6692 12.2601 16.1339C10.6732 16.5986 9.19983 17.3873 7.93305 18.4501C6.82281 19.4143 5.88936 20.5649 5.17472 21.8501C4.90305 22.3184 3.87638 24.2034 3.75305 27.2601C3.67472 28.9934 4.19638 30.7934 4.44472 31.5351V31.5518C4.59972 31.9884 5.20638 33.4818 6.19305 34.7401C6.98871 35.7501 7.9288 36.6374 8.98305 37.3734V37.3568L8.99805 37.3734C12.1147 39.4901 15.573 39.3518 15.573 39.3518C16.1714 39.3268 18.1764 39.3518 20.453 38.2734C22.978 37.0768 24.4147 35.2951 24.4147 35.2951C25.3332 34.2303 26.0637 33.0168 26.5747 31.7068C27.158 30.1734 27.3514 28.3368 27.3514 27.6034V14.3884C27.4297 14.4351 28.4714 15.1234 28.4714 15.1234C28.4714 15.1234 29.9714 16.0851 32.3097 16.7101C33.9864 17.1551 36.2481 17.2501 36.2481 17.2501V10.8551C35.4564 10.9418 33.848 10.6918 32.1997 9.87177L32.2014 9.8701Z" fill="#7B3FE4"/>
</svg>
