<svg width="40" height="41" viewBox="0 0 40 41" fill="none" xmlns="http://www.w3.org/2000/svg">
<path d="M39.4049 9.095C38.0132 9.71166 36.5182 10.1283 34.9465 10.3167C36.5682 9.34632 37.7814 7.81911 38.3599 6.02C36.8363 6.92498 35.1688 7.56199 33.4299 7.90333C32.2605 6.65477 30.7116 5.82721 29.0237 5.54912C27.3358 5.27103 25.6034 5.55798 24.0953 6.36542C22.5872 7.17285 21.3878 8.4556 20.6834 10.0145C19.9791 11.5734 19.8091 13.3212 20.1999 14.9867C17.1127 14.8317 14.0926 14.0292 11.3356 12.6315C8.57856 11.2338 6.14626 9.27193 4.19652 6.87333C3.52986 8.02333 3.14652 9.35667 3.14652 10.7767C3.14578 12.055 3.46058 13.3137 4.06299 14.4412C4.6654 15.5687 5.53679 16.5301 6.59986 17.24C5.36698 17.2008 4.16131 16.8676 3.08319 16.2683V16.3683C3.08307 18.1612 3.70324 19.899 4.8385 21.2867C5.97375 22.6744 7.55414 23.6265 9.31152 23.9817C8.16783 24.2912 6.96875 24.3368 5.80486 24.115C6.30069 25.6577 7.26652 27.0067 8.56714 27.9732C9.86775 28.9397 11.4381 29.4753 13.0582 29.505C10.3079 31.664 6.91134 32.8351 3.41486 32.83C2.79549 32.8302 2.17665 32.794 1.56152 32.7217C5.11065 35.0036 9.24209 36.2147 13.4615 36.21C27.7449 36.21 35.5532 24.38 35.5532 14.12C35.5532 13.7867 35.5449 13.45 35.5299 13.1167C37.0487 12.0183 38.3597 10.6582 39.4015 9.1L39.4049 9.095Z" fill="#7B3FE4"/>
</svg>
