<svg width="40" height="41" viewBox="0 0 40 41" fill="none" xmlns="http://www.w3.org/2000/svg">
<g clip-path="url(#clip0_204_1301)">
<path d="M39.1667 11.5782C38.9402 10.7703 38.499 10.0388 37.8901 9.46153C37.2639 8.86654 36.4964 8.44093 35.6601 8.22487C32.5301 7.39987 19.9901 7.39987 19.9901 7.39987C14.7623 7.34039 9.53577 7.60199 4.34005 8.1832C3.5037 8.41522 2.73766 8.85034 2.11005 9.44987C1.49339 10.0432 1.04672 10.7749 0.813385 11.5765C0.252874 14.5961 -0.0194612 17.6621 5.20763e-05 20.7332C-0.0199479 23.8015 0.251719 26.8665 0.813385 29.8899C1.04172 30.6882 1.48672 31.4165 2.10505 32.0049C2.72339 32.5932 3.49339 33.0182 4.34005 33.2432C7.51172 34.0665 19.9901 34.0665 19.9901 34.0665C25.2245 34.1261 30.4577 33.8645 35.6601 33.2832C36.4964 33.0671 37.2639 32.6415 37.8901 32.0465C38.4988 31.4694 38.9395 30.7378 39.1651 29.9299C39.7402 26.9115 40.0199 23.8442 40.0001 20.7715C40.0433 17.6859 39.764 14.6041 39.1667 11.5765V11.5782ZM16.0034 26.4399V15.0282L26.4367 20.7349L16.0034 26.4399Z" fill="#7B3FE4"/>
</g>
<defs>
<clipPath id="clip0_204_1301">
<rect width="40" height="40" fill="white" transform="translate(0 0.733398)"/>
</clipPath>
</defs>
</svg>
