<svg width="64" height="64" viewBox="0 0 64 64" fill="none" xmlns="http://www.w3.org/2000/svg">
<g clip-path="url(#clip0_600_369)">
<path d="M54.1799 11.9788C50.0999 10.1388 45.7266 8.77876 41.1533 8.00543C41.1125 7.99761 41.0704 8.00265 41.0326 8.01985C40.9949 8.03704 40.9634 8.06555 40.9426 8.10143C40.3826 9.08543 39.7586 10.3681 39.3213 11.3814C34.4709 10.6567 29.5397 10.6567 24.6893 11.3814C24.2022 10.2584 23.6529 9.16336 23.0439 8.10143C23.0233 8.06511 22.9921 8.03596 22.9544 8.01785C22.9168 7.99975 22.8745 7.99355 22.8333 8.00009C18.2626 8.77343 13.8893 10.1334 9.80662 11.9761C9.77149 11.9908 9.74171 12.0159 9.72128 12.0481C1.42262 24.2481 -0.852052 36.1468 0.265282 47.8961C0.268391 47.9249 0.277323 47.9527 0.291535 47.9779C0.305747 48.0031 0.32494 48.0252 0.347948 48.0428C5.19166 51.5692 10.5942 54.2556 16.3293 55.9894C16.3693 56.0017 16.412 56.0017 16.452 55.9893C16.4919 55.977 16.5272 55.9528 16.5533 55.9201C17.7874 54.2696 18.881 52.5186 19.8226 50.6854C19.8357 50.6604 19.8432 50.6328 19.8447 50.6046C19.8462 50.5763 19.8416 50.5481 19.8312 50.5218C19.8209 50.4955 19.805 50.4718 19.7846 50.4521C19.7643 50.4325 19.7399 50.4175 19.7133 50.4081C17.9906 49.7594 16.3215 48.9765 14.7213 48.0668C14.6925 48.0503 14.6683 48.0271 14.6508 47.999C14.6332 47.9709 14.623 47.9389 14.6208 47.9058C14.6187 47.8728 14.6248 47.8398 14.6387 47.8097C14.6525 47.7796 14.6735 47.7534 14.6999 47.7334C15.0359 47.4854 15.3719 47.2268 15.6919 46.9681C15.7208 46.9448 15.7554 46.93 15.7922 46.9253C15.8289 46.9206 15.8662 46.9262 15.8999 46.9414C26.3719 51.6454 37.7133 51.6454 48.0626 46.9414C48.0965 46.9253 48.1341 46.919 48.1714 46.9232C48.2086 46.9275 48.2439 46.9421 48.2733 46.9654C48.5933 47.2268 48.9266 47.4854 49.2653 47.7334C49.292 47.753 49.3134 47.7788 49.3276 47.8086C49.3419 47.8385 49.3485 47.8714 49.3469 47.9044C49.3453 47.9374 49.3356 47.9695 49.3185 47.9979C49.3015 48.0262 49.2777 48.0499 49.2493 48.0668C47.6546 48.9841 45.9959 49.7601 44.2546 50.4054C44.2279 50.4151 44.2035 50.4304 44.1832 50.4503C44.1628 50.4702 44.1469 50.4942 44.1366 50.5207C44.1262 50.5472 44.1216 50.5756 44.1231 50.604C44.1246 50.6324 44.1322 50.6602 44.1453 50.6854C45.1053 52.5174 46.2039 54.2614 47.4119 55.9174C47.4371 55.9514 47.4721 55.9768 47.5121 55.9902C47.5522 56.0035 47.5955 56.0042 47.636 55.9921C53.3809 54.2631 58.7922 51.5755 63.6413 48.0428C63.6649 48.0262 63.6848 48.0048 63.6995 47.98C63.7142 47.9552 63.7235 47.9275 63.7266 47.8988C65.0599 34.3148 61.4919 22.5121 54.2626 12.0534C54.2449 12.0194 54.2156 11.9929 54.1799 11.9788ZM21.388 40.7414C18.236 40.7414 15.6359 37.8908 15.6359 34.3948C15.6359 30.8961 18.1853 28.0481 21.388 28.0481C24.6146 28.0481 27.1906 30.9201 27.1399 34.3948C27.1399 37.8934 24.5906 40.7414 21.388 40.7414V40.7414ZM42.6546 40.7414C39.4999 40.7414 36.9026 37.8908 36.9026 34.3948C36.9026 30.8961 39.4493 28.0481 42.6546 28.0481C45.8813 28.0481 48.4573 30.9201 48.4066 34.3948C48.4066 37.8934 45.8839 40.7414 42.6546 40.7414V40.7414Z" fill="#7B3FE4"/>
</g>
<defs>
<clipPath id="clip0_600_369">
<rect width="64" height="64" fill="white"/>
</clipPath>
</defs>
</svg>
