<svg width="64" height="64" viewBox="0 0 64 64" fill="none" xmlns="http://www.w3.org/2000/svg">
<path fill-rule="evenodd" clip-rule="evenodd" d="M19.907 2.84348C23.035 2.69948 24.0323 2.66748 32.0003 2.66748C39.9683 2.66748 40.9657 2.70215 44.091 2.84348C47.2163 2.98481 49.3497 3.48348 51.2163 4.20615C53.171 4.94481 54.9443 6.09948 56.411 7.59281C57.9043 9.05681 59.0563 10.8275 59.7923 12.7848C60.5177 14.6515 61.0137 16.7848 61.1577 19.9048C61.3017 23.0381 61.3337 24.0355 61.3337 32.0008C61.3337 39.9688 61.299 40.9661 61.1577 44.0941C61.0163 47.2141 60.5177 49.3475 59.7923 51.2141C59.0563 53.1717 57.9024 54.9453 56.411 56.4115C54.9443 57.9048 53.171 59.0568 51.2163 59.7928C49.3497 60.5182 47.2163 61.0141 44.0963 61.1581C40.9657 61.3021 39.9683 61.3341 32.0003 61.3341C24.0323 61.3341 23.035 61.2995 19.907 61.1581C16.787 61.0168 14.6537 60.5182 12.787 59.7928C10.8294 59.0567 9.05585 57.9028 7.58966 56.4115C6.09734 54.9466 4.9425 53.1738 4.20566 51.2168C3.48299 49.3501 2.98699 47.2168 2.84299 44.0968C2.69899 40.9635 2.66699 39.9661 2.66699 32.0008C2.66699 24.0328 2.70166 23.0355 2.84299 19.9101C2.98433 16.7848 3.48299 14.6515 4.20566 12.7848C4.94359 10.8277 6.09931 9.05498 7.59233 7.59015C9.05643 6.09815 10.8283 4.94333 12.7843 4.20615C14.651 3.48348 16.7843 2.98748 19.9043 2.84348H19.907ZM43.8537 8.12348C40.7603 7.98215 39.8323 7.95281 32.0003 7.95281C24.1683 7.95281 23.2403 7.98215 20.147 8.12348C17.2857 8.25415 15.7337 8.73148 14.699 9.13415C13.331 9.66748 12.3523 10.2995 11.3257 11.3261C10.3524 12.273 9.60347 13.4256 9.13366 14.6995C8.73099 15.7341 8.25366 17.2861 8.12299 20.1475C7.98166 23.2408 7.95233 24.1688 7.95233 32.0008C7.95233 39.8328 7.98166 40.7608 8.12299 43.8541C8.25366 46.7155 8.73099 48.2675 9.13366 49.3022C9.60299 50.5742 10.3523 51.7288 11.3257 52.6755C12.2723 53.6488 13.427 54.3982 14.699 54.8675C15.7337 55.2702 17.2857 55.7475 20.147 55.8781C23.2403 56.0195 24.1657 56.0488 32.0003 56.0488C39.835 56.0488 40.7603 56.0195 43.8537 55.8781C46.715 55.7475 48.267 55.2702 49.3017 54.8675C50.6697 54.3342 51.6483 53.7021 52.675 52.6755C53.6483 51.7288 54.3977 50.5742 54.867 49.3022C55.2697 48.2675 55.747 46.7155 55.8777 43.8541C56.019 40.7608 56.0483 39.8328 56.0483 32.0008C56.0483 24.1688 56.019 23.2408 55.8777 20.1475C55.747 17.2861 55.2697 15.7341 54.867 14.6995C54.3337 13.3315 53.7017 12.3528 52.675 11.3261C51.7281 10.353 50.5755 9.60404 49.3017 9.13415C48.267 8.73148 46.715 8.25415 43.8537 8.12348V8.12348ZM28.2537 41.0435C30.3461 41.9145 32.676 42.0321 34.8455 41.3761C37.0149 40.7201 38.8894 39.3313 40.1486 37.4468C41.4079 35.5623 41.9738 33.2991 41.7498 31.0438C41.5258 28.7884 40.5257 26.6807 38.9203 25.0808C37.897 24.0581 36.6596 23.275 35.2972 22.7879C33.9349 22.3008 32.4815 22.1218 31.0416 22.2638C29.6018 22.4058 28.2114 22.8653 26.9705 23.6092C25.7295 24.353 24.669 25.3628 23.8651 26.5658C23.0613 27.7687 22.5342 29.1349 22.3217 30.566C22.1092 31.9972 22.2167 33.4576 22.6364 34.8422C23.0561 36.2268 23.7776 37.5011 24.7489 38.5734C25.7202 39.6457 26.9172 40.4893 28.2537 41.0435ZM21.339 21.3395C22.7391 19.9394 24.4012 18.8288 26.2305 18.0711C28.0597 17.3134 30.0203 16.9234 32.0003 16.9234C33.9803 16.9234 35.9409 17.3134 37.7702 18.0711C39.5995 18.8288 41.2616 19.9394 42.6617 21.3395C44.0617 22.7395 45.1723 24.4017 45.93 26.2309C46.6877 28.0602 47.0777 30.0208 47.0777 32.0008C47.0777 33.9808 46.6877 35.9414 45.93 37.7707C45.1723 39.6 44.0617 41.2621 42.6617 42.6621C39.8341 45.4897 35.9991 47.0782 32.0003 47.0782C28.0016 47.0782 24.1666 45.4897 21.339 42.6621C18.5114 39.8346 16.9229 35.9996 16.9229 32.0008C16.9229 28.002 18.5114 24.167 21.339 21.3395V21.3395ZM50.4217 19.1688C50.7686 18.8415 51.0464 18.448 51.2385 18.0114C51.4306 17.5749 51.5332 17.1042 51.5401 16.6273C51.5471 16.1504 51.4583 15.6769 51.2789 15.235C51.0996 14.793 50.8335 14.3915 50.4962 14.0543C50.159 13.717 49.7575 13.4508 49.3155 13.2715C48.8735 13.0922 48.4001 13.0034 47.9232 13.0104C47.4463 13.0173 46.9756 13.1199 46.5391 13.312C46.1025 13.5041 45.7089 13.7819 45.3817 14.1288C44.7452 14.8036 44.3967 15.6998 44.4102 16.6273C44.4237 17.5548 44.7982 18.4405 45.4541 19.0964C46.11 19.7523 46.9957 20.1268 47.9232 20.1403C48.8507 20.1538 49.7469 19.8053 50.4217 19.1688V19.1688Z" fill="#7B3FE4"/>
</svg>
