<svg width="64" height="64" viewBox="0 0 64 64" fill="none" xmlns="http://www.w3.org/2000/svg">
<path fill-rule="evenodd" clip-rule="evenodd" d="M2.66699 7.56833C2.66699 6.26842 3.18338 5.02174 4.10256 4.10257C5.02174 3.18339 6.26841 2.667 7.56833 2.667H56.427C57.0712 2.66595 57.7093 2.79197 58.3047 3.03784C58.9001 3.28372 59.4412 3.64462 59.897 4.0999C60.3528 4.55517 60.7143 5.09586 60.9608 5.69103C61.2073 6.28619 61.334 6.92413 61.3337 7.56833V56.427C61.3344 57.0713 61.208 57.7095 60.9618 58.3049C60.7157 58.9004 60.3545 59.4414 59.899 59.8972C59.4436 60.3529 58.9027 60.7143 58.3074 60.9608C57.7121 61.2073 57.074 61.334 56.4297 61.3337H7.56833C6.92445 61.3337 6.28688 61.2068 5.69205 60.9603C5.09722 60.7138 4.55678 60.3526 4.10162 59.8972C3.64645 59.4417 3.28548 58.9011 3.03932 58.3061C2.79316 57.7112 2.66664 57.0735 2.66699 56.4297V7.56833ZM25.8883 25.035H33.8323V29.0243C34.979 26.731 37.9123 24.667 42.3203 24.667C50.771 24.667 52.7737 29.235 52.7737 37.6163V53.1417H44.2217V39.5257C44.2217 34.7523 43.075 32.059 40.163 32.059C36.123 32.059 34.443 34.963 34.443 39.5257V53.1417H25.8883V25.035ZM11.2217 52.7763H19.7763V24.667H11.2217V52.7737V52.7763ZM21.0003 15.499C21.0165 16.2315 20.8861 16.9598 20.617 17.6412C20.3478 18.3226 19.9453 18.9434 19.4329 19.4671C18.9206 19.9908 18.3089 20.4069 17.6335 20.691C16.9582 20.9751 16.233 21.1214 15.5003 21.1214C14.7677 21.1214 14.0424 20.9751 13.3671 20.691C12.6918 20.4069 12.08 19.9908 11.5677 19.4671C11.0554 18.9434 10.6528 18.3226 10.3837 17.6412C10.1145 16.9598 9.9842 16.2315 10.0003 15.499C10.032 14.0613 10.6254 12.6931 11.6534 11.6875C12.6814 10.6819 14.0623 10.1188 15.5003 10.1188C16.9384 10.1188 18.3193 10.6819 19.3473 11.6875C20.3753 12.6931 20.9687 14.0613 21.0003 15.499V15.499Z" fill="#7B3FE4"/>
</svg>
