<svg width="64" height="64" viewBox="0 0 64 64" fill="none" xmlns="http://www.w3.org/2000/svg">
<g clip-path="url(#clip0_600_418)">
<path fill-rule="evenodd" clip-rule="evenodd" d="M64 32C64 49.672 49.672 64 32 64C14.328 64 0 49.672 0 32C0 14.328 14.328 0 32 0C49.672 0 64 14.328 64 32ZM52.5013 29.488C53.0187 30.2267 53.312 31.0987 53.344 32C53.358 32.8818 53.1219 33.7495 52.6632 34.5027C52.2045 35.2559 51.5419 35.8638 50.752 36.256C50.7893 36.7253 50.7893 37.1947 50.752 37.664C50.752 44.832 42.4 50.656 32.096 50.656C21.792 50.656 13.44 44.832 13.44 37.664C13.404 37.1954 13.404 36.7246 13.44 36.256C12.8298 35.9704 12.2887 35.556 11.8538 35.0413C11.419 34.5267 11.1008 33.9239 10.921 33.2746C10.7412 32.6253 10.7042 31.9447 10.8125 31.2797C10.9207 30.6147 11.1717 29.981 11.5481 29.4222C11.9245 28.8634 12.4175 28.3928 12.9931 28.0426C13.5687 27.6924 14.2133 27.4711 14.8826 27.3937C15.5519 27.3163 16.23 27.3848 16.8704 27.5944C17.5107 27.804 18.098 28.1498 18.592 28.608C22.2793 26.1073 26.6172 24.7392 31.072 24.672L33.44 13.568C33.4666 13.4395 33.5184 13.3175 33.5925 13.2091C33.6666 13.1007 33.7615 13.0081 33.8716 12.9367C33.9817 12.8653 34.1049 12.8164 34.2341 12.7929C34.3633 12.7695 34.4958 12.7719 34.624 12.8L42.464 14.368C42.8469 13.7102 43.4517 13.2104 44.1698 12.9583C44.888 12.7063 45.6725 12.7184 46.3825 12.9926C47.0925 13.2668 47.6815 13.7851 48.0438 14.4544C48.4061 15.1238 48.518 15.9003 48.3594 16.6447C48.2007 17.3891 47.7819 18.0526 47.1782 18.516C46.5745 18.9795 45.8253 19.2126 45.0652 19.1735C44.3051 19.1344 43.5838 18.8256 43.0309 18.3027C42.4779 17.7797 42.1294 17.0767 42.048 16.32L35.2 14.88L33.12 24.864C37.5207 24.9584 41.7998 26.3255 45.44 28.8C45.926 28.3328 46.5073 27.9763 47.1441 27.7551C47.7809 27.5339 48.4581 27.4532 49.129 27.5186C49.8 27.584 50.4488 27.7939 51.031 28.1338C51.6131 28.4738 52.1147 28.9358 52.5013 29.488V29.488ZM21.8827 33.4213C21.6491 33.7708 21.4866 34.1629 21.4046 34.5752C21.3225 34.9875 21.3225 35.4118 21.4044 35.8241C21.57 36.6568 22.0595 37.3896 22.7653 37.8613C23.4712 38.3331 24.3355 38.5051 25.1681 38.3396C25.5804 38.2576 25.9725 38.0952 26.3221 37.8617C26.6716 37.6282 26.9718 37.3282 27.2053 36.9787C27.6771 36.2728 27.8491 35.4085 27.6836 34.5759C27.518 33.7432 27.0285 33.0104 26.3227 32.5387C25.6168 32.0669 24.7525 31.8949 23.9199 32.0604C23.0872 32.226 22.3544 32.7155 21.8827 33.4213ZM32.032 46.464C34.872 46.5813 37.6667 45.84 39.936 44.128C40.1057 43.9625 40.2028 43.7364 40.2058 43.4993C40.2088 43.2623 40.1175 43.0337 39.952 42.864C39.8701 42.78 39.7724 42.7129 39.6645 42.6666C39.5566 42.6203 39.4407 42.5957 39.3233 42.5942C39.0863 42.5912 38.8577 42.6825 38.688 42.848C36.7459 44.2412 34.3866 44.9298 32 44.8C29.6164 44.9065 27.2679 44.1952 25.344 42.784C25.1782 42.6479 24.9677 42.5784 24.7535 42.5889C24.5393 42.5994 24.3366 42.6893 24.1849 42.8409C24.0333 42.9926 23.9434 43.1953 23.9329 43.4095C23.9224 43.6237 23.9919 43.8342 24.128 44C26.3983 45.7109 29.1916 46.5817 32.032 46.464V46.464ZM37.5813 37.9893C38.1093 38.3413 38.696 38.656 39.328 38.656C39.762 38.6611 40.1925 38.5777 40.5933 38.411C40.994 38.2443 41.3567 37.9978 41.659 37.6864C41.9614 37.375 42.1973 37.0054 42.3522 36.5999C42.5071 36.1944 42.5778 35.7617 42.56 35.328C42.5598 34.7753 42.4164 34.232 42.1438 33.7511C41.8712 33.2703 41.4787 32.8682 41.0046 32.5841C40.5304 32.3001 39.9908 32.1437 39.4382 32.1301C38.8856 32.1166 38.3389 32.2465 37.8515 32.5071C37.364 32.7677 36.9523 33.1501 36.6566 33.617C36.3608 34.084 36.1911 34.6196 36.1639 35.1717C36.1367 35.7238 36.2529 36.2735 36.5014 36.7673C36.7498 37.2611 37.1218 37.6821 37.5813 37.9893V37.9893Z" fill="#7B3FE4"/>
</g>
<defs>
<clipPath id="clip0_600_418">
<rect width="64" height="64" fill="white"/>
</clipPath>
</defs>
</svg>
