<svg width="64" height="64" viewBox="0 0 64 64" fill="none" xmlns="http://www.w3.org/2000/svg">
<path d="M51.5222 14.832C51.1172 14.6225 50.7229 14.3929 50.3409 14.144C49.2306 13.4099 48.2127 12.5451 47.3089 11.568C45.0449 8.97867 44.1995 6.352 43.8902 4.51467H43.9009C43.6422 2.98667 43.7489 2 43.7675 2H33.4609V41.848C33.4609 42.3813 33.4609 42.912 33.4395 43.4347C33.4395 43.4987 33.4315 43.5573 33.4289 43.6293C33.4289 43.656 33.4289 43.688 33.4209 43.7173V43.7413C33.3126 45.1707 32.8548 46.5516 32.0875 47.7625C31.3203 48.9733 30.2672 49.9771 29.0209 50.6853C27.7207 51.425 26.2501 51.8129 24.7542 51.8107C19.9542 51.8107 16.0609 47.896 16.0609 43.0613C16.0609 38.224 19.9542 34.3093 24.7542 34.3093C25.6635 34.3093 26.5675 34.4533 27.4315 34.736L27.4449 24.24C24.8209 23.9015 22.1553 24.1106 19.6162 24.8541C17.0771 25.5977 14.7197 26.8595 12.6929 28.56C10.9165 30.1028 9.42297 31.9437 8.27955 34C7.84488 34.7493 6.20221 37.7653 6.00488 42.656C5.87955 45.4293 6.71421 48.3093 7.11155 49.496V49.5227C7.35955 50.2213 8.33021 52.6107 9.90888 54.624C11.1819 56.24 12.6861 57.6597 14.3729 58.8373V58.8107L14.3969 58.8373C19.3835 62.224 24.9169 62.0027 24.9169 62.0027C25.8742 61.9627 29.0822 62.0027 32.7249 60.2773C36.7649 58.3627 39.0635 55.512 39.0635 55.512C40.5332 53.8083 41.7019 51.8668 42.5195 49.7707C43.4529 47.3173 43.7622 44.3787 43.7622 43.2053V22.0613C43.8875 22.136 45.5542 23.2373 45.5542 23.2373C45.5542 23.2373 47.9542 24.776 51.6955 25.776C54.3782 26.488 57.9969 26.64 57.9969 26.64V16.408C56.7302 16.5467 54.1569 16.1467 51.5195 14.8347L51.5222 14.832Z" fill="#7B3FE4"/>
</svg>
