<svg width="64" height="64" viewBox="0 0 64 64" fill="none" xmlns="http://www.w3.org/2000/svg">
<g clip-path="url(#clip0_600_425)">
<path d="M62.6664 17.3519C62.304 16.0592 61.5981 14.8888 60.6237 13.9652C59.6218 13.0132 58.3938 12.3322 57.0557 11.9865C52.0477 10.6665 31.9837 10.6665 31.9837 10.6665C23.6192 10.5714 15.2568 10.9899 6.94369 11.9199C5.60553 12.2911 4.37986 12.9873 3.37569 13.9465C2.38903 14.8959 1.67436 16.0665 1.30103 17.3492C0.404207 22.1805 -0.0315286 27.0861 -0.000307303 31.9999C-0.0323073 36.9092 0.402359 41.8132 1.30103 46.6505C1.66636 47.9279 2.37836 49.0932 3.36769 50.0345C4.35703 50.9759 5.58903 51.6559 6.94369 52.0159C12.0184 53.3332 31.9837 53.3332 31.9837 53.3332C40.3588 53.4285 48.7319 53.0099 57.0557 52.0799C58.3938 51.7342 59.6218 51.0532 60.6237 50.1012C61.5977 49.1778 62.3028 48.0073 62.6637 46.7145C63.5839 41.8851 64.0314 36.9775 63.9997 32.0612C64.0689 27.1242 63.622 22.1934 62.6664 17.3492V17.3519ZM25.605 41.1305V22.8719L42.2984 32.0025L25.605 41.1305Z" fill="#7B3FE4"/>
</g>
<defs>
<clipPath id="clip0_600_425">
<rect width="64" height="64" fill="white"/>
</clipPath>
</defs>
</svg>
