<svg width="600" height="600" viewBox="0 0 600 600" fill="none" xmlns="http://www.w3.org/2000/svg">
<g filter="url(#filter0_d_16_1602)">
<path d="M298.333 353.307L514.093 260.042L369.747 192.479C372.658 184.885 375.101 177.13 377.075 169.239C383.288 144.635 386.408 119.354 386.356 93.9737V85.0049L377.96 88.2237C337.862 103.693 304.335 71.6824 302.944 70.2917L298.522 66L294.1 70.3593C294.1 70.677 259.371 103.761 219.084 88.2287L210.689 85.0099V93.9787V93.9734C210.512 119.333 213.501 144.619 219.59 169.239C221.569 177.062 224.017 184.76 226.913 192.291L82.5659 260.04L298.333 353.307ZM298.333 83.4271C309.13 92.2031 338.303 111.968 373.599 103C372.594 132.995 364.255 232.386 298.333 251.707C232.473 232.764 224.079 132.994 223.068 103C258.365 112.026 287.537 92.2035 298.333 83.4217V83.4271ZM250.281 233.907L215.109 251.964C208.625 245.725 198.636 244.912 191.224 250.022C183.813 255.131 181.021 264.756 184.547 273.043C188.078 281.324 196.948 285.981 205.771 284.179C214.594 282.377 220.927 274.611 220.922 265.605V263.334L259.567 243.506H259.562C270.098 253.465 282.942 260.652 296.947 264.408L298.588 264.85L300.228 264.408C314.228 260.653 327.078 253.465 337.608 243.506L375.999 263.334V265.605C375.994 274.61 382.327 282.376 391.15 284.179C399.973 285.981 408.843 281.324 412.374 273.043C415.9 264.757 413.108 255.131 405.697 250.022C398.285 244.912 388.301 245.725 381.811 251.964L346.639 233.907C354.098 224.86 360.322 214.855 365.139 204.167L483.347 259.604L298.334 339.735L113.321 259.604L231.779 204.162V204.167C236.602 214.854 242.821 224.86 250.279 233.907L250.281 233.907ZM208.292 265.48C208.292 268.965 205.464 271.793 201.98 271.793C198.49 271.793 195.662 268.965 195.662 265.48C195.662 261.991 198.49 259.163 201.98 259.163C205.464 259.163 208.292 261.991 208.292 265.48ZM388.385 265.48C388.385 262.928 389.922 260.621 392.281 259.647C394.641 258.668 397.359 259.21 399.162 261.017C400.969 262.819 401.51 265.538 400.531 267.897C399.557 270.256 397.25 271.793 394.698 271.793C391.26 271.793 388.453 269.043 388.385 265.605V265.48Z" fill="white"/>
<path d="M342.094 138.547L331.614 131.542L297.01 183.001L274.469 164.375L266.386 174.099L299.662 201.63L342.094 138.547Z" fill="white"/>
<path d="M398.441 325.156V394.234L374.259 405.599L299.805 369.927L224.983 405.604L201.176 394.427V324.968L119.088 285.88L37 324.968L37.0052 412.484L119.093 451.635L201.181 412.484L201.176 408.505L217.723 416.146V496.4L299.811 535.489L381.899 496.4L381.893 416.146L398.44 408.505V412.797L480.528 451.948L562.616 412.797L562.611 325.157L480.523 286.069L398.441 325.156ZM179.135 328.692L119.968 355.593L58.088 329.26L119.276 300.088L179.135 328.692ZM50.004 339.551L113.149 366.322V434.582L50.004 404.525V339.551ZM188.537 404.53L125.392 434.587L125.397 366.894L188.543 338.29V388.487L161.136 375.857V389.56L188.543 402.19L188.537 404.53ZM360.791 413.118L298.911 439.452L239.681 412.55L299.796 383.941L360.791 413.118ZM230.337 422.145L293.483 450.749V518.442L230.337 488.385V422.145ZM306.113 518.442V450.182L369.259 423.411L369.253 488.385L306.113 518.442ZM541.7 329.015L479.82 355.348L420.653 328.447L480.513 299.843L541.7 329.015ZM411.055 402.198L443.008 387.171V373.275L411.055 388.306V338.295L474.2 366.899V434.587L411.055 404.53V402.198ZM486.825 434.526L486.831 366.332L549.976 339.562L549.971 404.535L486.825 434.526Z" fill="white"/>
</g>
<defs>
<filter id="filter0_d_16_1602" x="12" y="51" width="565.616" height="509.489" filterUnits="userSpaceOnUse" color-interpolation-filters="sRGB">
<feFlood flood-opacity="0" result="BackgroundImageFix"/>
<feColorMatrix in="SourceAlpha" type="matrix" values="0 0 0 0 0 0 0 0 0 0 0 0 0 0 0 0 0 0 127 0" result="hardAlpha"/>
<feOffset dx="-5" dy="5"/>
<feGaussianBlur stdDeviation="10"/>
<feComposite in2="hardAlpha" operator="out"/>
<feColorMatrix type="matrix" values="0 0 0 0 0 0 0 0 0 0 0 0 0 0 0 0 0 0 0.4 0"/>
<feBlend mode="normal" in2="BackgroundImageFix" result="effect1_dropShadow_16_1602"/>
<feBlend mode="normal" in="SourceGraphic" in2="effect1_dropShadow_16_1602" result="shape"/>
</filter>
</defs>
</svg>
