<svg width="600" height="600" viewBox="0 0 600 600" fill="none" xmlns="http://www.w3.org/2000/svg">
<g filter="url(#filter0_d_16_1615)">
<path d="M376.106 186.68H401.361V199.31H376.106V186.68Z" fill="white"/>
<path d="M325.6 186.68H350.855V199.31H325.6V186.68Z" fill="white"/>
<path d="M275.08 186.68H300.335V199.31H275.08V186.68Z" fill="white"/>
<path d="M224.56 186.68H249.815V199.31H224.56V186.68Z" fill="white"/>
<path d="M186.68 199.307H199.31V224.561H186.68V199.307Z" fill="white"/>
<path d="M186.68 249.813H199.31V275.068H186.68V249.813Z" fill="white"/>
<path d="M186.68 300.333H199.31V325.588H186.68V300.333Z" fill="white"/>
<path d="M186.68 350.853H199.31V376.108H186.68V350.853Z" fill="white"/>
<path d="M199.307 401.36H224.561V413.99H199.307V401.36Z" fill="white"/>
<path d="M249.813 401.36H275.068V413.99H249.813V401.36Z" fill="white"/>
<path d="M300.333 401.36H325.588V413.99H300.333V401.36Z" fill="white"/>
<path d="M350.853 401.36H376.108V413.99H350.853V401.36Z" fill="white"/>
<path d="M401.36 376.107H413.99V401.361H401.36V376.107Z" fill="white"/>
<path d="M401.36 325.6H413.99V350.855H401.36V325.6Z" fill="white"/>
<path d="M401.36 275.08H413.99V300.335H401.36V275.08Z" fill="white"/>
<path d="M401.36 224.56H413.99V249.815H401.36V224.56Z" fill="white"/>
<path d="M213.2 387.48H387.48V213.2H213.2V387.48ZM225.83 292.761C242.69 291.751 293.71 292.761 316.694 337.907L316.689 337.912C306.585 348.464 298.855 361.057 294.022 374.849H225.825L225.83 292.761ZM307.538 374.849H307.533C312.699 360.876 321.809 348.699 333.757 339.803C345.705 330.902 359.981 325.663 374.845 324.715V374.851L307.538 374.849ZM374.845 225.823V311.891C357.287 312.578 340.361 318.641 326.35 329.255C300.334 281.771 245.402 279.369 225.823 280.192V225.823H374.845Z" fill="white"/>
<path d="M337.026 295.027C344.063 295.027 350.808 292.235 355.781 287.261C360.754 282.287 363.547 275.537 363.547 268.506C363.547 261.475 360.755 254.725 355.781 249.752C350.807 244.783 344.062 241.986 337.026 241.986C329.995 241.986 323.25 244.783 318.277 249.752C313.303 254.726 310.506 261.476 310.506 268.506C310.522 275.538 313.324 282.272 318.293 287.241C323.262 292.21 330.001 295.012 337.027 295.027L337.026 295.027ZM337.026 254.615C342.646 254.615 347.714 258 349.86 263.188C352.011 268.38 350.823 274.354 346.849 278.328C342.875 282.302 336.902 283.489 331.713 281.338C326.521 279.187 323.135 274.124 323.135 268.505C323.172 260.848 329.37 254.645 337.026 254.614L337.026 254.615Z" fill="white"/>
<path d="M306.653 487.493V429.78H294.023V487.493C286.018 489.561 279.534 495.415 276.659 503.165C273.784 510.915 274.883 519.587 279.602 526.373C284.326 533.16 292.07 537.207 300.336 537.207C308.607 537.207 316.352 533.16 321.071 526.373C325.795 519.587 326.894 510.915 324.019 503.165C321.144 495.416 314.66 489.561 306.655 487.493H306.653ZM300.336 524.493C295.231 524.493 290.627 521.42 288.669 516.701C286.716 511.983 287.794 506.55 291.408 502.936C295.018 499.327 300.45 498.244 305.169 500.202C309.887 502.155 312.965 506.759 312.965 511.868C312.965 515.217 311.637 518.426 309.268 520.795C306.898 523.165 303.684 524.493 300.335 524.493L300.336 524.493Z" fill="white"/>
<path d="M403.453 457.76C397.87 457.776 392.448 459.645 388.037 463.073C383.626 466.5 380.48 471.291 379.084 476.703H368.537C365.047 476.703 362.225 473.875 362.225 470.385V429.787H349.594V470.391V470.386C349.594 480.849 358.073 489.334 368.537 489.334H379.084C380.667 495.464 384.495 500.781 389.818 504.224C395.136 507.662 401.553 508.979 407.797 507.912C414.042 506.844 419.656 503.464 423.532 498.453C427.401 493.438 429.245 487.151 428.698 480.839C428.151 474.526 425.256 468.651 420.579 464.375C415.901 460.099 409.792 457.739 403.453 457.76L403.453 457.76ZM403.453 495.645C398.349 495.645 393.739 492.567 391.786 487.848C389.833 483.13 390.911 477.697 394.526 474.088C398.135 470.474 403.568 469.396 408.286 471.349C413.005 473.302 416.083 477.906 416.083 483.015C416.083 486.364 414.755 489.578 412.385 491.948C410.015 494.312 406.802 495.646 403.453 495.646L403.453 495.645Z" fill="white"/>
<path d="M238.453 470.387C238.453 472.064 237.787 473.668 236.604 474.855C235.422 476.038 233.812 476.704 232.141 476.704H221.594C219.526 468.699 213.672 462.21 205.922 459.335C198.172 456.46 189.5 457.564 182.714 462.283C175.927 467.007 171.88 474.752 171.88 483.018C171.88 491.288 175.927 499.028 182.714 503.752C189.5 508.476 198.172 509.575 205.922 506.7C213.671 503.825 219.526 497.341 221.594 489.336H232.141C242.604 489.336 251.083 480.852 251.083 470.388V429.789H238.453L238.453 470.387ZM197.219 495.641V495.647C192.114 495.647 187.51 492.568 185.552 487.85C183.599 483.131 184.677 477.698 188.291 474.09C191.901 470.475 197.333 469.397 202.051 471.35C206.77 473.303 209.848 477.907 209.848 483.017C209.848 486.366 208.52 489.579 206.151 491.949C203.781 494.313 200.567 495.647 197.218 495.647L197.219 495.641Z" fill="white"/>
<path d="M88.7999 275.08C82.4666 275.059 76.352 277.419 71.6746 281.695C66.9975 285.971 64.1016 291.846 63.5548 298.159C63.0079 304.471 64.8517 310.757 68.7267 315.773C72.5964 320.789 78.2111 324.164 84.456 325.232C90.7008 326.305 97.1175 324.987 102.44 321.544C107.758 318.101 111.591 312.789 113.174 306.653H170.888V294.023H113.174C111.779 288.617 108.627 283.82 104.216 280.393C99.8046 276.965 94.3827 275.096 88.8 275.08H88.7999ZM88.7999 312.965C83.6906 312.965 79.0863 309.887 77.1332 305.168C75.1802 300.45 76.2582 295.017 79.8728 291.408C83.4821 287.794 88.9144 286.716 93.6328 288.669C98.3516 290.627 101.43 295.231 101.43 300.335C101.43 303.684 100.096 306.898 97.7319 309.268C95.3622 311.637 92.1485 312.966 88.7996 312.966L88.7999 312.965Z" fill="white"/>
<path d="M111.347 368.533V379.08C103.341 381.143 96.8573 386.997 93.9826 394.752C91.1077 402.502 92.2066 411.168 96.9305 417.96C101.649 424.747 109.394 428.794 117.665 428.794C125.931 428.794 133.676 424.747 138.394 417.96C143.118 411.168 144.217 402.502 141.342 394.752C138.467 386.997 131.983 381.143 123.978 379.08V368.533C123.978 365.044 126.806 362.221 130.291 362.221H170.895V349.59H130.291C119.832 349.59 111.348 358.07 111.348 368.533L111.347 368.533ZM130.289 403.451C130.289 408.56 127.216 413.164 122.492 415.117C117.774 417.076 112.346 415.992 108.732 412.383C105.123 408.768 104.04 403.336 105.993 398.618C107.951 393.899 112.555 390.826 117.665 390.826C121.014 390.826 124.222 392.154 126.592 394.524C128.961 396.888 130.29 400.102 130.29 403.451L130.289 403.451Z" fill="white"/>
<path d="M123.973 232.147V221.6C131.978 219.532 138.462 213.678 141.337 205.928C144.212 198.178 143.113 189.506 138.389 182.72C133.67 175.933 125.926 171.886 117.66 171.886C109.389 171.886 101.644 175.933 96.9252 182.72C92.2012 189.506 91.1023 198.178 93.9773 205.928C96.8524 213.677 103.337 219.532 111.341 221.6V232.147C111.341 242.61 119.826 251.089 130.284 251.089H170.888V238.459H130.284C126.8 238.459 123.971 235.631 123.971 232.146L123.973 232.147ZM105.03 197.229V197.224C105.03 192.12 108.109 187.516 112.827 185.557C117.546 183.604 122.978 184.682 126.587 188.297C130.202 191.906 131.28 197.339 129.327 202.057C127.369 206.776 122.764 209.854 117.66 209.854C110.681 209.854 105.03 204.203 105.03 197.224L105.03 197.229Z" fill="white"/>
<path d="M294.027 113.173V170.887H306.657V113.173C314.662 111.106 321.146 105.251 324.021 97.5013C326.896 89.7461 325.797 81.08 321.073 74.2933C316.354 67.5069 308.61 63.46 300.339 63.46C292.073 63.46 284.328 67.5069 279.604 74.2933C274.885 81.0797 273.786 89.7466 276.661 97.5013C279.536 105.251 286.021 111.105 294.025 113.173H294.027ZM300.339 76.1733V76.1681C305.449 76.1681 310.053 79.2462 312.011 83.965C313.964 88.6838 312.881 94.1161 309.272 97.7303C305.657 101.34 300.23 102.423 295.506 100.465C290.787 98.5117 287.715 93.9074 287.715 88.7981C287.715 81.8241 293.366 76.1678 300.34 76.1678L300.339 76.1733Z" fill="white"/>
<path d="M197.213 142.92C202.802 142.904 208.224 141.035 212.635 137.607C217.041 134.18 220.192 129.383 221.588 123.977H232.135C233.807 123.977 235.416 124.643 236.598 125.826C237.781 127.008 238.447 128.617 238.447 130.289V170.893H251.077V130.289C251.077 119.831 242.598 111.347 232.135 111.347H221.588C220.004 105.211 216.171 99.8988 210.853 96.456C205.536 93.0133 199.114 91.6956 192.869 92.7685C186.625 93.8362 181.01 97.2112 177.14 102.227C173.27 107.243 171.421 113.529 171.968 119.842C172.515 126.154 175.416 132.029 180.093 136.306C184.765 140.582 190.88 142.941 197.213 142.92V142.92ZM197.213 105.035C202.323 105.035 206.927 108.113 208.885 112.832C210.838 117.55 209.755 122.983 206.146 126.592C202.531 130.206 197.104 131.284 192.38 129.331C187.661 127.373 184.589 122.769 184.589 117.665C184.589 110.685 190.24 105.034 197.214 105.034L197.213 105.035Z" fill="white"/>
<path d="M403.453 92.3999C397.87 92.4208 392.448 94.2854 388.037 97.7177C383.626 101.145 380.48 105.936 379.084 111.343H368.537C358.074 111.343 349.595 119.827 349.595 130.286V170.89H362.225V130.286C362.225 126.801 365.048 123.973 368.538 123.973H379.084C380.668 130.109 384.496 135.421 389.819 138.864C395.137 142.306 401.553 143.624 407.798 142.551C414.042 141.484 419.657 138.109 423.532 133.093C427.402 128.077 429.246 121.791 428.699 115.478C428.152 109.166 425.256 103.291 420.579 99.0142C415.902 94.7434 409.793 92.3787 403.454 92.3997L403.453 92.3999ZM403.453 130.285C398.349 130.285 393.74 127.212 391.787 122.488C389.834 117.77 390.912 112.342 394.526 108.728C398.136 105.119 403.568 104.036 408.286 105.989C413.005 107.947 416.083 112.551 416.083 117.661C416.083 121.01 414.755 124.218 412.385 126.588C410.016 128.957 406.802 130.286 403.453 130.286L403.453 130.285Z" fill="white"/>
<path d="M511.867 275.08C506.278 275.096 500.856 276.965 496.445 280.393C492.039 283.82 488.888 288.617 487.492 294.023H429.779V306.653H487.492C489.075 312.789 492.909 318.101 498.227 321.544C503.544 324.987 509.966 326.305 516.211 325.232C522.455 324.164 528.07 320.789 531.94 315.773C535.81 310.758 537.659 304.471 537.112 298.159C536.565 291.846 533.664 285.971 528.987 281.695C524.315 277.419 518.2 275.059 511.867 275.08H511.867ZM511.867 312.965C506.757 312.965 502.153 309.887 500.2 305.168C498.242 300.45 499.325 295.017 502.934 291.408C506.549 287.794 511.981 286.716 516.7 288.669C521.418 290.627 524.491 295.231 524.491 300.335C524.491 303.684 523.163 306.898 520.794 309.268C518.424 311.637 515.215 312.966 511.866 312.966L511.867 312.965Z" fill="white"/>
<path d="M489.333 232.147V221.6C497.338 219.532 503.823 213.678 506.697 205.928C509.572 198.178 508.473 189.506 503.749 182.72C499.025 175.933 491.286 171.886 483.015 171.886C474.749 171.886 467.004 175.933 462.28 182.72C457.561 189.506 456.457 198.178 459.332 205.928C462.207 213.677 468.697 219.532 476.702 221.6V232.147C476.702 233.818 476.035 235.428 474.853 236.61C473.665 237.793 472.061 238.459 470.384 238.459H429.785V251.089H470.389H470.384C480.848 251.089 489.332 242.61 489.332 232.147L489.333 232.147ZM470.391 197.229L470.385 197.224C470.385 192.12 473.464 187.516 478.182 185.557C482.901 183.604 488.333 184.682 491.948 188.297C495.557 191.906 496.64 197.339 494.682 202.057C492.729 206.776 488.125 209.854 483.015 209.854C476.041 209.854 470.385 204.203 470.385 197.224L470.391 197.229Z" fill="white"/>
<path d="M489.333 379.08V368.533C489.333 358.069 480.849 349.59 470.385 349.59H429.787V362.221H470.391H470.385C472.062 362.221 473.667 362.882 474.854 364.069C476.037 365.252 476.703 366.856 476.703 368.533V379.08C468.698 381.143 462.208 386.997 459.334 394.752C456.459 402.502 457.563 411.168 462.282 417.96C467.006 424.746 474.75 428.793 483.016 428.793C491.287 428.793 499.027 424.746 503.751 417.96C508.475 411.168 509.574 402.501 506.699 394.752C503.824 386.997 497.34 381.143 489.335 379.08L489.333 379.08ZM483.021 416.08H483.016C477.906 416.08 473.302 413.002 471.349 408.283C469.396 403.564 470.474 398.132 474.089 394.523C477.698 390.908 483.13 389.83 487.849 391.783C492.567 393.736 495.645 398.346 495.645 403.45C495.645 406.799 494.312 410.013 491.948 412.382C489.578 414.752 486.364 416.08 483.015 416.08L483.021 416.08Z" fill="white"/>
</g>
<defs>
<filter id="filter0_d_16_1615" x="38.4604" y="48.46" width="513.746" height="513.747" filterUnits="userSpaceOnUse" color-interpolation-filters="sRGB">
<feFlood flood-opacity="0" result="BackgroundImageFix"/>
<feColorMatrix in="SourceAlpha" type="matrix" values="0 0 0 0 0 0 0 0 0 0 0 0 0 0 0 0 0 0 127 0" result="hardAlpha"/>
<feOffset dx="-5" dy="5"/>
<feGaussianBlur stdDeviation="10"/>
<feComposite in2="hardAlpha" operator="out"/>
<feColorMatrix type="matrix" values="0 0 0 0 0 0 0 0 0 0 0 0 0 0 0 0 0 0 0.4 0"/>
<feBlend mode="normal" in2="BackgroundImageFix" result="effect1_dropShadow_16_1615"/>
<feBlend mode="normal" in="SourceGraphic" in2="effect1_dropShadow_16_1615" result="shape"/>
</filter>
</defs>
</svg>
