<svg width="16" height="12" viewBox="0 0 16 12" fill="none" xmlns="http://www.w3.org/2000/svg">
<g clip-path="url(#clip0_204_1992)">
<path d="M3.17626 9.15875C3.26866 9.06635 3.3957 9.01245 3.53045 9.01245H15.7499C15.9732 9.01245 16.0848 9.28194 15.927 9.43978L13.5131 11.8536C13.4207 11.946 13.2937 11.9999 13.1589 11.9999H0.939493C0.716202 11.9999 0.604556 11.7304 0.7624 11.5726L3.17626 9.15875Z" fill="#1C1C1E"/>
<path d="M3.17626 0.146295C3.27251 0.053898 3.39955 0 3.53045 0H15.7499C15.9732 0 16.0848 0.26949 15.927 0.427334L13.5131 2.84119C13.4207 2.93359 13.2937 2.98749 13.1589 2.98749H0.939493C0.716202 2.98749 0.604556 2.718 0.7624 2.56015L3.17626 0.146295Z" fill="#1C1C1E"/>
<path d="M13.5131 4.62359C13.4207 4.53119 13.2937 4.47729 13.1589 4.47729H0.939493C0.716202 4.47729 0.604556 4.74678 0.7624 4.90463L3.17626 7.31849C3.26866 7.41088 3.3957 7.46478 3.53045 7.46478H15.7499C15.9732 7.46478 16.0848 7.19529 15.927 7.03745L13.5131 4.62359Z" fill="#1C1C1E"/>
</g>
<defs>
<clipPath id="clip0_204_1992">
<rect width="15.3109" height="12" fill="white" transform="translate(0.688965)"/>
</clipPath>
</defs>
</svg>
